<svg width="801" height="248" viewBox="0 0 801 248" fill="none" xmlns="http://www.w3.org/2000/svg">
<foreignObject x="344.114" y="-46.92" width="503.305" height="341.6"><div xmlns="http://www.w3.org/1999/xhtml" style="backdrop-filter:blur(23.71px);clip-path:url(#bgblur_1_2205_5215_clip_path);height:100%;width:100%"></div></foreignObject><g filter="url(#filter0_ii_2205_5215)" data-figma-bg-blur-radius="47.4181">
<g clip-path="url(#clip0_2205_5215)">
<path d="M391.532 14.7235C391.532 6.86704 397.901 0.498108 405.757 0.498108H785.775C793.631 0.498108 800 6.86704 800 14.7235V233.036C800 240.893 793.631 247.262 785.775 247.262H405.757C397.901 247.262 391.532 240.893 391.532 233.036V14.7235Z" fill="#070707" fill-opacity="0.8"/>
<path d="M391.532 14.7235C391.532 6.86704 397.901 0.498108 405.757 0.498108H785.775C793.631 0.498108 800 6.86704 800 14.7235V233.036C800 240.893 793.631 247.262 785.775 247.262H405.757C397.901 247.262 391.532 240.893 391.532 233.036V14.7235Z" fill="url(#paint0_radial_2205_5215)" fill-opacity="0.1"/>
<g opacity="0.1">
<path opacity="0.4" d="M699.829 226.969C698.959 225.509 699.56 223.616 701.113 222.925L742.673 204.428C743.505 204.058 744.463 204.109 745.25 204.565L769.114 218.405C769.897 218.859 770.416 219.66 770.512 220.56L775.35 266.125C775.529 267.81 774.2 269.275 772.506 269.261L746.424 269.046C744.713 269.032 743.404 267.518 743.637 265.823L747.731 236.041C747.888 234.897 747.337 233.772 746.336 233.196L744.056 231.884C743.055 231.307 741.803 231.396 740.893 232.108L717.508 250.404C716.162 251.457 714.197 251.09 713.322 249.622L699.829 226.969Z" fill="white"/>
<path opacity="0.4" d="M774.454 217.829L811.181 244.845C812.558 245.857 814.51 245.432 815.341 243.939L828.191 220.857C829.02 219.367 828.357 217.487 826.776 216.847L799.038 205.625C797.966 205.192 797.265 204.151 797.265 202.995V200.368C797.265 199.22 797.957 198.184 799.019 197.746L826.794 186.28C828.367 185.631 829.018 183.752 828.184 182.268L815.346 159.421C814.511 157.936 812.564 157.516 811.192 158.526L774.454 185.55C773.727 186.084 773.298 186.933 773.298 187.835V215.544C773.298 216.446 773.727 217.294 774.454 217.829Z" fill="white"/>
<path d="M770.512 182.556L775.347 137.017C775.527 135.323 774.183 133.853 772.479 133.881L746.397 134.312C744.696 134.34 743.402 135.849 743.634 137.535L747.731 167.343C747.888 168.487 747.337 169.612 746.336 170.188L744.048 171.505C743.05 172.079 741.805 171.994 740.895 171.289L717.246 152.965C715.897 151.919 713.936 152.293 713.067 153.762L699.817 176.15C698.953 177.61 699.555 179.497 701.105 180.187L742.673 198.688C743.505 199.058 744.463 199.007 745.25 198.551L769.114 184.711C769.897 184.257 770.416 183.456 770.512 182.556Z" fill="white"/>
</g>
<g filter="url(#filter1_f_2205_5215)">
<ellipse cx="49.7596" cy="79.3168" rx="49.7596" ry="79.3168" transform="matrix(-0.979388 0.208686 -0.075227 -0.996108 476.199 454.959)" fill="white"/>
</g>
<g filter="url(#filter2_f_2205_5215)">
<ellipse cx="49.7596" cy="79.3168" rx="49.7596" ry="79.3168" transform="matrix(-0.979388 0.208686 -0.075227 -0.996108 467.899 454.967)" fill="white"/>
</g>
<g filter="url(#filter3_f_2205_5215)">
<ellipse cx="72.4346" cy="186.347" rx="72.4346" ry="186.347" transform="matrix(-0.463105 -0.885794 0.854013 -0.522203 481.363 434.798)" fill="#CFD0DA"/>
</g>
<g opacity="0.1">
<path d="M756.848 15.9755C754.349 15.9755 751.874 16.4678 749.565 17.4242C747.256 18.3807 745.158 19.7825 743.39 21.5498C741.623 23.3171 740.221 25.4152 739.265 27.7242C738.308 30.0333 737.816 32.5081 737.816 35.0074C737.816 37.5067 738.308 39.9816 739.265 42.2906C740.221 44.5997 741.623 46.6977 743.39 48.465C745.158 50.2323 747.256 51.6342 749.565 52.5906C751.874 53.5471 754.349 54.0393 756.848 54.0393L756.848 35.0074V15.9755Z" fill="#D9D9D9"/>
<path d="M775.88 15.9755C773.38 15.9755 770.906 16.4678 768.597 17.4242C766.287 18.3807 764.189 19.7825 762.422 21.5498C760.655 23.3171 759.253 25.4152 758.297 27.7242C757.34 30.0333 756.848 32.5081 756.848 35.0074C756.848 37.5067 757.34 39.9816 758.297 42.2906C759.253 44.5997 760.655 46.6977 762.422 48.465C764.189 50.2323 766.287 51.6342 768.597 52.5906C770.906 53.5471 773.38 54.0393 775.88 54.0393V15.9755Z" fill="#D9D9D9"/>
</g>
<g opacity="0.4">
<g filter="url(#filter4_i_2205_5215)">
<rect x="375.068" y="83.4751" width="54.225" height="37.1758" rx="6.63853" fill="url(#paint1_linear_2205_5215)"/>
</g>
<path d="M375.011 96.3424H393.45C394.617 92.906 397.9 85.8252 401.691 84.9929C403.099 85.4658 406.388 87.1682 408.284 90.1947M375.011 108.259H393.45C393.45 114.161 398.944 118.474 401.691 119.893C406.306 118.455 409.863 111.538 411.065 108.259H429.298M429.298 99.1798H411.065C410.241 97.698 409.087 94.2806 411.065 92.4646" stroke="url(#paint2_linear_2205_5215)" stroke-width="0.569017"/>
<path d="M446.713 98.9545C447.373 100.093 448.296 102.9 446.713 105.024M451.067 96.7733C452.056 98.5752 453.442 103.184 451.067 107.205M454.926 94.4972C456.212 96.9314 458.013 103.279 454.926 109.197M459.082 92.6953C460.731 95.572 463.04 103.26 459.082 110.999" stroke="white" stroke-width="2.08639" stroke-linecap="round" stroke-linejoin="round"/>
</g>
<path opacity="0.8" d="M361.559 219.542V207.287H366.733C367.607 207.287 368.367 207.434 369.014 207.729C369.661 208.025 370.155 208.439 370.495 208.972C370.847 209.505 371.023 210.129 371.023 210.844C371.023 211.548 370.847 212.166 370.495 212.7C370.155 213.233 369.661 213.647 369.014 213.942C368.367 214.237 367.607 214.385 366.733 214.385H363.295V212.7H366.665C367.38 212.7 367.925 212.535 368.299 212.206C368.685 211.877 368.878 211.423 368.878 210.844C368.878 210.266 368.691 209.823 368.316 209.517C367.942 209.199 367.391 209.04 366.665 209.04H363.772V219.542H361.559ZM368.572 219.542L363.108 213.278H365.593L371.635 219.542H368.572ZM378.092 219.712C377.207 219.712 376.39 219.559 375.641 219.253C374.892 218.946 374.239 218.509 373.683 217.942C373.139 217.375 372.713 216.705 372.407 215.934C372.112 215.151 371.964 214.294 371.964 213.363C371.964 212.127 372.225 211.043 372.747 210.112C373.269 209.171 373.99 208.439 374.909 207.917C375.839 207.383 376.895 207.117 378.075 207.117C379.278 207.117 380.339 207.383 381.258 207.917C382.188 208.439 382.914 209.171 383.436 210.112C383.958 211.054 384.219 212.144 384.219 213.38C384.219 214.311 384.066 215.162 383.76 215.934C383.465 216.705 383.039 217.375 382.483 217.942C381.939 218.509 381.292 218.946 380.543 219.253C379.794 219.559 378.977 219.712 378.092 219.712ZM378.075 217.908C378.846 217.908 379.522 217.715 380.1 217.329C380.69 216.944 381.15 216.41 381.479 215.729C381.808 215.037 381.973 214.243 381.973 213.346C381.973 212.461 381.808 211.69 381.479 211.032C381.161 210.362 380.707 209.846 380.117 209.483C379.539 209.108 378.858 208.921 378.075 208.921C377.303 208.921 376.622 209.108 376.032 209.483C375.454 209.846 375.005 210.356 374.688 211.015C374.37 211.673 374.211 212.45 374.211 213.346C374.211 214.254 374.37 215.049 374.688 215.729C375.017 216.41 375.471 216.944 376.049 217.329C376.639 217.715 377.315 217.908 378.075 217.908ZM387.299 219.542V217.908H390.72C391.345 217.908 391.827 217.738 392.167 217.397C392.508 217.046 392.678 216.569 392.678 215.968C392.678 215.344 392.496 214.85 392.133 214.487C391.77 214.124 391.265 213.942 390.618 213.942H387.299V212.308H390.465C391.078 212.308 391.549 212.161 391.878 211.866C392.207 211.571 392.372 211.145 392.372 210.589C392.372 210.044 392.213 209.63 391.895 209.346C391.589 209.063 391.135 208.921 390.533 208.921H387.299V207.287H390.942C392.042 207.287 392.922 207.565 393.58 208.121C394.249 208.666 394.584 209.409 394.584 210.351C394.584 210.941 394.442 211.457 394.159 211.9C393.886 212.331 393.518 212.666 393.052 212.904C392.587 213.142 392.059 213.261 391.469 213.261L391.554 212.904C392.179 212.904 392.746 213.046 393.257 213.329C393.767 213.602 394.17 213.988 394.465 214.487C394.771 214.986 394.925 215.565 394.925 216.223C394.925 216.892 394.766 217.477 394.448 217.976C394.142 218.475 393.705 218.861 393.137 219.134C392.581 219.406 391.923 219.542 391.163 219.542H387.299ZM385.563 219.542V207.287H387.776V219.542H385.563ZM397.896 219.542V217.908H401.317C401.941 217.908 402.424 217.738 402.764 217.397C403.105 217.046 403.275 216.569 403.275 215.968C403.275 215.344 403.093 214.85 402.73 214.487C402.367 214.124 401.862 213.942 401.215 213.942H397.896V212.308H401.062C401.675 212.308 402.146 212.161 402.475 211.866C402.804 211.571 402.968 211.145 402.968 210.589C402.968 210.044 402.81 209.63 402.492 209.346C402.185 209.063 401.732 208.921 401.13 208.921H397.896V207.287H401.539C402.639 207.287 403.519 207.565 404.177 208.121C404.846 208.666 405.181 209.409 405.181 210.351C405.181 210.941 405.039 211.457 404.756 211.9C404.483 212.331 404.115 212.666 403.649 212.904C403.184 213.142 402.656 213.261 402.066 213.261L402.151 212.904C402.776 212.904 403.343 213.046 403.854 213.329C404.364 213.602 404.767 213.988 405.062 214.487C405.368 214.986 405.522 215.565 405.522 216.223C405.522 216.892 405.363 217.477 405.045 217.976C404.739 218.475 404.302 218.861 403.734 219.134C403.178 219.406 402.52 219.542 401.76 219.542H397.896ZM396.16 219.542V207.287H398.373V219.542H396.16ZM406.79 219.542V207.287H409.003V219.542H406.79ZM407.845 219.542V217.789H415.607V219.542H407.845ZM407.845 214.095V212.376H415.011V214.095H407.845ZM407.845 209.04V207.287H415.42V209.04H407.845ZM416.854 219.542V207.287H422.028C422.902 207.287 423.662 207.434 424.309 207.729C424.956 208.025 425.45 208.439 425.79 208.972C426.142 209.505 426.318 210.129 426.318 210.844C426.318 211.548 426.142 212.166 425.79 212.7C425.45 213.233 424.956 213.647 424.309 213.942C423.662 214.237 422.902 214.385 422.028 214.385H418.59V212.7H421.96C422.675 212.7 423.22 212.535 423.594 212.206C423.98 211.877 424.173 211.423 424.173 210.844C424.173 210.266 423.986 209.823 423.611 209.517C423.237 209.199 422.687 209.04 421.96 209.04H419.067V219.542H416.854ZM423.867 219.542L418.403 213.278H420.888L426.93 219.542H423.867ZM430.875 219.542V209.04H426.807V207.287H437.156V209.04H433.088V219.542H430.875ZM441.299 219.542V207.287H446.797C447.693 207.287 448.459 207.44 449.095 207.747C449.741 208.053 450.235 208.484 450.575 209.04C450.927 209.596 451.103 210.254 451.103 211.015C451.103 211.763 450.927 212.422 450.575 212.989C450.224 213.556 449.73 213.999 449.095 214.317C448.459 214.623 447.693 214.776 446.797 214.776H443.018V213.04H446.695C447.398 213.04 447.937 212.858 448.312 212.495C448.697 212.132 448.89 211.639 448.89 211.015C448.89 210.402 448.697 209.92 448.312 209.568C447.937 209.216 447.398 209.04 446.695 209.04H443.512V219.542H441.299ZM450.336 219.542L454.847 207.287H456.753L452.515 219.542H450.336ZM459.579 219.542L455.358 207.287H457.366L461.86 219.542H459.579ZM452.668 214.725H459.375V216.495H452.668V214.725ZM462.758 219.542V207.287H467.932C468.806 207.287 469.566 207.434 470.213 207.729C470.86 208.025 471.353 208.439 471.694 208.972C472.045 209.505 472.221 210.129 472.221 210.844C472.221 211.548 472.045 212.166 471.694 212.7C471.353 213.233 470.86 213.647 470.213 213.942C469.566 214.237 468.806 214.385 467.932 214.385H464.494V212.7H467.864C468.579 212.7 469.123 212.535 469.498 212.206C469.884 211.877 470.077 211.423 470.077 210.844C470.077 210.266 469.889 209.823 469.515 209.517C469.14 209.199 468.59 209.04 467.864 209.04H464.97V219.542H462.758ZM469.77 219.542L464.306 213.278H466.792L472.834 219.542H469.77ZM476.778 219.542V209.04H472.71V207.287H483.059V209.04H478.991V219.542H476.778ZM484.252 219.542V207.287H486.465V219.542H484.252ZM494.105 219.712C492.812 219.712 491.694 219.457 490.752 218.946C489.81 218.424 489.084 217.698 488.574 216.768C488.063 215.826 487.808 214.725 487.808 213.466C487.808 212.206 488.063 211.105 488.574 210.164C489.084 209.21 489.793 208.467 490.701 207.934C491.609 207.389 492.664 207.117 493.867 207.117C494.843 207.117 495.717 207.298 496.488 207.661C497.271 208.013 497.901 208.501 498.378 209.125C498.866 209.738 499.161 210.453 499.263 211.27H497.05C496.937 210.544 496.596 209.971 496.029 209.551C495.461 209.131 494.752 208.921 493.901 208.921C493.129 208.921 492.454 209.103 491.876 209.466C491.297 209.829 490.849 210.345 490.531 211.015C490.213 211.684 490.054 212.484 490.054 213.415C490.054 214.368 490.213 215.185 490.531 215.866C490.86 216.535 491.331 217.046 491.944 217.397C492.568 217.749 493.328 217.925 494.225 217.925C494.917 217.925 495.512 217.84 496.012 217.67C496.511 217.488 496.914 217.222 497.22 216.87L499.348 217.704C498.701 218.362 497.952 218.861 497.101 219.202C496.25 219.542 495.251 219.712 494.105 219.712ZM497.135 217.704V214.129L497.663 214.657H494.207V212.921H499.348V217.704H497.135ZM506.593 219.712C505.708 219.712 504.891 219.559 504.142 219.253C503.393 218.946 502.741 218.509 502.185 217.942C501.64 217.375 501.215 216.705 500.908 215.934C500.613 215.151 500.466 214.294 500.466 213.363C500.466 212.127 500.727 211.043 501.249 210.112C501.771 209.171 502.491 208.439 503.41 207.917C504.341 207.383 505.396 207.117 506.576 207.117C507.779 207.117 508.84 207.383 509.759 207.917C510.69 208.439 511.416 209.171 511.938 210.112C512.46 211.054 512.721 212.144 512.721 213.38C512.721 214.311 512.568 215.162 512.261 215.934C511.966 216.705 511.541 217.375 510.985 217.942C510.44 218.509 509.793 218.946 509.044 219.253C508.295 219.559 507.478 219.712 506.593 219.712ZM506.576 217.908C507.348 217.908 508.023 217.715 508.602 217.329C509.192 216.944 509.651 216.41 509.98 215.729C510.309 215.037 510.474 214.243 510.474 213.346C510.474 212.461 510.309 211.69 509.98 211.032C509.663 210.362 509.209 209.846 508.619 209.483C508.04 209.108 507.359 208.921 506.576 208.921C505.805 208.921 505.124 209.108 504.534 209.483C503.955 209.846 503.507 210.356 503.189 211.015C502.871 211.673 502.712 212.45 502.712 213.346C502.712 214.254 502.871 215.049 503.189 215.729C503.518 216.41 503.972 216.944 504.551 217.329C505.141 217.715 505.816 217.908 506.576 217.908Z" fill="url(#paint3_linear_2205_5215)"/>
</g>
</g>
<foreignObject x="-47.4181" y="-46.92" width="503.305" height="341.6"><div xmlns="http://www.w3.org/1999/xhtml" style="backdrop-filter:blur(23.71px);clip-path:url(#bgblur_3_2205_5215_clip_path);height:100%;width:100%"></div></foreignObject><g filter="url(#filter5_ii_2205_5215)" data-figma-bg-blur-radius="47.4181">
<g clip-path="url(#clip2_2205_5215)">
<path d="M0 14.7235C0 6.86704 6.36894 0.498108 14.2254 0.498108H394.243C402.1 0.498108 408.469 6.86704 408.469 14.7235V233.036C408.469 240.893 402.1 247.262 394.243 247.262H14.2254C6.36891 247.262 0 240.893 0 233.036V14.7235Z" fill="#070707" fill-opacity="0.8"/>
<path d="M0 14.7235C0 6.86704 6.36894 0.498108 14.2254 0.498108H394.243C402.1 0.498108 408.469 6.86704 408.469 14.7235V233.036C408.469 240.893 402.1 247.262 394.243 247.262H14.2254C6.36891 247.262 0 240.893 0 233.036V14.7235Z" fill="url(#paint4_radial_2205_5215)" fill-opacity="0.1"/>
<g opacity="0.1">
<path opacity="0.4" d="M278.934 226.969C278.064 225.509 278.665 223.616 280.218 222.925L321.778 204.428C322.61 204.058 323.568 204.109 324.355 204.565L348.219 218.405C349.002 218.859 349.521 219.66 349.617 220.56L354.455 266.125C354.634 267.81 353.305 269.275 351.61 269.261L325.529 269.046C323.818 269.032 322.509 267.518 322.742 265.823L326.836 236.041C326.993 234.897 326.442 233.772 325.441 233.196L323.161 231.884C322.16 231.307 320.908 231.396 319.998 232.108L296.613 250.404C295.267 251.457 293.302 251.09 292.427 249.622L278.934 226.969Z" fill="white"/>
<path opacity="0.4" d="M353.557 217.829L390.284 244.845C391.66 245.857 393.612 245.432 394.444 243.939L407.293 220.857C408.123 219.367 407.46 217.487 405.879 216.847L378.14 205.625C377.069 205.192 376.367 204.151 376.367 202.995V200.368C376.367 199.22 377.06 198.184 378.122 197.746L405.896 186.28C407.469 185.631 408.121 183.752 407.287 182.268L394.448 159.421C393.614 157.936 391.667 157.516 390.294 158.526L353.557 185.55C352.83 186.084 352.401 186.933 352.401 187.835V215.544C352.401 216.446 352.83 217.294 353.557 217.829Z" fill="white"/>
<path d="M349.617 182.556L354.452 137.017C354.632 135.323 353.288 133.853 351.584 133.881L325.502 134.312C323.801 134.34 322.507 135.849 322.739 137.535L326.836 167.343C326.993 168.487 326.442 169.612 325.441 170.188L323.153 171.505C322.155 172.079 320.91 171.994 320 171.289L296.351 152.965C295.002 151.919 293.041 152.293 292.172 153.762L278.922 176.15C278.058 177.61 278.66 179.497 280.21 180.187L321.778 198.688C322.61 199.058 323.568 199.007 324.355 198.551L348.219 184.711C349.002 184.257 349.521 183.456 349.617 182.556Z" fill="white"/>
</g>
<g filter="url(#filter6_f_2205_5215)">
<ellipse cx="49.7596" cy="79.3168" rx="49.7596" ry="79.3168" transform="matrix(-0.979388 0.208686 -0.075227 -0.996108 76.373 454.959)" fill="white"/>
</g>
<g filter="url(#filter7_f_2205_5215)">
<ellipse cx="49.7596" cy="79.3168" rx="49.7596" ry="79.3168" transform="matrix(-0.979388 0.208686 -0.075227 -0.996108 76.3672 454.967)" fill="white"/>
</g>
<g filter="url(#filter8_f_2205_5215)">
<ellipse cx="72.4346" cy="186.347" rx="72.4346" ry="186.347" transform="matrix(-0.463105 -0.885794 0.854013 -0.522203 95.377 434.798)" fill="#CFD0DA"/>
</g>
<g opacity="0.5">
<path d="M360.654 22.8291C357.109 25.5693 354.805 29.8053 354.805 34.5708C354.805 39.3364 357.109 43.6121 360.654 46.3126L360.695 46.3126C364.28 43.5724 366.544 39.3496 366.544 34.5708C366.544 29.8053 364.24 25.5693 360.695 22.8291L360.654 22.8291Z" fill="white"/>
<path d="M355.029 34.5708C355.029 29.8373 357.25 25.6297 360.668 22.908C358.157 20.9357 354.989 19.7391 351.519 19.7391C343.329 19.7391 336.69 26.3661 336.69 34.5708C336.69 42.7625 343.316 49.4025 351.519 49.4025C354.976 49.4025 358.144 48.206 360.668 46.2337C357.25 43.5514 355.029 39.3044 355.029 34.5708Z" fill="#606165"/>
<path d="M384.685 34.5708C384.685 42.7625 378.06 49.4025 369.857 49.4025C366.4 49.4025 363.231 48.206 360.707 46.2337C364.165 43.5119 366.347 39.3175 366.347 34.5708C366.347 29.8373 364.125 25.6297 360.707 22.908C363.218 20.9357 366.386 19.7391 369.857 19.7391C378.06 19.7391 384.685 26.4055 384.685 34.5708Z" fill="#606165"/>
</g>
<g opacity="0.4">
<g filter="url(#filter9_i_2205_5215)">
<rect x="29.6572" y="83.4747" width="54.225" height="37.1758" rx="6.63853" fill="url(#paint5_linear_2205_5215)"/>
</g>
<path d="M29.5981 96.3417H48.0373C49.2048 92.9053 52.4874 85.8245 56.2783 84.9922C57.6861 85.4651 60.9756 87.1675 62.8711 90.1941M29.5981 108.259H48.0373C48.0373 114.16 53.5313 118.473 56.2783 119.892C60.8932 118.454 64.4506 111.537 65.6524 108.259H83.8855M83.8855 99.1791H65.6524C64.8283 97.6973 63.6746 94.2799 65.6524 92.464" stroke="url(#paint6_linear_2205_5215)" stroke-width="0.569017"/>
<path d="M101.302 98.9543C101.962 100.092 102.885 102.9 101.302 105.024M105.656 96.7731C106.646 98.575 108.031 103.184 105.656 107.205M109.515 94.497C110.802 96.9312 112.602 103.279 109.515 109.197M113.671 92.6952C115.32 95.5719 117.629 103.26 113.671 110.999" stroke="white" stroke-width="2.08639" stroke-linecap="round" stroke-linejoin="round"/>
</g>
<path opacity="0.8" d="M30.6024 219.542V207.287H35.7768C36.6505 207.287 37.4108 207.434 38.0576 207.729C38.7044 208.025 39.198 208.439 39.5384 208.972C39.8902 209.505 40.0661 210.129 40.0661 210.844C40.0661 211.548 39.8902 212.166 39.5384 212.7C39.198 213.233 38.7044 213.647 38.0576 213.942C37.4108 214.237 36.6505 214.385 35.7768 214.385H32.3385V212.7H35.7087C36.4236 212.7 36.9682 212.535 37.3427 212.206C37.7285 211.877 37.9214 211.423 37.9214 210.844C37.9214 210.266 37.7342 209.823 37.3597 209.517C36.9853 209.199 36.4349 209.04 35.7087 209.04H32.8151V219.542H30.6024ZM37.615 219.542L32.1513 213.278H34.6364L40.6788 219.542H37.615ZM47.1353 219.712C46.2502 219.712 45.4331 219.559 44.6842 219.253C43.9353 218.946 43.2828 218.509 42.7268 217.942C42.1821 217.375 41.7566 216.705 41.4502 215.934C41.1552 215.151 41.0077 214.294 41.0077 213.363C41.0077 212.127 41.2687 211.043 41.7906 210.112C42.3126 209.171 43.0332 208.439 43.9523 207.917C44.8828 207.383 45.9381 207.117 47.1182 207.117C48.321 207.117 49.382 207.383 50.3012 207.917C51.2316 208.439 51.9579 209.171 52.4799 210.112C53.0018 211.054 53.2628 212.144 53.2628 213.38C53.2628 214.311 53.1096 215.162 52.8033 215.934C52.5082 216.705 52.0827 217.375 51.5267 217.942C50.982 218.509 50.3352 218.946 49.5863 219.253C48.8374 219.559 48.0203 219.712 47.1353 219.712ZM47.1182 217.908C47.8898 217.908 48.565 217.715 49.1437 217.329C49.7338 216.944 50.1934 216.41 50.5224 215.729C50.8515 215.037 51.016 214.243 51.016 213.346C51.016 212.461 50.8515 211.69 50.5224 211.032C50.2047 210.362 49.7508 209.846 49.1608 209.483C48.582 209.108 47.9012 208.921 47.1182 208.921C46.3466 208.921 45.6658 209.108 45.0757 209.483C44.497 209.846 44.0488 210.356 43.731 211.015C43.4133 211.673 43.2545 212.45 43.2545 213.346C43.2545 214.254 43.4133 215.049 43.731 215.729C44.0601 216.41 44.514 216.944 45.0927 217.329C45.6828 217.715 46.358 217.908 47.1182 217.908ZM56.3427 219.542V217.908H59.7639C60.388 217.908 60.8703 217.738 61.2107 217.397C61.5511 217.046 61.7213 216.569 61.7213 215.968C61.7213 215.344 61.5398 214.85 61.1767 214.487C60.8135 214.124 60.3086 213.942 59.6618 213.942H56.3427V212.308H59.5086C60.1214 212.308 60.5923 212.161 60.9213 211.866C61.2504 211.571 61.415 211.145 61.415 210.589C61.415 210.044 61.2561 209.63 60.9384 209.346C60.632 209.063 60.1781 208.921 59.5767 208.921H56.3427V207.287H59.9852C61.0859 207.287 61.9653 207.565 62.6235 208.121C63.2929 208.666 63.6277 209.409 63.6277 210.351C63.6277 210.941 63.4858 211.457 63.2022 211.9C62.9298 212.331 62.561 212.666 62.0958 212.904C61.6306 213.142 61.1029 213.261 60.5128 213.261L60.5979 212.904C61.2221 212.904 61.7894 213.046 62.3001 213.329C62.8107 213.602 63.2135 213.988 63.5085 214.487C63.8149 214.986 63.9681 215.565 63.9681 216.223C63.9681 216.892 63.8092 217.477 63.4915 217.976C63.1851 218.475 62.7483 218.861 62.1809 219.134C61.6249 219.406 60.9667 219.542 60.2065 219.542H56.3427ZM54.6065 219.542V207.287H56.8193V219.542H54.6065ZM66.9396 219.542V217.908H70.3608C70.9849 217.908 71.4672 217.738 71.8076 217.397C72.148 217.046 72.3183 216.569 72.3183 215.968C72.3183 215.344 72.1367 214.85 71.7736 214.487C71.4105 214.124 70.9055 213.942 70.2587 213.942H66.9396V212.308H70.1055C70.7183 212.308 71.1892 212.161 71.5183 211.866C71.8473 211.571 72.0119 211.145 72.0119 210.589C72.0119 210.044 71.853 209.63 71.5353 209.346C71.2289 209.063 70.775 208.921 70.1736 208.921H66.9396V207.287H70.5821C71.6828 207.287 72.5622 207.565 73.2204 208.121C73.8899 208.666 74.2246 209.409 74.2246 210.351C74.2246 210.941 74.0828 211.457 73.7991 211.9C73.5267 212.331 73.158 212.666 72.6927 212.904C72.2275 213.142 71.6998 213.261 71.1098 213.261L71.1949 212.904C71.819 212.904 72.3863 213.046 72.897 213.329C73.4076 213.602 73.8104 213.988 74.1055 214.487C74.4118 214.986 74.565 215.565 74.565 216.223C74.565 216.892 74.4062 217.477 74.0884 217.976C73.7821 218.475 73.3452 218.861 72.7778 219.134C72.2218 219.406 71.5637 219.542 70.8034 219.542H66.9396ZM65.2035 219.542V207.287H67.4162V219.542H65.2035ZM75.8336 219.542V207.287H78.0464V219.542H75.8336ZM76.8889 219.542V217.789H84.6505V219.542H76.8889ZM76.8889 214.095V212.376H84.0548V214.095H76.8889ZM76.8889 209.04V207.287H84.4633V209.04H76.8889ZM85.8974 219.542V207.287H91.0718C91.9456 207.287 92.7058 207.434 93.3526 207.729C93.9994 208.025 94.4931 208.439 94.8335 208.972C95.1852 209.505 95.3611 210.129 95.3611 210.844C95.3611 211.548 95.1852 212.166 94.8335 212.7C94.4931 213.233 93.9994 213.647 93.3526 213.942C92.7058 214.237 91.9456 214.385 91.0718 214.385H87.6336V212.7H91.0037C91.7186 212.7 92.2633 212.535 92.6378 212.206C93.0236 211.877 93.2165 211.423 93.2165 210.844C93.2165 210.266 93.0292 209.823 92.6548 209.517C92.2803 209.199 91.73 209.04 91.0037 209.04H88.1102V219.542H85.8974ZM92.9101 219.542L87.4464 213.278H89.9314L95.9739 219.542H92.9101ZM99.9184 219.542V209.04H95.8503V207.287H106.199V209.04H102.131V219.542H99.9184ZM110.342 219.542V207.287H115.84C116.737 207.287 117.503 207.44 118.138 207.747C118.785 208.053 119.278 208.484 119.619 209.04C119.971 209.596 120.147 210.254 120.147 211.015C120.147 211.763 119.971 212.422 119.619 212.989C119.267 213.556 118.774 213.999 118.138 214.317C117.503 214.623 116.737 214.776 115.84 214.776H112.062V213.04H115.738C116.442 213.04 116.981 212.858 117.355 212.495C117.741 212.132 117.934 211.639 117.934 211.015C117.934 210.402 117.741 209.92 117.355 209.568C116.981 209.216 116.442 209.04 115.738 209.04H112.555V219.542H110.342ZM119.38 219.542L123.89 207.287H125.797L121.559 219.542H119.38ZM128.622 219.542L124.401 207.287H126.41L130.903 219.542H128.622ZM121.712 214.725H128.418V216.495H121.712V214.725ZM131.801 219.542V207.287H136.975C137.849 207.287 138.609 207.434 139.256 207.729C139.903 208.025 140.397 208.439 140.737 208.972C141.089 209.505 141.265 210.129 141.265 210.844C141.265 211.548 141.089 212.166 140.737 212.7C140.397 213.233 139.903 213.647 139.256 213.942C138.609 214.237 137.849 214.385 136.975 214.385H133.537V212.7H136.907C137.622 212.7 138.167 212.535 138.541 212.206C138.927 211.877 139.12 211.423 139.12 210.844C139.12 210.266 138.933 209.823 138.558 209.517C138.184 209.199 137.634 209.04 136.907 209.04H134.014V219.542H131.801ZM138.814 219.542L133.35 213.278H135.835L141.877 219.542H138.814ZM145.822 219.542V209.04H141.754V207.287H152.103V209.04H148.035V219.542H145.822ZM153.295 219.542V207.287H155.508V219.542H153.295ZM163.149 219.712C161.855 219.712 160.738 219.457 159.796 218.946C158.854 218.424 158.128 217.698 157.617 216.768C157.106 215.826 156.851 214.725 156.851 213.466C156.851 212.206 157.106 211.105 157.617 210.164C158.128 209.21 158.837 208.467 159.745 207.934C160.652 207.389 161.708 207.117 162.911 207.117C163.886 207.117 164.76 207.298 165.532 207.661C166.315 208.013 166.945 208.501 167.421 209.125C167.909 209.738 168.204 210.453 168.306 211.27H166.093C165.98 210.544 165.64 209.971 165.072 209.551C164.505 209.131 163.796 208.921 162.945 208.921C162.173 208.921 161.498 209.103 160.919 209.466C160.34 209.829 159.892 210.345 159.574 211.015C159.257 211.684 159.098 212.484 159.098 213.415C159.098 214.368 159.257 215.185 159.574 215.866C159.903 216.535 160.374 217.046 160.987 217.397C161.611 217.749 162.372 217.925 163.268 217.925C163.96 217.925 164.556 217.84 165.055 217.67C165.554 217.488 165.957 217.222 166.264 216.87L168.391 217.704C167.744 218.362 166.996 218.861 166.145 219.202C165.293 219.542 164.295 219.712 163.149 219.712ZM166.179 217.704V214.129L166.706 214.657H163.251V212.921H168.391V217.704H166.179ZM175.637 219.712C174.752 219.712 173.935 219.559 173.186 219.253C172.437 218.946 171.784 218.509 171.228 217.942C170.684 217.375 170.258 216.705 169.952 215.934C169.657 215.151 169.509 214.294 169.509 213.363C169.509 212.127 169.77 211.043 170.292 210.112C170.814 209.171 171.535 208.439 172.454 207.917C173.384 207.383 174.44 207.117 175.62 207.117C176.822 207.117 177.883 207.383 178.803 207.917C179.733 208.439 180.459 209.171 180.981 210.112C181.503 211.054 181.764 212.144 181.764 213.38C181.764 214.311 181.611 215.162 181.305 215.934C181.01 216.705 180.584 217.375 180.028 217.942C179.483 218.509 178.837 218.946 178.088 219.253C177.339 219.559 176.522 219.712 175.637 219.712ZM175.62 217.908C176.391 217.908 177.066 217.715 177.645 217.329C178.235 216.944 178.695 216.41 179.024 215.729C179.353 215.037 179.517 214.243 179.517 213.346C179.517 212.461 179.353 211.69 179.024 211.032C178.706 210.362 178.252 209.846 177.662 209.483C177.083 209.108 176.403 208.921 175.62 208.921C174.848 208.921 174.167 209.108 173.577 209.483C172.998 209.846 172.55 210.356 172.232 211.015C171.915 211.673 171.756 212.45 171.756 213.346C171.756 214.254 171.915 215.049 172.232 215.729C172.562 216.41 173.015 216.944 173.594 217.329C174.184 217.715 174.859 217.908 175.62 217.908Z" fill="url(#paint7_linear_2205_5215)"/>
</g>
</g>
<rect width="800.217" height="247.809" fill="url(#paint8_linear_2205_5215)"/>
<defs>
<filter id="filter0_ii_2205_5215" x="344.114" y="-46.92" width="503.305" height="341.6" filterUnits="userSpaceOnUse" color-interpolation-filters="sRGB">
<feFlood flood-opacity="0" result="BackgroundImageFix"/>
<feBlend mode="normal" in="SourceGraphic" in2="BackgroundImageFix" result="shape"/>
<feColorMatrix in="SourceAlpha" type="matrix" values="0 0 0 0 0 0 0 0 0 0 0 0 0 0 0 0 0 0 127 0" result="hardAlpha"/>
<feOffset dx="-0.379344" dy="-0.379344"/>
<feGaussianBlur stdDeviation="0.284508"/>
<feComposite in2="hardAlpha" operator="arithmetic" k2="-1" k3="1"/>
<feColorMatrix type="matrix" values="0 0 0 0 0 0 0 0 0 0 0 0 0 0 0 0 0 0 0.36 0"/>
<feBlend mode="normal" in2="shape" result="effect1_innerShadow_2205_5215"/>
<feColorMatrix in="SourceAlpha" type="matrix" values="0 0 0 0 0 0 0 0 0 0 0 0 0 0 0 0 0 0 127 0" result="hardAlpha"/>
<feOffset dx="0.948361" dy="0.758689"/>
<feGaussianBlur stdDeviation="0.379344"/>
<feComposite in2="hardAlpha" operator="arithmetic" k2="-1" k3="1"/>
<feColorMatrix type="matrix" values="0 0 0 0 1 0 0 0 0 1 0 0 0 0 1 0 0 0 0.25 0"/>
<feBlend mode="normal" in2="effect1_innerShadow_2205_5215" result="effect2_innerShadow_2205_5215"/>
</filter>
<clipPath id="bgblur_1_2205_5215_clip_path" transform="translate(-344.114 46.92)"><path d="M391.532 14.7235C391.532 6.86704 397.901 0.498108 405.757 0.498108H785.775C793.631 0.498108 800 6.86704 800 14.7235V233.036C800 240.893 793.631 247.262 785.775 247.262H405.757C397.901 247.262 391.532 240.893 391.532 233.036V14.7235Z"/>
</clipPath><filter id="filter1_f_2205_5215" x="192.181" y="126.424" width="458.635" height="519.822" filterUnits="userSpaceOnUse" color-interpolation-filters="sRGB">
<feFlood flood-opacity="0" result="BackgroundImageFix"/>
<feBlend mode="normal" in="SourceGraphic" in2="BackgroundImageFix" result="shape"/>
<feGaussianBlur stdDeviation="90.1072" result="effect1_foregroundBlur_2205_5215"/>
</filter>
<filter id="filter2_f_2205_5215" x="32.9586" y="-24.4902" width="760.479" height="821.666" filterUnits="userSpaceOnUse" color-interpolation-filters="sRGB">
<feFlood flood-opacity="0" result="BackgroundImageFix"/>
<feBlend mode="normal" in="SourceGraphic" in2="BackgroundImageFix" result="shape"/>
<feGaussianBlur stdDeviation="165.568" result="effect1_foregroundBlur_2205_5215"/>
</filter>
<filter id="filter3_f_2205_5215" x="264.074" y="-23.4621" width="685.773" height="593.574" filterUnits="userSpaceOnUse" color-interpolation-filters="sRGB">
<feFlood flood-opacity="0" result="BackgroundImageFix"/>
<feBlend mode="normal" in="SourceGraphic" in2="BackgroundImageFix" result="shape"/>
<feGaussianBlur stdDeviation="90.1072" result="effect1_foregroundBlur_2205_5215"/>
</filter>
<filter id="filter4_i_2205_5215" x="375.068" y="83.4751" width="54.2251" height="37.1758" filterUnits="userSpaceOnUse" color-interpolation-filters="sRGB">
<feFlood flood-opacity="0" result="BackgroundImageFix"/>
<feBlend mode="normal" in="SourceGraphic" in2="BackgroundImageFix" result="shape"/>
<feColorMatrix in="SourceAlpha" type="matrix" values="0 0 0 0 0 0 0 0 0 0 0 0 0 0 0 0 0 0 127 0" result="hardAlpha"/>
<feOffset dx="-0.569017" dy="-0.569017"/>
<feComposite in2="hardAlpha" operator="arithmetic" k2="-1" k3="1"/>
<feColorMatrix type="matrix" values="0 0 0 0 0 0 0 0 0 0 0 0 0 0 0 0 0 0 0.25 0"/>
<feBlend mode="normal" in2="shape" result="effect1_innerShadow_2205_5215"/>
</filter>
<filter id="filter5_ii_2205_5215" x="-47.4181" y="-46.92" width="503.305" height="341.6" filterUnits="userSpaceOnUse" color-interpolation-filters="sRGB">
<feFlood flood-opacity="0" result="BackgroundImageFix"/>
<feBlend mode="normal" in="SourceGraphic" in2="BackgroundImageFix" result="shape"/>
<feColorMatrix in="SourceAlpha" type="matrix" values="0 0 0 0 0 0 0 0 0 0 0 0 0 0 0 0 0 0 127 0" result="hardAlpha"/>
<feOffset dx="-0.379344" dy="-0.379344"/>
<feGaussianBlur stdDeviation="0.284508"/>
<feComposite in2="hardAlpha" operator="arithmetic" k2="-1" k3="1"/>
<feColorMatrix type="matrix" values="0 0 0 0 0 0 0 0 0 0 0 0 0 0 0 0 0 0 0.36 0"/>
<feBlend mode="normal" in2="shape" result="effect1_innerShadow_2205_5215"/>
<feColorMatrix in="SourceAlpha" type="matrix" values="0 0 0 0 0 0 0 0 0 0 0 0 0 0 0 0 0 0 127 0" result="hardAlpha"/>
<feOffset dx="0.948361" dy="0.758689"/>
<feGaussianBlur stdDeviation="0.379344"/>
<feComposite in2="hardAlpha" operator="arithmetic" k2="-1" k3="1"/>
<feColorMatrix type="matrix" values="0 0 0 0 1 0 0 0 0 1 0 0 0 0 1 0 0 0 0.25 0"/>
<feBlend mode="normal" in2="effect1_innerShadow_2205_5215" result="effect2_innerShadow_2205_5215"/>
</filter>
<clipPath id="bgblur_3_2205_5215_clip_path" transform="translate(47.4181 46.92)"><path d="M0 14.7235C0 6.86704 6.36894 0.498108 14.2254 0.498108H394.243C402.1 0.498108 408.469 6.86704 408.469 14.7235V233.036C408.469 240.893 402.1 247.262 394.243 247.262H14.2254C6.36891 247.262 0 240.893 0 233.036V14.7235Z"/>
</clipPath><filter id="filter6_f_2205_5215" x="-207.645" y="126.424" width="458.635" height="519.822" filterUnits="userSpaceOnUse" color-interpolation-filters="sRGB">
<feFlood flood-opacity="0" result="BackgroundImageFix"/>
<feBlend mode="normal" in="SourceGraphic" in2="BackgroundImageFix" result="shape"/>
<feGaussianBlur stdDeviation="90.1072" result="effect1_foregroundBlur_2205_5215"/>
</filter>
<filter id="filter7_f_2205_5215" x="-358.573" y="-24.4902" width="760.479" height="821.666" filterUnits="userSpaceOnUse" color-interpolation-filters="sRGB">
<feFlood flood-opacity="0" result="BackgroundImageFix"/>
<feBlend mode="normal" in="SourceGraphic" in2="BackgroundImageFix" result="shape"/>
<feGaussianBlur stdDeviation="165.568" result="effect1_foregroundBlur_2205_5215"/>
</filter>
<filter id="filter8_f_2205_5215" x="-121.912" y="-23.4621" width="685.773" height="593.574" filterUnits="userSpaceOnUse" color-interpolation-filters="sRGB">
<feFlood flood-opacity="0" result="BackgroundImageFix"/>
<feBlend mode="normal" in="SourceGraphic" in2="BackgroundImageFix" result="shape"/>
<feGaussianBlur stdDeviation="90.1072" result="effect1_foregroundBlur_2205_5215"/>
</filter>
<filter id="filter9_i_2205_5215" x="29.6572" y="83.4747" width="54.2251" height="37.1758" filterUnits="userSpaceOnUse" color-interpolation-filters="sRGB">
<feFlood flood-opacity="0" result="BackgroundImageFix"/>
<feBlend mode="normal" in="SourceGraphic" in2="BackgroundImageFix" result="shape"/>
<feColorMatrix in="SourceAlpha" type="matrix" values="0 0 0 0 0 0 0 0 0 0 0 0 0 0 0 0 0 0 127 0" result="hardAlpha"/>
<feOffset dx="-0.569017" dy="-0.569017"/>
<feComposite in2="hardAlpha" operator="arithmetic" k2="-1" k3="1"/>
<feColorMatrix type="matrix" values="0 0 0 0 0 0 0 0 0 0 0 0 0 0 0 0 0 0 0.25 0"/>
<feBlend mode="normal" in2="shape" result="effect1_innerShadow_2205_5215"/>
</filter>
<radialGradient id="paint0_radial_2205_5215" cx="0" cy="0" r="1" gradientTransform="matrix(355.251 234.33 -387.887 85.2695 378.816 -2.969)" gradientUnits="userSpaceOnUse">
<stop stop-color="white" stop-opacity="0.3"/>
<stop offset="1" stop-color="white" stop-opacity="0"/>
</radialGradient>
<linearGradient id="paint1_linear_2205_5215" x1="375.068" y1="83.4751" x2="422.032" y2="122.597" gradientUnits="userSpaceOnUse">
<stop stop-color="#ABABAB"/>
<stop offset="0.3125" stop-color="white"/>
<stop offset="0.630208" stop-color="#BDBDBD"/>
<stop offset="1" stop-color="#5E5E5E"/>
</linearGradient>
<linearGradient id="paint2_linear_2205_5215" x1="377.052" y1="85.5619" x2="424.217" y2="120.842" gradientUnits="userSpaceOnUse">
<stop stop-color="#7D7D7D"/>
<stop offset="0.494792" stop-color="white"/>
<stop offset="1" stop-color="#1C1C1C"/>
</linearGradient>
<linearGradient id="paint3_linear_2205_5215" x1="438.088" y1="203.542" x2="438.088" y2="223.542" gradientUnits="userSpaceOnUse">
<stop stop-color="white" stop-opacity="0.8"/>
<stop offset="1" stop-color="white" stop-opacity="0.2"/>
</linearGradient>
<radialGradient id="paint4_radial_2205_5215" cx="0" cy="0" r="1" gradientTransform="matrix(355.251 234.33 -387.887 85.2695 -12.7156 -2.969)" gradientUnits="userSpaceOnUse">
<stop stop-color="white" stop-opacity="0.3"/>
<stop offset="1" stop-color="white" stop-opacity="0"/>
</radialGradient>
<linearGradient id="paint5_linear_2205_5215" x1="29.6572" y1="83.4747" x2="76.6213" y2="122.596" gradientUnits="userSpaceOnUse">
<stop stop-color="#ABABAB"/>
<stop offset="0.3125" stop-color="white"/>
<stop offset="0.630208" stop-color="#BDBDBD"/>
<stop offset="1" stop-color="#5E5E5E"/>
</linearGradient>
<linearGradient id="paint6_linear_2205_5215" x1="31.6396" y1="85.5612" x2="78.8049" y2="120.841" gradientUnits="userSpaceOnUse">
<stop stop-color="#7D7D7D"/>
<stop offset="0.494792" stop-color="white"/>
<stop offset="1" stop-color="#1C1C1C"/>
</linearGradient>
<linearGradient id="paint7_linear_2205_5215" x1="107.132" y1="203.542" x2="107.132" y2="223.542" gradientUnits="userSpaceOnUse">
<stop stop-color="white" stop-opacity="0.8"/>
<stop offset="1" stop-color="white" stop-opacity="0.2"/>
</linearGradient>
<linearGradient id="paint8_linear_2205_5215" x1="400.108" y1="0" x2="400.108" y2="247.809" gradientUnits="userSpaceOnUse">
<stop stop-color="#0E0E0E" stop-opacity="0"/>
<stop offset="1" stop-color="#0E0E0E"/>
</linearGradient>
<clipPath id="clip0_2205_5215">
<path d="M391.532 14.7235C391.532 6.86704 397.901 0.498108 405.757 0.498108H785.775C793.631 0.498108 800 6.86704 800 14.7235V233.036C800 240.893 793.631 247.262 785.775 247.262H405.757C397.901 247.262 391.532 240.893 391.532 233.036V14.7235Z" fill="white"/>
</clipPath>
<clipPath id="clip2_2205_5215">
<path d="M0 14.7235C0 6.86704 6.36894 0.498108 14.2254 0.498108H394.243C402.1 0.498108 408.469 6.86704 408.469 14.7235V233.036C408.469 240.893 402.1 247.262 394.243 247.262H14.2254C6.36891 247.262 0 240.893 0 233.036V14.7235Z" fill="white"/>
</clipPath>
</defs>
</svg>
