<svg width="242" height="270" viewBox="0 0 242 270" fill="none" xmlns="http://www.w3.org/2000/svg">
<g clip-path="url(#clip0_1_308)">
<g filter="url(#filter0_f_1_308)">
<rect x="-5.87695" y="4" width="226.165" height="14" rx="7" transform="rotate(17.1259 -5.87695 4)" fill="#B66659"/>
</g>
<g filter="url(#filter1_f_1_308)">
<rect x="-25.877" y="34" width="132.176" height="14" rx="7" transform="rotate(17.1259 -25.877 34)" fill="#FFB6A9"/>
</g>
<g opacity="0.3">
<g filter="url(#filter2_f_1_308)">
<ellipse cx="35.2175" cy="37.2876" rx="35.2175" ry="37.2876" transform="matrix(0.954757 0.301977 -0.32333 0.94517 278.521 201.208)" fill="white"/>
</g>
<g filter="url(#filter3_f_1_308)">
<ellipse cx="35.2175" cy="37.2876" rx="35.2175" ry="37.2876" transform="matrix(0.954757 0.301977 -0.32333 0.94517 278.531 201.206)" fill="white"/>
</g>
<g filter="url(#filter4_f_1_308)">
<ellipse cx="38.501" cy="122.705" rx="38.501" ry="122.705" transform="matrix(0.228003 0.973197 -0.998932 -0.0645744 262.166 203.872)" fill="#CFD0DA"/>
</g>
</g>
<rect x="97" y="24" width="48" height="48" rx="24" fill="white" fill-opacity="0.05"/>
<rect x="97.25" y="24.25" width="47.5" height="47.5" rx="23.75" stroke="white" stroke-opacity="0.1" stroke-width="0.5"/>
<rect x="103" y="30" width="36" height="36" rx="18" fill="url(#paint0_linear_1_308)"/>
<path d="M126.333 44L118.999 51.3333L115.666 48" stroke="white" stroke-width="1.5" stroke-linecap="round" stroke-linejoin="round"/>
<path d="M97.986 94.472V92.06H99.516V94.472H97.986ZM99.516 106.64V108.962H97.986V106.64H99.516ZM99.03 107.162C97.47 107.162 96.222 106.79 95.286 106.046C94.35 105.302 93.804 104.24 93.648 102.86H95.502C95.61 103.76 95.97 104.444 96.582 104.912C97.194 105.38 98.022 105.614 99.066 105.614C99.942 105.614 100.602 105.452 101.046 105.128C101.502 104.804 101.73 104.342 101.73 103.742C101.73 103.202 101.58 102.776 101.28 102.464C100.98 102.14 100.506 101.876 99.858 101.672L97.608 100.952C96.456 100.58 95.61 100.112 95.07 99.548C94.53 98.984 94.26 98.27 94.26 97.406C94.26 96.674 94.44 96.044 94.8 95.516C95.172 94.988 95.688 94.58 96.348 94.292C97.02 93.992 97.8 93.842 98.688 93.842C100.056 93.842 101.148 94.19 101.964 94.886C102.792 95.57 103.266 96.524 103.386 97.748H101.532C101.388 96.932 101.076 96.338 100.596 95.966C100.116 95.582 99.456 95.39 98.616 95.39C97.824 95.39 97.206 95.546 96.762 95.858C96.318 96.17 96.096 96.608 96.096 97.172C96.096 97.628 96.24 98.012 96.528 98.324C96.828 98.624 97.32 98.882 98.004 99.098L100.362 99.854C101.454 100.202 102.258 100.676 102.774 101.276C103.302 101.876 103.566 102.632 103.566 103.544C103.566 104.696 103.17 105.59 102.378 106.226C101.586 106.85 100.47 107.162 99.03 107.162ZM107.601 107V95.822L107.943 95.966C107.787 96.302 107.517 96.632 107.133 96.956C106.749 97.28 106.305 97.562 105.801 97.802C105.297 98.03 104.763 98.192 104.199 98.288V96.452C104.727 96.368 105.243 96.212 105.747 95.984C106.251 95.744 106.701 95.456 107.097 95.12C107.493 94.772 107.787 94.412 107.979 94.04H109.455V107H107.601ZM111.068 107V105.434C112.328 104.402 113.378 103.502 114.218 102.734C115.07 101.966 115.748 101.282 116.252 100.682C116.756 100.082 117.116 99.536 117.332 99.044C117.548 98.552 117.656 98.06 117.656 97.568C117.656 96.896 117.458 96.374 117.062 96.002C116.678 95.618 116.144 95.426 115.46 95.426C114.752 95.426 114.176 95.636 113.732 96.056C113.288 96.464 113.012 97.046 112.904 97.802H110.96C111.08 96.614 111.542 95.66 112.346 94.94C113.162 94.22 114.236 93.86 115.568 93.86C116.84 93.86 117.842 94.196 118.574 94.868C119.318 95.54 119.69 96.464 119.69 97.64C119.69 98.24 119.576 98.84 119.348 99.44C119.132 100.028 118.772 100.646 118.268 101.294C117.764 101.93 117.086 102.638 116.234 103.418C115.394 104.186 114.35 105.062 113.102 106.046L112.652 105.434H119.924V107H111.068ZM125.46 107.18C124.524 107.18 123.708 107.018 123.012 106.694C122.328 106.37 121.794 105.926 121.41 105.362C121.038 104.786 120.852 104.138 120.852 103.418C120.852 102.77 120.99 102.188 121.266 101.672C121.554 101.156 121.944 100.748 122.436 100.448C122.94 100.136 123.498 99.98 124.11 99.98L124.236 100.358C123.624 100.358 123.09 100.232 122.634 99.98C122.178 99.716 121.818 99.356 121.554 98.9C121.302 98.432 121.176 97.91 121.176 97.334C121.176 96.65 121.356 96.05 121.716 95.534C122.076 95.006 122.574 94.598 123.21 94.31C123.858 94.01 124.614 93.86 125.478 93.86C126.33 93.86 127.074 94.01 127.71 94.31C128.346 94.598 128.844 95.006 129.204 95.534C129.564 96.05 129.744 96.65 129.744 97.334C129.744 97.91 129.612 98.426 129.348 98.882C129.096 99.338 128.742 99.698 128.286 99.962C127.83 100.226 127.29 100.358 126.666 100.358L126.81 99.98C127.434 99.98 127.992 100.136 128.484 100.448C128.976 100.748 129.36 101.156 129.636 101.672C129.924 102.188 130.068 102.776 130.068 103.436C130.068 104.156 129.876 104.798 129.492 105.362C129.12 105.926 128.586 106.37 127.89 106.694C127.206 107.018 126.396 107.18 125.46 107.18ZM125.46 105.614C126.252 105.614 126.876 105.404 127.332 104.984C127.8 104.552 128.034 103.976 128.034 103.256C128.034 102.548 127.8 101.99 127.332 101.582C126.876 101.174 126.252 100.97 125.46 100.97C124.668 100.97 124.038 101.174 123.57 101.582C123.114 101.99 122.886 102.548 122.886 103.256C122.886 103.976 123.114 104.552 123.57 104.984C124.038 105.404 124.668 105.614 125.46 105.614ZM125.46 99.476C126.156 99.476 126.702 99.296 127.098 98.936C127.506 98.576 127.71 98.09 127.71 97.478C127.71 96.854 127.5 96.356 127.08 95.984C126.672 95.612 126.132 95.426 125.46 95.426C124.776 95.426 124.23 95.612 123.822 95.984C123.414 96.356 123.21 96.854 123.21 97.478C123.21 98.09 123.414 98.576 123.822 98.936C124.23 99.296 124.776 99.476 125.46 99.476ZM131.018 109.736V108.8C131.438 108.656 131.726 108.434 131.882 108.134C132.05 107.846 132.134 107.426 132.134 106.874L132.872 107H131V104.786H133.214V106.46C133.214 107.288 133.04 107.984 132.692 108.548C132.356 109.112 131.798 109.508 131.018 109.736ZM136.008 107V95.822L136.35 95.966C136.194 96.302 135.924 96.632 135.54 96.956C135.156 97.28 134.712 97.562 134.208 97.802C133.704 98.03 133.17 98.192 132.606 98.288V96.452C133.134 96.368 133.65 96.212 134.154 95.984C134.658 95.744 135.108 95.456 135.504 95.12C135.9 94.772 136.194 94.412 136.386 94.04H137.862V107H136.008ZM139.476 107V105.434C140.736 104.402 141.786 103.502 142.626 102.734C143.478 101.966 144.156 101.282 144.66 100.682C145.164 100.082 145.524 99.536 145.74 99.044C145.956 98.552 146.064 98.06 146.064 97.568C146.064 96.896 145.866 96.374 145.47 96.002C145.086 95.618 144.552 95.426 143.868 95.426C143.16 95.426 142.584 95.636 142.14 96.056C141.696 96.464 141.42 97.046 141.312 97.802H139.368C139.488 96.614 139.95 95.66 140.754 94.94C141.57 94.22 142.644 93.86 143.976 93.86C145.248 93.86 146.25 94.196 146.982 94.868C147.726 95.54 148.098 96.464 148.098 97.64C148.098 98.24 147.984 98.84 147.756 99.44C147.54 100.028 147.18 100.646 146.676 101.294C146.172 101.93 145.494 102.638 144.642 103.418C143.802 104.186 142.758 105.062 141.51 106.046L141.06 105.434H148.332V107H139.476Z" fill="white"/>
<path d="M54.4233 124V116.8H57.2833C57.7966 116.8 58.2333 116.883 58.5933 117.05C58.9533 117.217 59.2266 117.457 59.4133 117.77C59.6066 118.083 59.7033 118.46 59.7033 118.9C59.7033 119.34 59.6066 119.72 59.4133 120.04C59.2266 120.353 58.9533 120.597 58.5933 120.77C58.2333 120.943 57.7966 121.03 57.2833 121.03H55.0233V120.31H57.2533C57.7866 120.31 58.1899 120.19 58.4633 119.95C58.7433 119.703 58.8833 119.353 58.8833 118.9C58.8833 118.447 58.7466 118.103 58.4733 117.87C58.1999 117.637 57.7933 117.52 57.2533 117.52H55.2433V124H54.4233ZM63.5726 124C63.5459 123.887 63.5259 123.757 63.5126 123.61C63.5059 123.463 63.5026 123.277 63.5026 123.05H63.4526V120.61C63.4526 120.223 63.3626 119.94 63.1826 119.76C63.0092 119.573 62.7259 119.48 62.3326 119.48C61.9459 119.48 61.6359 119.56 61.4026 119.72C61.1759 119.873 61.0492 120.093 61.0226 120.38H60.2526C60.2859 119.887 60.4926 119.5 60.8726 119.22C61.2526 118.94 61.7492 118.8 62.3626 118.8C62.9959 118.8 63.4659 118.95 63.7726 119.25C64.0792 119.55 64.2326 120 64.2326 120.6V123.05C64.2326 123.197 64.2426 123.35 64.2626 123.51C64.2826 123.663 64.3092 123.827 64.3426 124H63.5726ZM61.8226 124.1C61.2959 124.1 60.8759 123.973 60.5626 123.72C60.2559 123.46 60.1026 123.107 60.1026 122.66C60.1026 122.213 60.2559 121.867 60.5626 121.62C60.8692 121.373 61.3159 121.2 61.9026 121.1L63.6826 120.8V121.46L62.0226 121.72C61.6492 121.78 61.3659 121.88 61.1726 122.02C60.9792 122.16 60.8826 122.363 60.8826 122.63C60.8826 122.89 60.9692 123.087 61.1426 123.22C61.3226 123.353 61.5859 123.42 61.9326 123.42C62.3792 123.42 62.7426 123.32 63.0226 123.12C63.3092 122.913 63.4526 122.647 63.4526 122.32L63.5826 123.03C63.4759 123.37 63.2659 123.633 62.9526 123.82C62.6459 124.007 62.2692 124.1 61.8226 124.1ZM65.79 126.05L66.93 123.4L67.11 123.12L68.78 118.9H69.6L66.64 126.05H65.79ZM67.02 124.05L64.73 118.9H65.61L67.58 123.51L67.02 124.05ZM70.3844 124V118.9H71.1344V120.1H71.1844V124H70.3844ZM73.8244 124V120.62C73.8244 120.233 73.7377 119.95 73.5644 119.77C73.391 119.59 73.141 119.5 72.8144 119.5C72.5077 119.5 72.231 119.573 71.9844 119.72C71.7377 119.867 71.541 120.07 71.3944 120.33C71.2544 120.59 71.1844 120.893 71.1844 121.24L71.0544 120.03C71.2277 119.65 71.4877 119.35 71.8344 119.13C72.181 118.91 72.5577 118.8 72.9644 118.8C73.4577 118.8 73.8577 118.947 74.1644 119.24C74.471 119.527 74.6244 119.917 74.6244 120.41V124H73.8244ZM77.2644 124V120.62C77.2644 120.233 77.1777 119.95 77.0044 119.77C76.831 119.59 76.581 119.5 76.2544 119.5C75.9477 119.5 75.671 119.573 75.4244 119.72C75.1777 119.867 74.981 120.07 74.8344 120.33C74.6944 120.59 74.6244 120.893 74.6244 121.24L74.4244 120.03C74.5977 119.65 74.8644 119.35 75.2244 119.13C75.5844 118.91 75.971 118.8 76.3844 118.8C76.8777 118.8 77.281 118.947 77.5944 119.24C77.9077 119.527 78.0644 119.917 78.0644 120.41V124H77.2644ZM81.4931 124.1C81.0065 124.1 80.5765 123.987 80.2031 123.76C79.8298 123.527 79.5365 123.21 79.3231 122.81C79.1098 122.41 79.0031 121.95 79.0031 121.43C79.0031 120.91 79.1065 120.453 79.3131 120.06C79.5265 119.66 79.8231 119.35 80.2031 119.13C80.5831 118.91 81.0198 118.8 81.5131 118.8C81.9865 118.8 82.3965 118.903 82.7431 119.11C83.0965 119.317 83.3665 119.607 83.5531 119.98C83.7465 120.353 83.8431 120.793 83.8431 121.3C83.8431 121.367 83.8398 121.43 83.8331 121.49C83.8331 121.55 83.8265 121.617 83.8131 121.69H79.6031V121.02H83.3231L83.0631 121.39C83.0631 120.777 82.9265 120.307 82.6531 119.98C82.3865 119.647 82.0065 119.48 81.5131 119.48C81.0065 119.48 80.5965 119.657 80.2831 120.01C79.9765 120.357 79.8231 120.827 79.8231 121.42C79.8231 122.027 79.9765 122.513 80.2831 122.88C80.5965 123.24 81.0131 123.42 81.5331 123.42C81.8598 123.42 82.1465 123.35 82.3931 123.21C82.6398 123.063 82.8198 122.857 82.9331 122.59H83.6931C83.5265 123.057 83.2465 123.427 82.8531 123.7C82.4665 123.967 82.0131 124.1 81.4931 124.1ZM84.8477 124V118.9H85.5977V120.1H85.6477V124H84.8477ZM88.4977 124V120.66C88.4977 120.273 88.401 119.983 88.2077 119.79C88.0143 119.597 87.7277 119.5 87.3477 119.5C87.0143 119.5 86.7177 119.573 86.4577 119.72C86.2043 119.867 86.0043 120.07 85.8577 120.33C85.7177 120.59 85.6477 120.893 85.6477 121.24L85.5177 120.03C85.691 119.65 85.9543 119.35 86.3077 119.13C86.6677 118.91 87.0743 118.8 87.5277 118.8C88.061 118.8 88.4877 118.953 88.8077 119.26C89.1343 119.56 89.2977 119.957 89.2977 120.45V124H88.4977ZM92.5373 124.09C91.9706 124.09 91.5573 123.963 91.2973 123.71C91.0439 123.45 90.9173 123.077 90.9173 122.59V117.71L91.7173 117.41V122.58C91.7173 122.867 91.7906 123.077 91.9373 123.21C92.0839 123.343 92.3239 123.41 92.6573 123.41C92.7906 123.41 92.9039 123.403 92.9973 123.39C93.0973 123.37 93.1773 123.347 93.2373 123.32V124C93.1706 124.027 93.0739 124.047 92.9473 124.06C92.8273 124.08 92.6906 124.09 92.5373 124.09ZM89.8673 119.58V118.9H93.2373V119.58H89.8673ZM95.8687 124V116.8H96.6687V124H95.8687ZM99.5187 124V120.66C99.5187 120.273 99.4221 119.983 99.2287 119.79C99.0354 119.597 98.7487 119.5 98.3687 119.5C98.0354 119.5 97.7387 119.573 97.4787 119.72C97.2254 119.867 97.0254 120.07 96.8787 120.33C96.7387 120.59 96.6687 120.893 96.6687 121.24L96.5387 120.03C96.7121 119.65 96.9754 119.35 97.3287 119.13C97.6887 118.91 98.0954 118.8 98.5487 118.8C99.0821 118.8 99.5087 118.953 99.8287 119.26C100.155 119.56 100.319 119.957 100.319 120.45V124H99.5187ZM104.756 124C104.729 123.887 104.709 123.757 104.696 123.61C104.689 123.463 104.686 123.277 104.686 123.05H104.636V120.61C104.636 120.223 104.546 119.94 104.366 119.76C104.192 119.573 103.909 119.48 103.516 119.48C103.129 119.48 102.819 119.56 102.586 119.72C102.359 119.873 102.232 120.093 102.206 120.38H101.436C101.469 119.887 101.676 119.5 102.056 119.22C102.436 118.94 102.932 118.8 103.546 118.8C104.179 118.8 104.649 118.95 104.956 119.25C105.262 119.55 105.416 120 105.416 120.6V123.05C105.416 123.197 105.426 123.35 105.446 123.51C105.466 123.663 105.492 123.827 105.526 124H104.756ZM103.006 124.1C102.479 124.1 102.059 123.973 101.746 123.72C101.439 123.46 101.286 123.107 101.286 122.66C101.286 122.213 101.439 121.867 101.746 121.62C102.052 121.373 102.499 121.2 103.086 121.1L104.866 120.8V121.46L103.206 121.72C102.832 121.78 102.549 121.88 102.356 122.02C102.162 122.16 102.066 122.363 102.066 122.63C102.066 122.89 102.152 123.087 102.326 123.22C102.506 123.353 102.769 123.42 103.116 123.42C103.562 123.42 103.926 123.32 104.206 123.12C104.492 122.913 104.636 122.647 104.636 122.32L104.766 123.03C104.659 123.37 104.449 123.633 104.136 123.82C103.829 124.007 103.452 124.1 103.006 124.1ZM108.468 124.1C107.842 124.1 107.342 123.957 106.968 123.67C106.595 123.377 106.382 122.963 106.328 122.43H107.098C107.145 122.757 107.288 123.007 107.528 123.18C107.768 123.353 108.088 123.44 108.488 123.44C108.842 123.44 109.118 123.373 109.318 123.24C109.518 123.107 109.618 122.917 109.618 122.67C109.618 122.497 109.562 122.347 109.448 122.22C109.335 122.087 109.108 121.977 108.768 121.89L107.948 121.68C107.482 121.56 107.132 121.377 106.898 121.13C106.665 120.877 106.548 120.577 106.548 120.23C106.548 119.79 106.712 119.443 107.038 119.19C107.365 118.93 107.808 118.8 108.368 118.8C108.922 118.8 109.372 118.933 109.718 119.2C110.065 119.467 110.262 119.837 110.308 120.31H109.538C109.492 120.037 109.365 119.827 109.158 119.68C108.952 119.533 108.678 119.46 108.338 119.46C108.012 119.46 107.758 119.523 107.578 119.65C107.398 119.77 107.308 119.943 107.308 120.17C107.308 120.343 107.372 120.493 107.498 120.62C107.632 120.747 107.852 120.853 108.158 120.94L108.958 121.16C109.432 121.287 109.788 121.48 110.028 121.74C110.268 122 110.388 122.313 110.388 122.68C110.388 123.127 110.218 123.477 109.878 123.73C109.538 123.977 109.068 124.1 108.468 124.1ZM115.587 124.09C115.107 124.09 114.703 123.973 114.377 123.74C114.05 123.507 113.827 123.177 113.707 122.75L113.817 122.73V124H113.067V116.8H113.867V120.09L113.757 120.06C113.883 119.667 114.113 119.36 114.447 119.14C114.787 118.913 115.19 118.8 115.657 118.8C116.11 118.8 116.503 118.91 116.837 119.13C117.177 119.35 117.44 119.657 117.627 120.05C117.813 120.443 117.907 120.903 117.907 121.43C117.907 121.963 117.81 122.43 117.617 122.83C117.423 123.23 117.153 123.54 116.807 123.76C116.46 123.98 116.053 124.09 115.587 124.09ZM115.467 123.39C115.973 123.39 116.37 123.217 116.657 122.87C116.943 122.517 117.087 122.037 117.087 121.43C117.087 120.83 116.943 120.36 116.657 120.02C116.37 119.673 115.973 119.5 115.467 119.5C114.96 119.5 114.56 119.677 114.267 120.03C113.973 120.377 113.827 120.853 113.827 121.46C113.827 122.053 113.973 122.523 114.267 122.87C114.56 123.217 114.96 123.39 115.467 123.39ZM121.021 124.1C120.535 124.1 120.105 123.987 119.731 123.76C119.358 123.527 119.065 123.21 118.851 122.81C118.638 122.41 118.531 121.95 118.531 121.43C118.531 120.91 118.635 120.453 118.841 120.06C119.055 119.66 119.351 119.35 119.731 119.13C120.111 118.91 120.548 118.8 121.041 118.8C121.515 118.8 121.925 118.903 122.271 119.11C122.625 119.317 122.895 119.607 123.081 119.98C123.275 120.353 123.371 120.793 123.371 121.3C123.371 121.367 123.368 121.43 123.361 121.49C123.361 121.55 123.355 121.617 123.341 121.69H119.131V121.02H122.851L122.591 121.39C122.591 120.777 122.455 120.307 122.181 119.98C121.915 119.647 121.535 119.48 121.041 119.48C120.535 119.48 120.125 119.657 119.811 120.01C119.505 120.357 119.351 120.827 119.351 121.42C119.351 122.027 119.505 122.513 119.811 122.88C120.125 123.24 120.541 123.42 121.061 123.42C121.388 123.42 121.675 123.35 121.921 123.21C122.168 123.063 122.348 122.857 122.461 122.59H123.221C123.055 123.057 122.775 123.427 122.381 123.7C121.995 123.967 121.541 124.1 121.021 124.1ZM126.466 124.1C125.979 124.1 125.549 123.987 125.176 123.76C124.802 123.527 124.509 123.21 124.296 122.81C124.082 122.41 123.976 121.95 123.976 121.43C123.976 120.91 124.079 120.453 124.286 120.06C124.499 119.66 124.796 119.35 125.176 119.13C125.556 118.91 125.992 118.8 126.486 118.8C126.959 118.8 127.369 118.903 127.716 119.11C128.069 119.317 128.339 119.607 128.526 119.98C128.719 120.353 128.816 120.793 128.816 121.3C128.816 121.367 128.812 121.43 128.806 121.49C128.806 121.55 128.799 121.617 128.786 121.69H124.576V121.02H128.296L128.036 121.39C128.036 120.777 127.899 120.307 127.626 119.98C127.359 119.647 126.979 119.48 126.486 119.48C125.979 119.48 125.569 119.657 125.256 120.01C124.949 120.357 124.796 120.827 124.796 121.42C124.796 122.027 124.949 122.513 125.256 122.88C125.569 123.24 125.986 123.42 126.506 123.42C126.832 123.42 127.119 123.35 127.366 123.21C127.612 123.063 127.792 122.857 127.906 122.59H128.666C128.499 123.057 128.219 123.427 127.826 123.7C127.439 123.967 126.986 124.1 126.466 124.1ZM129.82 124V118.9H130.57V120.1H130.62V124H129.82ZM133.47 124V120.66C133.47 120.273 133.374 119.983 133.18 119.79C132.987 119.597 132.7 119.5 132.32 119.5C131.987 119.5 131.69 119.573 131.43 119.72C131.177 119.867 130.977 120.07 130.83 120.33C130.69 120.59 130.62 120.893 130.62 121.24L130.49 120.03C130.664 119.65 130.927 119.35 131.28 119.13C131.64 118.91 132.047 118.8 132.5 118.8C133.034 118.8 133.46 118.953 133.78 119.26C134.107 119.56 134.27 119.957 134.27 120.45V124H133.47ZM137.317 124.1C136.69 124.1 136.19 123.957 135.817 123.67C135.444 123.377 135.23 122.963 135.177 122.43H135.947C135.994 122.757 136.137 123.007 136.377 123.18C136.617 123.353 136.937 123.44 137.337 123.44C137.69 123.44 137.967 123.373 138.167 123.24C138.367 123.107 138.467 122.917 138.467 122.67C138.467 122.497 138.41 122.347 138.297 122.22C138.184 122.087 137.957 121.977 137.617 121.89L136.797 121.68C136.33 121.56 135.98 121.377 135.747 121.13C135.514 120.877 135.397 120.577 135.397 120.23C135.397 119.79 135.56 119.443 135.887 119.19C136.214 118.93 136.657 118.8 137.217 118.8C137.77 118.8 138.22 118.933 138.567 119.2C138.914 119.467 139.11 119.837 139.157 120.31H138.387C138.34 120.037 138.214 119.827 138.007 119.68C137.8 119.533 137.527 119.46 137.187 119.46C136.86 119.46 136.607 119.523 136.427 119.65C136.247 119.77 136.157 119.943 136.157 120.17C136.157 120.343 136.22 120.493 136.347 120.62C136.48 120.747 136.7 120.853 137.007 120.94L137.807 121.16C138.28 121.287 138.637 121.48 138.877 121.74C139.117 122 139.237 122.313 139.237 122.68C139.237 123.127 139.067 123.477 138.727 123.73C138.387 123.977 137.917 124.1 137.317 124.1ZM141.842 124.1C141.509 124.1 141.212 124.033 140.952 123.9C140.692 123.76 140.489 123.567 140.342 123.32C140.195 123.067 140.122 122.777 140.122 122.45V118.9H140.922V122.24C140.922 122.627 141.015 122.917 141.202 123.11C141.395 123.303 141.669 123.4 142.022 123.4C142.342 123.4 142.625 123.327 142.872 123.18C143.119 123.033 143.312 122.83 143.452 122.57C143.599 122.303 143.672 122 143.672 121.66L143.802 122.87C143.635 123.25 143.375 123.55 143.022 123.77C142.669 123.99 142.275 124.1 141.842 124.1ZM143.722 124V122.8H143.672V118.9H144.472V124H143.722ZM147.871 124.1C147.405 124.1 146.988 123.987 146.621 123.76C146.261 123.527 145.975 123.21 145.761 122.81C145.555 122.403 145.451 121.943 145.451 121.43C145.451 120.917 145.555 120.463 145.761 120.07C145.975 119.677 146.261 119.367 146.621 119.14C146.988 118.913 147.401 118.8 147.861 118.8C148.241 118.8 148.581 118.873 148.881 119.02C149.188 119.167 149.438 119.377 149.631 119.65C149.831 119.917 149.958 120.23 150.011 120.59H149.271C149.205 120.263 149.051 119.997 148.811 119.79C148.571 119.583 148.261 119.48 147.881 119.48C147.555 119.48 147.271 119.56 147.031 119.72C146.791 119.88 146.605 120.107 146.471 120.4C146.338 120.693 146.271 121.037 146.271 121.43C146.271 121.823 146.338 122.17 146.471 122.47C146.605 122.77 146.791 123.003 147.031 123.17C147.278 123.337 147.565 123.42 147.891 123.42C148.258 123.42 148.565 123.32 148.811 123.12C149.058 122.913 149.215 122.647 149.281 122.32H150.021C149.961 122.673 149.828 122.987 149.621 123.26C149.421 123.527 149.171 123.733 148.871 123.88C148.571 124.027 148.238 124.1 147.871 124.1ZM152.984 124.1C152.517 124.1 152.1 123.987 151.734 123.76C151.374 123.527 151.087 123.21 150.874 122.81C150.667 122.403 150.564 121.943 150.564 121.43C150.564 120.917 150.667 120.463 150.874 120.07C151.087 119.677 151.374 119.367 151.734 119.14C152.1 118.913 152.514 118.8 152.974 118.8C153.354 118.8 153.694 118.873 153.994 119.02C154.3 119.167 154.55 119.377 154.744 119.65C154.944 119.917 155.07 120.23 155.124 120.59H154.384C154.317 120.263 154.164 119.997 153.924 119.79C153.684 119.583 153.374 119.48 152.994 119.48C152.667 119.48 152.384 119.56 152.144 119.72C151.904 119.88 151.717 120.107 151.584 120.4C151.45 120.693 151.384 121.037 151.384 121.43C151.384 121.823 151.45 122.17 151.584 122.47C151.717 122.77 151.904 123.003 152.144 123.17C152.39 123.337 152.677 123.42 153.004 123.42C153.37 123.42 153.677 123.32 153.924 123.12C154.17 122.913 154.327 122.647 154.394 122.32H155.134C155.074 122.673 154.94 122.987 154.734 123.26C154.534 123.527 154.284 123.733 153.984 123.88C153.684 124.027 153.35 124.1 152.984 124.1ZM158.166 124.1C157.68 124.1 157.25 123.987 156.876 123.76C156.503 123.527 156.21 123.21 155.996 122.81C155.783 122.41 155.676 121.95 155.676 121.43C155.676 120.91 155.78 120.453 155.986 120.06C156.2 119.66 156.496 119.35 156.876 119.13C157.256 118.91 157.693 118.8 158.186 118.8C158.66 118.8 159.07 118.903 159.416 119.11C159.77 119.317 160.04 119.607 160.226 119.98C160.42 120.353 160.516 120.793 160.516 121.3C160.516 121.367 160.513 121.43 160.506 121.49C160.506 121.55 160.5 121.617 160.486 121.69H156.276V121.02H159.996L159.736 121.39C159.736 120.777 159.6 120.307 159.326 119.98C159.06 119.647 158.68 119.48 158.186 119.48C157.68 119.48 157.27 119.657 156.956 120.01C156.65 120.357 156.496 120.827 156.496 121.42C156.496 122.027 156.65 122.513 156.956 122.88C157.27 123.24 157.686 123.42 158.206 123.42C158.533 123.42 158.82 123.35 159.066 123.21C159.313 123.063 159.493 122.857 159.606 122.59H160.366C160.2 123.057 159.92 123.427 159.526 123.7C159.14 123.967 158.686 124.1 158.166 124.1ZM163.251 124.1C162.624 124.1 162.124 123.957 161.751 123.67C161.377 123.377 161.164 122.963 161.111 122.43H161.881C161.927 122.757 162.071 123.007 162.311 123.18C162.551 123.353 162.871 123.44 163.271 123.44C163.624 123.44 163.901 123.373 164.101 123.24C164.301 123.107 164.401 122.917 164.401 122.67C164.401 122.497 164.344 122.347 164.231 122.22C164.117 122.087 163.891 121.977 163.551 121.89L162.731 121.68C162.264 121.56 161.914 121.377 161.681 121.13C161.447 120.877 161.331 120.577 161.331 120.23C161.331 119.79 161.494 119.443 161.821 119.19C162.147 118.93 162.591 118.8 163.151 118.8C163.704 118.8 164.154 118.933 164.501 119.2C164.847 119.467 165.044 119.837 165.091 120.31H164.321C164.274 120.037 164.147 119.827 163.941 119.68C163.734 119.533 163.461 119.46 163.121 119.46C162.794 119.46 162.541 119.523 162.361 119.65C162.181 119.77 162.091 119.943 162.091 120.17C162.091 120.343 162.154 120.493 162.281 120.62C162.414 120.747 162.634 120.853 162.941 120.94L163.741 121.16C164.214 121.287 164.571 121.48 164.811 121.74C165.051 122 165.171 122.313 165.171 122.68C165.171 123.127 165.001 123.477 164.661 123.73C164.321 123.977 163.851 124.1 163.251 124.1ZM167.875 124.1C167.248 124.1 166.748 123.957 166.375 123.67C166.002 123.377 165.788 122.963 165.735 122.43H166.505C166.552 122.757 166.695 123.007 166.935 123.18C167.175 123.353 167.495 123.44 167.895 123.44C168.248 123.44 168.525 123.373 168.725 123.24C168.925 123.107 169.025 122.917 169.025 122.67C169.025 122.497 168.968 122.347 168.855 122.22C168.742 122.087 168.515 121.977 168.175 121.89L167.355 121.68C166.888 121.56 166.538 121.377 166.305 121.13C166.072 120.877 165.955 120.577 165.955 120.23C165.955 119.79 166.118 119.443 166.445 119.19C166.772 118.93 167.215 118.8 167.775 118.8C168.328 118.8 168.778 118.933 169.125 119.2C169.472 119.467 169.668 119.837 169.715 120.31H168.945C168.898 120.037 168.772 119.827 168.565 119.68C168.358 119.533 168.085 119.46 167.745 119.46C167.418 119.46 167.165 119.523 166.985 119.65C166.805 119.77 166.715 119.943 166.715 120.17C166.715 120.343 166.778 120.493 166.905 120.62C167.038 120.747 167.258 120.853 167.565 120.94L168.365 121.16C168.838 121.287 169.195 121.48 169.435 121.74C169.675 122 169.795 122.313 169.795 122.68C169.795 123.127 169.625 123.477 169.285 123.73C168.945 123.977 168.475 124.1 167.875 124.1ZM171.091 124V118.18C171.091 117.713 171.225 117.35 171.491 117.09C171.765 116.83 172.178 116.7 172.731 116.7C172.865 116.7 172.968 116.707 173.041 116.72C173.121 116.733 173.188 116.75 173.241 116.77V117.4C173.195 117.387 173.128 117.373 173.041 117.36C172.961 117.347 172.875 117.34 172.781 117.34C172.475 117.34 172.248 117.417 172.101 117.57C171.961 117.723 171.891 117.94 171.891 118.22V124H171.091ZM170.041 119.58V118.9H173.131V119.58H170.041ZM175.569 124.1C175.236 124.1 174.939 124.033 174.679 123.9C174.419 123.76 174.216 123.567 174.069 123.32C173.922 123.067 173.849 122.777 173.849 122.45V118.9H174.649V122.24C174.649 122.627 174.742 122.917 174.929 123.11C175.122 123.303 175.396 123.4 175.749 123.4C176.069 123.4 176.352 123.327 176.599 123.18C176.846 123.033 177.039 122.83 177.179 122.57C177.326 122.303 177.399 122 177.399 121.66L177.529 122.87C177.362 123.25 177.102 123.55 176.749 123.77C176.396 123.99 176.002 124.1 175.569 124.1ZM177.449 124V122.8H177.399V118.9H178.199V124H177.449ZM179.598 124V116.8H180.398V124H179.598ZM181.8 124V116.8H182.6V124H181.8ZM184.442 126.05L185.582 123.4L185.762 123.12L187.432 118.9H188.252L185.292 126.05H184.442ZM185.672 124.05L183.382 118.9H184.262L186.232 123.51L185.672 124.05Z" fill="#606165"/>
<line x1="16" y1="142.5" x2="226" y2="142.5" stroke="white" stroke-opacity="0.1"/>
<path d="M16.688 167V161.24H18.976C19.3867 161.24 19.736 161.307 20.024 161.44C20.312 161.573 20.5307 161.765 20.68 162.016C20.8347 162.267 20.912 162.568 20.912 162.92C20.912 163.272 20.8347 163.576 20.68 163.832C20.5307 164.083 20.312 164.277 20.024 164.416C19.736 164.555 19.3867 164.624 18.976 164.624H17.168V164.048H18.952C19.3787 164.048 19.7013 163.952 19.92 163.76C20.144 163.563 20.256 163.283 20.256 162.92C20.256 162.557 20.1467 162.283 19.928 162.096C19.7093 161.909 19.384 161.816 18.952 161.816H17.344V167H16.688ZM24.0074 167C23.9861 166.909 23.9701 166.805 23.9594 166.688C23.9541 166.571 23.9514 166.421 23.9514 166.24H23.9114V164.288C23.9114 163.979 23.8394 163.752 23.6954 163.608C23.5568 163.459 23.3301 163.384 23.0154 163.384C22.7061 163.384 22.4581 163.448 22.2714 163.576C22.0901 163.699 21.9888 163.875 21.9674 164.104H21.3514C21.3781 163.709 21.5434 163.4 21.8474 163.176C22.1514 162.952 22.5488 162.84 23.0394 162.84C23.5461 162.84 23.9221 162.96 24.1674 163.2C24.4128 163.44 24.5354 163.8 24.5354 164.28V166.24C24.5354 166.357 24.5434 166.48 24.5594 166.608C24.5754 166.731 24.5968 166.861 24.6234 167H24.0074ZM22.6074 167.08C22.1861 167.08 21.8501 166.979 21.5994 166.776C21.3541 166.568 21.2314 166.285 21.2314 165.928C21.2314 165.571 21.3541 165.293 21.5994 165.096C21.8448 164.899 22.2021 164.76 22.6714 164.68L24.0954 164.44V164.968L22.7674 165.176C22.4688 165.224 22.2421 165.304 22.0874 165.416C21.9328 165.528 21.8554 165.691 21.8554 165.904C21.8554 166.112 21.9248 166.269 22.0634 166.376C22.2074 166.483 22.4181 166.536 22.6954 166.536C23.0528 166.536 23.3434 166.456 23.5674 166.296C23.7968 166.131 23.9114 165.917 23.9114 165.656L24.0154 166.224C23.9301 166.496 23.7621 166.707 23.5114 166.856C23.2661 167.005 22.9648 167.08 22.6074 167.08ZM25.7814 168.64L26.6934 166.52L26.8374 166.296L28.1734 162.92H28.8294L26.4614 168.64H25.7814ZM26.7654 167.04L24.9334 162.92H25.6374L27.2134 166.608L26.7654 167.04ZM29.4569 167V162.92H30.0569V163.88H30.0969V167H29.4569ZM32.2089 167V164.296C32.2089 163.987 32.1395 163.76 32.0009 163.616C31.8622 163.472 31.6622 163.4 31.4009 163.4C31.1555 163.4 30.9342 163.459 30.7369 163.576C30.5395 163.693 30.3822 163.856 30.2649 164.064C30.1529 164.272 30.0969 164.515 30.0969 164.792L29.9929 163.824C30.1315 163.52 30.3395 163.28 30.6169 163.104C30.8942 162.928 31.1955 162.84 31.5209 162.84C31.9155 162.84 32.2355 162.957 32.4809 163.192C32.7262 163.421 32.8489 163.733 32.8489 164.128V167H32.2089ZM34.9609 167V164.296C34.9609 163.987 34.8915 163.76 34.7529 163.616C34.6142 163.472 34.4142 163.4 34.1529 163.4C33.9075 163.4 33.6862 163.459 33.4889 163.576C33.2915 163.693 33.1342 163.856 33.0169 164.064C32.9049 164.272 32.8489 164.515 32.8489 164.792L32.6889 163.824C32.8275 163.52 33.0409 163.28 33.3289 163.104C33.6169 162.928 33.9262 162.84 34.2569 162.84C34.6515 162.84 34.9742 162.957 35.2249 163.192C35.4755 163.421 35.6009 163.733 35.6009 164.128V167H34.9609ZM38.3439 167.08C37.9545 167.08 37.6105 166.989 37.3119 166.808C37.0132 166.621 36.7785 166.368 36.6079 166.048C36.4372 165.728 36.3519 165.36 36.3519 164.944C36.3519 164.528 36.4345 164.163 36.5999 163.848C36.7705 163.528 37.0079 163.28 37.3119 163.104C37.6159 162.928 37.9652 162.84 38.3599 162.84C38.7385 162.84 39.0665 162.923 39.3439 163.088C39.6265 163.253 39.8425 163.485 39.9919 163.784C40.1465 164.083 40.2239 164.435 40.2239 164.84C40.2239 164.893 40.2212 164.944 40.2159 164.992C40.2159 165.04 40.2105 165.093 40.1999 165.152H36.8319V164.616H39.8079L39.5999 164.912C39.5999 164.421 39.4905 164.045 39.2719 163.784C39.0585 163.517 38.7545 163.384 38.3599 163.384C37.9545 163.384 37.6265 163.525 37.3759 163.808C37.1305 164.085 37.0079 164.461 37.0079 164.936C37.0079 165.421 37.1305 165.811 37.3759 166.104C37.6265 166.392 37.9599 166.536 38.3759 166.536C38.6372 166.536 38.8665 166.48 39.0639 166.368C39.2612 166.251 39.4052 166.085 39.4959 165.872H40.1039C39.9705 166.245 39.7465 166.541 39.4319 166.76C39.1225 166.973 38.7599 167.08 38.3439 167.08ZM41.0275 167V162.92H41.6275V163.88H41.6675V167H41.0275ZM43.9475 167V164.328C43.9475 164.019 43.8702 163.787 43.7155 163.632C43.5608 163.477 43.3315 163.4 43.0275 163.4C42.7608 163.4 42.5235 163.459 42.3155 163.576C42.1128 163.693 41.9528 163.856 41.8355 164.064C41.7235 164.272 41.6675 164.515 41.6675 164.792L41.5635 163.824C41.7022 163.52 41.9128 163.28 42.1955 163.104C42.4835 162.928 42.8088 162.84 43.1715 162.84C43.5982 162.84 43.9395 162.963 44.1955 163.208C44.4568 163.448 44.5875 163.765 44.5875 164.16V167H43.9475ZM47.1792 167.072C46.7259 167.072 46.3952 166.971 46.1872 166.768C45.9845 166.56 45.8832 166.261 45.8832 165.872V161.968L46.5232 161.728V165.864C46.5232 166.093 46.5819 166.261 46.6992 166.368C46.8165 166.475 47.0085 166.528 47.2752 166.528C47.3819 166.528 47.4725 166.523 47.5472 166.512C47.6272 166.496 47.6912 166.477 47.7392 166.456V167C47.6859 167.021 47.6085 167.037 47.5072 167.048C47.4112 167.064 47.3019 167.072 47.1792 167.072ZM45.0432 163.464V162.92H47.7392V163.464H45.0432ZM52.3324 167.08C51.9377 167.08 51.5724 167.008 51.2364 166.864C50.9057 166.715 50.6177 166.509 50.3724 166.248C50.127 165.981 49.9377 165.669 49.8044 165.312C49.671 164.949 49.6044 164.552 49.6044 164.12C49.6044 163.688 49.671 163.293 49.8044 162.936C49.9377 162.573 50.1244 162.261 50.3644 162C50.6097 161.733 50.8977 161.528 51.2284 161.384C51.5644 161.235 51.9297 161.16 52.3244 161.16C52.7564 161.16 53.143 161.248 53.4844 161.424C53.831 161.6 54.1137 161.848 54.3324 162.168C54.5564 162.488 54.695 162.861 54.7484 163.288H54.0924C54.0284 162.813 53.839 162.44 53.5244 162.168C53.215 161.891 52.8177 161.752 52.3324 161.752C51.9217 161.752 51.5617 161.853 51.2524 162.056C50.943 162.253 50.703 162.531 50.5324 162.888C50.3617 163.24 50.2764 163.651 50.2764 164.12C50.2764 164.589 50.3617 165.003 50.5324 165.36C50.703 165.712 50.943 165.989 51.2524 166.192C51.5617 166.389 51.919 166.488 52.3244 166.488C52.8204 166.488 53.2257 166.349 53.5404 166.072C53.8604 165.795 54.0497 165.421 54.1084 164.952H54.7644C54.711 165.379 54.5724 165.752 54.3484 166.072C54.1297 166.392 53.847 166.64 53.5004 166.816C53.159 166.992 52.7697 167.08 52.3324 167.08ZM57.2866 167.08C56.8866 167.08 56.5346 166.987 56.2306 166.8C55.9266 166.613 55.6893 166.36 55.5186 166.04C55.3533 165.715 55.2706 165.349 55.2706 164.944C55.2706 164.533 55.356 164.171 55.5266 163.856C55.6973 163.541 55.932 163.293 56.2306 163.112C56.5346 162.931 56.8866 162.84 57.2866 162.84C57.692 162.84 58.044 162.931 58.3426 163.112C58.6466 163.293 58.8813 163.541 59.0466 163.856C59.2173 164.171 59.3026 164.533 59.3026 164.944C59.3026 165.349 59.2173 165.715 59.0466 166.04C58.8813 166.36 58.6466 166.613 58.3426 166.8C58.044 166.987 57.692 167.08 57.2866 167.08ZM57.2866 166.536C57.564 166.536 57.804 166.469 58.0066 166.336C58.2093 166.197 58.3666 166.008 58.4786 165.768C58.5906 165.528 58.6466 165.251 58.6466 164.936C58.6466 164.467 58.5213 164.091 58.2706 163.808C58.0253 163.525 57.6973 163.384 57.2866 163.384C56.8813 163.384 56.5533 163.525 56.3026 163.808C56.052 164.091 55.9266 164.467 55.9266 164.936C55.9266 165.251 55.9826 165.528 56.0946 165.768C56.2066 166.008 56.364 166.197 56.5666 166.336C56.7746 166.469 57.0146 166.536 57.2866 166.536ZM63.0705 167V166.048L63.1505 166.072C63.0492 166.381 62.8625 166.627 62.5905 166.808C62.3238 166.989 62.0038 167.08 61.6305 167.08C61.2625 167.08 60.9398 166.992 60.6625 166.816C60.3905 166.64 60.1772 166.395 60.0225 166.08C59.8732 165.765 59.7985 165.397 59.7985 164.976C59.7985 164.549 59.8758 164.176 60.0305 163.856C60.1852 163.536 60.4012 163.288 60.6785 163.112C60.9558 162.936 61.2812 162.848 61.6545 162.848C62.0385 162.848 62.3612 162.941 62.6225 163.128C62.8838 163.315 63.0625 163.579 63.1585 163.92L63.0305 163.936V161.24H63.6705V167H63.0705ZM61.7505 166.52C62.1612 166.52 62.4812 166.381 62.7105 166.104C62.9452 165.821 63.0625 165.437 63.0625 164.952C63.0625 164.477 62.9452 164.101 62.7105 163.824C62.4758 163.547 62.1558 163.408 61.7505 163.408C61.3452 163.408 61.0278 163.547 60.7985 163.824C60.5692 164.101 60.4545 164.485 60.4545 164.976C60.4545 165.456 60.5692 165.835 60.7985 166.112C61.0278 166.384 61.3452 166.52 61.7505 166.52ZM66.4661 167.08C66.0767 167.08 65.7327 166.989 65.4341 166.808C65.1354 166.621 64.9007 166.368 64.7301 166.048C64.5594 165.728 64.4741 165.36 64.4741 164.944C64.4741 164.528 64.5567 164.163 64.7221 163.848C64.8927 163.528 65.1301 163.28 65.4341 163.104C65.7381 162.928 66.0874 162.84 66.4821 162.84C66.8607 162.84 67.1887 162.923 67.4661 163.088C67.7487 163.253 67.9647 163.485 68.1141 163.784C68.2687 164.083 68.3461 164.435 68.3461 164.84C68.3461 164.893 68.3434 164.944 68.3381 164.992C68.3381 165.04 68.3327 165.093 68.3221 165.152H64.9541V164.616H67.9301L67.7221 164.912C67.7221 164.421 67.6127 164.045 67.3941 163.784C67.1807 163.517 66.8767 163.384 66.4821 163.384C66.0767 163.384 65.7487 163.525 65.4981 163.808C65.2527 164.085 65.1301 164.461 65.1301 164.936C65.1301 165.421 65.2527 165.811 65.4981 166.104C65.7487 166.392 66.0821 166.536 66.4981 166.536C66.7594 166.536 66.9887 166.48 67.1861 166.368C67.3834 166.251 67.5274 166.085 67.6181 165.872H68.2261C68.0927 166.245 67.8687 166.541 67.5541 166.76C67.2447 166.973 66.8821 167.08 66.4661 167.08Z" fill="white"/>
<path d="M18.304 178.08C17.968 178.08 17.6667 178.016 17.4 177.888C17.1333 177.755 16.9173 177.56 16.752 177.304C16.5867 177.043 16.48 176.717 16.432 176.328H17.136C17.1893 176.744 17.32 177.045 17.528 177.232C17.736 177.413 18 177.504 18.32 177.504C18.5547 177.504 18.7573 177.456 18.928 177.36C19.0987 177.264 19.24 177.117 19.352 176.92C19.464 176.723 19.5467 176.472 19.6 176.168C19.6533 175.859 19.68 175.493 19.68 175.072V174.552L19.864 174.576C19.816 174.821 19.7093 175.04 19.544 175.232C19.3787 175.419 19.1733 175.565 18.928 175.672C18.6827 175.773 18.4187 175.824 18.136 175.824C17.784 175.824 17.4747 175.747 17.208 175.592C16.9413 175.432 16.7307 175.213 16.576 174.936C16.4267 174.659 16.352 174.344 16.352 173.992C16.352 173.619 16.4347 173.296 16.6 173.024C16.7653 172.752 16.9947 172.541 17.288 172.392C17.5867 172.237 17.928 172.16 18.312 172.16C18.9947 172.16 19.512 172.408 19.864 172.904C20.2213 173.4 20.4 174.128 20.4 175.088C20.4 175.728 20.3173 176.272 20.152 176.72C19.992 177.163 19.7547 177.501 19.44 177.736C19.1307 177.965 18.752 178.08 18.304 178.08ZM18.304 175.264C18.672 175.264 18.976 175.16 19.216 174.952C19.4613 174.744 19.584 174.445 19.584 174.056C19.584 173.795 19.5253 173.565 19.408 173.368C19.296 173.171 19.1413 173.016 18.944 172.904C18.7467 172.792 18.5227 172.736 18.272 172.736C17.9147 172.736 17.624 172.851 17.4 173.08C17.1813 173.304 17.072 173.613 17.072 174.008C17.072 174.387 17.1787 174.691 17.392 174.92C17.6107 175.149 17.9147 175.264 18.304 175.264ZM23.4493 178.08C22.996 178.08 22.5986 177.955 22.2573 177.704C21.9213 177.448 21.6573 177.096 21.4653 176.648C21.2786 176.195 21.1853 175.677 21.1853 175.096C21.1853 174.515 21.2786 174.005 21.4653 173.568C21.652 173.125 21.916 172.781 22.2573 172.536C22.5986 172.285 22.996 172.16 23.4493 172.16C23.9026 172.16 24.2973 172.285 24.6333 172.536C24.9746 172.781 25.2386 173.125 25.4253 173.568C25.6173 174.005 25.7133 174.515 25.7133 175.096C25.7133 175.683 25.6173 176.2 25.4253 176.648C25.2386 177.096 24.9746 177.448 24.6333 177.704C24.2973 177.955 23.9026 178.08 23.4493 178.08ZM23.4493 177.504C23.7746 177.504 24.052 177.408 24.2813 177.216C24.5106 177.019 24.6866 176.741 24.8093 176.384C24.932 176.021 24.9933 175.589 24.9933 175.088C24.9933 174.592 24.932 174.168 24.8093 173.816C24.692 173.464 24.5186 173.197 24.2893 173.016C24.06 172.829 23.78 172.736 23.4493 172.736C23.1186 172.736 22.8386 172.829 22.6093 173.016C22.38 173.203 22.204 173.472 22.0813 173.824C21.964 174.171 21.9053 174.592 21.9053 175.088C21.9053 175.589 21.9666 176.021 22.0893 176.384C22.212 176.747 22.388 177.024 22.6173 177.216C22.8466 177.408 23.124 177.504 23.4493 177.504ZM28.7346 178.08C28.2813 178.08 27.884 177.955 27.5426 177.704C27.2066 177.448 26.9426 177.096 26.7506 176.648C26.564 176.195 26.4706 175.677 26.4706 175.096C26.4706 174.515 26.564 174.005 26.7506 173.568C26.9373 173.125 27.2013 172.781 27.5426 172.536C27.884 172.285 28.2813 172.16 28.7346 172.16C29.188 172.16 29.5826 172.285 29.9186 172.536C30.26 172.781 30.524 173.125 30.7106 173.568C30.9026 174.005 30.9986 174.515 30.9986 175.096C30.9986 175.683 30.9026 176.2 30.7106 176.648C30.524 177.096 30.26 177.448 29.9186 177.704C29.5826 177.955 29.188 178.08 28.7346 178.08ZM28.7346 177.504C29.06 177.504 29.3373 177.408 29.5666 177.216C29.796 177.019 29.972 176.741 30.0946 176.384C30.2173 176.021 30.2786 175.589 30.2786 175.088C30.2786 174.592 30.2173 174.168 30.0946 173.816C29.9773 173.464 29.804 173.197 29.5746 173.016C29.3453 172.829 29.0653 172.736 28.7346 172.736C28.404 172.736 28.124 172.829 27.8946 173.016C27.6653 173.203 27.4893 173.472 27.3666 173.824C27.2493 174.171 27.1906 174.592 27.1906 175.088C27.1906 175.589 27.252 176.021 27.3746 176.384C27.4973 176.747 27.6733 177.024 27.9026 177.216C28.132 177.408 28.4093 177.504 28.7346 177.504ZM33.6918 178.08C33.2864 178.08 32.9344 178.008 32.6358 177.864C32.3424 177.72 32.1158 177.523 31.9558 177.272C31.7958 177.021 31.7158 176.741 31.7158 176.432C31.7158 176.144 31.7798 175.883 31.9078 175.648C32.0358 175.413 32.2064 175.227 32.4198 175.088C32.6384 174.949 32.8784 174.88 33.1398 174.88L33.1558 175.048C32.9104 175.048 32.6891 174.989 32.4918 174.872C32.2944 174.749 32.1398 174.584 32.0278 174.376C31.9158 174.168 31.8598 173.939 31.8598 173.688C31.8598 173.389 31.9371 173.125 32.0918 172.896C32.2464 172.667 32.4624 172.488 32.7398 172.36C33.0171 172.227 33.3371 172.16 33.6998 172.16C34.0624 172.16 34.3798 172.227 34.6518 172.36C34.9238 172.488 35.1371 172.667 35.2918 172.896C35.4464 173.125 35.5238 173.387 35.5238 173.68C35.5238 173.936 35.4678 174.168 35.3558 174.376C35.2438 174.579 35.0891 174.741 34.8918 174.864C34.6944 174.987 34.4704 175.048 34.2198 175.048L34.2438 174.88C34.5104 174.88 34.7504 174.949 34.9638 175.088C35.1771 175.227 35.3478 175.413 35.4758 175.648C35.6038 175.883 35.6678 176.144 35.6678 176.432C35.6678 176.741 35.5878 177.021 35.4278 177.272C35.2678 177.523 35.0384 177.72 34.7398 177.864C34.4464 178.008 34.0971 178.08 33.6918 178.08ZM33.6918 177.504C34.0811 177.504 34.3878 177.4 34.6118 177.192C34.8411 176.984 34.9558 176.709 34.9558 176.368C34.9558 176.027 34.8438 175.757 34.6198 175.56C34.3958 175.363 34.0864 175.264 33.6918 175.264C33.2971 175.264 32.9878 175.363 32.7638 175.56C32.5398 175.757 32.4278 176.027 32.4278 176.368C32.4278 176.709 32.5398 176.984 32.7638 177.192C32.9931 177.4 33.3024 177.504 33.6918 177.504ZM33.6918 174.704C34.0438 174.704 34.3184 174.616 34.5158 174.44C34.7184 174.264 34.8198 174.029 34.8198 173.736C34.8198 173.432 34.7158 173.189 34.5078 173.008C34.2998 172.827 34.0278 172.736 33.6918 172.736C33.3504 172.736 33.0758 172.827 32.8678 173.008C32.6651 173.189 32.5638 173.432 32.5638 173.736C32.5638 174.029 32.6651 174.264 32.8678 174.44C33.0704 174.616 33.3451 174.704 33.6918 174.704ZM37.0626 178C37.1373 177.093 37.348 176.197 37.6946 175.312C38.0466 174.421 38.572 173.512 39.2706 172.584L39.3106 172.816H35.9426V172.24H39.8306V172.72C39.404 173.344 39.0493 173.947 38.7666 174.528C38.4893 175.109 38.2733 175.685 38.1186 176.256C37.964 176.821 37.8653 177.403 37.8226 178H37.0626ZM42.1886 178.08C41.5112 178.08 40.9886 177.835 40.6206 177.344C40.2579 176.848 40.0766 176.133 40.0766 175.2C40.0766 174.555 40.1619 174.005 40.3326 173.552C40.5086 173.099 40.7592 172.755 41.0846 172.52C41.4099 172.28 41.7966 172.16 42.2446 172.16C42.7352 172.16 43.1406 172.301 43.4606 172.584C43.7806 172.867 43.9752 173.256 44.0446 173.752H43.3406C43.2926 173.421 43.1699 173.171 42.9726 173C42.7806 172.824 42.5352 172.736 42.2366 172.736C41.7619 172.736 41.4019 172.939 41.1566 173.344C40.9166 173.749 40.7966 174.357 40.7966 175.168V175.688L40.6126 175.616C40.6606 175.365 40.7672 175.147 40.9326 174.96C41.0979 174.773 41.3032 174.629 41.5486 174.528C41.7939 174.421 42.0579 174.368 42.3406 174.368C42.7032 174.368 43.0179 174.448 43.2846 174.608C43.5566 174.763 43.7672 174.981 43.9166 175.264C44.0712 175.541 44.1486 175.867 44.1486 176.24C44.1486 176.608 44.0659 176.931 43.9006 177.208C43.7352 177.485 43.5059 177.701 43.2126 177.856C42.9192 178.005 42.5779 178.08 42.1886 178.08ZM42.2126 177.504C42.5752 177.504 42.8686 177.389 43.0926 177.16C43.3166 176.931 43.4286 176.621 43.4286 176.232C43.4286 175.827 43.3192 175.509 43.1006 175.28C42.8872 175.045 42.5859 174.928 42.1966 174.928C41.8232 174.928 41.5112 175.037 41.2606 175.256C41.0152 175.475 40.8926 175.776 40.8926 176.16C40.8926 176.427 40.9486 176.661 41.0606 176.864C41.1779 177.067 41.3352 177.224 41.5326 177.336C41.7352 177.448 41.9619 177.504 42.2126 177.504ZM46.6416 178.08C46.071 178.08 45.615 177.928 45.2736 177.624C44.9323 177.315 44.7243 176.915 44.6496 176.424H45.3536C45.423 176.771 45.5696 177.037 45.7936 177.224C46.023 177.411 46.3003 177.504 46.6256 177.504C46.967 177.504 47.255 177.397 47.4896 177.184C47.7296 176.971 47.8496 176.632 47.8496 176.168C47.8496 175.704 47.7296 175.357 47.4896 175.128C47.255 174.893 46.9563 174.776 46.5936 174.776C46.3323 174.776 46.1056 174.829 45.9136 174.936C45.7216 175.043 45.5936 175.168 45.5296 175.312H44.9376L45.2016 172.24H48.2416V172.816H45.5936L45.8176 172.576L45.6336 174.896L45.4816 174.84C45.5776 174.68 45.7323 174.541 45.9456 174.424C46.159 174.307 46.4203 174.248 46.7296 174.248C47.087 174.248 47.4016 174.325 47.6736 174.48C47.951 174.635 48.167 174.856 48.3216 175.144C48.4816 175.427 48.5616 175.768 48.5616 176.168C48.5616 176.568 48.4816 176.912 48.3216 177.2C48.167 177.483 47.9456 177.701 47.6576 177.856C47.375 178.005 47.0363 178.08 46.6416 178.08ZM48.9344 178V177.44C49.5104 176.965 49.9904 176.549 50.3744 176.192C50.7637 175.835 51.073 175.517 51.3024 175.24C51.537 174.963 51.7024 174.709 51.7984 174.48C51.8997 174.245 51.9504 174.016 51.9504 173.792C51.9504 173.461 51.8517 173.203 51.6544 173.016C51.457 172.829 51.185 172.736 50.8384 172.736C50.481 172.736 50.193 172.837 49.9744 173.04C49.7557 173.243 49.6224 173.533 49.5744 173.912H48.8864C48.9397 173.389 49.1397 172.968 49.4864 172.648C49.8384 172.323 50.305 172.16 50.8864 172.16C51.425 172.16 51.8544 172.304 52.1744 172.592C52.4944 172.88 52.6544 173.275 52.6544 173.776C52.6544 174.048 52.601 174.32 52.4944 174.592C52.393 174.864 52.2224 175.149 51.9824 175.448C51.7477 175.747 51.4357 176.077 51.0464 176.44C50.6624 176.797 50.185 177.203 49.6144 177.656L49.4624 177.424H52.7504V178H48.9344ZM54.645 178V172.896L54.813 172.936C54.749 173.08 54.6263 173.224 54.445 173.368C54.2637 173.512 54.053 173.637 53.813 173.744C53.5783 173.851 53.3357 173.923 53.085 173.96V173.344C53.3357 173.301 53.5757 173.227 53.805 173.12C54.0343 173.013 54.237 172.885 54.413 172.736C54.5943 172.581 54.7277 172.416 54.813 172.24H55.285V178H54.645ZM58.1468 178.08C57.7628 178.08 57.4241 178.011 57.1308 177.872C56.8428 177.728 56.6081 177.52 56.4268 177.248C56.2508 176.976 56.1414 176.648 56.0988 176.264H56.7868C56.8454 176.664 56.9921 176.971 57.2268 177.184C57.4614 177.397 57.7708 177.504 58.1548 177.504C58.5174 177.504 58.8028 177.408 59.0108 177.216C59.2188 177.024 59.3228 176.763 59.3228 176.432C59.3228 176.085 59.2214 175.805 59.0188 175.592C58.8161 175.373 58.5441 175.264 58.2028 175.264H57.4828V174.704H58.1788C58.4881 174.704 58.7334 174.616 58.9148 174.44C59.1014 174.259 59.1948 174.019 59.1948 173.72C59.1948 173.405 59.0961 173.163 58.8988 172.992C58.7068 172.821 58.4454 172.736 58.1148 172.736C57.7894 172.736 57.5121 172.832 57.2828 173.024C57.0534 173.211 56.9174 173.48 56.8748 173.832H56.1788C56.2108 173.491 56.3121 173.197 56.4828 172.952C56.6534 172.701 56.8801 172.507 57.1628 172.368C57.4508 172.229 57.7734 172.16 58.1308 172.16C58.4774 172.16 58.7841 172.221 59.0508 172.344C59.3174 172.467 59.5254 172.643 59.6748 172.872C59.8241 173.096 59.8988 173.36 59.8988 173.664C59.8988 173.936 59.8374 174.176 59.7148 174.384C59.5921 174.592 59.4241 174.755 59.2108 174.872C59.0028 174.989 58.7628 175.048 58.4908 175.048L58.4428 174.88C58.7681 174.88 59.0481 174.949 59.2828 175.088C59.5228 175.221 59.7068 175.405 59.8348 175.64C59.9681 175.875 60.0348 176.147 60.0348 176.456C60.0348 176.776 59.9548 177.059 59.7948 177.304C59.6348 177.549 59.4134 177.741 59.1308 177.88C58.8481 178.013 58.5201 178.08 58.1468 178.08ZM63.3485 178V176.48L63.3645 176.32V173.032H63.5805L61.1485 176.36L60.9325 176.096H64.7725V176.672H60.4845V176.176L63.3805 172.24H64.0365V178H63.3485ZM67.1854 178.08C66.6147 178.08 66.1587 177.928 65.8174 177.624C65.476 177.315 65.268 176.915 65.1934 176.424H65.8974C65.9667 176.771 66.1134 177.037 66.3374 177.224C66.5667 177.411 66.844 177.504 67.1694 177.504C67.5107 177.504 67.7987 177.397 68.0334 177.184C68.2734 176.971 68.3934 176.632 68.3934 176.168C68.3934 175.704 68.2734 175.357 68.0334 175.128C67.7987 174.893 67.5 174.776 67.1374 174.776C66.876 174.776 66.6494 174.829 66.4574 174.936C66.2654 175.043 66.1374 175.168 66.0734 175.312H65.4814L65.7454 172.24H68.7854V172.816H66.1374L66.3614 172.576L66.1774 174.896L66.0254 174.84C66.1214 174.68 66.276 174.541 66.4894 174.424C66.7027 174.307 66.964 174.248 67.2734 174.248C67.6307 174.248 67.9454 174.325 68.2174 174.48C68.4947 174.635 68.7107 174.856 68.8654 175.144C69.0254 175.427 69.1054 175.768 69.1054 176.168C69.1054 176.568 69.0254 176.912 68.8654 177.2C68.7107 177.483 68.4894 177.701 68.2014 177.856C67.9187 178.005 67.58 178.08 67.1854 178.08ZM70.7863 178V172.896L70.9543 172.936C70.8903 173.08 70.7676 173.224 70.5863 173.368C70.4049 173.512 70.1943 173.637 69.9543 173.744C69.7196 173.851 69.4769 173.923 69.2263 173.96V173.344C69.4769 173.301 69.7169 173.227 69.9463 173.12C70.1756 173.013 70.3783 172.885 70.5543 172.736C70.7356 172.581 70.8689 172.416 70.9543 172.24H71.4263V178H70.7863ZM74.288 178.08C73.904 178.08 73.5653 178.011 73.272 177.872C72.984 177.728 72.7493 177.52 72.568 177.248C72.392 176.976 72.2827 176.648 72.24 176.264H72.928C72.9867 176.664 73.1333 176.971 73.368 177.184C73.6027 177.397 73.912 177.504 74.296 177.504C74.6587 177.504 74.944 177.408 75.152 177.216C75.36 177.024 75.464 176.763 75.464 176.432C75.464 176.085 75.3627 175.805 75.16 175.592C74.9573 175.373 74.6853 175.264 74.344 175.264H73.624V174.704H74.32C74.6293 174.704 74.8747 174.616 75.056 174.44C75.2427 174.259 75.336 174.019 75.336 173.72C75.336 173.405 75.2373 173.163 75.04 172.992C74.848 172.821 74.5867 172.736 74.256 172.736C73.9307 172.736 73.6533 172.832 73.424 173.024C73.1947 173.211 73.0587 173.48 73.016 173.832H72.32C72.352 173.491 72.4533 173.197 72.624 172.952C72.7947 172.701 73.0213 172.507 73.304 172.368C73.592 172.229 73.9147 172.16 74.272 172.16C74.6187 172.16 74.9253 172.221 75.192 172.344C75.4587 172.467 75.6667 172.643 75.816 172.872C75.9653 173.096 76.04 173.36 76.04 173.664C76.04 173.936 75.9787 174.176 75.856 174.384C75.7333 174.592 75.5653 174.755 75.352 174.872C75.144 174.989 74.904 175.048 74.632 175.048L74.584 174.88C74.9093 174.88 75.1893 174.949 75.424 175.088C75.664 175.221 75.848 175.405 75.976 175.64C76.1093 175.875 76.176 176.147 76.176 176.456C76.176 176.776 76.096 177.059 75.936 177.304C75.776 177.549 75.5547 177.741 75.272 177.88C74.9893 178.013 74.6613 178.08 74.288 178.08ZM76.6894 178V177.44C77.2654 176.965 77.7454 176.549 78.1294 176.192C78.5187 175.835 78.828 175.517 79.0574 175.24C79.292 174.963 79.4574 174.709 79.5534 174.48C79.6547 174.245 79.7054 174.016 79.7054 173.792C79.7054 173.461 79.6067 173.203 79.4094 173.016C79.212 172.829 78.94 172.736 78.5934 172.736C78.236 172.736 77.948 172.837 77.7294 173.04C77.5107 173.243 77.3774 173.533 77.3294 173.912H76.6414C76.6947 173.389 76.8947 172.968 77.2414 172.648C77.5934 172.323 78.06 172.16 78.6414 172.16C79.18 172.16 79.6094 172.304 79.9294 172.592C80.2494 172.88 80.4094 173.275 80.4094 173.776C80.4094 174.048 80.356 174.32 80.2494 174.592C80.148 174.864 79.9774 175.149 79.7374 175.448C79.5027 175.747 79.1907 176.077 78.8014 176.44C78.4174 176.797 77.94 177.203 77.3694 177.656L77.2174 177.424H80.5054V178H76.6894ZM82.4 178V172.896L82.568 172.936C82.504 173.08 82.3813 173.224 82.2 173.368C82.0187 173.512 81.808 173.637 81.568 173.744C81.3333 173.851 81.0907 173.923 80.84 173.96V173.344C81.0907 173.301 81.3307 173.227 81.56 173.12C81.7893 173.013 81.992 172.885 82.168 172.736C82.3493 172.581 82.4827 172.416 82.568 172.24H83.04V178H82.4ZM85.9018 178.08C85.5178 178.08 85.1791 178.011 84.8858 177.872C84.5978 177.728 84.3631 177.52 84.1818 177.248C84.0058 176.976 83.8964 176.648 83.8538 176.264H84.5418C84.6004 176.664 84.7471 176.971 84.9818 177.184C85.2164 177.397 85.5258 177.504 85.9098 177.504C86.2724 177.504 86.5578 177.408 86.7658 177.216C86.9738 177.024 87.0778 176.763 87.0778 176.432C87.0778 176.085 86.9764 175.805 86.7738 175.592C86.5711 175.373 86.2991 175.264 85.9578 175.264H85.2378V174.704H85.9338C86.2431 174.704 86.4884 174.616 86.6698 174.44C86.8564 174.259 86.9498 174.019 86.9498 173.72C86.9498 173.405 86.8511 173.163 86.6538 172.992C86.4618 172.821 86.2004 172.736 85.8698 172.736C85.5444 172.736 85.2671 172.832 85.0378 173.024C84.8084 173.211 84.6724 173.48 84.6298 173.832H83.9338C83.9658 173.491 84.0671 173.197 84.2378 172.952C84.4084 172.701 84.6351 172.507 84.9178 172.368C85.2058 172.229 85.5284 172.16 85.8858 172.16C86.2324 172.16 86.5391 172.221 86.8058 172.344C87.0724 172.467 87.2804 172.643 87.4298 172.872C87.5791 173.096 87.6538 173.36 87.6538 173.664C87.6538 173.936 87.5924 174.176 87.4698 174.384C87.3471 174.592 87.1791 174.755 86.9658 174.872C86.7578 174.989 86.5178 175.048 86.2458 175.048L86.1978 174.88C86.5231 174.88 86.8031 174.949 87.0378 175.088C87.2778 175.221 87.4618 175.405 87.5898 175.64C87.7231 175.875 87.7898 176.147 87.7898 176.456C87.7898 176.776 87.7098 177.059 87.5498 177.304C87.3898 177.549 87.1684 177.741 86.8858 177.88C86.6031 178.013 86.2751 178.08 85.9018 178.08Z" fill="#606165"/>
<path d="M209.08 167V166.424H210.624C211.104 166.424 211.517 166.328 211.864 166.136C212.211 165.939 212.477 165.664 212.664 165.312C212.851 164.96 212.944 164.552 212.944 164.088C212.944 163.629 212.851 163.229 212.664 162.888C212.477 162.547 212.211 162.283 211.864 162.096C211.523 161.909 211.109 161.816 210.624 161.816H209.08V161.24H210.624C211.227 161.24 211.752 161.36 212.2 161.6C212.648 161.835 212.995 162.168 213.24 162.6C213.491 163.027 213.616 163.528 213.616 164.104C213.616 164.68 213.491 165.187 213.24 165.624C212.989 166.056 212.64 166.395 212.192 166.64C211.749 166.88 211.229 167 210.632 167H209.08ZM208.688 167V161.24H209.344V167H208.688ZM216.968 167C216.947 166.909 216.931 166.805 216.92 166.688C216.915 166.571 216.912 166.421 216.912 166.24H216.872V164.288C216.872 163.979 216.8 163.752 216.656 163.608C216.518 163.459 216.291 163.384 215.976 163.384C215.667 163.384 215.419 163.448 215.232 163.576C215.051 163.699 214.95 163.875 214.928 164.104H214.312C214.339 163.709 214.504 163.4 214.808 163.176C215.112 162.952 215.51 162.84 216 162.84C216.507 162.84 216.883 162.96 217.128 163.2C217.374 163.44 217.496 163.8 217.496 164.28V166.24C217.496 166.357 217.504 166.48 217.52 166.608C217.536 166.731 217.558 166.861 217.584 167H216.968ZM215.568 167.08C215.147 167.08 214.811 166.979 214.56 166.776C214.315 166.568 214.192 166.285 214.192 165.928C214.192 165.571 214.315 165.293 214.56 165.096C214.806 164.899 215.163 164.76 215.632 164.68L217.056 164.44V164.968L215.728 165.176C215.43 165.224 215.203 165.304 215.048 165.416C214.894 165.528 214.816 165.691 214.816 165.904C214.816 166.112 214.886 166.269 215.024 166.376C215.168 166.483 215.379 166.536 215.656 166.536C216.014 166.536 216.304 166.456 216.528 166.296C216.758 166.131 216.872 165.917 216.872 165.656L216.976 166.224C216.891 166.496 216.723 166.707 216.472 166.856C216.227 167.005 215.926 167.08 215.568 167.08ZM220.093 167.072C219.639 167.072 219.309 166.971 219.101 166.768C218.898 166.56 218.797 166.261 218.797 165.872V161.968L219.437 161.728V165.864C219.437 166.093 219.495 166.261 219.613 166.368C219.73 166.475 219.922 166.528 220.189 166.528C220.295 166.528 220.386 166.523 220.461 166.512C220.541 166.496 220.605 166.477 220.653 166.456V167C220.599 167.021 220.522 167.037 220.421 167.048C220.325 167.064 220.215 167.072 220.093 167.072ZM217.957 163.464V162.92H220.653V163.464H217.957ZM222.902 167.08C222.513 167.08 222.169 166.989 221.87 166.808C221.572 166.621 221.337 166.368 221.166 166.048C220.996 165.728 220.91 165.36 220.91 164.944C220.91 164.528 220.993 164.163 221.158 163.848C221.329 163.528 221.566 163.28 221.87 163.104C222.174 162.928 222.524 162.84 222.918 162.84C223.297 162.84 223.625 162.923 223.902 163.088C224.185 163.253 224.401 163.485 224.55 163.784C224.705 164.083 224.782 164.435 224.782 164.84C224.782 164.893 224.78 164.944 224.774 164.992C224.774 165.04 224.769 165.093 224.758 165.152H221.39V164.616H224.366L224.158 164.912C224.158 164.421 224.049 164.045 223.83 163.784C223.617 163.517 223.313 163.384 222.918 163.384C222.513 163.384 222.185 163.525 221.934 163.808C221.689 164.085 221.566 164.461 221.566 164.936C221.566 165.421 221.689 165.811 221.934 166.104C222.185 166.392 222.518 166.536 222.934 166.536C223.196 166.536 223.425 166.48 223.622 166.368C223.82 166.251 223.964 166.085 224.054 165.872H224.662C224.529 166.245 224.305 166.541 223.99 166.76C223.681 166.973 223.318 167.08 222.902 167.08Z" fill="white"/>
<path d="M188.512 178.08C187.835 178.08 187.312 177.835 186.944 177.344C186.581 176.848 186.4 176.133 186.4 175.2C186.4 174.555 186.485 174.005 186.656 173.552C186.832 173.099 187.083 172.755 187.408 172.52C187.733 172.28 188.12 172.16 188.568 172.16C189.059 172.16 189.464 172.301 189.784 172.584C190.104 172.867 190.299 173.256 190.368 173.752H189.664C189.616 173.421 189.493 173.171 189.296 173C189.104 172.824 188.859 172.736 188.56 172.736C188.085 172.736 187.725 172.939 187.48 173.344C187.24 173.749 187.12 174.357 187.12 175.168V175.688L186.936 175.616C186.984 175.365 187.091 175.147 187.256 174.96C187.421 174.773 187.627 174.629 187.872 174.528C188.117 174.421 188.381 174.368 188.664 174.368C189.027 174.368 189.341 174.448 189.608 174.608C189.88 174.763 190.091 174.981 190.24 175.264C190.395 175.541 190.472 175.867 190.472 176.24C190.472 176.608 190.389 176.931 190.224 177.208C190.059 177.485 189.829 177.701 189.536 177.856C189.243 178.005 188.901 178.08 188.512 178.08ZM188.536 177.504C188.899 177.504 189.192 177.389 189.416 177.16C189.64 176.931 189.752 176.621 189.752 176.232C189.752 175.827 189.643 175.509 189.424 175.28C189.211 175.045 188.909 174.928 188.52 174.928C188.147 174.928 187.835 175.037 187.584 175.256C187.339 175.475 187.216 175.776 187.216 176.16C187.216 176.427 187.272 176.661 187.384 176.864C187.501 177.067 187.659 177.224 187.856 177.336C188.059 177.448 188.285 177.504 188.536 177.504ZM194.711 178.072C194.039 178.072 193.503 177.907 193.103 177.576C192.708 177.245 192.476 176.773 192.407 176.16H193.047C193.105 176.603 193.273 176.936 193.551 177.16C193.828 177.384 194.212 177.496 194.703 177.496C195.119 177.496 195.431 177.419 195.639 177.264C195.852 177.104 195.959 176.872 195.959 176.568C195.959 176.307 195.887 176.099 195.743 175.944C195.599 175.789 195.375 175.661 195.071 175.56L194.103 175.224C193.612 175.053 193.249 174.848 193.015 174.608C192.78 174.363 192.663 174.053 192.663 173.68C192.663 173.371 192.74 173.104 192.895 172.88C193.049 172.651 193.268 172.472 193.551 172.344C193.833 172.216 194.161 172.152 194.535 172.152C195.111 172.152 195.572 172.304 195.919 172.608C196.265 172.907 196.465 173.333 196.519 173.888H195.879C195.809 173.488 195.665 173.195 195.447 173.008C195.233 172.821 194.924 172.728 194.519 172.728C194.135 172.728 193.836 172.805 193.623 172.96C193.409 173.115 193.303 173.333 193.303 173.616C193.303 173.856 193.377 174.048 193.527 174.192C193.676 174.336 193.908 174.461 194.223 174.568L195.255 174.928C195.703 175.083 196.039 175.293 196.263 175.56C196.487 175.821 196.599 176.155 196.599 176.56C196.599 177.04 196.433 177.413 196.103 177.68C195.777 177.941 195.313 178.072 194.711 178.072ZM199.074 178.08C198.685 178.08 198.341 177.989 198.042 177.808C197.744 177.621 197.509 177.368 197.338 177.048C197.168 176.728 197.082 176.36 197.082 175.944C197.082 175.528 197.165 175.163 197.33 174.848C197.501 174.528 197.738 174.28 198.042 174.104C198.346 173.928 198.696 173.84 199.09 173.84C199.469 173.84 199.797 173.923 200.074 174.088C200.357 174.253 200.573 174.485 200.722 174.784C200.877 175.083 200.954 175.435 200.954 175.84C200.954 175.893 200.952 175.944 200.946 175.992C200.946 176.04 200.941 176.093 200.93 176.152H197.562V175.616H200.538L200.33 175.912C200.33 175.421 200.221 175.045 200.002 174.784C199.789 174.517 199.485 174.384 199.09 174.384C198.685 174.384 198.357 174.525 198.106 174.808C197.861 175.085 197.738 175.461 197.738 175.936C197.738 176.421 197.861 176.811 198.106 177.104C198.357 177.392 198.69 177.536 199.106 177.536C199.368 177.536 199.597 177.48 199.794 177.368C199.992 177.251 200.136 177.085 200.226 176.872H200.834C200.701 177.245 200.477 177.541 200.162 177.76C199.853 177.973 199.49 178.08 199.074 178.08ZM203.774 178.072C203.39 178.072 203.067 177.979 202.806 177.792C202.544 177.605 202.366 177.341 202.27 177L202.398 176.984V179.64H201.758V173.92H202.358V174.872L202.27 174.848C202.371 174.533 202.563 174.288 202.846 174.112C203.128 173.931 203.456 173.84 203.83 173.84C204.192 173.84 204.507 173.928 204.774 174.104C205.046 174.28 205.256 174.525 205.406 174.84C205.555 175.155 205.63 175.523 205.63 175.944C205.63 176.371 205.552 176.744 205.398 177.064C205.243 177.384 205.027 177.632 204.75 177.808C204.472 177.984 204.147 178.072 203.774 178.072ZM203.678 177.512C204.083 177.512 204.4 177.373 204.63 177.096C204.859 176.813 204.974 176.429 204.974 175.944C204.974 175.464 204.859 175.088 204.63 174.816C204.4 174.539 204.083 174.4 203.678 174.4C203.272 174.4 202.952 174.541 202.718 174.824C202.483 175.101 202.366 175.483 202.366 175.968C202.366 176.443 202.483 176.819 202.718 177.096C202.952 177.373 203.272 177.512 203.678 177.512ZM207.571 178V177.44C208.147 176.965 208.627 176.549 209.011 176.192C209.4 175.835 209.71 175.517 209.939 175.24C210.174 174.963 210.339 174.709 210.435 174.48C210.536 174.245 210.587 174.016 210.587 173.792C210.587 173.461 210.488 173.203 210.291 173.016C210.094 172.829 209.822 172.736 209.475 172.736C209.118 172.736 208.83 172.837 208.611 173.04C208.392 173.243 208.259 173.533 208.211 173.912H207.523C207.576 173.389 207.776 172.968 208.123 172.648C208.475 172.323 208.942 172.16 209.523 172.16C210.062 172.16 210.491 172.304 210.811 172.592C211.131 172.88 211.291 173.275 211.291 173.776C211.291 174.048 211.238 174.32 211.131 174.592C211.03 174.864 210.859 175.149 210.619 175.448C210.384 175.747 210.072 176.077 209.683 176.44C209.299 176.797 208.822 177.203 208.251 177.656L208.099 177.424H211.387V178H207.571ZM214.224 178.08C213.77 178.08 213.373 177.955 213.032 177.704C212.696 177.448 212.432 177.096 212.24 176.648C212.053 176.195 211.96 175.677 211.96 175.096C211.96 174.515 212.053 174.005 212.24 173.568C212.426 173.125 212.69 172.781 213.032 172.536C213.373 172.285 213.77 172.16 214.224 172.16C214.677 172.16 215.072 172.285 215.408 172.536C215.749 172.781 216.013 173.125 216.2 173.568C216.392 174.005 216.488 174.515 216.488 175.096C216.488 175.683 216.392 176.2 216.2 176.648C216.013 177.096 215.749 177.448 215.408 177.704C215.072 177.955 214.677 178.08 214.224 178.08ZM214.224 177.504C214.549 177.504 214.826 177.408 215.056 177.216C215.285 177.019 215.461 176.741 215.584 176.384C215.706 176.021 215.768 175.589 215.768 175.088C215.768 174.592 215.706 174.168 215.584 173.816C215.466 173.464 215.293 173.197 215.064 173.016C214.834 172.829 214.554 172.736 214.224 172.736C213.893 172.736 213.613 172.829 213.384 173.016C213.154 173.203 212.978 173.472 212.856 173.824C212.738 174.171 212.68 174.592 212.68 175.088C212.68 175.589 212.741 176.021 212.864 176.384C212.986 176.747 213.162 177.024 213.392 177.216C213.621 177.408 213.898 177.504 214.224 177.504ZM217.001 178V177.44C217.577 176.965 218.057 176.549 218.441 176.192C218.83 175.835 219.14 175.517 219.369 175.24C219.604 174.963 219.769 174.709 219.865 174.48C219.966 174.245 220.017 174.016 220.017 173.792C220.017 173.461 219.918 173.203 219.721 173.016C219.524 172.829 219.252 172.736 218.905 172.736C218.548 172.736 218.26 172.837 218.041 173.04C217.822 173.243 217.689 173.533 217.641 173.912H216.953C217.006 173.389 217.206 172.968 217.553 172.648C217.905 172.323 218.372 172.16 218.953 172.16C219.492 172.16 219.921 172.304 220.241 172.592C220.561 172.88 220.721 173.275 220.721 173.776C220.721 174.048 220.668 174.32 220.561 174.592C220.46 174.864 220.289 175.149 220.049 175.448C219.814 175.747 219.502 176.077 219.113 176.44C218.729 176.797 218.252 177.203 217.681 177.656L217.529 177.424H220.817V178H217.001ZM223.502 178.08C222.824 178.08 222.302 177.835 221.934 177.344C221.571 176.848 221.39 176.133 221.39 175.2C221.39 174.555 221.475 174.005 221.646 173.552C221.822 173.099 222.072 172.755 222.398 172.52C222.723 172.28 223.11 172.16 223.558 172.16C224.048 172.16 224.454 172.301 224.774 172.584C225.094 172.867 225.288 173.256 225.358 173.752H224.654C224.606 173.421 224.483 173.171 224.286 173C224.094 172.824 223.848 172.736 223.55 172.736C223.075 172.736 222.715 172.939 222.47 173.344C222.23 173.749 222.11 174.357 222.11 175.168V175.688L221.926 175.616C221.974 175.365 222.08 175.147 222.246 174.96C222.411 174.773 222.616 174.629 222.862 174.528C223.107 174.421 223.371 174.368 223.654 174.368C224.016 174.368 224.331 174.448 224.598 174.608C224.87 174.763 225.08 174.981 225.23 175.264C225.384 175.541 225.462 175.867 225.462 176.24C225.462 176.608 225.379 176.931 225.214 177.208C225.048 177.485 224.819 177.701 224.526 177.856C224.232 178.005 223.891 178.08 223.502 178.08ZM223.526 177.504C223.888 177.504 224.182 177.389 224.406 177.16C224.63 176.931 224.742 176.621 224.742 176.232C224.742 175.827 224.632 175.509 224.414 175.28C224.2 175.045 223.899 174.928 223.51 174.928C223.136 174.928 222.824 175.037 222.574 175.256C222.328 175.475 222.206 175.776 222.206 176.16C222.206 176.427 222.262 176.661 222.374 176.864C222.491 177.067 222.648 177.224 222.846 177.336C223.048 177.448 223.275 177.504 223.526 177.504Z" fill="#606165"/>
<rect x="16" y="197" width="210" height="49" rx="10" fill="white" fill-opacity="0.05"/>
<rect x="16.25" y="197.25" width="209.5" height="48.5" rx="9.75" stroke="white" stroke-opacity="0.1" stroke-width="0.5"/>
<path d="M43.9773 213.583C41.6138 215.431 40.0775 218.287 40.0775 221.5C40.0775 224.713 41.6138 227.596 43.9773 229.417L44.0045 229.417C46.3954 227.569 47.9044 224.722 47.9044 221.5C47.9044 218.287 46.3681 215.431 44.0045 213.583L43.9773 213.583Z" fill="white"/>
<path d="M40.2268 221.5C40.2268 218.309 41.708 215.472 43.9869 213.637C42.3128 212.307 40.2005 211.5 37.8866 211.5C32.4262 211.5 28 215.968 28 221.5C28 227.023 32.4174 231.5 37.8866 231.5C40.1917 231.5 42.304 230.693 43.9869 229.363C41.708 227.555 40.2268 224.691 40.2268 221.5Z" fill="#606165"/>
<path d="M60 221.5C60 227.023 55.5826 231.5 50.1134 231.5C47.8083 231.5 45.696 230.693 44.0131 229.363C46.3183 227.528 47.7732 224.7 47.7732 221.5C47.7732 218.309 46.292 215.472 44.0131 213.637C45.6872 212.307 47.7995 211.5 50.1134 211.5C55.5826 211.5 60 215.995 60 221.5Z" fill="#606165"/>
<path d="M68.5 220V212.8H70.04V220H68.5ZM69.22 220V218.82H73.86V220H69.22ZM69.22 216.9V215.74H73.51V216.9H69.22ZM69.22 213.98V212.8H73.74V213.98H69.22ZM75.4998 220V218.8H77.3198C77.8398 218.8 78.2798 218.697 78.6398 218.49C79.0064 218.277 79.2831 217.987 79.4698 217.62C79.6631 217.253 79.7598 216.833 79.7598 216.36C79.7598 215.893 79.6664 215.483 79.4798 215.13C79.2931 214.777 79.0164 214.5 78.6498 214.3C78.2898 214.1 77.8464 214 77.3198 214H75.5298V212.8H77.3198C78.1264 212.8 78.8298 212.947 79.4298 213.24C80.0298 213.527 80.4931 213.94 80.8198 214.48C81.1531 215.013 81.3198 215.647 81.3198 216.38C81.3198 217.113 81.1531 217.753 80.8198 218.3C80.4864 218.84 80.0198 219.26 79.4198 219.56C78.8264 219.853 78.1298 220 77.3298 220H75.4998ZM74.5598 220V212.8H76.0998V220H74.5598ZM83.3391 220L81.3091 212.8H82.8691L84.5491 219.39H84.0591L85.5591 212.8H87.3091L88.7891 219.39H88.3091L89.9991 212.8H91.4891L89.4591 220H87.7391L86.2091 213.54H86.6091L85.0591 220H83.3391ZM90.765 220L93.345 212.8H94.665L92.295 220H90.765ZM96.045 220L93.685 212.8H95.065L97.645 220H96.045ZM92.125 217.21H96.165V218.41H92.125V217.21ZM98.0213 220V212.8H101.241C101.761 212.8 102.215 212.89 102.601 213.07C102.988 213.243 103.288 213.49 103.501 213.81C103.715 214.13 103.821 214.503 103.821 214.93C103.821 215.35 103.715 215.72 103.501 216.04C103.288 216.353 102.988 216.6 102.601 216.78C102.215 216.953 101.761 217.04 101.241 217.04H99.2413V215.91H101.201C101.568 215.91 101.848 215.827 102.041 215.66C102.241 215.487 102.341 215.247 102.341 214.94C102.341 214.627 102.245 214.39 102.051 214.23C101.858 214.063 101.575 213.98 101.201 213.98H99.5613V220H98.0213ZM102.081 220L99.1913 216.26H100.821L104.161 220H102.081ZM105.481 220V218.8H107.301C107.821 218.8 108.261 218.697 108.621 218.49C108.988 218.277 109.264 217.987 109.451 217.62C109.644 217.253 109.741 216.833 109.741 216.36C109.741 215.893 109.648 215.483 109.461 215.13C109.274 214.777 108.998 214.5 108.631 214.3C108.271 214.1 107.828 214 107.301 214H105.511V212.8H107.301C108.108 212.8 108.811 212.947 109.411 213.24C110.011 213.527 110.474 213.94 110.801 214.48C111.134 215.013 111.301 215.647 111.301 216.38C111.301 217.113 111.134 217.753 110.801 218.3C110.468 218.84 110.001 219.26 109.401 219.56C108.808 219.853 108.111 220 107.311 220H105.481ZM104.541 220V212.8H106.081V220H104.541ZM117.014 220.1C116.494 220.1 116.014 220.01 115.574 219.83C115.134 219.643 114.751 219.383 114.424 219.05C114.104 218.717 113.854 218.323 113.674 217.87C113.494 217.41 113.404 216.91 113.404 216.37C113.404 215.83 113.491 215.337 113.664 214.89C113.844 214.443 114.094 214.057 114.414 213.73C114.741 213.397 115.124 213.143 115.564 212.97C116.004 212.79 116.487 212.7 117.014 212.7C117.607 212.7 118.141 212.817 118.614 213.05C119.094 213.277 119.484 213.6 119.784 214.02C120.091 214.433 120.277 214.92 120.344 215.48H118.844C118.757 214.967 118.547 214.58 118.214 214.32C117.881 214.053 117.484 213.92 117.024 213.92C116.617 213.92 116.257 214.017 115.944 214.21C115.637 214.403 115.397 214.683 115.224 215.05C115.051 215.41 114.964 215.847 114.964 216.36C114.964 216.88 115.051 217.33 115.224 217.71C115.404 218.083 115.651 218.373 115.964 218.58C116.277 218.78 116.637 218.88 117.044 218.88C117.477 218.88 117.861 218.75 118.194 218.49C118.527 218.23 118.744 217.843 118.844 217.33H120.364C120.277 217.89 120.081 218.38 119.774 218.8C119.467 219.213 119.077 219.533 118.604 219.76C118.131 219.987 117.601 220.1 117.014 220.1ZM124.394 220.1C123.861 220.1 123.367 220.01 122.914 219.83C122.467 219.65 122.077 219.397 121.744 219.07C121.417 218.737 121.161 218.343 120.974 217.89C120.794 217.43 120.704 216.923 120.704 216.37C120.704 215.637 120.861 214.997 121.174 214.45C121.487 213.897 121.921 213.467 122.474 213.16C123.034 212.853 123.671 212.7 124.384 212.7C125.111 212.7 125.751 212.853 126.304 213.16C126.857 213.467 127.291 213.897 127.604 214.45C127.924 215.003 128.084 215.647 128.084 216.38C128.084 216.927 127.991 217.43 127.804 217.89C127.624 218.343 127.367 218.737 127.034 219.07C126.707 219.397 126.317 219.65 125.864 219.83C125.417 220.01 124.927 220.1 124.394 220.1ZM124.384 218.88C124.804 218.88 125.174 218.773 125.494 218.56C125.814 218.347 126.064 218.053 126.244 217.68C126.431 217.3 126.524 216.86 126.524 216.36C126.524 215.867 126.434 215.437 126.254 215.07C126.074 214.703 125.824 214.42 125.504 214.22C125.184 214.02 124.811 213.92 124.384 213.92C123.964 213.92 123.594 214.02 123.274 214.22C122.954 214.42 122.704 214.703 122.524 215.07C122.351 215.43 122.264 215.86 122.264 216.36C122.264 216.867 122.354 217.31 122.534 217.69C122.714 218.063 122.964 218.357 123.284 218.57C123.604 218.777 123.971 218.88 124.384 218.88ZM128.682 220V212.8H130.222V220H128.682ZM129.402 220V218.82H133.682V220H129.402ZM134.381 220V212.8H135.921V220H134.381ZM135.101 220V218.82H139.381V220H135.101ZM140.079 220V212.8H141.619V220H140.079ZM142.418 220V212.8H144.408L147.608 219.16L147.118 219.28V212.8H148.618V220H146.628L143.428 213.64L143.918 213.52V220H142.418ZM152.376 220.09C151.442 220.09 150.696 219.883 150.136 219.47C149.576 219.05 149.249 218.46 149.156 217.7H150.636C150.682 218.087 150.869 218.393 151.196 218.62C151.522 218.84 151.939 218.95 152.446 218.95C152.859 218.95 153.176 218.877 153.396 218.73C153.622 218.583 153.736 218.387 153.736 218.14C153.736 217.907 153.669 217.72 153.536 217.58C153.402 217.433 153.172 217.317 152.846 217.23L151.506 216.86C150.819 216.667 150.316 216.403 149.996 216.07C149.682 215.73 149.526 215.307 149.526 214.8C149.526 214.367 149.636 213.993 149.856 213.68C150.082 213.36 150.399 213.117 150.806 212.95C151.212 212.777 151.689 212.69 152.236 212.69C153.076 212.69 153.746 212.89 154.246 213.29C154.746 213.683 155.029 214.207 155.096 214.86H153.616C153.549 214.507 153.386 214.247 153.126 214.08C152.872 213.913 152.546 213.83 152.146 213.83C151.799 213.83 151.522 213.897 151.316 214.03C151.109 214.163 151.006 214.343 151.006 214.57C151.006 214.743 151.062 214.903 151.176 215.05C151.289 215.19 151.526 215.31 151.886 215.41L153.226 215.78C153.932 215.973 154.439 216.24 154.746 216.58C155.059 216.913 155.216 217.337 155.216 217.85C155.216 218.57 154.966 219.123 154.466 219.51C153.966 219.897 153.269 220.09 152.376 220.09Z" fill="white"/>
<path d="M69.344 227.504L69.512 226.504L68.688 227.144L68.4 226.656L69.376 226.296L68.4 225.928L68.688 225.44L69.512 226.08L69.344 225.08H69.92L69.752 226.08L70.576 225.44L70.864 225.928L69.888 226.296L70.864 226.656L70.576 227.144L69.752 226.504L69.92 227.504H69.344ZM72.3481 227.504L72.5161 226.504L71.6921 227.144L71.4041 226.656L72.3801 226.296L71.4041 225.928L71.6921 225.44L72.5161 226.08L72.3481 225.08H72.9241L72.7561 226.08L73.5801 225.44L73.8681 225.928L72.8921 226.296L73.8681 226.656L73.5801 227.144L72.7561 226.504L72.9241 227.504H72.3481ZM75.3521 227.504L75.5201 226.504L74.6961 227.144L74.4081 226.656L75.3841 226.296L74.4081 225.928L74.6961 225.44L75.5201 226.08L75.3521 225.08H75.9281L75.7601 226.08L76.5841 225.44L76.8721 225.928L75.8961 226.296L76.8721 226.656L76.5841 227.144L75.7601 226.504L75.9281 227.504H75.3521ZM78.3562 227.504L78.5242 226.504L77.7002 227.144L77.4122 226.656L78.3882 226.296L77.4122 225.928L77.7002 225.44L78.5242 226.08L78.3562 225.08H78.9322L78.7642 226.08L79.5882 225.44L79.8762 225.928L78.9002 226.296L79.8762 226.656L79.5882 227.144L78.7642 226.504L78.9322 227.504H78.3562ZM81.8794 231V230.44C82.4554 229.965 82.9354 229.549 83.3194 229.192C83.7087 228.835 84.018 228.517 84.2474 228.24C84.482 227.963 84.6474 227.709 84.7434 227.48C84.8447 227.245 84.8954 227.016 84.8954 226.792C84.8954 226.461 84.7967 226.203 84.5994 226.016C84.402 225.829 84.13 225.736 83.7834 225.736C83.426 225.736 83.138 225.837 82.9194 226.04C82.7007 226.243 82.5674 226.533 82.5194 226.912H81.8314C81.8847 226.389 82.0847 225.968 82.4314 225.648C82.7834 225.323 83.25 225.16 83.8314 225.16C84.37 225.16 84.7994 225.304 85.1194 225.592C85.4394 225.88 85.5994 226.275 85.5994 226.776C85.5994 227.048 85.546 227.32 85.4394 227.592C85.338 227.864 85.1674 228.149 84.9274 228.448C84.6927 228.747 84.3807 229.077 83.9914 229.44C83.6074 229.797 83.13 230.203 82.5594 230.656L82.4074 230.424H85.6954V231H81.8794ZM88.1111 231.08C87.7271 231.08 87.3885 231.011 87.0951 230.872C86.8071 230.728 86.5725 230.52 86.3911 230.248C86.2151 229.976 86.1058 229.648 86.0631 229.264H86.7511C86.8098 229.664 86.9565 229.971 87.1911 230.184C87.4258 230.397 87.7351 230.504 88.1191 230.504C88.4818 230.504 88.7671 230.408 88.9751 230.216C89.1831 230.024 89.2871 229.763 89.2871 229.432C89.2871 229.085 89.1858 228.805 88.9831 228.592C88.7805 228.373 88.5085 228.264 88.1671 228.264H87.4471V227.704H88.1431C88.4525 227.704 88.6978 227.616 88.8791 227.44C89.0658 227.259 89.1591 227.019 89.1591 226.72C89.1591 226.405 89.0605 226.163 88.8631 225.992C88.6711 225.821 88.4098 225.736 88.0791 225.736C87.7538 225.736 87.4765 225.832 87.2471 226.024C87.0178 226.211 86.8818 226.48 86.8391 226.832H86.1431C86.1751 226.491 86.2765 226.197 86.4471 225.952C86.6178 225.701 86.8445 225.507 87.1271 225.368C87.4151 225.229 87.7378 225.16 88.0951 225.16C88.4418 225.16 88.7485 225.221 89.0151 225.344C89.2818 225.467 89.4898 225.643 89.6391 225.872C89.7885 226.096 89.8631 226.36 89.8631 226.664C89.8631 226.936 89.8018 227.176 89.6791 227.384C89.5565 227.592 89.3885 227.755 89.1751 227.872C88.9671 227.989 88.7271 228.048 88.4551 228.048L88.4071 227.88C88.7325 227.88 89.0125 227.949 89.2471 228.088C89.4871 228.221 89.6711 228.405 89.7991 228.64C89.9325 228.875 89.9991 229.147 89.9991 229.456C89.9991 229.776 89.9191 230.059 89.7591 230.304C89.5991 230.549 89.3778 230.741 89.0951 230.88C88.8125 231.013 88.4845 231.08 88.1111 231.08ZM91.9612 231V225.896L92.1292 225.936C92.0652 226.08 91.9426 226.224 91.7612 226.368C91.5799 226.512 91.3692 226.637 91.1292 226.744C90.8946 226.851 90.6519 226.923 90.4012 226.96V226.344C90.6519 226.301 90.8919 226.227 91.1212 226.12C91.3506 226.013 91.5532 225.885 91.7292 225.736C91.9106 225.581 92.0439 225.416 92.1292 225.24H92.6012V231H91.9612ZM95.463 231.08C95.079 231.08 94.7403 231.011 94.447 230.872C94.159 230.728 93.9243 230.52 93.743 230.248C93.567 229.976 93.4577 229.648 93.415 229.264H94.103C94.1617 229.664 94.3083 229.971 94.543 230.184C94.7777 230.397 95.087 230.504 95.471 230.504C95.8337 230.504 96.119 230.408 96.327 230.216C96.535 230.024 96.639 229.763 96.639 229.432C96.639 229.085 96.5377 228.805 96.335 228.592C96.1323 228.373 95.8603 228.264 95.519 228.264H94.799V227.704H95.495C95.8043 227.704 96.0497 227.616 96.231 227.44C96.4177 227.259 96.511 227.019 96.511 226.72C96.511 226.405 96.4123 226.163 96.215 225.992C96.023 225.821 95.7617 225.736 95.431 225.736C95.1057 225.736 94.8283 225.832 94.599 226.024C94.3697 226.211 94.2337 226.48 94.191 226.832H93.495C93.527 226.491 93.6283 226.197 93.799 225.952C93.9697 225.701 94.1963 225.507 94.479 225.368C94.767 225.229 95.0897 225.16 95.447 225.16C95.7937 225.16 96.1003 225.221 96.367 225.344C96.6337 225.467 96.8417 225.643 96.991 225.872C97.1403 226.096 97.215 226.36 97.215 226.664C97.215 226.936 97.1537 227.176 97.031 227.384C96.9083 227.592 96.7403 227.755 96.527 227.872C96.319 227.989 96.079 228.048 95.807 228.048L95.759 227.88C96.0843 227.88 96.3643 227.949 96.599 228.088C96.839 228.221 97.023 228.405 97.151 228.64C97.2843 228.875 97.351 229.147 97.351 229.456C97.351 229.776 97.271 230.059 97.111 230.304C96.951 230.549 96.7297 230.741 96.447 230.88C96.1643 231.013 95.8363 231.08 95.463 231.08Z" fill="#606165"/>
</g>
<rect x="0.5" y="0.5" width="241" height="269" rx="19.5" stroke="url(#paint1_linear_1_308)" stroke-opacity="0.1"/>
<defs>
<filter id="filter0_f_1_308" x="-68.2505" y="-54.251" width="336.762" height="196.481" filterUnits="userSpaceOnUse" color-interpolation-filters="sRGB">
<feFlood flood-opacity="0" result="BackgroundImageFix"/>
<feBlend mode="normal" in="SourceGraphic" in2="BackgroundImageFix" result="shape"/>
<feGaussianBlur stdDeviation="30" result="effect1_foregroundBlur_1_308"/>
</filter>
<filter id="filter1_f_1_308" x="-88.2505" y="-24.251" width="246.94" height="168.803" filterUnits="userSpaceOnUse" color-interpolation-filters="sRGB">
<feFlood flood-opacity="0" result="BackgroundImageFix"/>
<feBlend mode="normal" in="SourceGraphic" in2="BackgroundImageFix" result="shape"/>
<feGaussianBlur stdDeviation="30" result="effect1_foregroundBlur_1_308"/>
</filter>
<filter id="filter2_f_1_308" x="50.9988" y="-3.09741" width="498.181" height="500.366" filterUnits="userSpaceOnUse" color-interpolation-filters="sRGB">
<feFlood flood-opacity="0" result="BackgroundImageFix"/>
<feBlend mode="normal" in="SourceGraphic" in2="BackgroundImageFix" result="shape"/>
<feGaussianBlur stdDeviation="106.68" result="effect1_foregroundBlur_1_308"/>
</filter>
<filter id="filter3_f_1_308" x="-127.672" y="-181.78" width="855.543" height="857.728" filterUnits="userSpaceOnUse" color-interpolation-filters="sRGB">
<feFlood flood-opacity="0" result="BackgroundImageFix"/>
<feBlend mode="normal" in="SourceGraphic" in2="BackgroundImageFix" result="shape"/>
<feGaussianBlur stdDeviation="196.021" result="effect1_foregroundBlur_1_308"/>
</filter>
<filter id="filter4_f_1_308" x="-187.883" y="-18.2485" width="672.507" height="503.332" filterUnits="userSpaceOnUse" color-interpolation-filters="sRGB">
<feFlood flood-opacity="0" result="BackgroundImageFix"/>
<feBlend mode="normal" in="SourceGraphic" in2="BackgroundImageFix" result="shape"/>
<feGaussianBlur stdDeviation="106.68" result="effect1_foregroundBlur_1_308"/>
</filter>
<linearGradient id="paint0_linear_1_308" x1="121" y1="30" x2="121" y2="66" gradientUnits="userSpaceOnUse">
<stop stop-color="#FF8975"/>
<stop offset="1" stop-color="#995246"/>
</linearGradient>
<linearGradient id="paint1_linear_1_308" x1="121" y1="0" x2="121" y2="270" gradientUnits="userSpaceOnUse">
<stop stop-color="white"/>
<stop offset="1" stop-color="white" stop-opacity="0.2"/>
</linearGradient>
<clipPath id="clip0_1_308">
<rect width="242" height="270" rx="20" fill="white"/>
</clipPath>
</defs>
</svg>
