<svg width="1062" height="560" viewBox="0 0 1062 560" fill="none" xmlns="http://www.w3.org/2000/svg">
<g clip-path="url(#clip0_4098_2924)">
<path d="M0 30C0 13.4314 13.4315 0 30 0H1032C1048.57 0 1062 13.4315 1062 30V530C1062 546.569 1048.57 560 1032 560H30C13.4315 560 0 546.569 0 530V30Z" fill="#141414"/>
<g opacity="0.4" filter="url(#filter0_f_4098_2924)">
<g filter="url(#filter1_f_4098_2924)">
<ellipse cx="79.2021" cy="126.248" rx="79.2021" ry="126.248" transform="matrix(-0.979388 0.208686 -0.075227 -0.996108 -62.8535 352.12)" fill="white"/>
</g>
<g filter="url(#filter2_f_4098_2924)">
<ellipse cx="79.2021" cy="126.248" rx="79.2021" ry="126.248" transform="matrix(-0.979388 0.208686 -0.075227 -0.996108 -62.8652 352.133)" fill="white"/>
</g>
<g filter="url(#filter3_f_4098_2924)">
<ellipse cx="115.294" cy="296.607" rx="115.294" ry="296.607" transform="matrix(-0.463105 -0.885794 0.854013 -0.522203 -32.6074 320.031)" fill="#CFD0DA"/>
</g>
<g filter="url(#filter4_f_4098_2924)">
<ellipse cx="74.1609" cy="212.368" rx="74.1609" ry="212.368" transform="matrix(-0.239444 -0.970073 0.938724 -0.348634 -35.4668 155.702)" fill="#FFA04E"/>
</g>
</g>
<g style="mix-blend-mode:luminosity" opacity="0.56">
<g filter="url(#filter5_f_4098_2924)" style="mix-blend-mode:plus-lighter">
<path d="M161.953 -45.3433L265.923 127.218" stroke="url(#paint0_linear_4098_2924)" stroke-width="19.5027" stroke-linecap="round"/>
</g>
<g filter="url(#filter6_f_4098_2924)" style="mix-blend-mode:plus-lighter">
<path d="M152.67 -34.825L227.7 114.065" stroke="url(#paint1_linear_4098_2924)" stroke-width="24.0033" stroke-linecap="round"/>
</g>
<g filter="url(#filter7_f_4098_2924)" style="mix-blend-mode:plus-lighter">
<path d="M143.889 -17.3328L206.861 115.427" stroke="url(#paint2_linear_4098_2924)" stroke-width="26.0035" stroke-linecap="round"/>
</g>
<g filter="url(#filter8_f_4098_2924)" style="mix-blend-mode:plus-lighter">
<ellipse cx="87.8947" cy="49.0874" rx="87.8947" ry="49.0874" transform="matrix(-0.787866 0.615847 0.615847 0.787866 146.992 -105.754)" fill="#BA85FF"/>
</g>
<g opacity="0.3" filter="url(#filter9_f_4098_2924)" style="mix-blend-mode:plus-lighter">
<ellipse cx="65.6101" cy="112.092" rx="65.6101" ry="112.092" transform="matrix(-0.787866 0.615847 0.615847 0.787866 205.109 -54.845)" fill="url(#paint3_linear_4098_2924)"/>
</g>
<g opacity="0.12" filter="url(#filter10_f_4098_2924)">
<circle cx="169.396" cy="13.8698" r="0.514004" transform="rotate(-77.0135 169.396 13.8698)" fill="white"/>
</g>
<g opacity="0.05" filter="url(#filter11_f_4098_2924)">
<circle cx="170.939" cy="30.0504" r="0.514004" transform="rotate(-77.0135 170.939 30.0504)" fill="white"/>
</g>
<g opacity="0.4" filter="url(#filter12_f_4098_2924)">
<circle cx="204.261" cy="1.07393" r="0.257002" transform="rotate(-77.0135 204.261 1.07393)" fill="white"/>
</g>
<g opacity="0.4" filter="url(#filter13_f_4098_2924)">
<circle cx="210.812" cy="18.4099" r="0.257002" transform="rotate(-77.0135 210.812 18.4099)" fill="white"/>
</g>
<g opacity="0.2" filter="url(#filter14_d_4098_2924)">
<circle cx="219.714" cy="31.2799" r="0.514004" transform="rotate(-77.0135 219.714 31.2799)" fill="white"/>
</g>
<circle opacity="0.2" cx="188.236" cy="14.5255" r="0.514004" transform="rotate(-77.0135 188.236 14.5255)" fill="white"/>
<circle opacity="0.2" cx="185.851" cy="47.7355" r="0.514004" transform="rotate(-77.0135 185.851 47.7355)" fill="white"/>
<circle opacity="0.2" cx="194.632" cy="30.2445" r="0.514004" transform="rotate(-77.0135 194.632 30.2445)" fill="white"/>
<circle opacity="0.2" cx="212.278" cy="40.6437" r="0.514004" transform="rotate(-77.0135 212.278 40.6437)" fill="white"/>
<circle opacity="0.2" cx="171.138" cy="68.0795" r="0.514004" transform="rotate(-77.0135 171.138 68.0795)" fill="white"/>
<circle opacity="0.2" cx="156.919" cy="54.2514" r="0.514004" transform="rotate(-77.0135 156.919 54.2514)" fill="white"/>
<circle opacity="0.2" cx="167.896" cy="34.1007" r="0.514004" transform="rotate(-77.0135 167.896 34.1007)" fill="white"/>
<circle opacity="0.2" cx="201.372" cy="10.171" r="0.514004" transform="rotate(-77.0135 201.372 10.171)" fill="white"/>
<circle opacity="0.2" cx="210.812" cy="14.9848" r="0.514004" transform="rotate(-77.0135 210.812 14.9848)" fill="white"/>
<g opacity="0.2" filter="url(#filter15_d_4098_2924)">
<circle cx="231.89" cy="49.3854" r="0.514004" transform="rotate(-77.0135 231.89 49.3854)" fill="white"/>
</g>
<circle opacity="0.05" cx="244.066" cy="60.6342" r="0.514004" transform="rotate(-77.0135 244.066 60.6342)" fill="white"/>
<circle opacity="0.05" cx="224.456" cy="65.6059" r="0.514004" transform="rotate(-77.0135 224.456 65.6059)" fill="white"/>
<circle opacity="0.05" cx="202.96" cy="69.6159" r="0.514004" transform="rotate(-77.0135 202.96 69.6159)" fill="white"/>
<circle opacity="0.05" cx="189.593" cy="74.9728" r="0.514004" transform="rotate(-77.0135 189.593 74.9728)" fill="white"/>
<circle opacity="0.05" cx="177.265" cy="82.6808" r="0.514004" transform="rotate(-77.0135 177.265 82.6808)" fill="white"/>
<g opacity="0.6">
<g filter="url(#filter16_f_4098_2924)" style="mix-blend-mode:plus-lighter">
<path d="M113.496 -36.5046L217.466 136.056" stroke="url(#paint4_linear_4098_2924)" stroke-width="19.5027" stroke-linecap="round"/>
</g>
<g filter="url(#filter17_f_4098_2924)" style="mix-blend-mode:plus-lighter">
<path d="M104.213 -25.9863L179.243 122.903" stroke="url(#paint5_linear_4098_2924)" stroke-width="24.0033" stroke-linecap="round"/>
</g>
<g filter="url(#filter18_f_4098_2924)" style="mix-blend-mode:plus-lighter">
<path d="M95.4316 -8.49414L158.404 124.266" stroke="url(#paint6_linear_4098_2924)" stroke-width="26.0035" stroke-linecap="round"/>
</g>
<g filter="url(#filter19_f_4098_2924)" style="mix-blend-mode:plus-lighter">
<ellipse cx="87.8947" cy="49.0874" rx="87.8947" ry="49.0874" transform="matrix(-0.787866 0.615847 0.615847 0.787866 98.5352 -96.9153)" fill="#BA85FF"/>
</g>
<g filter="url(#filter20_f_4098_2924)" style="mix-blend-mode:plus-lighter">
<ellipse cx="65.6101" cy="112.092" rx="65.6101" ry="112.092" transform="matrix(-0.787866 0.615847 0.615847 0.787866 156.654 -46.0066)" fill="url(#paint7_linear_4098_2924)"/>
</g>
<g opacity="0.12" filter="url(#filter21_f_4098_2924)">
<circle cx="120.941" cy="22.7082" r="0.514004" transform="rotate(-77.0135 120.941 22.7082)" fill="white"/>
</g>
<g opacity="0.05" filter="url(#filter22_f_4098_2924)">
<circle cx="122.484" cy="38.8888" r="0.514004" transform="rotate(-77.0135 122.484 38.8888)" fill="white"/>
</g>
<g opacity="0.12" filter="url(#filter23_f_4098_2924)">
<circle cx="114.388" cy="5.37198" r="0.514004" transform="rotate(-77.0135 114.388 5.37198)" fill="white"/>
</g>
<g opacity="0.4" filter="url(#filter24_f_4098_2924)">
<circle cx="141.935" cy="1.43843" r="0.257002" transform="rotate(-77.0135 141.935 1.43843)" fill="white"/>
</g>
<g opacity="0.4" filter="url(#filter25_f_4098_2924)">
<circle cx="155.806" cy="9.91231" r="0.257002" transform="rotate(-77.0135 155.806 9.91231)" fill="white"/>
</g>
<g opacity="0.4" filter="url(#filter26_f_4098_2924)">
<circle cx="162.357" cy="27.2482" r="0.257002" transform="rotate(-77.0135 162.357 27.2482)" fill="white"/>
</g>
<circle opacity="0.2" cx="170.951" cy="40.3083" r="0.257002" transform="rotate(-77.0135 170.951 40.3083)" fill="white"/>
<circle opacity="0.2" cx="139.472" cy="23.5539" r="0.257002" transform="rotate(-77.0135 139.472 23.5539)" fill="white"/>
<circle opacity="0.2" cx="137.087" cy="56.7639" r="0.257002" transform="rotate(-77.0135 137.087 56.7639)" fill="white"/>
<circle opacity="0.2" cx="145.869" cy="39.2717" r="0.257002" transform="rotate(-77.0135 145.869 39.2717)" fill="white"/>
<circle opacity="0.2" cx="163.515" cy="49.6713" r="0.257002" transform="rotate(-77.0135 163.515 49.6713)" fill="white"/>
<circle opacity="0.2" cx="122.375" cy="77.1079" r="0.257002" transform="rotate(-77.0135 122.375 77.1079)" fill="white"/>
<circle opacity="0.2" cx="108.156" cy="63.2788" r="0.257002" transform="rotate(-77.0135 108.156 63.2788)" fill="white"/>
<circle opacity="0.2" cx="119.132" cy="43.1279" r="0.257002" transform="rotate(-77.0135 119.132 43.1279)" fill="white"/>
<circle opacity="0.2" cx="152.609" cy="19.1984" r="0.257002" transform="rotate(-77.0135 152.609 19.1984)" fill="white"/>
<circle opacity="0.2" cx="162.048" cy="24.0131" r="0.257002" transform="rotate(-77.0135 162.048 24.0131)" fill="white"/>
<circle opacity="0.2" cx="183.127" cy="58.4138" r="0.257002" transform="rotate(-77.0135 183.127 58.4138)" fill="white"/>
<circle opacity="0.05" cx="195.302" cy="69.6613" r="0.257002" transform="rotate(-77.0135 195.302 69.6613)" fill="white"/>
<circle opacity="0.05" cx="175.693" cy="74.634" r="0.257002" transform="rotate(-77.0135 175.693 74.634)" fill="white"/>
<circle opacity="0.05" cx="154.197" cy="78.6442" r="0.257002" transform="rotate(-77.0135 154.197 78.6442)" fill="white"/>
<circle opacity="0.05" cx="140.828" cy="84.0014" r="0.257002" transform="rotate(-77.0135 140.828 84.0014)" fill="white"/>
<circle opacity="0.05" cx="128.502" cy="91.7085" r="0.257002" transform="rotate(-77.0135 128.502 91.7085)" fill="white"/>
</g>
</g>
</g>
<path d="M30 0.25H1032C1048.43 0.250012 1061.75 13.5695 1061.75 30V530C1061.75 546.43 1048.43 559.75 1032 559.75H30C13.5695 559.75 0.25 546.43 0.25 530V30C0.25 13.5695 13.5695 0.25 30 0.25Z" stroke="url(#paint8_linear_4098_2924)" stroke-opacity="0.2" stroke-width="0.5"/>
<defs>
<filter id="filter0_f_4098_2924" x="-442.09" y="-336.532" width="1082.32" height="920.289" filterUnits="userSpaceOnUse" color-interpolation-filters="sRGB">
<feFlood flood-opacity="0" result="BackgroundImageFix"/>
<feBlend mode="normal" in="SourceGraphic" in2="BackgroundImageFix" result="shape"/>
<feGaussianBlur stdDeviation="107" result="effect1_foregroundBlur_4098_2924"/>
</filter>
<filter id="filter1_f_4098_2924" x="-441.439" y="-97.322" width="583.036" height="680.427" filterUnits="userSpaceOnUse" color-interpolation-filters="sRGB">
<feFlood flood-opacity="0" result="BackgroundImageFix"/>
<feBlend mode="normal" in="SourceGraphic" in2="BackgroundImageFix" result="shape"/>
<feGaussianBlur stdDeviation="106.68" result="effect1_foregroundBlur_4098_2924"/>
</filter>
<filter id="filter2_f_4098_2924" x="-620.131" y="-275.99" width="940.397" height="1037.79" filterUnits="userSpaceOnUse" color-interpolation-filters="sRGB">
<feFlood flood-opacity="0" result="BackgroundImageFix"/>
<feBlend mode="normal" in="SourceGraphic" in2="BackgroundImageFix" result="shape"/>
<feGaussianBlur stdDeviation="196.021" result="effect1_foregroundBlur_4098_2924"/>
</filter>
<filter id="filter3_f_4098_2924" x="-304.98" y="-335.893" width="944.571" height="797.817" filterUnits="userSpaceOnUse" color-interpolation-filters="sRGB">
<feFlood flood-opacity="0" result="BackgroundImageFix"/>
<feBlend mode="normal" in="SourceGraphic" in2="BackgroundImageFix" result="shape"/>
<feGaussianBlur stdDeviation="106.68" result="effect1_foregroundBlur_4098_2924"/>
</filter>
<filter id="filter4_f_4098_2924" x="-267.386" y="-306.873" width="827.034" height="633.19" filterUnits="userSpaceOnUse" color-interpolation-filters="sRGB">
<feFlood flood-opacity="0" result="BackgroundImageFix"/>
<feBlend mode="normal" in="SourceGraphic" in2="BackgroundImageFix" result="shape"/>
<feGaussianBlur stdDeviation="106.68" result="effect1_foregroundBlur_4098_2924"/>
</filter>
<filter id="filter5_f_4098_2924" x="137.199" y="-70.098" width="153.479" height="222.071" filterUnits="userSpaceOnUse" color-interpolation-filters="sRGB">
<feFlood flood-opacity="0" result="BackgroundImageFix"/>
<feBlend mode="normal" in="SourceGraphic" in2="BackgroundImageFix" result="shape"/>
<feGaussianBlur stdDeviation="7.50102" result="effect1_foregroundBlur_4098_2924"/>
</filter>
<filter id="filter6_f_4098_2924" x="131.665" y="-55.8303" width="117.04" height="190.901" filterUnits="userSpaceOnUse" color-interpolation-filters="sRGB">
<feFlood flood-opacity="0" result="BackgroundImageFix"/>
<feBlend mode="normal" in="SourceGraphic" in2="BackgroundImageFix" result="shape"/>
<feGaussianBlur stdDeviation="4.50061" result="effect1_foregroundBlur_4098_2924"/>
</filter>
<filter id="filter7_f_4098_2924" x="120.383" y="-40.8391" width="109.983" height="179.773" filterUnits="userSpaceOnUse" color-interpolation-filters="sRGB">
<feFlood flood-opacity="0" result="BackgroundImageFix"/>
<feBlend mode="normal" in="SourceGraphic" in2="BackgroundImageFix" result="shape"/>
<feGaussianBlur stdDeviation="5.25071" result="effect1_foregroundBlur_4098_2924"/>
</filter>
<filter id="filter8_f_4098_2924" x="-42.6157" y="-154.492" width="301.179" height="283.083" filterUnits="userSpaceOnUse" color-interpolation-filters="sRGB">
<feFlood flood-opacity="0" result="BackgroundImageFix"/>
<feBlend mode="normal" in="SourceGraphic" in2="BackgroundImageFix" result="shape"/>
<feGaussianBlur stdDeviation="37.5051" result="effect1_foregroundBlur_4098_2924"/>
</filter>
<filter id="filter9_f_4098_2924" x="-113.831" y="-273.301" width="672.56" height="694.351" filterUnits="userSpaceOnUse" color-interpolation-filters="sRGB">
<feFlood flood-opacity="0" result="BackgroundImageFix"/>
<feBlend mode="normal" in="SourceGraphic" in2="BackgroundImageFix" result="shape"/>
<feGaussianBlur stdDeviation="125.017" result="effect1_foregroundBlur_4098_2924"/>
</filter>
<filter id="filter10_f_4098_2924" x="167.881" y="12.3556" width="3.02957" height="3.02835" filterUnits="userSpaceOnUse" color-interpolation-filters="sRGB">
<feFlood flood-opacity="0" result="BackgroundImageFix"/>
<feBlend mode="normal" in="SourceGraphic" in2="BackgroundImageFix" result="shape"/>
<feGaussianBlur stdDeviation="0.500068" result="effect1_foregroundBlur_4098_2924"/>
</filter>
<filter id="filter11_f_4098_2924" x="169.424" y="28.5362" width="3.02957" height="3.02835" filterUnits="userSpaceOnUse" color-interpolation-filters="sRGB">
<feFlood flood-opacity="0" result="BackgroundImageFix"/>
<feBlend mode="normal" in="SourceGraphic" in2="BackgroundImageFix" result="shape"/>
<feGaussianBlur stdDeviation="0.500068" result="effect1_foregroundBlur_4098_2924"/>
</filter>
<filter id="filter12_f_4098_2924" x="203.004" y="-0.183241" width="2.51394" height="2.51443" filterUnits="userSpaceOnUse" color-interpolation-filters="sRGB">
<feFlood flood-opacity="0" result="BackgroundImageFix"/>
<feBlend mode="normal" in="SourceGraphic" in2="BackgroundImageFix" result="shape"/>
<feGaussianBlur stdDeviation="0.500068" result="effect1_foregroundBlur_4098_2924"/>
</filter>
<filter id="filter13_f_4098_2924" x="209.555" y="17.1527" width="2.51394" height="2.51443" filterUnits="userSpaceOnUse" color-interpolation-filters="sRGB">
<feFlood flood-opacity="0" result="BackgroundImageFix"/>
<feBlend mode="normal" in="SourceGraphic" in2="BackgroundImageFix" result="shape"/>
<feGaussianBlur stdDeviation="0.500068" result="effect1_foregroundBlur_4098_2924"/>
</filter>
<filter id="filter14_d_4098_2924" x="217.199" y="30.7659" width="5.02984" height="5.02862" filterUnits="userSpaceOnUse" color-interpolation-filters="sRGB">
<feFlood flood-opacity="0" result="BackgroundImageFix"/>
<feColorMatrix in="SourceAlpha" type="matrix" values="0 0 0 0 0 0 0 0 0 0 0 0 0 0 0 0 0 0 127 0" result="hardAlpha"/>
<feOffset dy="2.00027"/>
<feGaussianBlur stdDeviation="1.00014"/>
<feComposite in2="hardAlpha" operator="out"/>
<feColorMatrix type="matrix" values="0 0 0 0 0 0 0 0 0 0 0 0 0 0 0 0 0 0 0.25 0"/>
<feBlend mode="normal" in2="BackgroundImageFix" result="effect1_dropShadow_4098_2924"/>
<feBlend mode="normal" in="SourceGraphic" in2="effect1_dropShadow_4098_2924" result="shape"/>
</filter>
<filter id="filter15_d_4098_2924" x="229.375" y="48.8713" width="5.02984" height="5.02862" filterUnits="userSpaceOnUse" color-interpolation-filters="sRGB">
<feFlood flood-opacity="0" result="BackgroundImageFix"/>
<feColorMatrix in="SourceAlpha" type="matrix" values="0 0 0 0 0 0 0 0 0 0 0 0 0 0 0 0 0 0 127 0" result="hardAlpha"/>
<feOffset dy="2.00027"/>
<feGaussianBlur stdDeviation="1.00014"/>
<feComposite in2="hardAlpha" operator="out"/>
<feColorMatrix type="matrix" values="0 0 0 0 0 0 0 0 0 0 0 0 0 0 0 0 0 0 0.25 0"/>
<feBlend mode="normal" in2="BackgroundImageFix" result="effect1_dropShadow_4098_2924"/>
<feBlend mode="normal" in="SourceGraphic" in2="effect1_dropShadow_4098_2924" result="shape"/>
</filter>
<filter id="filter16_f_4098_2924" x="88.7421" y="-61.2594" width="153.479" height="222.071" filterUnits="userSpaceOnUse" color-interpolation-filters="sRGB">
<feFlood flood-opacity="0" result="BackgroundImageFix"/>
<feBlend mode="normal" in="SourceGraphic" in2="BackgroundImageFix" result="shape"/>
<feGaussianBlur stdDeviation="7.50102" result="effect1_foregroundBlur_4098_2924"/>
</filter>
<filter id="filter17_f_4098_2924" x="83.2078" y="-46.9917" width="117.04" height="190.901" filterUnits="userSpaceOnUse" color-interpolation-filters="sRGB">
<feFlood flood-opacity="0" result="BackgroundImageFix"/>
<feBlend mode="normal" in="SourceGraphic" in2="BackgroundImageFix" result="shape"/>
<feGaussianBlur stdDeviation="4.50061" result="effect1_foregroundBlur_4098_2924"/>
</filter>
<filter id="filter18_f_4098_2924" x="71.9263" y="-32.0005" width="109.983" height="179.773" filterUnits="userSpaceOnUse" color-interpolation-filters="sRGB">
<feFlood flood-opacity="0" result="BackgroundImageFix"/>
<feBlend mode="normal" in="SourceGraphic" in2="BackgroundImageFix" result="shape"/>
<feGaussianBlur stdDeviation="5.25071" result="effect1_foregroundBlur_4098_2924"/>
</filter>
<filter id="filter19_f_4098_2924" x="-91.0727" y="-145.653" width="301.179" height="283.083" filterUnits="userSpaceOnUse" color-interpolation-filters="sRGB">
<feFlood flood-opacity="0" result="BackgroundImageFix"/>
<feBlend mode="normal" in="SourceGraphic" in2="BackgroundImageFix" result="shape"/>
<feGaussianBlur stdDeviation="37.5051" result="effect1_foregroundBlur_4098_2924"/>
</filter>
<filter id="filter20_f_4098_2924" x="-162.286" y="-264.463" width="672.56" height="694.351" filterUnits="userSpaceOnUse" color-interpolation-filters="sRGB">
<feFlood flood-opacity="0" result="BackgroundImageFix"/>
<feBlend mode="normal" in="SourceGraphic" in2="BackgroundImageFix" result="shape"/>
<feGaussianBlur stdDeviation="125.017" result="effect1_foregroundBlur_4098_2924"/>
</filter>
<filter id="filter21_f_4098_2924" x="119.426" y="21.194" width="3.02957" height="3.02835" filterUnits="userSpaceOnUse" color-interpolation-filters="sRGB">
<feFlood flood-opacity="0" result="BackgroundImageFix"/>
<feBlend mode="normal" in="SourceGraphic" in2="BackgroundImageFix" result="shape"/>
<feGaussianBlur stdDeviation="0.500068" result="effect1_foregroundBlur_4098_2924"/>
</filter>
<filter id="filter22_f_4098_2924" x="120.969" y="37.3746" width="3.02957" height="3.02835" filterUnits="userSpaceOnUse" color-interpolation-filters="sRGB">
<feFlood flood-opacity="0" result="BackgroundImageFix"/>
<feBlend mode="normal" in="SourceGraphic" in2="BackgroundImageFix" result="shape"/>
<feGaussianBlur stdDeviation="0.500068" result="effect1_foregroundBlur_4098_2924"/>
</filter>
<filter id="filter23_f_4098_2924" x="112.873" y="3.85777" width="3.02957" height="3.02835" filterUnits="userSpaceOnUse" color-interpolation-filters="sRGB">
<feFlood flood-opacity="0" result="BackgroundImageFix"/>
<feBlend mode="normal" in="SourceGraphic" in2="BackgroundImageFix" result="shape"/>
<feGaussianBlur stdDeviation="0.500068" result="effect1_foregroundBlur_4098_2924"/>
</filter>
<filter id="filter24_f_4098_2924" x="140.678" y="0.181261" width="2.51394" height="2.51443" filterUnits="userSpaceOnUse" color-interpolation-filters="sRGB">
<feFlood flood-opacity="0" result="BackgroundImageFix"/>
<feBlend mode="normal" in="SourceGraphic" in2="BackgroundImageFix" result="shape"/>
<feGaussianBlur stdDeviation="0.500068" result="effect1_foregroundBlur_4098_2924"/>
</filter>
<filter id="filter25_f_4098_2924" x="154.549" y="8.65514" width="2.51394" height="2.51443" filterUnits="userSpaceOnUse" color-interpolation-filters="sRGB">
<feFlood flood-opacity="0" result="BackgroundImageFix"/>
<feBlend mode="normal" in="SourceGraphic" in2="BackgroundImageFix" result="shape"/>
<feGaussianBlur stdDeviation="0.500068" result="effect1_foregroundBlur_4098_2924"/>
</filter>
<filter id="filter26_f_4098_2924" x="161.099" y="25.9911" width="2.51394" height="2.51443" filterUnits="userSpaceOnUse" color-interpolation-filters="sRGB">
<feFlood flood-opacity="0" result="BackgroundImageFix"/>
<feBlend mode="normal" in="SourceGraphic" in2="BackgroundImageFix" result="shape"/>
<feGaussianBlur stdDeviation="0.500068" result="effect1_foregroundBlur_4098_2924"/>
</filter>
<linearGradient id="paint0_linear_4098_2924" x1="161.525" y1="-45.0852" x2="265.494" y2="127.476" gradientUnits="userSpaceOnUse">
<stop stop-color="#5A41FF"/>
<stop offset="1" stop-color="#8B7AFF" stop-opacity="0"/>
</linearGradient>
<linearGradient id="paint1_linear_4098_2924" x1="152.223" y1="-34.5999" x2="227.253" y2="114.29" gradientUnits="userSpaceOnUse">
<stop stop-color="#5A41FF"/>
<stop offset="1" stop-color="#8B7AFF" stop-opacity="0"/>
</linearGradient>
<linearGradient id="paint2_linear_4098_2924" x1="143.437" y1="-17.1185" x2="206.41" y2="115.642" gradientUnits="userSpaceOnUse">
<stop stop-color="#D4CDFF"/>
<stop offset="0.881849" stop-color="#8B7AFF" stop-opacity="0"/>
</linearGradient>
<linearGradient id="paint3_linear_4098_2924" x1="65.6101" y1="0" x2="49.3696" y2="210.514" gradientUnits="userSpaceOnUse">
<stop stop-color="#E2CDFF"/>
<stop offset="1" stop-color="#E2CDFF" stop-opacity="0"/>
</linearGradient>
<linearGradient id="paint4_linear_4098_2924" x1="113.068" y1="-36.2466" x2="217.037" y2="136.315" gradientUnits="userSpaceOnUse">
<stop stop-color="#5A41FF"/>
<stop offset="1" stop-color="#8B7AFF" stop-opacity="0"/>
</linearGradient>
<linearGradient id="paint5_linear_4098_2924" x1="103.766" y1="-25.7613" x2="178.796" y2="123.128" gradientUnits="userSpaceOnUse">
<stop stop-color="#5A41FF"/>
<stop offset="1" stop-color="#8B7AFF" stop-opacity="0"/>
</linearGradient>
<linearGradient id="paint6_linear_4098_2924" x1="94.9799" y1="-8.27986" x2="157.952" y2="124.48" gradientUnits="userSpaceOnUse">
<stop stop-color="#D4CDFF"/>
<stop offset="0.881849" stop-color="#8B7AFF" stop-opacity="0"/>
</linearGradient>
<linearGradient id="paint7_linear_4098_2924" x1="65.6101" y1="0" x2="65.6101" y2="224.184" gradientUnits="userSpaceOnUse">
<stop stop-color="#E2CDFF"/>
<stop offset="1" stop-color="#E2CDFF" stop-opacity="0"/>
</linearGradient>
<linearGradient id="paint8_linear_4098_2924" x1="253.432" y1="-1.08147e-05" x2="286.54" y2="211.647" gradientUnits="userSpaceOnUse">
<stop stop-color="white"/>
<stop offset="1" stop-color="white" stop-opacity="0.4"/>
</linearGradient>
<clipPath id="clip0_4098_2924">
<path d="M0 30C0 13.4314 13.4315 0 30 0H1032C1048.57 0 1062 13.4315 1062 30V530C1062 546.569 1048.57 560 1032 560H30C13.4315 560 0 546.569 0 530V30Z" fill="white"/>
</clipPath>
</defs>
</svg>
