<svg width="174" height="180" viewBox="0 0 174 180" fill="none" xmlns="http://www.w3.org/2000/svg">
<rect width="173.374" height="179.52" rx="14.0932" fill="#282828"/>
<rect x="0.110103" y="0.110103" width="173.154" height="179.3" rx="13.9831" stroke="white" stroke-opacity="0.1" stroke-width="0.220207"/>
<path d="M10.7726 17.5698L12.486 13.0176H13.0677L11.4302 17.5698H10.7726ZM14.2943 17.5698L12.6567 13.0176H13.27L14.9897 17.5698H14.2943ZM11.6388 15.7553H14.0793V16.3116H11.6388V15.7553ZM15.53 17.5698V13.0176H16.1875V17.5698H15.53ZM16.9841 17.5698V13.0176H17.6417V17.5698H16.9841ZM19.8419 17.633C19.5131 17.633 19.2244 17.5614 18.9757 17.4181C18.727 17.2706 18.5332 17.0703 18.3941 16.8174C18.255 16.5603 18.1854 16.2695 18.1854 15.9449C18.1854 15.6162 18.255 15.3274 18.3941 15.0788C18.5374 14.8301 18.7313 14.6362 18.9757 14.4971C19.2244 14.3538 19.5131 14.2821 19.8419 14.2821C20.1749 14.2821 20.4657 14.3538 20.7144 14.4971C20.9631 14.6362 21.1549 14.8301 21.2898 15.0788C21.4289 15.3274 21.4984 15.6162 21.4984 15.9449C21.4984 16.2695 21.4289 16.5603 21.2898 16.8174C21.1549 17.0703 20.9631 17.2706 20.7144 17.4181C20.4657 17.5614 20.1749 17.633 19.8419 17.633ZM19.8419 17.0956C20.04 17.0956 20.2107 17.0472 20.354 16.9502C20.5016 16.8533 20.6175 16.7184 20.7018 16.5456C20.7861 16.3728 20.8282 16.1704 20.8282 15.9386C20.8282 15.593 20.7355 15.3211 20.55 15.123C20.3688 14.9207 20.1327 14.8195 19.8419 14.8195C19.5553 14.8195 19.3192 14.9207 19.1338 15.123C18.9525 15.3253 18.8619 15.5972 18.8619 15.9386C18.8619 16.1704 18.902 16.3728 18.982 16.5456C19.0663 16.7184 19.1823 16.8533 19.3298 16.9502C19.4815 17.0472 19.6522 17.0956 19.8419 17.0956ZM23.3877 17.633C23.08 17.633 22.806 17.5614 22.5658 17.4181C22.3255 17.2706 22.1358 17.0703 21.9967 16.8174C21.8619 16.5645 21.7944 16.2758 21.7944 15.9513C21.7944 15.6267 21.8619 15.3401 21.9967 15.0914C22.1358 14.8385 22.3255 14.6404 22.5658 14.4971C22.806 14.3538 23.0779 14.2821 23.3814 14.2821C23.6385 14.2821 23.8682 14.3306 24.0705 14.4275C24.2728 14.5245 24.4393 14.6594 24.57 14.8322C24.7007 15.005 24.785 15.2094 24.8229 15.4455H24.2033C24.1611 15.2558 24.0684 15.1041 23.9251 14.9902C23.786 14.8764 23.609 14.8195 23.394 14.8195C23.2086 14.8195 23.0463 14.8659 22.9072 14.9586C22.7681 15.0514 22.6606 15.182 22.5847 15.3506C22.5089 15.5192 22.4709 15.7194 22.4709 15.9513C22.4709 16.1789 22.5089 16.3791 22.5847 16.5519C22.6606 16.7247 22.7681 16.8596 22.9072 16.9565C23.0463 17.0493 23.2107 17.0956 23.4003 17.0956C23.6069 17.0956 23.7818 17.0408 23.9251 16.9313C24.0726 16.8174 24.1675 16.6657 24.2096 16.476H24.8292C24.7871 16.7079 24.6986 16.9102 24.5637 17.083C24.433 17.2558 24.2665 17.3907 24.0642 17.4876C23.8619 17.5846 23.6364 17.633 23.3877 17.633ZM27.3208 17.5698C27.2998 17.4897 27.285 17.4012 27.2766 17.3043C27.2724 17.2073 27.2703 17.0893 27.2703 16.9502H27.2386V15.4139C27.2386 15.2073 27.186 15.0535 27.0806 14.9523C26.9794 14.8469 26.8171 14.7942 26.5937 14.7942C26.3788 14.7942 26.206 14.8364 26.0753 14.9207C25.9488 15.005 25.8751 15.1251 25.854 15.2811H25.2281C25.2576 14.9776 25.3946 14.7352 25.639 14.554C25.8835 14.3727 26.2102 14.2821 26.619 14.2821C27.0405 14.2821 27.3567 14.3812 27.5674 14.5793C27.7782 14.7732 27.8835 15.0598 27.8835 15.4391V16.9502C27.8835 17.0472 27.8899 17.1462 27.9025 17.2474C27.9151 17.3485 27.9341 17.456 27.9594 17.5698H27.3208ZM26.2081 17.633C25.8793 17.633 25.618 17.553 25.4241 17.3928C25.2302 17.2284 25.1332 17.0071 25.1332 16.7289C25.1332 16.4423 25.2344 16.2168 25.4367 16.0524C25.6433 15.8838 25.9383 15.77 26.3219 15.711L27.3841 15.5403V16.0018L26.423 16.1536C26.2081 16.1873 26.0458 16.2442 25.9362 16.3243C25.8308 16.4044 25.7781 16.5203 25.7781 16.672C25.7781 16.8196 25.8266 16.9313 25.9236 17.0071C26.0247 17.0788 26.1701 17.1146 26.3598 17.1146C26.6127 17.1146 26.8214 17.0535 26.9857 16.9313C27.1543 16.809 27.2386 16.6552 27.2386 16.4697L27.3208 16.9376C27.245 17.161 27.1101 17.3338 26.9162 17.456C26.7223 17.574 26.4863 17.633 26.2081 17.633ZM29.8902 17.633C29.5151 17.633 29.239 17.5466 29.062 17.3738C28.8892 17.1968 28.8028 16.9376 28.8028 16.5962V13.6056L29.454 13.359V16.6025C29.454 16.7711 29.4982 16.8954 29.5868 16.9755C29.6753 17.0556 29.8186 17.0956 30.0167 17.0956C30.0926 17.0956 30.16 17.0893 30.219 17.0767C30.278 17.064 30.3286 17.0493 30.3707 17.0324V17.5635C30.3244 17.5846 30.259 17.6014 30.1747 17.6141C30.0904 17.6267 29.9956 17.633 29.8902 17.633ZM28.1579 14.8701V14.3454H30.3707V14.8701H28.1579ZM32.3199 17.633C31.9448 17.633 31.6687 17.5466 31.4917 17.3738C31.3189 17.1968 31.2325 16.9376 31.2325 16.5962V13.6056L31.8837 13.359V16.6025C31.8837 16.7711 31.928 16.8954 32.0165 16.9755C32.105 17.0556 32.2483 17.0956 32.4464 17.0956C32.5223 17.0956 32.5897 17.0893 32.6487 17.0767C32.7077 17.064 32.7583 17.0493 32.8005 17.0324V17.5635C32.7541 17.5846 32.6888 17.6014 32.6045 17.6141C32.5202 17.6267 32.4253 17.633 32.3199 17.633ZM30.5876 14.8701V14.3454H32.8005V14.8701H30.5876ZM33.2851 17.5698V14.3454H33.9426V17.5698H33.2851ZM33.2535 13.7131V12.9734H33.9805V13.7131H33.2535ZM36.1305 17.633C35.8017 17.633 35.513 17.5614 35.2643 17.4181C35.0156 17.2706 34.8217 17.0703 34.6826 16.8174C34.5435 16.5603 34.474 16.2695 34.474 15.9449C34.474 15.6162 34.5435 15.3274 34.6826 15.0788C34.8259 14.8301 35.0198 14.6362 35.2643 14.4971C35.513 14.3538 35.8017 14.2821 36.1305 14.2821C36.4635 14.2821 36.7543 14.3538 37.003 14.4971C37.2517 14.6362 37.4435 14.8301 37.5783 15.0788C37.7174 15.3274 37.787 15.6162 37.787 15.9449C37.787 16.2695 37.7174 16.5603 37.5783 16.8174C37.4435 17.0703 37.2517 17.2706 37.003 17.4181C36.7543 17.5614 36.4635 17.633 36.1305 17.633ZM36.1305 17.0956C36.3286 17.0956 36.4993 17.0472 36.6426 16.9502C36.7901 16.8533 36.906 16.7184 36.9903 16.5456C37.0746 16.3728 37.1168 16.1704 37.1168 15.9386C37.1168 15.593 37.0241 15.3211 36.8386 15.123C36.6574 14.9207 36.4213 14.8195 36.1305 14.8195C35.8439 14.8195 35.6078 14.9207 35.4224 15.123C35.2411 15.3253 35.1505 15.5972 35.1505 15.9386C35.1505 16.1704 35.1905 16.3728 35.2706 16.5456C35.3549 16.7184 35.4708 16.8533 35.6184 16.9502C35.7701 17.0472 35.9408 17.0956 36.1305 17.0956ZM38.3359 17.5698V14.3454H38.9618V15.1041H38.9934V17.5698H38.3359ZM40.6246 17.5698V15.496C40.6246 15.2727 40.5677 15.1062 40.4539 14.9966C40.3443 14.887 40.18 14.8322 39.9608 14.8322C39.7711 14.8322 39.6025 14.8743 39.455 14.9586C39.3117 15.0429 39.1979 15.1588 39.1136 15.3064C39.0335 15.4539 38.9934 15.6288 38.9934 15.8311L38.9113 15.0598C39.0166 14.8195 39.1789 14.6299 39.3981 14.4908C39.6173 14.3517 39.8723 14.2821 40.1631 14.2821C40.5087 14.2821 40.7806 14.3791 40.9787 14.573C41.1768 14.7669 41.2759 15.024 41.2759 15.3443V17.5698H40.6246Z" fill="#606165"/>
<path d="M11.2721 28.5698V21.7415H14.1647C14.6578 21.7415 15.0783 21.8237 15.426 21.9881C15.7737 22.1525 16.0393 22.3864 16.2226 22.6899C16.4123 22.9934 16.5071 23.3538 16.5071 23.771C16.5071 24.1947 16.4123 24.5614 16.2226 24.8712C16.0393 25.1746 15.7706 25.4117 15.4165 25.5824C15.0688 25.7532 14.6515 25.8385 14.1647 25.8385H12.0403V25.0039H14.1172C14.5661 25.0039 14.9075 24.8965 15.1415 24.6815C15.3817 24.4665 15.5019 24.1662 15.5019 23.7805C15.5019 23.3885 15.3849 23.0882 15.151 22.8796C14.917 22.6709 14.5725 22.5666 14.1172 22.5666H12.2774V28.5698H11.2721ZM19.066 28.6647C18.5791 28.6647 18.1492 28.5572 17.7762 28.3422C17.4095 28.1272 17.1218 27.8301 16.9132 27.4507C16.7045 27.0714 16.6002 26.6351 16.6002 26.142C16.6002 25.6425 16.7014 25.2063 16.9037 24.8332C17.1123 24.4539 17.4032 24.1599 17.7762 23.9512C18.1492 23.7426 18.576 23.6383 19.0565 23.6383C19.5244 23.6383 19.929 23.7394 20.2704 23.9418C20.6181 24.1378 20.8837 24.4128 21.067 24.7668C21.2567 25.1209 21.3516 25.5413 21.3516 26.0282C21.3516 26.1041 21.3484 26.1768 21.3421 26.2463C21.3421 26.3095 21.3357 26.3759 21.3231 26.4455H17.2641V25.7057H20.6308L20.3842 25.9997C20.3842 25.4813 20.2672 25.0861 20.0333 24.8143C19.7994 24.5424 19.4738 24.4065 19.0565 24.4065C18.6076 24.4065 18.2504 24.5614 17.9848 24.8712C17.7256 25.1746 17.596 25.5983 17.596 26.142C17.596 26.692 17.7256 27.122 17.9848 27.4318C18.2504 27.7416 18.6171 27.8965 19.0849 27.8965C19.3695 27.8965 19.616 27.8396 19.8247 27.7258C20.0333 27.6056 20.1882 27.4318 20.2894 27.2042H21.2188C21.0607 27.6594 20.792 28.0166 20.4127 28.2758C20.0396 28.5351 19.5907 28.6647 19.066 28.6647ZM22.0759 28.5698V23.7331H23.0148V24.8712H23.0623V28.5698H22.0759ZM25.5091 28.5698V25.4592C25.5091 25.1241 25.4237 24.8743 25.253 24.7099C25.0886 24.5456 24.842 24.4634 24.5133 24.4634C24.2288 24.4634 23.9759 24.5266 23.7546 24.653C23.5396 24.7795 23.3689 24.9534 23.2424 25.1746C23.1223 25.3959 23.0623 25.6583 23.0623 25.9618L22.939 24.8048C23.097 24.4444 23.3404 24.1599 23.6692 23.9512C23.998 23.7426 24.3805 23.6383 24.8168 23.6383C25.3352 23.6383 25.743 23.7837 26.0402 24.0745C26.3373 24.3654 26.4859 24.751 26.4859 25.2315V28.5698H25.5091ZM29.2693 28.6647C28.637 28.6647 28.1344 28.5256 27.7614 28.2474C27.3884 27.9692 27.1765 27.5772 27.126 27.0714H28.0364C28.0807 27.3496 28.2071 27.5645 28.4158 27.7163C28.6307 27.8617 28.9216 27.9344 29.2883 27.9344C29.6107 27.9344 29.8573 27.8775 30.028 27.7637C30.1987 27.6499 30.2841 27.4887 30.2841 27.28C30.2841 27.1283 30.2335 27.0018 30.1323 26.9007C30.0375 26.7932 29.8478 26.7047 29.5633 26.6351L28.7856 26.4549C28.2988 26.3348 27.9352 26.1578 27.695 25.9239C27.4611 25.6836 27.3441 25.3896 27.3441 25.0419C27.3441 24.6056 27.5053 24.2642 27.8278 24.0176C28.1565 23.7647 28.6054 23.6383 29.1745 23.6383C29.7372 23.6383 30.1892 23.7647 30.5306 24.0176C30.8784 24.2705 31.0744 24.6246 31.1186 25.0798H30.2082C30.1703 24.8522 30.0596 24.6783 29.8763 24.5582C29.6992 24.4317 29.4558 24.3685 29.146 24.3685C28.8552 24.3685 28.6307 24.4223 28.4727 24.5297C28.3209 24.6309 28.2451 24.7732 28.2451 24.9565C28.2451 25.1083 28.302 25.2347 28.4158 25.3359C28.5359 25.437 28.7319 25.5224 29.0038 25.5919L29.8004 25.7911C30.2619 25.9049 30.6097 26.0914 30.8436 26.3506C31.0775 26.6035 31.1945 26.9102 31.1945 27.2706C31.1945 27.7068 31.0238 28.0482 30.6824 28.2948C30.3473 28.5414 29.8763 28.6647 29.2693 28.6647ZM31.8705 28.5698V23.7331H32.8568V28.5698H31.8705ZM31.8231 22.7847V21.6751H32.9137V22.7847H31.8231ZM36.0438 28.6647C35.5506 28.6647 35.1176 28.5572 34.7445 28.3422C34.3715 28.1209 34.0807 27.8206 33.872 27.4413C33.6634 27.0556 33.5591 26.6193 33.5591 26.1325C33.5591 25.6393 33.6634 25.2063 33.872 24.8332C34.087 24.4602 34.3778 24.1694 34.7445 23.9607C35.1176 23.7458 35.5506 23.6383 36.0438 23.6383C36.5433 23.6383 36.9795 23.7458 37.3526 23.9607C37.7256 24.1694 38.0133 24.4602 38.2156 24.8332C38.4242 25.2063 38.5285 25.6393 38.5285 26.1325C38.5285 26.6193 38.4242 27.0556 38.2156 27.4413C38.0133 27.8206 37.7256 28.1209 37.3526 28.3422C36.9795 28.5572 36.5433 28.6647 36.0438 28.6647ZM36.0438 27.8585C36.341 27.8585 36.597 27.7858 36.812 27.6404C37.0333 27.495 37.2071 27.2927 37.3336 27.0335C37.46 26.7742 37.5233 26.4708 37.5233 26.123C37.5233 25.6046 37.3842 25.1968 37.106 24.8996C36.8341 24.5961 36.4801 24.4444 36.0438 24.4444C35.6139 24.4444 35.2598 24.5961 34.9816 24.8996C34.7098 25.2031 34.5738 25.6109 34.5738 26.123C34.5738 26.4708 34.6339 26.7742 34.754 27.0335C34.8805 27.2927 35.0543 27.495 35.2756 27.6404C35.5032 27.7858 35.7593 27.8585 36.0438 27.8585ZM39.2571 28.5698V23.7331H40.196V24.8712H40.2434V28.5698H39.2571ZM42.6902 28.5698V25.4592C42.6902 25.1241 42.6048 24.8743 42.4341 24.7099C42.2698 24.5456 42.0232 24.4634 41.6944 24.4634C41.4099 24.4634 41.157 24.5266 40.9357 24.653C40.7207 24.7795 40.55 24.9534 40.4236 25.1746C40.3035 25.3959 40.2434 25.6583 40.2434 25.9618L40.1201 24.8048C40.2782 24.4444 40.5216 24.1599 40.8504 23.9512C41.1791 23.7426 41.5616 23.6383 41.9979 23.6383C42.5163 23.6383 42.9241 23.7837 43.2213 24.0745C43.5185 24.3654 43.667 24.751 43.667 25.2315V28.5698H42.6902ZM46.3197 28.5698V21.7415H47.325V28.5698H46.3197ZM46.8129 25.7342V24.9091H50.5685V25.7342H46.8129ZM46.8129 22.5666V21.7415H50.8245V22.5666H46.8129ZM52.8513 28.6647C52.5288 28.6647 52.2443 28.5983 51.9978 28.4655C51.7512 28.3264 51.5583 28.1367 51.4192 27.8965C51.2865 27.6562 51.2201 27.3812 51.2201 27.0714V23.7331H52.2064V26.8438C52.2064 27.1789 52.2886 27.4286 52.453 27.593C52.6174 27.7574 52.8513 27.8396 53.1548 27.8396C53.4266 27.8396 53.6669 27.7764 53.8755 27.6499C54.0905 27.5235 54.258 27.3496 54.3782 27.1283C54.5046 26.9007 54.5679 26.6383 54.5679 26.3411L54.6911 27.4982C54.5331 27.8522 54.2897 28.1367 53.9609 28.3517C53.6384 28.5603 53.2686 28.6647 52.8513 28.6647ZM54.6058 28.5698V27.4318H54.5679V23.7331H55.5447V28.5698H54.6058ZM56.642 28.5698V23.7331H57.5809V24.8712H57.6283V28.5698H56.642ZM60.0751 28.5698V25.4592C60.0751 25.1241 59.9897 24.8743 59.819 24.7099C59.6546 24.5456 59.4081 24.4634 59.0793 24.4634C58.7948 24.4634 58.5419 24.5266 58.3206 24.653C58.1056 24.7795 57.9349 24.9534 57.8085 25.1746C57.6884 25.3959 57.6283 25.6583 57.6283 25.9618L57.505 24.8048C57.6631 24.4444 57.9065 24.1599 58.2352 23.9512C58.564 23.7426 58.9465 23.6383 59.3828 23.6383C59.9012 23.6383 60.309 23.7837 60.6062 24.0745C60.9033 24.3654 61.0519 24.751 61.0519 25.2315V28.5698H60.0751ZM65.5989 28.5698V27.4602L65.6937 27.4887C65.5925 27.8491 65.3839 28.1367 65.0678 28.3517C64.7516 28.5603 64.3723 28.6647 63.9297 28.6647C63.4935 28.6647 63.111 28.5603 62.7822 28.3517C62.4597 28.1431 62.2068 27.8522 62.0235 27.4792C61.8465 27.1062 61.7579 26.6699 61.7579 26.1704C61.7579 25.6646 61.8496 25.2221 62.033 24.8427C62.2163 24.4634 62.4724 24.1694 62.8011 23.9607C63.1299 23.7521 63.5156 23.6478 63.9582 23.6478C64.4197 23.6478 64.7991 23.7584 65.0962 23.9797C65.3997 24.1947 65.5989 24.4981 65.6937 24.8901L65.5609 24.9091V21.7415H66.5377V28.5698H65.5989ZM64.1763 27.8396C64.6125 27.8396 64.9571 27.691 65.21 27.3938C65.4629 27.0904 65.5894 26.6731 65.5894 26.142C65.5894 25.6235 65.4598 25.2157 65.2005 24.9186C64.9476 24.6151 64.6031 24.4634 64.1668 24.4634C63.7369 24.4634 63.3955 24.6151 63.1426 24.9186C62.896 25.2157 62.7727 25.633 62.7727 26.1704C62.7727 26.6952 62.896 27.1062 63.1426 27.4033C63.3955 27.6942 63.74 27.8396 64.1763 27.8396Z" fill="white"/>
<mask id="mask0_4131_2938" style="mask-type:alpha" maskUnits="userSpaceOnUse" x="10" y="43" width="153" height="73">
<rect x="10.5703" y="43.2148" width="152.234" height="72.1712" fill="#D9D9D9"/>
</mask>
<g mask="url(#mask0_4131_2938)">
<path d="M71.5151 48.4294C71.0945 46.5295 72.2929 44.6397 74.2104 44.3087C87.0997 42.0836 100.349 43.2659 112.641 47.7381C114.469 48.4034 115.314 50.4755 114.564 52.2709L110.365 62.3173C109.615 64.1127 107.554 64.9488 105.715 64.3105C96.8504 61.2322 87.3618 60.3855 78.0918 61.8455C76.1697 62.1482 74.2894 60.9604 73.8688 59.0606L71.5151 48.4294Z" fill="white" fill-opacity="0.1"/>
<path d="M115.556 52.6942C116.333 50.9104 118.414 50.0869 120.159 50.9471C131.622 56.5965 141.472 65.0896 148.753 75.6396C156.034 86.1896 160.481 98.4118 161.697 111.134C161.882 113.071 160.374 114.724 158.43 114.818L147.554 115.344C145.611 115.438 143.97 113.936 143.757 112.002C142.721 102.622 139.374 93.6243 133.992 85.827C128.611 78.0296 121.386 71.7087 112.983 67.4124C111.25 66.5266 110.428 64.4601 111.206 62.6762L115.556 52.6942Z" fill="url(#paint0_linear_4131_2938)"/>
<path d="M15.5097 115.177C13.5656 115.092 12.0494 113.447 12.2247 111.509C13.6129 96.1669 19.6931 81.5913 29.6805 69.7886C39.6679 57.9859 53.0365 49.5777 67.9371 45.6701C69.8194 45.1765 71.6933 46.3996 72.0981 48.3029L74.363 58.9533C74.7678 60.8566 73.5491 62.7169 71.6744 63.2382C60.661 66.3005 50.7906 72.6067 43.3717 81.3741C35.9528 90.1414 31.3667 100.919 30.169 112.287C29.9651 114.223 28.3321 115.732 26.3881 115.648L15.5097 115.177Z" fill="url(#paint1_linear_4131_2938)"/>
<path d="M74.6092 89.1133V88.5355H76.1242C76.4108 88.5355 76.6339 88.4579 76.7936 88.3029C76.958 88.1479 77.0403 87.9365 77.0403 87.6687C77.0403 87.3869 76.9533 87.1614 76.7795 86.9923C76.6104 86.8231 76.3779 86.7386 76.0819 86.7386H74.6092V86.1748H76.0114C76.298 86.1748 76.5188 86.1067 76.6738 85.9705C76.8336 85.8296 76.9134 85.6299 76.9134 85.3715C76.9134 85.1272 76.8382 84.9417 76.6879 84.8148C76.5423 84.6833 76.3262 84.6175 76.0396 84.6175H74.6092V84.0397H76.1524C76.6128 84.0397 76.9792 84.1525 77.2516 84.378C77.5241 84.5988 77.6604 84.9018 77.6604 85.287C77.6604 85.5313 77.604 85.7474 77.4912 85.9353C77.3832 86.1185 77.2329 86.2618 77.0403 86.3651C76.8476 86.4638 76.6292 86.5131 76.3849 86.5131L76.4201 86.3651C76.6832 86.3651 76.9181 86.4262 77.1248 86.5483C77.3315 86.6658 77.4959 86.8278 77.6181 87.0345C77.7402 87.2412 77.8013 87.4808 77.8013 87.7533C77.8013 88.0211 77.7355 88.2583 77.604 88.465C77.4771 88.6717 77.2963 88.8314 77.0614 88.9442C76.8265 89.0569 76.554 89.1133 76.244 89.1133H74.6092ZM74.0595 89.1133V84.0397H74.8065V89.1133H74.0595ZM80.6181 89.1133C80.5946 89.024 80.5782 88.9254 80.5688 88.8173C80.5641 88.7093 80.5617 88.5777 80.5617 88.4227H80.5265V86.7104C80.5265 86.4802 80.4678 86.3087 80.3503 86.196C80.2376 86.0785 80.0567 86.0198 79.8078 86.0198C79.5682 86.0198 79.3756 86.0668 79.2299 86.1608C79.089 86.2547 79.0068 86.3886 78.9833 86.5624H78.2857C78.3186 86.2242 78.4712 85.9541 78.7437 85.752C79.0162 85.55 79.3803 85.449 79.8359 85.449C80.3057 85.449 80.658 85.5594 80.8929 85.7802C81.1278 85.9963 81.2453 86.3158 81.2453 86.7386V88.4227C81.2453 88.5308 81.2523 88.6412 81.2664 88.7539C81.2805 88.8666 81.3016 88.9864 81.3298 89.1133H80.6181ZM79.3779 89.1837C79.0115 89.1837 78.7202 89.0945 78.5041 88.916C78.288 88.7328 78.18 88.4861 78.18 88.1761C78.18 87.8566 78.2927 87.6053 78.5182 87.4221C78.7484 87.2342 79.0773 87.1073 79.5047 87.0416L80.6886 86.8513V87.3657L79.6175 87.5348C79.3779 87.5724 79.197 87.6358 79.0749 87.7251C78.9575 87.8144 78.8987 87.9435 78.8987 88.1127C78.8987 88.2771 78.9528 88.4016 79.0608 88.4861C79.1736 88.566 79.3356 88.6059 79.547 88.6059C79.8289 88.6059 80.0614 88.5378 80.2446 88.4016C80.4326 88.2653 80.5265 88.0939 80.5265 87.8872L80.6181 88.4086C80.5336 88.6576 80.3832 88.8502 80.1671 88.9864C79.951 89.118 79.688 89.1837 79.3779 89.1837ZM82.0972 89.1133V84.0397H82.83V89.1133H82.0972ZM85.9446 89.1133C85.9211 89.024 85.9047 88.9254 85.8953 88.8173C85.8906 88.7093 85.8883 88.5777 85.8883 88.4227H85.853V86.7104C85.853 86.4802 85.7943 86.3087 85.6769 86.196C85.5641 86.0785 85.3833 86.0198 85.1343 86.0198C84.8947 86.0198 84.7021 86.0668 84.5565 86.1608C84.4155 86.2547 84.3333 86.3886 84.3098 86.5624H83.6122C83.6451 86.2242 83.7978 85.9541 84.0702 85.752C84.3427 85.55 84.7068 85.449 85.1625 85.449C85.6322 85.449 85.9846 85.5594 86.2195 85.7802C86.4543 85.9963 86.5718 86.3158 86.5718 86.7386V88.4227C86.5718 88.5308 86.5788 88.6412 86.5929 88.7539C86.607 88.8666 86.6282 88.9864 86.6563 89.1133H85.9446ZM84.7044 89.1837C84.338 89.1837 84.0467 89.0945 83.8306 88.916C83.6146 88.7328 83.5065 88.4861 83.5065 88.1761C83.5065 87.8566 83.6193 87.6053 83.8447 87.4221C84.0749 87.2342 84.4038 87.1073 84.8313 87.0416L86.0151 86.8513V87.3657L84.944 87.5348C84.7044 87.5724 84.5236 87.6358 84.4014 87.7251C84.284 87.8144 84.2253 87.9435 84.2253 88.1127C84.2253 88.2771 84.2793 88.4016 84.3873 88.4861C84.5001 88.566 84.6621 88.6059 84.8735 88.6059C85.1554 88.6059 85.388 88.5378 85.5712 88.4016C85.7591 88.2653 85.853 88.0939 85.853 87.8872L85.9446 88.4086C85.8601 88.6576 85.7097 88.8502 85.4936 88.9864C85.2776 89.118 85.0145 89.1837 84.7044 89.1837ZM87.4237 89.1133V85.5195H88.1213V86.3651H88.1566V89.1133H87.4237ZM89.9746 89.1133V86.802C89.9746 86.553 89.9112 86.3675 89.7843 86.2453C89.6622 86.1232 89.479 86.0621 89.2347 86.0621C89.0233 86.0621 88.8354 86.1091 88.671 86.203C88.5112 86.297 88.3844 86.4262 88.2904 86.5906C88.2012 86.755 88.1566 86.95 88.1566 87.1755L88.0649 86.3158C88.1824 86.048 88.3633 85.8366 88.6075 85.6816C88.8518 85.5266 89.136 85.449 89.4602 85.449C89.8454 85.449 90.1484 85.5571 90.3692 85.7732C90.59 85.9893 90.7004 86.2758 90.7004 86.6329V89.1133H89.9746ZM93.05 89.1837C92.7071 89.1837 92.4017 89.1039 92.134 88.9442C91.8662 88.7797 91.6548 88.5566 91.4998 88.2747C91.3495 87.9929 91.2743 87.6711 91.2743 87.3093C91.2743 86.9476 91.3495 86.6282 91.4998 86.351C91.6548 86.0691 91.8662 85.8484 92.134 85.6886C92.4017 85.5289 92.7048 85.449 93.043 85.449C93.3296 85.449 93.5856 85.5031 93.8111 85.6111C94.0366 85.7192 94.2221 85.8695 94.3678 86.0621C94.5134 86.2547 94.6073 86.4825 94.6496 86.7456H93.9591C93.9121 86.5342 93.8087 86.3651 93.649 86.2383C93.494 86.1114 93.2967 86.048 93.0571 86.048C92.8504 86.048 92.6695 86.0997 92.5145 86.203C92.3595 86.3064 92.2397 86.452 92.1551 86.6399C92.0706 86.8278 92.0283 87.051 92.0283 87.3093C92.0283 87.563 92.0706 87.7862 92.1551 87.9788C92.2397 88.1714 92.3595 88.3217 92.5145 88.4298C92.6695 88.5331 92.8527 88.5848 93.0641 88.5848C93.2943 88.5848 93.4893 88.5237 93.649 88.4016C93.8134 88.2747 93.9191 88.1056 93.9661 87.8942H94.6567C94.6097 88.1526 94.511 88.3781 94.3607 88.5707C94.2151 88.7633 94.0295 88.9136 93.804 89.0217C93.5785 89.1297 93.3272 89.1837 93.05 89.1837ZM96.7778 89.1837C96.4161 89.1837 96.0966 89.1039 95.8195 88.9442C95.547 88.7844 95.3332 88.5636 95.1782 88.2818C95.0232 87.9999 94.9457 87.6758 94.9457 87.3093C94.9457 86.9382 95.0208 86.6141 95.1712 86.3369C95.3262 86.0551 95.5423 85.8366 95.8195 85.6816C96.0966 85.5266 96.4137 85.449 96.7708 85.449C97.1184 85.449 97.419 85.5242 97.6727 85.6745C97.9311 85.8202 98.1284 86.0245 98.2646 86.2876C98.4056 86.5507 98.476 86.8631 98.476 87.2248C98.476 87.2812 98.4737 87.3352 98.469 87.3869C98.469 87.4338 98.4643 87.4832 98.4549 87.5348H95.4389V86.9852H97.9405L97.7573 87.2036C97.7573 86.8184 97.6704 86.5248 97.4966 86.3228C97.3227 86.1208 97.0808 86.0198 96.7708 86.0198C96.4372 86.0198 96.1718 86.1349 95.9745 86.3651C95.7819 86.5906 95.6856 86.9053 95.6856 87.3093C95.6856 87.7181 95.7819 88.0375 95.9745 88.2677C96.1718 88.4979 96.4443 88.613 96.7919 88.613C97.0033 88.613 97.1865 88.5707 97.3415 88.4861C97.4966 88.3969 97.6117 88.2677 97.6868 88.0986H98.3774C98.2599 88.4368 98.0603 88.7022 97.7784 88.8948C97.5013 89.0874 97.1677 89.1837 96.7778 89.1837Z" fill="#606165"/>
<path d="M60.7921 97.6736V95.132H62.4043V97.6736H60.7921ZM62.4043 110.496V112.942H60.7921V110.496H62.4043ZM61.8922 111.046C60.2483 111.046 58.9333 110.654 57.947 109.87C56.9606 109.086 56.3853 107.967 56.2209 106.512H58.1746C58.2884 107.461 58.6677 108.182 59.3126 108.675C59.9575 109.168 60.83 109.415 61.9301 109.415C62.8532 109.415 63.5487 109.244 64.0166 108.902C64.4971 108.561 64.7373 108.074 64.7373 107.442C64.7373 106.873 64.5793 106.424 64.2631 106.095C63.947 105.754 63.4475 105.476 62.7647 105.261L60.3938 104.502C59.1798 104.11 58.2884 103.617 57.7193 103.022C57.1503 102.428 56.8658 101.676 56.8658 100.765C56.8658 99.994 57.0555 99.3301 57.4348 98.7737C57.8268 98.2174 58.3706 97.7874 59.066 97.484C59.7742 97.1678 60.5961 97.0098 61.5318 97.0098C62.9733 97.0098 64.124 97.3765 64.9839 98.1099C65.8564 98.8306 66.3559 99.8359 66.4823 101.126H64.5287C64.3769 100.266 64.0482 99.6399 63.5424 99.2479C63.0366 98.8433 62.3411 98.641 61.4559 98.641C60.6214 98.641 59.9702 98.8054 59.5023 99.1341C59.0344 99.4629 58.8005 99.9244 58.8005 100.519C58.8005 100.999 58.9522 101.404 59.2557 101.733C59.5718 102.049 60.0903 102.321 60.811 102.548L63.2958 103.345C64.4465 103.712 65.2937 104.211 65.8374 104.843C66.3938 105.476 66.672 106.272 66.672 107.233C66.672 108.447 66.2547 109.389 65.4201 110.059C64.5856 110.717 63.4096 111.046 61.8922 111.046ZM72.2498 111.065C71.3899 111.065 70.6312 110.9 69.9737 110.572C69.3288 110.243 68.8103 109.769 68.4183 109.149C68.0264 108.529 67.7798 107.771 67.6786 106.873H69.7461C69.8599 107.758 70.1381 108.403 70.5806 108.808C71.0232 109.212 71.5986 109.415 72.3067 109.415C72.8378 109.415 73.2867 109.307 73.6534 109.092C74.0327 108.877 74.3362 108.548 74.5638 108.106C74.8041 107.663 74.9811 107.1 75.0949 106.418C75.2087 105.722 75.2656 104.894 75.2656 103.933V102.7L75.8157 102.738C75.6892 103.332 75.4363 103.857 75.057 104.312C74.6776 104.755 74.2034 105.096 73.6344 105.336C73.078 105.577 72.4584 105.697 71.7756 105.697C70.9284 105.697 70.1823 105.514 69.5374 105.147C68.8925 104.78 68.3867 104.274 68.02 103.629C67.6533 102.972 67.47 102.226 67.47 101.391C67.47 100.506 67.6723 99.7411 68.0769 99.0962C68.4816 98.4386 69.0443 97.9328 69.765 97.5788C70.4984 97.2121 71.3393 97.0287 72.2877 97.0287C73.9695 97.0287 75.253 97.6167 76.1381 98.7927C77.0359 99.9687 77.4848 101.682 77.4848 103.933C77.4848 105.438 77.2762 106.727 76.8589 107.802C76.4542 108.864 75.8599 109.674 75.0759 110.23C74.3046 110.786 73.3625 111.065 72.2498 111.065ZM72.3636 104.085C73.1855 104.085 73.843 103.857 74.3362 103.402C74.842 102.947 75.0949 102.314 75.0949 101.505C75.0949 100.961 74.9748 100.481 74.7345 100.064C74.5069 99.6336 74.1845 99.2985 73.7672 99.0583C73.3499 98.8054 72.8631 98.6789 72.3067 98.6789C71.51 98.6789 70.8715 98.9318 70.391 99.4376C69.9231 99.9308 69.6892 100.588 69.6892 101.41C69.6892 102.207 69.9231 102.852 70.391 103.345C70.8588 103.838 71.5164 104.085 72.3636 104.085ZM81.76 110.875V99.0962L82.1204 99.2479C81.956 99.602 81.6715 99.9497 81.2669 100.291C80.8623 100.633 80.3944 100.93 79.8633 101.183C79.3322 101.423 78.7695 101.594 78.1752 101.695V99.76C78.7316 99.6715 79.2753 99.5071 79.8064 99.2669C80.3375 99.014 80.8117 98.7105 81.229 98.3565C81.6462 97.9898 81.956 97.6104 82.1584 97.2184H83.7137V110.875H81.76ZM85.1297 113.758V112.772C85.5723 112.62 85.8758 112.386 86.0402 112.07C86.2172 111.766 86.3057 111.324 86.3057 110.742L87.0834 110.875H85.1108V108.542H87.4438V110.306C87.4438 111.178 87.2604 111.912 86.8937 112.506C86.5397 113.101 85.9517 113.518 85.1297 113.758ZM89.5821 110.875C89.7591 108.725 90.2712 106.614 91.1184 104.54C91.9656 102.466 93.1669 100.418 94.7223 98.3944L94.7792 98.8686H87.0215V97.2184H96.5242V98.6789C95.5631 100.07 94.7539 101.436 94.0963 102.776C93.4388 104.104 92.9203 105.431 92.541 106.759C92.1743 108.087 91.934 109.459 91.8202 110.875H89.5821ZM101.957 111.065C100.288 111.065 98.9982 110.483 98.0878 109.32C97.19 108.144 96.7411 106.462 96.7411 104.274C96.7411 102.757 96.9561 101.461 97.386 100.386C97.8286 99.2985 98.4482 98.4703 99.2448 97.9012C100.054 97.3196 101.009 97.0287 102.109 97.0287C103.323 97.0287 104.322 97.3701 105.106 98.053C105.902 98.7358 106.383 99.6715 106.547 100.86H104.48C104.379 100.152 104.113 99.6146 103.683 99.2479C103.266 98.8686 102.735 98.6789 102.09 98.6789C101.028 98.6789 100.231 99.1341 99.7 100.045C99.1689 100.955 98.9034 102.327 98.9034 104.161V105.393L98.4102 105.223C98.5367 104.628 98.7896 104.11 99.1689 103.667C99.5483 103.225 100.016 102.883 100.573 102.643C101.142 102.39 101.761 102.264 102.431 102.264C103.304 102.264 104.063 102.447 104.707 102.814C105.365 103.181 105.871 103.699 106.225 104.369C106.592 105.027 106.775 105.792 106.775 106.664C106.775 107.549 106.573 108.327 106.168 108.997C105.776 109.655 105.22 110.167 104.499 110.534C103.778 110.888 102.931 111.065 101.957 111.065ZM101.938 109.415C102.722 109.415 103.361 109.174 103.854 108.694C104.36 108.201 104.613 107.524 104.613 106.664C104.613 105.779 104.366 105.096 103.873 104.616C103.38 104.123 102.722 103.876 101.9 103.876C101.091 103.876 100.414 104.11 99.8707 104.578C99.327 105.046 99.0551 105.697 99.0551 106.531C99.0551 107.113 99.1816 107.619 99.4345 108.049C99.6874 108.479 100.029 108.814 100.459 109.054C100.901 109.294 101.394 109.415 101.938 109.415ZM107.579 110.875V109.225C108.906 108.137 110.013 107.189 110.898 106.38C111.796 105.57 112.51 104.85 113.041 104.217C113.572 103.585 113.952 103.01 114.179 102.491C114.407 101.973 114.521 101.454 114.521 100.936C114.521 100.228 114.312 99.6779 113.895 99.2859C113.49 98.8812 112.927 98.6789 112.207 98.6789C111.461 98.6789 110.854 98.9002 110.386 99.3428C109.918 99.7727 109.627 100.386 109.513 101.183H107.465C107.591 99.9308 108.078 98.9255 108.925 98.1668C109.785 97.4081 110.917 97.0287 112.321 97.0287C113.661 97.0287 114.717 97.3828 115.488 98.0909C116.272 98.799 116.664 99.7727 116.664 101.012C116.664 101.644 116.544 102.276 116.304 102.909C116.076 103.528 115.697 104.179 115.166 104.862C114.635 105.532 113.92 106.279 113.022 107.1C112.137 107.91 111.037 108.833 109.722 109.87L109.248 109.225H116.911V110.875H107.579Z" fill="white"/>
</g>
<line x1="10.5703" y1="127.834" x2="162.804" y2="127.834" stroke="white" stroke-opacity="0.1" stroke-width="0.395156"/>
<circle cx="33.3084" cy="144.233" r="3.5564" fill="#E38E45"/>
<path d="M21.9883 157.95V152.26H22.6363V157.95H21.9883ZM25.7976 157.95V152.26H26.4456V157.95H25.7976ZM22.3202 154.702H26.0821V155.271H22.3202V154.702ZM29.2538 158.029C28.8692 158.029 28.5294 157.94 28.2343 157.761C27.9393 157.576 27.7074 157.326 27.5388 157.01C27.3702 156.694 27.2859 156.33 27.2859 155.919C27.2859 155.508 27.3676 155.147 27.5309 154.836C27.6995 154.52 27.934 154.275 28.2343 154.101C28.5346 153.928 28.8797 153.841 29.2696 153.841C29.6437 153.841 29.9677 153.922 30.2417 154.086C30.521 154.249 30.7343 154.478 30.8819 154.773C31.0347 155.068 31.1111 155.416 31.1111 155.816C31.1111 155.869 31.1084 155.919 31.1032 155.967C31.1032 156.014 31.0979 156.067 31.0873 156.125H27.7601V155.595H30.7001L30.4946 155.887C30.4946 155.403 30.3866 155.031 30.1706 154.773C29.9598 154.51 29.6595 154.378 29.2696 154.378C28.8692 154.378 28.5452 154.518 28.2975 154.797C28.0552 155.071 27.934 155.442 27.934 155.911C27.934 156.391 28.0552 156.775 28.2975 157.065C28.5452 157.35 28.8745 157.492 29.2854 157.492C29.5436 157.492 29.7702 157.436 29.9651 157.326C30.16 157.21 30.3023 157.047 30.3919 156.836H30.9925C30.8608 157.205 30.6395 157.497 30.3286 157.713C30.0231 157.924 29.6648 158.029 29.2538 158.029ZM34.3555 157.95C34.3344 157.861 34.3186 157.758 34.3081 157.642C34.3028 157.526 34.3002 157.379 34.3002 157.199H34.2606V155.271C34.2606 154.965 34.1895 154.742 34.0473 154.599C33.9103 154.452 33.6863 154.378 33.3755 154.378C33.0699 154.378 32.8249 154.441 32.6405 154.568C32.4614 154.689 32.3613 154.863 32.3402 155.089H31.7316C31.758 154.699 31.9213 154.394 32.2216 154.173C32.522 153.951 32.9145 153.841 33.3992 153.841C33.8997 153.841 34.2712 153.959 34.5135 154.196C34.7559 154.433 34.8771 154.789 34.8771 155.263V157.199C34.8771 157.315 34.885 157.436 34.9008 157.563C34.9166 157.684 34.9377 157.813 34.964 157.95H34.3555ZM32.9724 158.029C32.5562 158.029 32.2243 157.929 31.9766 157.729C31.7343 157.523 31.6131 157.244 31.6131 156.891C31.6131 156.538 31.7343 156.264 31.9766 156.069C32.219 155.874 32.572 155.737 33.0357 155.658L34.4424 155.421V155.943L33.1305 156.148C32.8354 156.196 32.6115 156.275 32.4587 156.385C32.3059 156.496 32.2295 156.657 32.2295 156.867C32.2295 157.073 32.298 157.228 32.435 157.334C32.5773 157.439 32.7854 157.492 33.0594 157.492C33.4124 157.492 33.6995 157.413 33.9208 157.255C34.1474 157.091 34.2606 156.881 34.2606 156.622L34.3634 157.184C34.2791 157.452 34.1131 157.66 33.8655 157.808C33.6231 157.955 33.3254 158.029 32.9724 158.029ZM35.9377 157.95V152.26H36.57V157.95H35.9377ZM39.2905 158.021C38.8426 158.021 38.516 157.921 38.3105 157.721C38.1103 157.516 38.0102 157.22 38.0102 156.836V152.979L38.6424 152.742V156.828C38.6424 157.055 38.7004 157.22 38.8163 157.326C38.9322 157.431 39.1219 157.484 39.3853 157.484C39.4907 157.484 39.5803 157.479 39.654 157.468C39.7331 157.452 39.7963 157.434 39.8437 157.413V157.95C39.791 157.971 39.7146 157.987 39.6145 157.998C39.5197 158.013 39.4117 158.021 39.2905 158.021ZM37.1803 154.457V153.92H39.8437V154.457H37.1803ZM40.4993 157.95V152.26H41.1315V157.95H40.4993ZM43.3839 157.95V155.311C43.3839 155.005 43.3075 154.776 43.1547 154.623C43.0019 154.47 42.7754 154.394 42.4751 154.394C42.2116 154.394 41.9772 154.452 41.7717 154.568C41.5715 154.684 41.4134 154.844 41.2975 155.05C41.1869 155.255 41.1315 155.495 41.1315 155.769L41.0288 154.813C41.1658 154.512 41.3739 154.275 41.6531 154.101C41.9377 153.928 42.259 153.841 42.6173 153.841C43.0388 153.841 43.376 153.962 43.6289 154.204C43.8871 154.441 44.0162 154.755 44.0162 155.145V157.95H43.3839Z" fill="#606165"/>
<path d="M28.8592 166.95V165.449L28.8908 165.291V162.042L29.1911 162.129L26.8202 165.338L26.4962 165.03H30.4003V165.717H26.0536V165.077L28.8908 161.26H29.7206V166.95H28.8592ZM31.4607 166.95C31.5344 166.055 31.7478 165.175 32.1008 164.311C32.4538 163.446 32.9544 162.593 33.6024 161.75L33.6261 161.948H30.3938V161.26H34.3532V161.868C33.9528 162.448 33.6156 163.017 33.3416 163.576C33.0677 164.129 32.8516 164.682 32.6936 165.235C32.5408 165.788 32.4407 166.36 32.3933 166.95H31.4607ZM34.9852 166.95L39.2055 161.26H39.9405L35.7281 166.95H34.9852ZM38.9763 167.029C38.755 167.029 38.5469 166.977 38.352 166.871C38.157 166.766 37.999 166.605 37.8778 166.389C37.7566 166.173 37.696 165.899 37.696 165.567C37.696 165.235 37.754 164.964 37.8699 164.753C37.9911 164.537 38.1491 164.376 38.3441 164.271C38.539 164.166 38.7497 164.113 38.9763 164.113C39.2134 164.113 39.4294 164.166 39.6244 164.271C39.8246 164.376 39.9826 164.537 40.0985 164.753C40.2145 164.964 40.2724 165.235 40.2724 165.567C40.2724 165.899 40.2118 166.173 40.0906 166.389C39.9695 166.605 39.8088 166.766 39.6086 166.871C39.4136 166.977 39.2029 167.029 38.9763 167.029ZM38.9763 166.516C39.1765 166.516 39.3398 166.434 39.4663 166.271C39.598 166.102 39.6639 165.865 39.6639 165.559C39.6639 165.259 39.598 165.03 39.4663 164.872C39.3398 164.708 39.1765 164.627 38.9763 164.627C38.7761 164.627 38.6154 164.706 38.4942 164.864C38.373 165.022 38.3124 165.254 38.3124 165.559C38.3124 165.87 38.373 166.107 38.4942 166.271C38.6154 166.434 38.7761 166.516 38.9763 166.516ZM35.8941 164.097C35.6675 164.097 35.4568 164.044 35.2618 163.939C35.0669 163.834 34.9088 163.673 34.7877 163.457C34.6717 163.241 34.6138 162.967 34.6138 162.635C34.6138 162.303 34.6717 162.032 34.7877 161.821C34.9088 161.605 35.0669 161.444 35.2618 161.339C35.4568 161.234 35.6675 161.181 35.8941 161.181C36.1312 161.181 36.3472 161.234 36.5421 161.339C36.7371 161.444 36.8925 161.605 37.0084 161.821C37.1243 162.032 37.1823 162.303 37.1823 162.635C37.1823 162.967 37.1217 163.241 37.0005 163.457C36.8793 163.673 36.7213 163.834 36.5263 163.939C36.3314 164.044 36.1206 164.097 35.8941 164.097ZM35.8941 163.583C36.089 163.583 36.2497 163.502 36.3762 163.338C36.5079 163.175 36.5738 162.938 36.5738 162.627C36.5738 162.327 36.5105 162.098 36.3841 161.94C36.2576 161.776 36.0943 161.695 35.8941 161.695C35.6939 161.695 35.5305 161.774 35.4041 161.932C35.2829 162.09 35.2223 162.322 35.2223 162.627C35.2223 162.938 35.2829 163.175 35.4041 163.338C35.5305 163.502 35.6939 163.583 35.8941 163.583Z" fill="white"/>
<circle cx="86.6873" cy="144.233" r="3.5564" fill="white" fill-opacity="0.1"/>
<path d="M77.2955 158.021C76.6317 158.021 76.1022 157.858 75.707 157.531C75.3171 157.205 75.0879 156.738 75.0194 156.132H75.6517C75.7096 156.57 75.8756 156.899 76.1496 157.12C76.4236 157.342 76.8029 157.452 77.2876 157.452C77.6986 157.452 78.0068 157.376 78.2123 157.223C78.423 157.065 78.5284 156.836 78.5284 156.536C78.5284 156.277 78.4573 156.072 78.315 155.919C78.1728 155.766 77.9515 155.64 77.6512 155.54L76.6949 155.208C76.2102 155.039 75.8519 154.836 75.6201 154.599C75.3882 154.357 75.2723 154.051 75.2723 153.683C75.2723 153.377 75.3487 153.113 75.5015 152.892C75.6543 152.666 75.8703 152.489 76.1496 152.363C76.4288 152.236 76.7528 152.173 77.1217 152.173C77.6907 152.173 78.1464 152.323 78.4889 152.623C78.8314 152.919 79.0289 153.34 79.0816 153.888H78.4494C78.3809 153.493 78.2386 153.203 78.0226 153.019C77.8119 152.834 77.5063 152.742 77.1059 152.742C76.7265 152.742 76.4315 152.818 76.2207 152.971C76.01 153.124 75.9046 153.34 75.9046 153.619C75.9046 153.856 75.9783 154.046 76.1259 154.188C76.2734 154.331 76.5026 154.454 76.8134 154.56L77.8329 154.915C78.2755 155.068 78.6074 155.276 78.8287 155.54C79.05 155.798 79.1607 156.127 79.1607 156.528C79.1607 157.002 78.9973 157.371 78.6707 157.634C78.3493 157.892 77.8909 158.021 77.2955 158.021ZM82.4282 157.95C82.4071 157.861 82.3913 157.758 82.3808 157.642C82.3755 157.526 82.3729 157.379 82.3729 157.199H82.3333V155.271C82.3333 154.965 82.2622 154.742 82.12 154.599C81.983 154.452 81.759 154.378 81.4482 154.378C81.1426 154.378 80.8976 154.441 80.7132 154.568C80.5341 154.689 80.434 154.863 80.4129 155.089H79.8043C79.8307 154.699 79.994 154.394 80.2943 154.173C80.5947 153.951 80.9872 153.841 81.4719 153.841C81.9724 153.841 82.3439 153.959 82.5862 154.196C82.8286 154.433 82.9498 154.789 82.9498 155.263V157.199C82.9498 157.315 82.9577 157.436 82.9735 157.563C82.9893 157.684 83.0104 157.813 83.0367 157.95H82.4282ZM81.0451 158.029C80.6289 158.029 80.297 157.929 80.0493 157.729C79.807 157.523 79.6858 157.244 79.6858 156.891C79.6858 156.538 79.807 156.264 80.0493 156.069C80.2917 155.874 80.6447 155.737 81.1084 155.658L82.5151 155.421V155.943L81.2032 156.148C80.9081 156.196 80.6842 156.275 80.5314 156.385C80.3786 156.496 80.3022 156.657 80.3022 156.867C80.3022 157.073 80.3707 157.228 80.5077 157.334C80.65 157.439 80.8581 157.492 81.1321 157.492C81.4851 157.492 81.7722 157.413 81.9935 157.255C82.2201 157.091 82.3333 156.881 82.3333 156.622L82.4361 157.184C82.3518 157.452 82.1858 157.66 81.9382 157.808C81.6958 157.955 81.3981 158.029 81.0451 158.029ZM85.0336 157.95L83.3661 153.92H84.0457L85.4367 157.523H85.1838L86.5668 153.92H87.2149L85.5473 157.95H85.0336ZM87.7808 157.95V153.92H88.413V157.95H87.7808ZM87.7333 153.003V152.26H88.4604V153.003H87.7333ZM89.5213 157.95V153.92H90.114V154.868H90.1535V157.95H89.5213ZM92.4059 157.95V155.311C92.4059 155.005 92.3295 154.776 92.1767 154.623C92.0239 154.47 91.7974 154.394 91.4971 154.394C91.2336 154.394 90.9992 154.452 90.7937 154.568C90.5935 154.684 90.4354 154.844 90.3195 155.05C90.2089 155.255 90.1535 155.495 90.1535 155.769L90.0508 154.813C90.1878 154.512 90.3959 154.275 90.6751 154.101C90.9597 153.928 91.2811 153.841 91.6393 153.841C92.0608 153.841 92.398 153.962 92.6509 154.204C92.9091 154.441 93.0382 154.755 93.0382 155.145V157.95H92.4059ZM95.6986 159.649C95.2192 159.649 94.8187 159.536 94.4974 159.31C94.1812 159.088 93.9889 158.793 93.9204 158.424H94.5211C94.579 158.635 94.7081 158.801 94.9083 158.922C95.1138 159.049 95.3904 159.112 95.7381 159.112C96.1491 159.112 96.46 158.999 96.6707 158.772C96.8815 158.551 96.9868 158.224 96.9868 157.792V156.931L97.0659 156.946C96.9763 157.252 96.7972 157.497 96.5285 157.681C96.2597 157.861 95.941 157.95 95.5722 157.95C95.2192 157.95 94.9083 157.866 94.6396 157.697C94.3709 157.523 94.1628 157.284 94.0153 156.978C93.8677 156.673 93.794 156.317 93.794 155.911C93.794 155.5 93.8704 155.139 94.0232 154.828C94.176 154.518 94.3893 154.278 94.6633 154.109C94.9426 153.935 95.2666 153.848 95.6354 153.848C96.0148 153.848 96.3309 153.941 96.5838 154.125C96.8419 154.309 97.0132 154.573 97.0975 154.915L97.0264 154.923V153.92H97.6191V157.792C97.6191 158.366 97.4479 158.82 97.1054 159.151C96.7629 159.483 96.294 159.649 95.6986 159.649ZM95.7302 157.405C96.1254 157.405 96.4389 157.268 96.6707 156.994C96.9025 156.72 97.0184 156.348 97.0184 155.88C97.0184 155.421 96.9025 155.06 96.6707 154.797C96.4389 154.528 96.1254 154.394 95.7302 154.394C95.3298 154.394 95.0137 154.528 94.7819 154.797C94.5553 155.066 94.442 155.434 94.442 155.903C94.442 156.362 94.5579 156.728 94.7898 157.002C95.0216 157.271 95.3351 157.405 95.7302 157.405Z" fill="#606165"/>
<path d="M81.363 166.95V162.042L81.5131 162.106C81.4446 162.253 81.3261 162.398 81.1575 162.54C80.9889 162.683 80.7939 162.806 80.5726 162.912C80.3514 163.012 80.1169 163.083 79.8693 163.125V162.319C80.1011 162.282 80.3277 162.214 80.5489 162.113C80.7702 162.008 80.9678 161.882 81.1417 161.734C81.3155 161.581 81.4446 161.423 81.5289 161.26H82.177V166.95H81.363ZM84.9252 167.029C84.5353 167.029 84.1902 166.958 83.8899 166.816C83.5949 166.674 83.3551 166.468 83.1707 166.199C82.9916 165.925 82.881 165.593 82.8388 165.204H83.7002C83.7529 165.578 83.882 165.862 84.0875 166.057C84.293 166.247 84.567 166.342 84.9094 166.342C85.2256 166.342 85.4785 166.255 85.6681 166.081C85.8578 165.907 85.9526 165.667 85.9526 165.362C85.9526 165.051 85.8604 164.798 85.676 164.603C85.4916 164.408 85.2282 164.311 84.8857 164.311H84.2456V163.639H84.862C85.1676 163.639 85.4047 163.557 85.5733 163.394C85.7419 163.23 85.8262 163.014 85.8262 162.746C85.8262 162.472 85.7445 162.258 85.5812 162.106C85.4179 161.948 85.1834 161.868 84.8778 161.868C84.5933 161.868 84.3483 161.953 84.1428 162.121C83.9426 162.29 83.8214 162.535 83.7793 162.856H82.9178C82.9547 162.514 83.0575 162.219 83.2261 161.971C83.3999 161.718 83.6291 161.523 83.9136 161.386C84.2034 161.249 84.5327 161.181 84.9015 161.181C85.2651 161.181 85.5812 161.242 85.8499 161.363C86.1239 161.484 86.3346 161.658 86.4821 161.884C86.6349 162.111 86.7113 162.377 86.7113 162.683C86.7113 162.946 86.6507 163.18 86.5296 163.386C86.4084 163.591 86.2477 163.752 86.0475 163.868C85.8525 163.979 85.6339 164.034 85.3915 164.034L85.3599 163.868C85.6655 163.868 85.9289 163.936 86.1502 164.073C86.3768 164.205 86.5506 164.387 86.6718 164.619C86.793 164.845 86.8536 165.106 86.8536 165.401C86.8536 165.728 86.7693 166.015 86.6007 166.263C86.4374 166.505 86.2108 166.695 85.921 166.832C85.6312 166.963 85.2993 167.029 84.9252 167.029ZM87.5984 166.95L91.8187 161.26H92.5537L88.3413 166.95H87.5984ZM91.5895 167.029C91.3682 167.029 91.1601 166.977 90.9651 166.871C90.7702 166.766 90.6121 166.605 90.4909 166.389C90.3698 166.173 90.3092 165.899 90.3092 165.567C90.3092 165.235 90.3671 164.964 90.483 164.753C90.6042 164.537 90.7623 164.376 90.9572 164.271C91.1522 164.166 91.3629 164.113 91.5895 164.113C91.8266 164.113 92.0426 164.166 92.2375 164.271C92.4377 164.376 92.5958 164.537 92.7117 164.753C92.8276 164.964 92.8856 165.235 92.8856 165.567C92.8856 165.899 92.825 166.173 92.7038 166.389C92.5826 166.605 92.4219 166.766 92.2217 166.871C92.0268 166.977 91.816 167.029 91.5895 167.029ZM91.5895 166.516C91.7897 166.516 91.953 166.434 92.0795 166.271C92.2112 166.102 92.277 165.865 92.277 165.559C92.277 165.259 92.2112 165.03 92.0795 164.872C91.953 164.708 91.7897 164.627 91.5895 164.627C91.3893 164.627 91.2286 164.706 91.1074 164.864C90.9862 165.022 90.9256 165.254 90.9256 165.559C90.9256 165.87 90.9862 166.107 91.1074 166.271C91.2286 166.434 91.3893 166.516 91.5895 166.516ZM88.5073 164.097C88.2807 164.097 88.07 164.044 87.875 163.939C87.6801 163.834 87.522 163.673 87.4008 163.457C87.2849 163.241 87.227 162.967 87.227 162.635C87.227 162.303 87.2849 162.032 87.4008 161.821C87.522 161.605 87.6801 161.444 87.875 161.339C88.07 161.234 88.2807 161.181 88.5073 161.181C88.7444 161.181 88.9604 161.234 89.1553 161.339C89.3503 161.444 89.5057 161.605 89.6216 161.821C89.7375 162.032 89.7955 162.303 89.7955 162.635C89.7955 162.967 89.7349 163.241 89.6137 163.457C89.4925 163.673 89.3345 163.834 89.1395 163.939C88.9446 164.044 88.7338 164.097 88.5073 164.097ZM88.5073 163.583C88.7022 163.583 88.8629 163.502 88.9894 163.338C89.1211 163.175 89.1869 162.938 89.1869 162.627C89.1869 162.327 89.1237 162.098 88.9973 161.94C88.8708 161.776 88.7075 161.695 88.5073 161.695C88.307 161.695 88.1437 161.774 88.0173 161.932C87.8961 162.09 87.8355 162.322 87.8355 162.627C87.8355 162.938 87.8961 163.175 88.0173 163.338C88.1437 163.502 88.307 163.583 88.5073 163.583Z" fill="white"/>
<circle cx="140.066" cy="144.233" r="3.5564" fill="#DC7765"/>
<path d="M122.746 157.95V152.26H123.394V157.95H122.746ZM123.078 157.95V157.381H126.555V157.95H123.078ZM123.078 155.271V154.702H126.271V155.271H123.078ZM123.078 152.829V152.26H126.492V152.829H123.078ZM130.173 157.95V157.01L130.252 157.033C130.152 157.339 129.967 157.581 129.699 157.761C129.435 157.94 129.119 158.029 128.75 158.029C128.387 158.029 128.068 157.942 127.794 157.768C127.525 157.595 127.315 157.352 127.162 157.041C127.014 156.73 126.94 156.367 126.94 155.951C126.94 155.529 127.017 155.16 127.17 154.844C127.322 154.528 127.536 154.283 127.81 154.109C128.084 153.935 128.405 153.848 128.774 153.848C129.153 153.848 129.472 153.941 129.73 154.125C129.988 154.309 130.165 154.57 130.26 154.907L130.133 154.923V152.26H130.766V157.95H130.173ZM128.869 157.476C129.275 157.476 129.591 157.339 129.817 157.065C130.049 156.786 130.165 156.406 130.165 155.927C130.165 155.458 130.049 155.087 129.817 154.813C129.585 154.539 129.269 154.402 128.869 154.402C128.468 154.402 128.155 154.539 127.928 154.813C127.702 155.087 127.589 155.466 127.589 155.951C127.589 156.425 127.702 156.799 127.928 157.073C128.155 157.342 128.468 157.476 128.869 157.476ZM133.187 158.029C132.924 158.029 132.69 157.977 132.484 157.871C132.279 157.761 132.118 157.608 132.002 157.413C131.886 157.213 131.828 156.983 131.828 156.725V153.92H132.46V156.559C132.46 156.865 132.534 157.094 132.682 157.247C132.834 157.4 133.05 157.476 133.33 157.476C133.583 157.476 133.807 157.418 134.001 157.302C134.196 157.186 134.349 157.026 134.46 156.82C134.576 156.609 134.634 156.37 134.634 156.101L134.736 157.057C134.605 157.357 134.399 157.595 134.12 157.768C133.841 157.942 133.53 158.029 133.187 158.029ZM134.673 157.95V157.002H134.634V153.92H135.266V157.95H134.673ZM137.952 158.029C137.584 158.029 137.254 157.94 136.964 157.761C136.68 157.576 136.453 157.326 136.285 157.01C136.121 156.688 136.04 156.325 136.04 155.919C136.04 155.513 136.121 155.155 136.285 154.844C136.453 154.533 136.68 154.288 136.964 154.109C137.254 153.93 137.581 153.841 137.944 153.841C138.245 153.841 138.513 153.899 138.751 154.014C138.993 154.13 139.191 154.296 139.343 154.512C139.501 154.723 139.601 154.971 139.644 155.255H139.059C139.006 154.997 138.885 154.786 138.695 154.623C138.506 154.46 138.261 154.378 137.96 154.378C137.702 154.378 137.478 154.441 137.288 154.568C137.099 154.694 136.951 154.873 136.846 155.105C136.741 155.337 136.688 155.608 136.688 155.919C136.688 156.23 136.741 156.504 136.846 156.741C136.951 156.978 137.099 157.163 137.288 157.294C137.483 157.426 137.71 157.492 137.968 157.492C138.258 157.492 138.5 157.413 138.695 157.255C138.89 157.091 139.014 156.881 139.067 156.622H139.652C139.604 156.902 139.499 157.149 139.335 157.365C139.177 157.576 138.98 157.739 138.743 157.855C138.506 157.971 138.242 158.029 137.952 158.029ZM142.87 157.95C142.849 157.861 142.833 157.758 142.823 157.642C142.817 157.526 142.815 157.379 142.815 157.199H142.775V155.271C142.775 154.965 142.704 154.742 142.562 154.599C142.425 154.452 142.201 154.378 141.89 154.378C141.585 154.378 141.34 154.441 141.155 154.568C140.976 154.689 140.876 154.863 140.855 155.089H140.246C140.273 154.699 140.436 154.394 140.736 154.173C141.037 153.951 141.429 153.841 141.914 153.841C142.414 153.841 142.786 153.959 143.028 154.196C143.271 154.433 143.392 154.789 143.392 155.263V157.199C143.392 157.315 143.4 157.436 143.415 157.563C143.431 157.684 143.452 157.813 143.479 157.95H142.87ZM141.487 158.029C141.071 158.029 140.739 157.929 140.491 157.729C140.249 157.523 140.128 157.244 140.128 156.891C140.128 156.538 140.249 156.264 140.491 156.069C140.734 155.874 141.087 155.737 141.55 155.658L142.957 155.421V155.943L141.645 156.148C141.35 156.196 141.126 156.275 140.973 156.385C140.821 156.496 140.744 156.657 140.744 156.867C140.744 157.073 140.813 157.228 140.95 157.334C141.092 157.439 141.3 157.492 141.574 157.492C141.927 157.492 142.214 157.413 142.435 157.255C142.662 157.091 142.775 156.881 142.775 156.622L142.878 157.184C142.794 157.452 142.628 157.66 142.38 157.808C142.138 157.955 141.84 158.029 141.487 158.029ZM145.956 158.021C145.509 158.021 145.182 157.921 144.977 157.721C144.776 157.516 144.676 157.22 144.676 156.836V152.979L145.308 152.742V156.828C145.308 157.055 145.366 157.22 145.482 157.326C145.598 157.431 145.788 157.484 146.051 157.484C146.157 157.484 146.246 157.479 146.32 157.468C146.399 157.452 146.462 157.434 146.51 157.413V157.95C146.457 157.971 146.381 157.987 146.281 157.998C146.186 158.013 146.078 158.021 145.956 158.021ZM143.846 154.457V153.92H146.51V154.457H143.846ZM147.165 157.95V153.92H147.798V157.95H147.165ZM147.118 153.003V152.26H147.845V153.003H147.118ZM150.566 158.029C150.171 158.029 149.823 157.937 149.523 157.753C149.222 157.568 148.988 157.318 148.819 157.002C148.656 156.68 148.574 156.32 148.574 155.919C148.574 155.513 148.659 155.155 148.827 154.844C148.996 154.533 149.228 154.288 149.523 154.109C149.823 153.93 150.171 153.841 150.566 153.841C150.966 153.841 151.314 153.93 151.609 154.109C151.909 154.288 152.141 154.533 152.305 154.844C152.473 155.155 152.557 155.513 152.557 155.919C152.557 156.32 152.473 156.68 152.305 157.002C152.141 157.318 151.909 157.568 151.609 157.753C151.314 157.937 150.966 158.029 150.566 158.029ZM150.566 157.492C150.84 157.492 151.077 157.426 151.277 157.294C151.477 157.157 151.633 156.97 151.743 156.733C151.854 156.496 151.909 156.222 151.909 155.911C151.909 155.448 151.786 155.076 151.538 154.797C151.296 154.518 150.972 154.378 150.566 154.378C150.165 154.378 149.841 154.518 149.594 154.797C149.346 155.076 149.222 155.448 149.222 155.911C149.222 156.222 149.278 156.496 149.388 156.733C149.499 156.97 149.654 157.157 149.855 157.294C150.06 157.426 150.297 157.492 150.566 157.492ZM153.348 157.95V153.92H153.94V154.868H153.98V157.95H153.348ZM156.232 157.95V155.311C156.232 155.005 156.156 154.776 156.003 154.623C155.85 154.47 155.624 154.394 155.323 154.394C155.06 154.394 154.826 154.452 154.62 154.568C154.42 154.684 154.262 154.844 154.146 155.05C154.035 155.255 153.98 155.495 153.98 155.769L153.877 154.813C154.014 154.512 154.222 154.275 154.501 154.101C154.786 153.928 155.107 153.841 155.466 153.841C155.887 153.841 156.224 153.962 156.477 154.204C156.735 154.441 156.865 154.755 156.865 155.145V157.95H156.232Z" fill="#606165"/>
<path d="M135.117 166.95V165.449L135.149 165.291V162.042L135.449 162.129L133.078 165.338L132.754 165.03H136.658V165.717H132.311V165.077L135.149 161.26H135.978V166.95H135.117ZM139.364 167.029C138.906 167.029 138.503 166.905 138.155 166.658C137.807 166.405 137.536 166.057 137.341 165.615C137.146 165.167 137.049 164.656 137.049 164.081C137.049 163.507 137.146 163.004 137.341 162.572C137.536 162.135 137.807 161.795 138.155 161.552C138.503 161.305 138.906 161.181 139.364 161.181C139.823 161.181 140.223 161.305 140.566 161.552C140.913 161.795 141.185 162.135 141.38 162.572C141.575 163.004 141.672 163.507 141.672 164.081C141.672 164.661 141.575 165.172 141.38 165.615C141.185 166.057 140.913 166.405 140.566 166.658C140.218 166.905 139.817 167.029 139.364 167.029ZM139.364 166.31C139.665 166.31 139.92 166.218 140.131 166.033C140.342 165.844 140.5 165.583 140.605 165.251C140.716 164.914 140.771 164.521 140.771 164.073C140.771 163.631 140.716 163.246 140.605 162.92C140.5 162.593 140.342 162.343 140.131 162.169C139.925 161.99 139.67 161.9 139.364 161.9C139.053 161.9 138.793 161.99 138.582 162.169C138.376 162.348 138.218 162.601 138.108 162.928C138.002 163.249 137.95 163.631 137.95 164.073C137.95 164.521 138.005 164.914 138.116 165.251C138.226 165.588 138.384 165.849 138.59 166.033C138.801 166.218 139.059 166.31 139.364 166.31ZM142.424 166.95L146.644 161.26H147.379L143.167 166.95H142.424ZM146.415 167.029C146.194 167.029 145.986 166.977 145.791 166.871C145.596 166.766 145.438 166.605 145.316 166.389C145.195 166.173 145.135 165.899 145.135 165.567C145.135 165.235 145.193 164.964 145.309 164.753C145.43 164.537 145.588 164.376 145.783 164.271C145.978 164.166 146.188 164.113 146.415 164.113C146.652 164.113 146.868 164.166 147.063 164.271C147.263 164.376 147.421 164.537 147.537 164.753C147.653 164.964 147.711 165.235 147.711 165.567C147.711 165.899 147.65 166.173 147.529 166.389C147.408 166.605 147.247 166.766 147.047 166.871C146.852 166.977 146.642 167.029 146.415 167.029ZM146.415 166.516C146.615 166.516 146.778 166.434 146.905 166.271C147.037 166.102 147.103 165.865 147.103 165.559C147.103 165.259 147.037 165.03 146.905 164.872C146.778 164.708 146.615 164.627 146.415 164.627C146.215 164.627 146.054 164.706 145.933 164.864C145.812 165.022 145.751 165.254 145.751 165.559C145.751 165.87 145.812 166.107 145.933 166.271C146.054 166.434 146.215 166.516 146.415 166.516ZM143.333 164.097C143.106 164.097 142.895 164.044 142.7 163.939C142.506 163.834 142.347 163.673 142.226 163.457C142.11 163.241 142.052 162.967 142.052 162.635C142.052 162.303 142.11 162.032 142.226 161.821C142.347 161.605 142.506 161.444 142.7 161.339C142.895 161.234 143.106 161.181 143.333 161.181C143.57 161.181 143.786 161.234 143.981 161.339C144.176 161.444 144.331 161.605 144.447 161.821C144.563 162.032 144.621 162.303 144.621 162.635C144.621 162.967 144.56 163.241 144.439 163.457C144.318 163.673 144.16 163.834 143.965 163.939C143.77 164.044 143.559 164.097 143.333 164.097ZM143.333 163.583C143.528 163.583 143.688 163.502 143.815 163.338C143.947 163.175 144.012 162.938 144.012 162.627C144.012 162.327 143.949 162.098 143.823 161.94C143.696 161.776 143.533 161.695 143.333 161.695C143.133 161.695 142.969 161.774 142.843 161.932C142.722 162.09 142.661 162.322 142.661 162.627C142.661 162.938 142.722 163.175 142.843 163.338C142.969 163.502 143.133 163.583 143.333 163.583Z" fill="white"/>
<defs>
<linearGradient id="paint0_linear_4131_2938" x1="86.9782" y1="43.2148" x2="86.9782" y2="193.333" gradientUnits="userSpaceOnUse">
<stop stop-color="#FF8975"/>
<stop offset="1" stop-color="#995246"/>
</linearGradient>
<linearGradient id="paint1_linear_4131_2938" x1="86.9782" y1="43.2148" x2="86.9782" y2="193.333" gradientUnits="userSpaceOnUse">
<stop stop-color="#FFA04E"/>
<stop offset="1" stop-color="#99602F"/>
</linearGradient>
</defs>
</svg>
