<svg width="244" height="68" viewBox="0 0 244 68" fill="none" xmlns="http://www.w3.org/2000/svg">
<rect width="243.529" height="67.8863" rx="19.2156" fill="#282828"/>
<rect x="0.150122" y="0.150122" width="243.228" height="67.586" rx="19.0654" stroke="white" stroke-opacity="0.1" stroke-width="0.300243"/>
<rect x="12.9307" y="16.7021" width="34.4819" height="34.4819" rx="17.241" fill="white" fill-opacity="0.1"/>
<path d="M29.6332 32.1476C29.6332 31.5499 28.9954 31.1239 28.6978 31.6423C28.605 31.804 28.5557 31.9775 28.5557 32.1476C28.5557 32.3176 28.605 32.4912 28.6978 32.6529C28.9954 33.1712 29.6332 32.7453 29.6332 32.1476Z" fill="url(#paint0_linear_4131_2978)"/>
<path d="M31.6462 35.2341C31.3487 34.7158 30.7108 35.1417 30.7108 35.7394C30.7108 36.3371 31.3487 36.7631 31.6462 36.2447C31.739 36.083 31.7884 35.9095 31.7884 35.7394C31.7884 35.5694 31.739 35.3958 31.6462 35.2341Z" fill="url(#paint1_linear_4131_2978)"/>
<path fill-rule="evenodd" clip-rule="evenodd" d="M37.3557 33.9435C37.3557 37.911 34.1395 41.1272 30.172 41.1272C26.2045 41.1272 22.9883 37.911 22.9883 33.9435C22.9883 29.976 26.2045 26.7598 30.172 26.7598C34.1395 26.7598 37.3557 29.976 37.3557 33.9435ZM30.172 29.0945C30.4696 29.0945 30.7108 29.3357 30.7108 29.6333C30.7108 29.7649 30.8056 29.8764 30.9331 29.9092C32.0039 30.1844 32.8659 31.0271 32.8659 32.1476C32.8659 32.4451 32.6247 32.6863 32.3271 32.6863C32.0296 32.6863 31.7884 32.4451 31.7884 32.1476C31.7884 32.0826 31.7811 32.0171 31.7671 31.9519C31.6053 31.2035 30.7108 31.7155 30.7108 32.4812C30.7108 33.0434 31.1308 33.5024 31.6233 33.7733C32.3513 34.1737 32.8659 34.8736 32.8659 35.7394C32.8659 36.8599 32.0039 37.7026 30.9331 37.9778C30.8056 38.0106 30.7108 38.1221 30.7108 38.2537C30.7108 38.5513 30.4696 38.7925 30.172 38.7925C29.8745 38.7925 29.6332 38.5513 29.6332 38.2537C29.6332 38.1221 29.5385 38.0106 29.4109 37.9778C28.3401 37.7026 27.4781 36.8599 27.4781 35.7394C27.4781 35.4419 27.7193 35.2007 28.0169 35.2007C28.3145 35.2007 28.5557 35.4419 28.5557 35.7394C28.5557 35.8044 28.5629 35.8699 28.577 35.9351C28.7388 36.6835 29.6332 36.1715 29.6332 35.4057C29.6332 34.8436 29.2133 34.3846 28.7207 34.1137C27.9927 33.7133 27.4781 33.0133 27.4781 32.1476C27.4781 31.0271 28.3401 30.1844 29.4109 29.9092C29.5385 29.8764 29.6332 29.7649 29.6332 29.6333C29.6332 29.3357 29.8745 29.0945 30.172 29.0945Z" fill="url(#paint2_linear_4131_2978)"/>
<path d="M59.3005 26.9434V17.6332H60.3608V26.9434H59.3005ZM62.2475 26.9434V20.3487H63.2173V21.9004H63.282V26.9434H62.2475ZM66.9672 26.9434V22.6245C66.9672 22.1245 66.8422 21.7495 66.5922 21.4995C66.3422 21.2495 65.9716 21.1245 65.4802 21.1245C65.0492 21.1245 64.6656 21.2194 64.3294 21.409C64.0018 21.5987 63.7432 21.8616 63.5535 22.1978C63.3725 22.534 63.282 22.9262 63.282 23.3745L63.1139 21.8099C63.338 21.3185 63.6785 20.9306 64.1354 20.6461C64.6009 20.3616 65.1268 20.2194 65.7129 20.2194C66.4026 20.2194 66.9543 20.4177 67.3681 20.8142C67.7905 21.2021 68.0017 21.715 68.0017 22.353V26.9434H66.9672ZM72.3417 27.0727C71.7382 27.0727 71.1994 26.9261 70.7253 26.633C70.2598 26.3313 69.8891 25.9218 69.6133 25.4046C69.346 24.8788 69.2124 24.2839 69.2124 23.6202C69.2124 22.9564 69.346 22.3702 69.6133 21.8616C69.8891 21.353 70.2598 20.9521 70.7253 20.659C71.1994 20.3659 71.7339 20.2194 72.3287 20.2194C72.8201 20.2194 73.2597 20.3142 73.6477 20.5039C74.0442 20.6935 74.3675 20.9651 74.6175 21.3185C74.8761 21.6633 75.0399 22.0685 75.1088 22.534H74.152C74.0657 22.1116 73.8675 21.7668 73.5571 21.4995C73.2468 21.2323 72.846 21.0987 72.3546 21.0987C71.9322 21.0987 71.5658 21.2021 71.2555 21.409C70.9451 21.6159 70.7038 21.909 70.5314 22.2883C70.3589 22.6676 70.2727 23.1116 70.2727 23.6202C70.2727 24.1288 70.3589 24.577 70.5314 24.965C70.7038 25.3529 70.9451 25.6546 71.2555 25.8701C71.5744 26.0856 71.9451 26.1934 72.3675 26.1934C72.8416 26.1934 73.2382 26.0641 73.5571 25.8055C73.8761 25.5382 74.0787 25.1934 74.1649 24.771H75.1218C75.0442 25.2279 74.8718 25.633 74.6045 25.9865C74.3459 26.3313 74.0226 26.5985 73.6347 26.7882C73.2468 26.9778 72.8158 27.0727 72.3417 27.0727ZM79.0818 27.0727C78.4353 27.0727 77.8663 26.9218 77.3749 26.6201C76.8836 26.3184 76.5 25.9089 76.2241 25.3917C75.9569 24.8658 75.8232 24.2753 75.8232 23.6202C75.8232 22.9564 75.9612 22.3702 76.237 21.8616C76.5129 21.353 76.8922 20.9521 77.3749 20.659C77.8663 20.3659 78.4353 20.2194 79.0818 20.2194C79.7369 20.2194 80.3059 20.3659 80.7886 20.659C81.28 20.9521 81.6593 21.353 81.9265 21.8616C82.2024 22.3702 82.3403 22.9564 82.3403 23.6202C82.3403 24.2753 82.2024 24.8658 81.9265 25.3917C81.6593 25.9089 81.28 26.3184 80.7886 26.6201C80.3059 26.9218 79.7369 27.0727 79.0818 27.0727ZM79.0818 26.1934C79.5301 26.1934 79.918 26.0856 80.2456 25.8701C80.5731 25.646 80.8274 25.34 81.0085 24.952C81.1895 24.5641 81.28 24.1158 81.28 23.6072C81.28 22.8486 81.0774 22.2409 80.6723 21.784C80.2757 21.3271 79.7456 21.0987 79.0818 21.0987C78.4266 21.0987 77.8965 21.3271 77.4913 21.784C77.0861 22.2409 76.8836 22.8486 76.8836 23.6072C76.8836 24.1158 76.9741 24.5641 77.1551 24.952C77.3361 25.34 77.5904 25.646 77.918 25.8701C78.2542 26.0856 78.6421 26.1934 79.0818 26.1934ZM83.6332 26.9434V20.3487H84.603V21.9004H84.6677V26.9434H83.6332ZM88.0814 26.9434V22.5728C88.0814 22.0728 87.9693 21.7064 87.7452 21.4737C87.521 21.2409 87.1978 21.1245 86.7754 21.1245C86.3788 21.1245 86.0211 21.2194 85.7021 21.409C85.3832 21.5987 85.1289 21.8616 84.9392 22.1978C84.7582 22.534 84.6677 22.9262 84.6677 23.3745L84.4996 21.8099C84.7237 21.3185 85.0599 20.9306 85.5082 20.6461C85.9564 20.3616 86.4435 20.2194 86.9693 20.2194C87.6072 20.2194 88.1245 20.409 88.521 20.7883C88.9176 21.159 89.1158 21.6633 89.1158 22.3012V26.9434H88.0814ZM92.5295 26.9434V22.5728C92.5295 22.0728 92.4175 21.7064 92.1933 21.4737C91.9692 21.2409 91.6459 21.1245 91.2235 21.1245C90.827 21.1245 90.4692 21.2194 90.1503 21.409C89.8313 21.5987 89.577 21.8616 89.3874 22.1978C89.2063 22.534 89.1158 22.9262 89.1158 23.3745L88.8572 21.8099C89.0813 21.3185 89.4262 20.9306 89.8917 20.6461C90.3572 20.3616 90.8572 20.2194 91.3916 20.2194C92.0295 20.2194 92.5511 20.409 92.9562 20.7883C93.3614 21.159 93.564 21.6633 93.564 22.3012V26.9434H92.5295ZM97.9976 27.0727C97.3683 27.0727 96.8123 26.9261 96.3296 26.633C95.8468 26.3313 95.4675 25.9218 95.1916 25.4046C94.9158 24.8874 94.7779 24.2926 94.7779 23.6202C94.7779 22.9478 94.9115 22.3573 95.1787 21.8487C95.4546 21.3314 95.8382 20.9306 96.3296 20.6461C96.8209 20.3616 97.3856 20.2194 98.0235 20.2194C98.6355 20.2194 99.1657 20.353 99.614 20.6202C100.071 20.8875 100.42 21.2625 100.661 21.7452C100.911 22.228 101.036 22.7969 101.036 23.4521C101.036 23.5383 101.032 23.6202 101.023 23.6977C101.023 23.7753 101.015 23.8615 100.998 23.9564H95.5537V23.09H100.364L100.028 23.5684C100.028 22.7754 99.851 22.1676 99.4976 21.7452C99.1528 21.3142 98.6614 21.0987 98.0235 21.0987C97.3683 21.0987 96.8382 21.3271 96.433 21.784C96.0365 22.2323 95.8382 22.84 95.8382 23.6072C95.8382 24.3917 96.0365 25.021 96.433 25.4951C96.8382 25.9606 97.3769 26.1934 98.0493 26.1934C98.4717 26.1934 98.8424 26.1029 99.1614 25.9218C99.4803 25.7322 99.7131 25.4649 99.8596 25.1201H100.842C100.627 25.7236 100.265 26.202 99.7562 26.5554C99.2562 26.9003 98.67 27.0727 97.9976 27.0727Z" fill="#606165"/>
<path d="M62.9642 36.9437V34.6334H64.4297V36.9437H62.9642ZM64.4297 48.5985V50.8226H62.9642V48.5985H64.4297ZM63.9642 49.0985C62.47 49.0985 61.2746 48.7422 60.3781 48.0296C59.4815 47.317 58.9586 46.2997 58.8092 44.9779H60.585C60.6884 45.84 61.0332 46.4951 61.6194 46.9434C62.2056 47.3917 62.9987 47.6158 63.9987 47.6158C64.8377 47.6158 65.4699 47.4606 65.8952 47.1503C66.332 46.84 66.5503 46.3974 66.5503 45.8227C66.5503 45.3055 66.4067 44.8975 66.1193 44.5986C65.832 44.2883 65.378 44.0354 64.7573 43.84L62.6022 43.1504C61.4987 42.7941 60.6884 42.3458 60.1712 41.8056C59.654 41.2654 59.3953 40.5815 59.3953 39.7539C59.3953 39.0528 59.5678 38.4494 59.9126 37.9436C60.2689 37.4379 60.7631 37.0471 61.3953 36.7712C62.039 36.4839 62.7861 36.3402 63.6366 36.3402C64.9469 36.3402 65.9929 36.6735 66.7745 37.3402C67.5676 37.9954 68.0216 38.9091 68.1365 40.0815H66.3607C66.2228 39.2999 65.9239 38.731 65.4642 38.3747C65.0044 38.0068 64.3722 37.8229 63.5677 37.8229C62.8091 37.8229 62.2171 37.9724 61.7918 38.2712C61.3666 38.5701 61.1539 38.9896 61.1539 39.5298C61.1539 39.9666 61.2918 40.3344 61.5677 40.6332C61.8551 40.9206 62.3263 41.1677 62.9815 41.3746L65.24 42.0987C66.286 42.432 67.0561 42.886 67.5503 43.4607C68.0561 44.0354 68.3089 44.7596 68.3089 45.6331C68.3089 46.7365 67.9296 47.5928 67.171 48.202C66.4124 48.7997 65.3435 49.0985 63.9642 49.0985ZM72.1733 48.9434V38.2367L72.5009 38.3747C72.3515 38.6965 72.0929 39.0126 71.7251 39.3229C71.3572 39.6332 70.932 39.9034 70.4492 40.1332C69.9665 40.3516 69.455 40.5068 68.9148 40.5987V38.8402C69.4205 38.7597 69.9148 38.6103 70.3975 38.3919C70.8802 38.162 71.3113 37.8862 71.6906 37.5643C72.0699 37.231 72.3515 36.8862 72.5354 36.5299H73.9491V48.9434H72.1733ZM79.9076 49.1158C79.126 49.1158 78.4364 48.9663 77.8387 48.6675C77.2525 48.3687 76.7813 47.9376 76.425 47.3744C76.0686 46.8112 75.8445 46.1216 75.7526 45.3055H77.6318C77.7353 46.1101 77.9881 46.6963 78.3904 47.0641C78.7927 47.4319 79.3157 47.6158 79.9594 47.6158C80.4421 47.6158 80.8501 47.5181 81.1835 47.3227C81.5283 47.1273 81.8041 46.8285 82.011 46.4262C82.2294 46.0239 82.3903 45.5124 82.4938 44.8917C82.5972 44.2596 82.6489 43.5067 82.6489 42.6332V41.5125L83.1489 41.547C83.034 42.0872 82.8041 42.5642 82.4593 42.978C82.1145 43.3803 81.6835 43.6906 81.1662 43.909C80.6605 44.1274 80.0973 44.2366 79.4766 44.2366C78.7065 44.2366 78.0284 44.0699 77.4422 43.7366C76.856 43.4033 76.3962 42.9435 76.0629 42.3573C75.7296 41.7596 75.5629 41.0815 75.5629 40.3229C75.5629 39.5183 75.7468 38.8229 76.1146 38.2367C76.4824 37.639 76.9939 37.1793 77.6491 36.8574C78.3157 36.5241 79.0801 36.3575 79.9421 36.3575C81.4708 36.3575 82.6375 36.8919 83.442 37.9609C84.2581 39.0298 84.6661 40.5872 84.6661 42.6332C84.6661 44.001 84.4765 45.1733 84.0972 46.1503C83.7294 47.1158 83.1892 47.8514 82.4765 48.3572C81.7754 48.8629 80.9191 49.1158 79.9076 49.1158ZM80.0111 42.7711C80.7582 42.7711 81.3559 42.5642 81.8041 42.1504C82.2639 41.7366 82.4938 41.1619 82.4938 40.4263C82.4938 39.9321 82.3846 39.4953 82.1662 39.116C81.9593 38.7252 81.6662 38.4206 81.2869 38.2022C80.9076 37.9724 80.4651 37.8574 79.9594 37.8574C79.2352 37.8574 78.6548 38.0873 78.218 38.5471C77.7927 38.9953 77.5801 39.593 77.5801 40.3401C77.5801 41.0642 77.7927 41.6504 78.218 42.0987C78.6433 42.547 79.241 42.7711 80.0111 42.7711ZM90.1901 49.1158C89.3396 49.1158 88.5867 48.9606 87.9315 48.6503C87.2879 48.3399 86.7649 47.8917 86.3626 47.3055C85.9718 46.7078 85.7305 45.9837 85.6385 45.1331H87.5178C87.6327 45.9492 87.9143 46.5699 88.3626 46.9951C88.8108 47.4089 89.4085 47.6158 90.1556 47.6158C90.8453 47.6158 91.397 47.4262 91.8108 47.0469C92.2245 46.6676 92.4314 46.1446 92.4314 45.4779C92.4314 44.7998 92.2303 44.2481 91.828 43.8228C91.4257 43.3975 90.851 43.1849 90.1039 43.1849H88.7074V41.7194H90.0522C90.7188 41.7194 91.2361 41.5412 91.6039 41.1849C91.9717 40.8286 92.1556 40.3574 92.1556 39.7712C92.1556 39.1735 91.9774 38.708 91.6211 38.3747C91.2648 38.0298 90.7533 37.8574 90.0867 37.8574C89.466 37.8574 88.9315 38.0413 88.4833 38.4091C88.0465 38.7769 87.7821 39.3114 87.6902 40.0125H85.8109C85.8914 39.2654 86.1155 38.6218 86.4833 38.0816C86.8626 37.5298 87.3626 37.1046 87.9833 36.8057C88.6154 36.5069 89.3338 36.3575 90.1384 36.3575C90.9315 36.3575 91.6211 36.4896 92.2073 36.754C92.805 37.0184 93.2648 37.3977 93.5866 37.8919C93.9199 38.3861 94.0866 38.9666 94.0866 39.6332C94.0866 40.2079 93.9544 40.7194 93.69 41.1677C93.4257 41.616 93.0751 41.9665 92.6383 42.2194C92.2131 42.4608 91.7361 42.5814 91.2073 42.5814L91.1384 42.2194C91.805 42.2194 92.3797 42.3688 92.8625 42.6677C93.3567 42.955 93.736 43.3515 94.0004 43.8573C94.2647 44.3515 94.3969 44.9205 94.3969 45.5641C94.3969 46.2768 94.213 46.9032 93.8452 47.4434C93.4889 47.9721 92.9946 48.3859 92.3625 48.6847C91.7303 48.9721 91.0062 49.1158 90.1901 49.1158ZM95.2937 51.564V50.6675C95.696 50.5295 95.9718 50.3169 96.1213 50.0295C96.2822 49.7537 96.3626 49.3514 96.3626 48.8227L97.0695 48.9434H95.2765V46.8227H97.3971V48.4261C97.3971 49.2192 97.2304 49.8859 96.8971 50.4261C96.5753 50.9663 96.0408 51.3456 95.2937 51.564ZM102.726 49.1158C101.209 49.1158 100.036 48.587 99.2088 47.5296C98.3927 46.4607 97.9846 44.932 97.9846 42.9435C97.9846 41.5642 98.18 40.3861 98.5708 39.4091C98.9731 38.4206 99.5363 37.6678 100.26 37.1505C100.996 36.6218 101.864 36.3575 102.864 36.3575C103.967 36.3575 104.875 36.6678 105.588 37.2885C106.312 37.9091 106.749 38.7597 106.898 39.8401H105.019C104.927 39.1965 104.686 38.708 104.295 38.3747C103.916 38.0298 103.433 37.8574 102.847 37.8574C101.881 37.8574 101.157 38.2712 100.674 39.0988C100.191 39.9263 99.9501 41.1734 99.9501 42.8401V43.9607L99.5018 43.8056C99.6168 43.2653 99.8467 42.7941 100.191 42.3918C100.536 41.9895 100.962 41.6792 101.467 41.4608C101.985 41.2309 102.548 41.116 103.157 41.116C103.95 41.116 104.64 41.2826 105.226 41.616C105.824 41.9493 106.283 42.4205 106.605 43.0297C106.938 43.6274 107.105 44.3228 107.105 45.1159C107.105 45.9204 106.921 46.6273 106.553 47.2365C106.197 47.8342 105.691 48.2997 105.036 48.633C104.381 48.9549 103.611 49.1158 102.726 49.1158ZM102.709 47.6158C103.421 47.6158 104.002 47.3974 104.45 46.9606C104.91 46.5124 105.14 45.8975 105.14 45.1159C105.14 44.3113 104.916 43.6906 104.467 43.2538C104.019 42.8056 103.421 42.5814 102.674 42.5814C101.939 42.5814 101.324 42.7941 100.829 43.2194C100.335 43.6446 100.088 44.2366 100.088 44.9952C100.088 45.5239 100.203 45.9837 100.433 46.3745C100.663 46.7653 100.973 47.0698 101.364 47.2882C101.766 47.5066 102.214 47.6158 102.709 47.6158ZM110.976 48.9434V38.2367L111.303 38.3747C111.154 38.6965 110.895 39.0126 110.527 39.3229C110.159 39.6332 109.734 39.9034 109.251 40.1332C108.769 40.3516 108.257 40.5068 107.717 40.5987V38.8402C108.223 38.7597 108.717 38.6103 109.2 38.3919C109.682 38.162 110.114 37.8862 110.493 37.5643C110.872 37.231 111.154 36.8862 111.338 36.5299H112.751V48.9434H110.976ZM118.746 49.1158C117.849 49.1158 117.068 48.9606 116.401 48.6503C115.746 48.3399 115.235 47.9146 114.867 47.3744C114.51 46.8227 114.332 46.202 114.332 45.5124C114.332 44.8917 114.464 44.3343 114.729 43.84C115.005 43.3458 115.378 42.955 115.85 42.6677C116.332 42.3688 116.867 42.2194 117.453 42.2194L117.574 42.5814C116.987 42.5814 116.476 42.4608 116.039 42.2194C115.602 41.9665 115.258 41.6217 115.005 41.1849C114.763 40.7367 114.643 40.2367 114.643 39.685C114.643 39.0298 114.815 38.4551 115.16 37.9609C115.505 37.4551 115.982 37.0643 116.591 36.7885C117.212 36.5011 117.936 36.3575 118.763 36.3575C119.579 36.3575 120.292 36.5011 120.901 36.7885C121.51 37.0643 121.987 37.4551 122.332 37.9609C122.677 38.4551 122.849 39.0298 122.849 39.685C122.849 40.2367 122.723 40.7309 122.47 41.1677C122.229 41.6045 121.89 41.9493 121.453 42.2021C121.016 42.455 120.499 42.5814 119.901 42.5814L120.039 42.2194C120.637 42.2194 121.171 42.3688 121.642 42.6677C122.114 42.955 122.482 43.3458 122.746 43.84C123.022 44.3343 123.16 44.8975 123.16 45.5296C123.16 46.2193 122.976 46.8342 122.608 47.3744C122.252 47.9146 121.74 48.3399 121.074 48.6503C120.418 48.9606 119.643 49.1158 118.746 49.1158ZM118.746 47.6158C119.505 47.6158 120.102 47.4147 120.539 47.0124C120.987 46.5986 121.211 46.0469 121.211 45.3572C121.211 44.6791 120.987 44.1446 120.539 43.7538C120.102 43.363 119.505 43.1676 118.746 43.1676C117.987 43.1676 117.384 43.363 116.936 43.7538C116.499 44.1446 116.281 44.6791 116.281 45.3572C116.281 46.0469 116.499 46.5986 116.936 47.0124C117.384 47.4147 117.987 47.6158 118.746 47.6158ZM118.746 41.7366C119.413 41.7366 119.936 41.5642 120.315 41.2194C120.706 40.8746 120.901 40.4091 120.901 39.8229C120.901 39.2252 120.7 38.7482 120.298 38.3919C119.907 38.0356 119.39 37.8574 118.746 37.8574C118.091 37.8574 117.568 38.0356 117.177 38.3919C116.786 38.7482 116.591 39.2252 116.591 39.8229C116.591 40.4091 116.786 40.8746 117.177 41.2194C117.568 41.5642 118.091 41.7366 118.746 41.7366ZM124.069 51.564V50.6675C124.472 50.5295 124.747 50.3169 124.897 50.0295C125.058 49.7537 125.138 49.3514 125.138 48.8227L125.845 48.9434H124.052V46.8227H126.173V48.4261C126.173 49.2192 126.006 49.8859 125.673 50.4261C125.351 50.9663 124.816 51.3456 124.069 51.564ZM131.187 49.1158C130.405 49.1158 129.715 48.9663 129.118 48.6675C128.532 48.3687 128.06 47.9376 127.704 47.3744C127.348 46.8112 127.124 46.1216 127.032 45.3055H128.911C129.014 46.1101 129.267 46.6963 129.669 47.0641C130.072 47.4319 130.595 47.6158 131.238 47.6158C131.721 47.6158 132.129 47.5181 132.463 47.3227C132.807 47.1273 133.083 46.8285 133.29 46.4262C133.508 46.0239 133.669 45.5124 133.773 44.8917C133.876 44.2596 133.928 43.5067 133.928 42.6332V41.5125L134.428 41.547C134.313 42.0872 134.083 42.5642 133.738 42.978C133.394 43.3803 132.963 43.6906 132.445 43.909C131.94 44.1274 131.376 44.2366 130.756 44.2366C129.986 44.2366 129.307 44.0699 128.721 43.7366C128.135 43.4033 127.675 42.9435 127.342 42.3573C127.009 41.7596 126.842 41.0815 126.842 40.3229C126.842 39.5183 127.026 38.8229 127.394 38.2367C127.761 37.639 128.273 37.1793 128.928 36.8574C129.595 36.5241 130.359 36.3575 131.221 36.3575C132.75 36.3575 133.917 36.8919 134.721 37.9609C135.537 39.0298 135.945 40.5872 135.945 42.6332C135.945 44.001 135.756 45.1733 135.376 46.1503C135.008 47.1158 134.468 47.8514 133.756 48.3572C133.054 48.8629 132.198 49.1158 131.187 49.1158ZM131.29 42.7711C132.037 42.7711 132.635 42.5642 133.083 42.1504C133.543 41.7366 133.773 41.1619 133.773 40.4263C133.773 39.9321 133.664 39.4953 133.445 39.116C133.238 38.7252 132.945 38.4206 132.566 38.2022C132.187 37.9724 131.744 37.8574 131.238 37.8574C130.514 37.8574 129.934 38.0873 129.497 38.5471C129.072 38.9953 128.859 39.593 128.859 40.3401C128.859 41.0642 129.072 41.6504 129.497 42.0987C129.922 42.547 130.52 42.7711 131.29 42.7711ZM143.004 48.9434V45.6676L143.073 45.3228V38.2367L143.728 38.4264L138.555 45.4262L137.849 44.7538H146.366V46.2538H136.883V44.8573L143.073 36.5299H144.883V48.9434H143.004Z" fill="white"/>
<defs>
<linearGradient id="paint0_linear_4131_2978" x1="30.172" y1="26.7598" x2="30.172" y2="41.1272" gradientUnits="userSpaceOnUse">
<stop stop-color="#FFA04E"/>
<stop offset="1" stop-color="#99602F"/>
</linearGradient>
<linearGradient id="paint1_linear_4131_2978" x1="30.172" y1="26.7598" x2="30.172" y2="41.1272" gradientUnits="userSpaceOnUse">
<stop stop-color="#FFA04E"/>
<stop offset="1" stop-color="#99602F"/>
</linearGradient>
<linearGradient id="paint2_linear_4131_2978" x1="30.172" y1="26.7598" x2="30.172" y2="41.1272" gradientUnits="userSpaceOnUse">
<stop stop-color="#FFA04E"/>
<stop offset="1" stop-color="#99602F"/>
</linearGradient>
</defs>
</svg>
