<svg width="457" height="293" viewBox="0 0 457 293" fill="none" xmlns="http://www.w3.org/2000/svg">
<g clip-path="url(#clip0_1_280)">
<path d="M29.9354 39.0778V33.9219H32.4749V39.0778H29.9354ZM32.4749 65.0884V70.0519H29.9354V65.0884H32.4749ZM31.9362 66.2042C28.7041 66.2042 26.1262 65.409 24.2023 63.8186C22.3041 62.2282 21.1883 59.9581 20.8548 57.0082H23.933C24.2151 59.1372 25.0232 60.7404 26.357 61.8178C27.6909 62.8952 29.5378 63.4338 31.8978 63.4338C33.8986 63.4338 35.3992 63.0619 36.3996 62.318C37.4256 61.5485 37.9387 60.4326 37.9387 58.9705C37.9387 57.7136 37.5924 56.7132 36.8998 55.9693C36.2072 55.2254 35.1298 54.6098 33.6677 54.1224L29.012 52.5063C26.652 51.6855 24.9077 50.6979 23.7791 49.5436C22.6504 48.3636 22.0861 46.8759 22.0861 45.0803C22.0861 43.5925 22.458 42.3099 23.2019 41.2325C23.9458 40.1295 24.9975 39.2702 26.357 38.6546C27.7166 38.0389 29.2941 37.7311 31.0897 37.7311C33.8601 37.7311 36.0789 38.4622 37.7463 39.9243C39.4136 41.3608 40.3755 43.4129 40.6321 46.0807H37.5539C37.2204 44.1568 36.5278 42.746 35.4761 41.8482C34.4501 40.9504 32.9623 40.5015 31.0128 40.5015C29.1659 40.5015 27.7294 40.8734 26.7033 41.6173C25.6773 42.3612 25.1643 43.4129 25.1643 44.7724C25.1643 45.9267 25.5234 46.8502 26.2416 47.5428C26.9599 48.2354 28.0757 48.8382 29.5891 49.3512L34.5527 51.0827C36.7074 51.8266 38.3234 52.8398 39.4008 54.1224C40.4782 55.3793 41.0168 56.9825 41.0168 58.932C41.0168 61.2407 40.2216 63.0363 38.6313 64.3188C37.0665 65.5757 34.8348 66.2042 31.9362 66.2042ZM53.0388 66.2427C50.2941 66.2427 48.1009 65.5116 46.4592 64.0495C44.8176 62.5617 43.8172 60.6378 43.458 58.2779H46.844C47.1775 59.9453 47.8829 61.2278 48.9603 62.1256C50.0633 63.0234 51.3971 63.4723 52.9619 63.4723C54.6036 63.4723 55.9888 62.9593 57.1174 61.9332C58.2717 60.9072 58.8489 59.2783 58.8489 57.0466C58.8489 54.815 58.2717 53.1476 57.1174 52.0446C55.9888 50.916 54.5523 50.3516 52.808 50.3516C51.5511 50.3516 50.4609 50.6081 49.5374 51.1212C48.614 51.6342 47.9983 52.237 47.6905 52.9296H44.8432L46.113 38.1544H60.7343V40.9247H47.9983L49.0757 39.7704L48.1907 50.9288L47.4597 50.6594C47.9214 49.8899 48.6653 49.223 49.6913 48.6586C50.7174 48.0943 51.9743 47.8121 53.4621 47.8121C55.1807 47.8121 56.6942 48.1841 58.0024 48.928C59.3363 49.6719 60.3751 50.7364 61.119 52.1216C61.8886 53.4811 62.2734 55.1228 62.2734 57.0466C62.2734 58.9705 61.8886 60.625 61.119 62.0102C60.3751 63.3697 59.3106 64.4214 57.9254 65.1653C56.5659 65.8836 54.937 66.2427 53.0388 66.2427ZM64.0661 65.8579V63.1645C66.8365 60.8815 69.1451 58.8807 70.992 57.1621C72.8646 55.4434 74.3524 53.9172 75.4554 52.5833C76.584 51.2494 77.3792 50.031 77.841 48.928C78.3283 47.7993 78.572 46.6963 78.572 45.6189C78.572 44.0285 78.0975 42.7844 77.1484 41.8866C76.1993 40.9888 74.8911 40.5399 73.2237 40.5399C71.5051 40.5399 70.1199 41.0273 69.0682 42.0021C68.0165 42.9768 67.3752 44.3748 67.1443 46.1961H63.8353C64.0918 43.6822 65.0537 41.6558 66.7211 40.1167C68.4141 38.552 70.6586 37.7696 73.4546 37.7696C76.0454 37.7696 78.1103 38.4622 79.6494 39.8474C81.1885 41.2325 81.958 43.1307 81.958 45.542C81.958 46.8502 81.7015 48.1584 81.1885 49.4666C80.7011 50.7749 79.8803 52.1472 78.7259 53.5837C77.5973 55.0202 76.0967 56.6106 74.2241 58.3549C72.3772 60.0735 70.0814 62.023 67.3367 64.2034L66.6056 63.0876H82.4197V65.8579H64.0661ZM91.5322 65.8579V41.3095L92.3402 41.5019C92.0324 42.1945 91.4424 42.8871 90.5703 43.5796C89.6981 44.2722 88.6849 44.875 87.5306 45.3881C86.4019 45.9011 85.2348 46.2474 84.0292 46.427V43.4642C85.2348 43.259 86.3891 42.8999 87.4921 42.3869C88.5951 41.8738 89.5699 41.2582 90.4164 40.5399C91.2885 39.7961 91.9298 39.0009 92.3402 38.1544H94.6104V65.8579H91.5322ZM100.444 65.8579V38.1544H103.6V65.8579H100.444ZM103.253 51.4675L117.644 38.1544H122.069L107.37 51.4675H103.253ZM118.259 65.8579L103.176 51.4675H107.37L122.838 65.8579H118.259Z" fill="white"/>
<path d="M22.8961 87.8579V83.9381L19.6135 79.2006H20.8159L23.6657 83.3609H23.2087L26.0585 79.2006H27.1647L23.8821 83.9381V87.8579H22.8961ZM29.5587 87.9782C28.9575 87.9782 28.4284 87.8379 27.9715 87.5573C27.5146 87.2767 27.1579 86.896 26.9014 86.415C26.6529 85.926 26.5286 85.3769 26.5286 84.7677C26.5286 84.1505 26.6569 83.6054 26.9134 83.1324C27.1699 82.6595 27.5226 82.2867 27.9715 82.0142C28.4284 81.7416 28.9575 81.6054 29.5587 81.6054C30.1679 81.6054 30.697 81.7416 31.1459 82.0142C31.6028 82.2867 31.9555 82.6595 32.204 83.1324C32.4605 83.6054 32.5888 84.1505 32.5888 84.7677C32.5888 85.3769 32.4605 85.926 32.204 86.415C31.9555 86.896 31.6028 87.2767 31.1459 87.5573C30.697 87.8379 30.1679 87.9782 29.5587 87.9782ZM29.5587 87.1605C29.9755 87.1605 30.3363 87.0603 30.6409 86.8599C30.9455 86.6515 31.182 86.3669 31.3503 86.0062C31.5186 85.6455 31.6028 85.2286 31.6028 84.7557C31.6028 84.0503 31.4144 83.4851 31.0377 83.0603C30.6689 82.6354 30.1759 82.423 29.5587 82.423C28.9495 82.423 28.4565 82.6354 28.0797 83.0603C27.703 83.4851 27.5146 84.0503 27.5146 84.7557C27.5146 85.2286 27.5988 85.6455 27.7671 86.0062C27.9354 86.3669 28.1719 86.6515 28.4765 86.8599C28.7892 87.0603 29.1499 87.1605 29.5587 87.1605ZM35.787 87.9782C35.3862 87.9782 35.0295 87.898 34.7169 87.7377C34.4042 87.5693 34.1597 87.3369 33.9834 87.0403C33.807 86.7357 33.7188 86.387 33.7188 85.9942V81.7256H34.6808V85.7417C34.6808 86.2066 34.793 86.5553 35.0175 86.7878C35.2499 87.0202 35.5786 87.1365 36.0034 87.1365C36.3882 87.1365 36.7289 87.0483 37.0255 86.8719C37.3221 86.6956 37.5545 86.4511 37.7229 86.1385C37.8992 85.8178 37.9874 85.4531 37.9874 85.0443L38.1437 86.4992C37.9433 86.9561 37.6307 87.3168 37.2058 87.5814C36.781 87.8459 36.308 87.9782 35.787 87.9782ZM38.0475 87.8579V86.415H37.9874V81.7256H38.9493V87.8579H38.0475ZM40.6311 87.8579V81.7256H41.5329V83.2887H41.593V87.8579H40.6311ZM41.593 84.6595L41.4367 83.2046C41.581 82.6835 41.8375 82.2867 42.2063 82.0142C42.575 81.7416 42.9999 81.6054 43.4808 81.6054C43.6812 81.6054 43.8175 81.6214 43.8896 81.6535V82.5793C43.8496 82.5633 43.7935 82.5553 43.7213 82.5553C43.6492 82.5473 43.561 82.5433 43.4568 82.5433C42.8476 82.5433 42.3826 82.7276 42.062 83.0964C41.7494 83.4571 41.593 83.9781 41.593 84.6595ZM47.0664 87.8579V81.7256H48.0283V87.8579H47.0664ZM46.9942 80.3308V79.2006H48.1004V80.3308H46.9942ZM49.7145 87.8579V81.7256H50.6163V83.1685H50.6764V87.8579H49.7145ZM54.1033 87.8579V83.8419C54.1033 83.3769 53.987 83.0282 53.7546 82.7958C53.5221 82.5633 53.1774 82.4471 52.7205 82.4471C52.3197 82.4471 51.963 82.5352 51.6504 82.7116C51.3458 82.8879 51.1053 83.1324 50.9289 83.4451C50.7606 83.7577 50.6764 84.1224 50.6764 84.5393L50.5201 83.0843C50.7285 82.6274 51.0452 82.2667 51.47 82.0022C51.9029 81.7376 52.3919 81.6054 52.9369 81.6054C53.5782 81.6054 54.0913 81.7897 54.476 82.1585C54.8688 82.5192 55.0652 82.9962 55.0652 83.5894V87.8579H54.1033ZM58.2288 87.8579L55.6917 81.7256H56.7258L58.842 87.2086H58.4572L60.5614 81.7256H61.5474L59.0103 87.8579H58.2288ZM64.851 87.9782C64.2658 87.9782 63.7487 87.8419 63.2998 87.5693C62.8509 87.2888 62.4982 86.908 62.2417 86.427C61.9852 85.9461 61.857 85.393 61.857 84.7677C61.857 84.1425 61.9812 83.5934 62.2297 83.1204C62.4862 82.6394 62.8429 82.2667 63.2998 82.0022C63.7568 81.7376 64.2818 81.6054 64.875 81.6054C65.4441 81.6054 65.9371 81.7296 66.354 81.9781C66.7788 82.2266 67.1035 82.5753 67.3279 83.0242C67.5604 83.4731 67.6766 84.0022 67.6766 84.6114C67.6766 84.6916 67.6726 84.7677 67.6646 84.8399C67.6646 84.912 67.6566 84.9922 67.6405 85.0803H62.5784V84.2747H67.0514L66.7387 84.7196C66.7387 83.9821 66.5744 83.417 66.2458 83.0242C65.9251 82.6234 65.4682 82.423 64.875 82.423C64.2658 82.423 63.7728 82.6354 63.396 83.0603C63.0273 83.4771 62.8429 84.0423 62.8429 84.7557C62.8429 85.4852 63.0273 86.0703 63.396 86.5112C63.7728 86.9441 64.2738 87.1605 64.8991 87.1605C65.2918 87.1605 65.6365 87.0763 65.9331 86.908C66.2297 86.7317 66.4462 86.4832 66.5824 86.1625H67.4963C67.2959 86.7236 66.9592 87.1685 66.4862 87.4972C66.0213 87.8178 65.4762 87.9782 64.851 87.9782ZM70.9646 87.9782C70.2111 87.9782 69.6099 87.8058 69.161 87.4611C68.7121 87.1084 68.4556 86.6114 68.3915 85.9701H69.3173C69.3735 86.3629 69.5458 86.6635 69.8344 86.8719C70.123 87.0804 70.5077 87.1846 70.9887 87.1846C71.4135 87.1846 71.7462 87.1044 71.9867 86.9441C72.2272 86.7838 72.3474 86.5553 72.3474 86.2587C72.3474 86.0503 72.2793 85.8699 72.143 85.7176C72.0067 85.5573 71.7342 85.425 71.3254 85.3208L70.3394 85.0683C69.7783 84.924 69.3574 84.7036 69.0769 84.407C68.7963 84.1024 68.656 83.7417 68.656 83.3248C68.656 82.7958 68.8524 82.3789 69.2452 82.0743C69.638 81.7617 70.1711 81.6054 70.8444 81.6054C71.5097 81.6054 72.0508 81.7657 72.4677 82.0863C72.8845 82.407 73.121 82.8519 73.1771 83.421H72.2512C72.1951 83.0924 72.0428 82.8398 71.7943 82.6635C71.5458 82.4871 71.2172 82.399 70.8083 82.399C70.4155 82.399 70.1109 82.4751 69.8945 82.6274C69.6781 82.7717 69.5699 82.9801 69.5699 83.2527C69.5699 83.4611 69.646 83.6415 69.7983 83.7938C69.9586 83.9461 70.2232 84.0743 70.5919 84.1785L71.5538 84.4431C72.123 84.5954 72.5518 84.8278 72.8404 85.1405C73.129 85.4531 73.2733 85.8298 73.2733 86.2707C73.2733 86.8078 73.0689 87.2286 72.66 87.5333C72.2512 87.8299 71.6861 87.9782 70.9646 87.9782ZM76.7802 87.9661C76.0988 87.9661 75.6018 87.8138 75.2892 87.5092C74.9846 87.1966 74.8323 86.7477 74.8323 86.1625V80.2947L75.7942 79.934V86.1505C75.7942 86.4952 75.8824 86.7477 76.0587 86.908C76.2351 87.0683 76.5237 87.1485 76.9245 87.1485C77.0848 87.1485 77.2211 87.1405 77.3333 87.1244C77.4535 87.1004 77.5497 87.0723 77.6219 87.0403V87.8579C77.5417 87.89 77.4255 87.914 77.2732 87.9301C77.1289 87.9541 76.9646 87.9661 76.7802 87.9661ZM73.5698 82.5433V81.7256H77.6219V82.5433H73.5698ZM78.6193 87.8579V81.7256H79.5211V83.1685H79.5812V87.8579H78.6193ZM82.7556 87.8579V83.7938C82.7556 83.3288 82.6514 82.9881 82.443 82.7717C82.2346 82.5553 81.934 82.4471 81.5412 82.4471C81.1724 82.4471 80.8398 82.5352 80.5432 82.7116C80.2466 82.8879 80.0101 83.1324 79.8337 83.4451C79.6654 83.7577 79.5812 84.1224 79.5812 84.5393L79.4249 83.0843C79.6333 82.6274 79.946 82.2667 80.3628 82.0022C80.7796 81.7376 81.2326 81.6054 81.7215 81.6054C82.3147 81.6054 82.7957 81.7817 83.1644 82.1344C83.5332 82.4791 83.7175 82.9481 83.7175 83.5413V87.8579H82.7556ZM86.8919 87.8579V83.7938C86.8919 83.3288 86.7877 82.9881 86.5793 82.7717C86.3709 82.5553 86.0703 82.4471 85.6775 82.4471C85.3087 82.4471 84.9761 82.5352 84.6795 82.7116C84.3829 82.8879 84.1464 83.1324 83.97 83.4451C83.8017 83.7577 83.7175 84.1224 83.7175 84.5393L83.4771 83.0843C83.6855 82.6274 84.0061 82.2667 84.439 82.0022C84.8718 81.7376 85.3368 81.6054 85.8338 81.6054C86.427 81.6054 86.9119 81.7817 87.2887 82.1344C87.6654 82.4791 87.8538 82.9481 87.8538 83.5413V87.8579H86.8919ZM91.9766 87.9782C91.3914 87.9782 90.8744 87.8419 90.4255 87.5693C89.9766 87.2888 89.6239 86.908 89.3674 86.427C89.1108 85.9461 88.9826 85.393 88.9826 84.7677C88.9826 84.1425 89.1068 83.5934 89.3553 83.1204C89.6119 82.6394 89.9686 82.2667 90.4255 82.0022C90.8824 81.7376 91.4075 81.6054 92.0006 81.6054C92.5698 81.6054 93.0628 81.7296 93.4796 81.9781C93.9045 82.2266 94.2291 82.5753 94.4536 83.0242C94.686 83.4731 94.8023 84.0022 94.8023 84.6114C94.8023 84.6916 94.7982 84.7677 94.7902 84.8399C94.7902 84.912 94.7822 84.9922 94.7662 85.0803H89.704V84.2747H94.177L93.8644 84.7196C93.8644 83.9821 93.7 83.417 93.3714 83.0242C93.0507 82.6234 92.5938 82.423 92.0006 82.423C91.3914 82.423 90.8984 82.6354 90.5217 83.0603C90.1529 83.4771 89.9686 84.0423 89.9686 84.7557C89.9686 85.4852 90.1529 86.0703 90.5217 86.5112C90.8984 86.9441 91.3994 87.1605 92.0247 87.1605C92.4175 87.1605 92.7622 87.0763 93.0588 86.908C93.3554 86.7317 93.5718 86.4832 93.7081 86.1625H94.6219C94.4215 86.7236 94.0848 87.1685 93.6119 87.4972C93.1469 87.8178 92.6018 87.9782 91.9766 87.9782ZM96.0101 87.8579V81.7256H96.9119V83.1685H96.972V87.8579H96.0101ZM100.399 87.8579V83.8419C100.399 83.3769 100.283 83.0282 100.05 82.7958C99.8178 82.5633 99.4731 82.4471 99.0161 82.4471C98.6153 82.4471 98.2586 82.5352 97.946 82.7116C97.6414 82.8879 97.4009 83.1324 97.2246 83.4451C97.0562 83.7577 96.972 84.1224 96.972 84.5393L96.8157 83.0843C97.0241 82.6274 97.3408 82.2667 97.7656 82.0022C98.1985 81.7376 98.6875 81.6054 99.2326 81.6054C99.8739 81.6054 100.387 81.7897 100.772 82.1585C101.164 82.5192 101.361 82.9962 101.361 83.5894V87.8579H100.399ZM105.256 87.9661C104.575 87.9661 104.078 87.8138 103.765 87.5092C103.461 87.1966 103.308 86.7477 103.308 86.1625V80.2947L104.27 79.934V86.1505C104.27 86.4952 104.358 86.7477 104.535 86.908C104.711 87.0683 105 87.1485 105.4 87.1485C105.561 87.1485 105.697 87.1405 105.809 87.1244C105.93 87.1004 106.026 87.0723 106.098 87.0403V87.8579C106.018 87.89 105.901 87.914 105.749 87.9301C105.605 87.9541 105.441 87.9661 105.256 87.9661ZM102.046 82.5433V81.7256H106.098V82.5433H102.046ZM109.262 87.8579V81.7256H110.224V87.8579H109.262ZM109.19 80.3308V79.2006H110.296V80.3308H109.19ZM113.99 87.9782C113.237 87.9782 112.636 87.8058 112.187 87.4611C111.738 87.1084 111.481 86.6114 111.417 85.9701H112.343C112.399 86.3629 112.571 86.6635 112.86 86.8719C113.149 87.0804 113.533 87.1846 114.014 87.1846C114.439 87.1846 114.772 87.1044 115.012 86.9441C115.253 86.7838 115.373 86.5553 115.373 86.2587C115.373 86.0503 115.305 85.8699 115.169 85.7176C115.032 85.5573 114.76 85.425 114.351 85.3208L113.365 85.0683C112.804 84.924 112.383 84.7036 112.103 84.407C111.822 84.1024 111.682 83.7417 111.682 83.3248C111.682 82.7958 111.878 82.3789 112.271 82.0743C112.664 81.7617 113.197 81.6054 113.87 81.6054C114.535 81.6054 115.076 81.7657 115.493 82.0863C115.91 82.407 116.147 82.8519 116.203 83.421H115.277C115.221 83.0924 115.068 82.8398 114.82 82.6635C114.571 82.4871 114.243 82.399 113.834 82.399C113.441 82.399 113.137 82.4751 112.92 82.6274C112.704 82.7717 112.595 82.9801 112.595 83.2527C112.595 83.4611 112.672 83.6415 112.824 83.7938C112.984 83.9461 113.249 84.0743 113.618 84.1785L114.579 84.4431C115.149 84.5954 115.577 84.8278 115.866 85.1405C116.155 85.4531 116.299 85.8298 116.299 86.2707C116.299 86.8078 116.095 87.2286 115.686 87.5333C115.277 87.8299 114.712 87.9782 113.99 87.9782ZM121.96 90.4431C121.231 90.4431 120.622 90.2707 120.133 89.9261C119.652 89.5894 119.359 89.1405 119.255 88.5794H120.169C120.257 88.9 120.453 89.1525 120.758 89.3369C121.071 89.5293 121.492 89.6255 122.021 89.6255C122.646 89.6255 123.119 89.4531 123.439 89.1084C123.76 88.7717 123.92 88.2747 123.92 87.6174V86.3068L124.041 86.3308C123.904 86.7958 123.632 87.1685 123.223 87.4491C122.814 87.7216 122.329 87.8579 121.768 87.8579C121.231 87.8579 120.758 87.7297 120.349 87.4731C119.94 87.2086 119.624 86.8439 119.399 86.3789C119.175 85.914 119.063 85.3729 119.063 84.7557C119.063 84.1304 119.179 83.5813 119.411 83.1084C119.644 82.6354 119.968 82.2707 120.385 82.0142C120.81 81.7497 121.303 81.6174 121.864 81.6174C122.441 81.6174 122.922 81.7577 123.307 82.0382C123.7 82.3188 123.961 82.7196 124.089 83.2407L123.981 83.2527V81.7256H124.882V87.6174C124.882 88.4912 124.622 89.1806 124.101 89.6856C123.58 90.1906 122.866 90.4431 121.96 90.4431ZM122.009 87.0282C122.61 87.0282 123.087 86.8198 123.439 86.403C123.792 85.9862 123.969 85.421 123.969 84.7076C123.969 84.0102 123.792 83.4611 123.439 83.0603C123.087 82.6515 122.61 82.4471 122.009 82.4471C121.399 82.4471 120.918 82.6515 120.566 83.0603C120.221 83.4691 120.049 84.0302 120.049 84.7437C120.049 85.4411 120.225 85.9982 120.578 86.415C120.93 86.8238 121.407 87.0282 122.009 87.0282ZM126.571 87.8579V81.7256H127.473V83.2887H127.533V87.8579H126.571ZM127.533 84.6595L127.377 83.2046C127.521 82.6835 127.777 82.2867 128.146 82.0142C128.515 81.7416 128.94 81.6054 129.421 81.6054C129.621 81.6054 129.757 81.6214 129.83 81.6535V82.5793C129.79 82.5633 129.733 82.5553 129.661 82.5553C129.589 82.5473 129.501 82.5433 129.397 82.5433C128.788 82.5433 128.323 82.7276 128.002 83.0964C127.689 83.4571 127.533 83.9781 127.533 84.6595ZM133.389 87.9782C132.788 87.9782 132.258 87.8379 131.802 87.5573C131.345 87.2767 130.988 86.896 130.731 86.415C130.483 85.926 130.359 85.3769 130.359 84.7677C130.359 84.1505 130.487 83.6054 130.743 83.1324C131 82.6595 131.353 82.2867 131.802 82.0142C132.258 81.7416 132.788 81.6054 133.389 81.6054C133.998 81.6054 134.527 81.7416 134.976 82.0142C135.433 82.2867 135.786 82.6595 136.034 83.1324C136.291 83.6054 136.419 84.1505 136.419 84.7677C136.419 85.3769 136.291 85.926 136.034 86.415C135.786 86.896 135.433 87.2767 134.976 87.5573C134.527 87.8379 133.998 87.9782 133.389 87.9782ZM133.389 87.1605C133.806 87.1605 134.166 87.0603 134.471 86.8599C134.776 86.6515 135.012 86.3669 135.18 86.0062C135.349 85.6455 135.433 85.2286 135.433 84.7557C135.433 84.0503 135.244 83.4851 134.868 83.0603C134.499 82.6354 134.006 82.423 133.389 82.423C132.78 82.423 132.287 82.6354 131.91 83.0603C131.533 83.4851 131.345 84.0503 131.345 84.7557C131.345 85.2286 131.429 85.6455 131.597 86.0062C131.765 86.3669 132.002 86.6515 132.307 86.8599C132.619 87.0603 132.98 87.1605 133.389 87.1605ZM138.754 87.8579L136.878 81.7256H137.852L139.295 86.9802H139.055L140.786 81.7256H141.568L143.311 86.9802H143.071L144.502 81.7256H145.428L143.552 87.8579H142.77L141.039 82.7236H141.291L139.536 87.8579H138.754ZM146.457 87.8579V81.7256H147.419V87.8579H146.457ZM146.385 80.3308V79.2006H147.491V80.3308H146.385ZM149.105 87.8579V81.7256H150.007V83.1685H150.067V87.8579H149.105ZM153.494 87.8579V83.8419C153.494 83.3769 153.378 83.0282 153.146 82.7958C152.913 82.5633 152.568 82.4471 152.112 82.4471C151.711 82.4471 151.354 82.5352 151.041 82.7116C150.737 82.8879 150.496 83.1324 150.32 83.4451C150.152 83.7577 150.067 84.1224 150.067 84.5393L149.911 83.0843C150.12 82.6274 150.436 82.2667 150.861 82.0022C151.294 81.7376 151.783 81.6054 152.328 81.6054C152.969 81.6054 153.482 81.7897 153.867 82.1585C154.26 82.5192 154.456 82.9962 154.456 83.5894V87.8579H153.494ZM158.504 90.4431C157.774 90.4431 157.165 90.2707 156.676 89.9261C156.195 89.5894 155.903 89.1405 155.799 88.5794H156.712C156.801 88.9 156.997 89.1525 157.302 89.3369C157.614 89.5293 158.035 89.6255 158.564 89.6255C159.189 89.6255 159.662 89.4531 159.983 89.1084C160.304 88.7717 160.464 88.2747 160.464 87.6174V86.3068L160.584 86.3308C160.448 86.7958 160.175 87.1685 159.766 87.4491C159.358 87.7216 158.873 87.8579 158.312 87.8579C157.774 87.8579 157.302 87.7297 156.893 87.4731C156.484 87.2086 156.167 86.8439 155.943 86.3789C155.718 85.914 155.606 85.3729 155.606 84.7557C155.606 84.1304 155.722 83.5813 155.955 83.1084C156.187 82.6354 156.512 82.2707 156.929 82.0142C157.354 81.7497 157.847 81.6174 158.408 81.6174C158.985 81.6174 159.466 81.7577 159.851 82.0382C160.243 82.3188 160.504 82.7196 160.632 83.2407L160.524 83.2527V81.7256H161.426V87.6174C161.426 88.4912 161.165 89.1806 160.644 89.6856C160.123 90.1906 159.41 90.4431 158.504 90.4431ZM158.552 87.0282C159.153 87.0282 159.63 86.8198 159.983 86.403C160.336 85.9862 160.512 85.421 160.512 84.7076C160.512 84.0102 160.336 83.4611 159.983 83.0603C159.63 82.6515 159.153 82.4471 158.552 82.4471C157.943 82.4471 157.462 82.6515 157.109 83.0603C156.764 83.4691 156.592 84.0302 156.592 84.7437C156.592 85.4411 156.768 85.9982 157.121 86.415C157.474 86.8238 157.951 87.0282 158.552 87.0282Z" fill="#606165"/>
<g clip-path="url(#clip1_1_280)">
<g filter="url(#filter0_d_1_280)">
<path d="M781.22 179.727C805.044 189.827 836.81 181.13 849.715 175.519L927.144 337.243L-92.8314 355.279C-99.2838 281.732 -103.85 131.871 -70.4962 120.809C-28.8038 106.981 -7.95758 132.833 -0.512512 140.649C6.93256 148.464 32.2458 154.476 53.092 152.072C73.9382 149.667 118.609 179.727 149.878 186.941C181.147 194.156 224.329 154.476 243.686 147.863C263.043 141.25 279.422 155.679 286.867 154.476C294.312 153.274 325.582 115.398 347.917 115.999C370.252 116.6 389.609 152.072 405.988 147.863C422.368 143.655 440.236 175.519 495.329 196.561C550.423 217.603 572.758 116.6 602.538 111.791C632.319 106.981 641.253 128.023 671.033 147.863C700.813 167.703 714.214 152.673 723.149 147.863C732.083 143.054 751.44 167.102 781.22 179.727Z" stroke="#FF8975" stroke-width="1.20241" stroke-linecap="round" stroke-linejoin="round" shape-rendering="crispEdges"/>
</g>
<g filter="url(#filter1_d_1_280)">
<path d="M-66.9042 191.751C-90.7284 201.851 -122.494 193.154 -135.399 187.543L-212.828 349.267L807.147 367.303C813.6 293.755 818.166 143.895 784.812 132.833C743.12 119.005 722.273 144.857 714.828 152.673C707.383 160.488 682.07 166.5 661.224 164.096C640.378 161.691 595.707 191.751 564.438 198.965C533.169 206.18 489.987 166.5 470.63 159.887C451.273 153.274 434.894 167.703 427.449 166.5C420.004 165.298 388.734 127.422 366.399 128.023C344.064 128.624 324.707 164.096 308.327 159.887C291.948 155.679 274.08 187.543 218.987 208.585C163.893 229.627 141.558 128.624 111.778 123.815C81.9973 119.005 73.0632 140.047 43.2829 159.887C13.5026 179.727 0.10144 164.697 -8.83264 159.887C-17.7667 155.077 -37.1239 179.126 -66.9042 191.751Z" stroke="#FFA04E" stroke-width="1.20241" stroke-linecap="round" stroke-linejoin="round" shape-rendering="crispEdges"/>
</g>
<g filter="url(#filter2_d_1_280)">
<path d="M-2.82574 179.701C-44.9641 189.797 -101.148 181.103 -123.973 175.494L-260.923 337.156L1543.12 355.186C1554.54 281.666 1562.61 131.863 1503.62 120.805C1429.88 106.983 1393.01 132.825 1379.84 140.637C1366.67 148.45 1321.9 154.46 1285.03 152.056C1248.16 149.652 1169.15 179.701 1113.84 186.912C1058.53 194.124 982.157 154.46 947.92 147.849C913.682 141.238 884.712 155.662 871.544 154.46C858.376 153.258 803.069 115.396 763.565 115.997C724.06 116.598 689.823 152.056 660.853 147.849C631.882 143.642 600.279 175.494 502.834 196.528C405.389 217.562 365.884 116.598 313.212 111.791C260.539 106.983 244.737 128.017 192.064 147.849C139.391 167.681 115.688 152.657 99.8864 147.849C84.0845 143.041 49.8471 167.08 -2.82574 179.701Z" stroke="white" stroke-width="1.20241" stroke-linecap="round" stroke-linejoin="round" shape-rendering="crispEdges"/>
</g>
</g>
<line x1="19.2388" y1="233.505" x2="437.762" y2="233.505" stroke="white" stroke-opacity="0.1" stroke-width="0.47514"/>
<circle cx="24.0484" cy="257.791" r="4.80964" fill="#DC7765"/>
<path d="M39.2948 261.981V255.139H40.074V261.981H39.2948ZM39.6939 261.981V261.297H43.8751V261.981H39.6939ZM39.6939 258.76V258.075H43.533V258.76H39.6939ZM39.6939 255.823V255.139H43.7991V255.823H39.6939ZM48.2248 261.981V260.85L48.3198 260.879C48.1995 261.246 47.9777 261.537 47.6546 261.753C47.3379 261.968 46.9578 262.076 46.5143 262.076C46.0772 262.076 45.6939 261.971 45.3645 261.762C45.0414 261.553 44.788 261.262 44.6042 260.888C44.4269 260.514 44.3382 260.077 44.3382 259.577C44.3382 259.07 44.43 258.626 44.6137 258.246C44.7975 257.866 45.054 257.572 45.3835 257.363C45.7129 257.154 46.0994 257.049 46.5428 257.049C46.999 257.049 47.3822 257.16 47.6927 257.382C48.0031 257.603 48.2153 257.917 48.3293 258.322L48.1773 258.341V255.139H48.9375V261.981H48.2248ZM46.6569 261.411C47.1447 261.411 47.5248 261.246 47.7972 260.917C48.0759 260.581 48.2153 260.125 48.2153 259.548C48.2153 258.984 48.0759 258.538 47.7972 258.208C47.5184 257.879 47.1383 257.714 46.6569 257.714C46.1754 257.714 45.7984 257.879 45.526 258.208C45.2536 258.538 45.1174 258.994 45.1174 259.577C45.1174 260.147 45.2536 260.597 45.526 260.926C45.7984 261.249 46.1754 261.411 46.6569 261.411ZM51.8496 262.076C51.5329 262.076 51.2509 262.013 51.0039 261.886C50.7568 261.753 50.5636 261.569 50.4242 261.335C50.2848 261.094 50.2151 260.818 50.2151 260.508V257.135H50.9754V260.308C50.9754 260.676 51.064 260.951 51.2414 261.135C51.4252 261.319 51.6849 261.411 52.0207 261.411C52.3248 261.411 52.594 261.341 52.8284 261.202C53.0628 261.062 53.2465 260.869 53.3796 260.622C53.5189 260.369 53.5886 260.08 53.5886 259.757L53.7122 260.907C53.5538 261.268 53.3067 261.553 52.9709 261.762C52.6352 261.971 52.2614 262.076 51.8496 262.076ZM53.6361 261.981V260.841H53.5886V257.135H54.3488V261.981H53.6361ZM57.579 262.076C57.1355 262.076 56.7396 261.968 56.3911 261.753C56.049 261.531 55.7766 261.23 55.5739 260.85C55.3775 260.464 55.2793 260.027 55.2793 259.539C55.2793 259.051 55.3775 258.62 55.5739 258.246C55.7766 257.873 56.049 257.578 56.3911 257.363C56.7396 257.147 57.1324 257.04 57.5695 257.04C57.9306 257.04 58.2537 257.109 58.5388 257.249C58.8302 257.388 59.0678 257.587 59.2515 257.847C59.4415 258.101 59.5619 258.398 59.6126 258.741H58.9094C58.846 258.43 58.7003 258.177 58.4722 257.98C58.2442 257.784 57.9496 257.686 57.5885 257.686C57.2781 257.686 57.0088 257.762 56.7807 257.914C56.5527 258.066 56.3753 258.281 56.2486 258.56C56.1219 258.839 56.0585 259.165 56.0585 259.539C56.0585 259.913 56.1219 260.242 56.2486 260.527C56.3753 260.812 56.5527 261.034 56.7807 261.192C57.0151 261.351 57.2876 261.43 57.598 261.43C57.9464 261.43 58.2378 261.335 58.4722 261.145C58.7066 260.948 58.8555 260.695 58.9189 260.384H59.6221C59.5651 260.72 59.4384 261.018 59.242 261.278C59.0519 261.531 58.8143 261.728 58.5293 261.867C58.2442 262.006 57.9274 262.076 57.579 262.076ZM63.4921 261.981C63.4668 261.873 63.4478 261.75 63.4351 261.61C63.4287 261.471 63.4256 261.294 63.4256 261.078H63.3781V258.76C63.3781 258.392 63.2925 258.123 63.1215 257.952C62.9568 257.774 62.6875 257.686 62.3138 257.686C61.9463 257.686 61.6517 257.762 61.43 257.914C61.2146 258.059 61.0942 258.269 61.0689 258.541H60.3372C60.3688 258.072 60.5652 257.705 60.9263 257.439C61.2874 257.173 61.7594 257.04 62.3423 257.04C62.9441 257.04 63.3907 257.182 63.6822 257.467C63.9736 257.752 64.1193 258.18 64.1193 258.75V261.078C64.1193 261.218 64.1288 261.363 64.1478 261.515C64.1668 261.661 64.1921 261.816 64.2238 261.981H63.4921ZM61.8291 262.076C61.3286 262.076 60.9295 261.956 60.6318 261.715C60.3403 261.468 60.1946 261.132 60.1946 260.708C60.1946 260.283 60.3403 259.954 60.6318 259.719C60.9232 259.485 61.3476 259.32 61.9051 259.225L63.5966 258.94V259.567L62.0192 259.814C61.6644 259.871 61.3951 259.966 61.2114 260.099C61.0277 260.232 60.9358 260.426 60.9358 260.679C60.9358 260.926 61.0182 261.113 61.1829 261.24C61.354 261.366 61.6042 261.43 61.9336 261.43C62.3581 261.43 62.7034 261.335 62.9694 261.145C63.2419 260.948 63.3781 260.695 63.3781 260.384L63.5016 261.059C63.4002 261.382 63.2007 261.633 62.9029 261.81C62.6115 261.987 62.2536 262.076 61.8291 262.076ZM67.2032 262.066C66.6647 262.066 66.272 261.946 66.0249 261.705C65.7842 261.458 65.6638 261.104 65.6638 260.641V256.004L66.424 255.719V260.632C66.424 260.904 66.4937 261.104 66.6331 261.23C66.7724 261.357 67.0005 261.42 67.3173 261.42C67.444 261.42 67.5517 261.414 67.6404 261.401C67.7354 261.382 67.8114 261.36 67.8684 261.335V261.981C67.8051 262.006 67.7132 262.025 67.5929 262.038C67.4788 262.057 67.3489 262.066 67.2032 262.066ZM64.666 257.781V257.135H67.8684V257.781H64.666ZM68.6567 261.981V257.135H69.4169V261.981H68.6567ZM68.5997 256.032V255.139H69.474V256.032H68.5997ZM72.7456 262.076C72.2705 262.076 71.8523 261.965 71.4912 261.743C71.1301 261.522 70.8482 261.221 70.6455 260.841C70.4491 260.454 70.3509 260.02 70.3509 259.539C70.3509 259.051 70.4523 258.62 70.655 258.246C70.8577 257.873 71.1365 257.578 71.4912 257.363C71.8523 257.147 72.2705 257.04 72.7456 257.04C73.2271 257.04 73.6452 257.147 74 257.363C74.3611 257.578 74.6398 257.873 74.8362 258.246C75.0389 258.62 75.1403 259.051 75.1403 259.539C75.1403 260.02 75.0389 260.454 74.8362 260.841C74.6398 261.221 74.3611 261.522 74 261.743C73.6452 261.965 73.2271 262.076 72.7456 262.076ZM72.7456 261.43C73.075 261.43 73.3601 261.351 73.6008 261.192C73.8416 261.028 74.0285 260.803 74.1615 260.518C74.2946 260.232 74.3611 259.903 74.3611 259.529C74.3611 258.972 74.2122 258.525 73.9144 258.189C73.623 257.854 73.2334 257.686 72.7456 257.686C72.2641 257.686 71.8745 257.854 71.5768 258.189C71.279 258.525 71.1301 258.972 71.1301 259.529C71.1301 259.903 71.1966 260.232 71.3297 260.518C71.4627 260.803 71.6496 261.028 71.8903 261.192C72.1374 261.351 72.4225 261.43 72.7456 261.43ZM76.0904 261.981V257.135H76.8031V258.275H76.8507V261.981H76.0904ZM79.559 261.981V258.807C79.559 258.44 79.4671 258.164 79.2834 257.98C79.0997 257.797 78.8272 257.705 78.4661 257.705C78.1494 257.705 77.8675 257.774 77.6204 257.914C77.3796 258.053 77.1896 258.246 77.0502 258.493C76.9172 258.741 76.8507 259.029 76.8507 259.358L76.7271 258.208C76.8918 257.847 77.1421 257.562 77.4778 257.353C77.8199 257.144 78.2064 257.04 78.6372 257.04C79.144 257.04 79.5495 257.185 79.8535 257.477C80.164 257.762 80.3192 258.139 80.3192 258.607V261.981H79.559Z" fill="#606165"/>
<path d="M130.569 260.594V256.308H131.367V260.594H130.569ZM128.953 258.845V258.066H132.982V258.845H128.953ZM136.539 261.981V260.175L136.577 259.985V256.08L136.938 256.184L134.087 260.042L133.698 259.672H138.392V260.499H133.165V259.729L136.577 255.139H137.575V261.981H136.539ZM141.646 262.076C141.095 262.076 140.61 261.927 140.192 261.629C139.774 261.325 139.448 260.907 139.213 260.375C138.979 259.836 138.862 259.222 138.862 258.531C138.862 257.841 138.979 257.236 139.213 256.716C139.448 256.191 139.774 255.782 140.192 255.491C140.61 255.193 141.095 255.044 141.646 255.044C142.197 255.044 142.679 255.193 143.09 255.491C143.509 255.782 143.835 256.191 144.069 256.716C144.304 257.236 144.421 257.841 144.421 258.531C144.421 259.228 144.304 259.843 144.069 260.375C143.835 260.907 143.509 261.325 143.09 261.629C142.672 261.927 142.191 262.076 141.646 262.076ZM141.646 261.211C142.007 261.211 142.314 261.1 142.568 260.879C142.821 260.651 143.011 260.337 143.138 259.938C143.271 259.532 143.337 259.06 143.337 258.522C143.337 257.99 143.271 257.527 143.138 257.135C143.011 256.742 142.821 256.441 142.568 256.232C142.321 256.016 142.013 255.909 141.646 255.909C141.272 255.909 140.959 256.016 140.705 256.232C140.458 256.447 140.268 256.751 140.135 257.144C140.008 257.53 139.945 257.99 139.945 258.522C139.945 259.06 140.011 259.532 140.145 259.938C140.278 260.343 140.468 260.657 140.715 260.879C140.968 261.1 141.279 261.211 141.646 261.211ZM145.325 261.981L150.399 255.139H151.283L146.218 261.981H145.325ZM150.124 262.076C149.858 262.076 149.607 262.013 149.373 261.886C149.139 261.759 148.949 261.566 148.803 261.306C148.657 261.047 148.584 260.717 148.584 260.318C148.584 259.919 148.654 259.593 148.793 259.339C148.939 259.079 149.129 258.886 149.364 258.76C149.598 258.633 149.851 258.569 150.124 258.569C150.409 258.569 150.669 258.633 150.903 258.76C151.144 258.886 151.334 259.079 151.473 259.339C151.613 259.593 151.682 259.919 151.682 260.318C151.682 260.717 151.609 261.047 151.464 261.306C151.318 261.566 151.125 261.759 150.884 261.886C150.65 262.013 150.396 262.076 150.124 262.076ZM150.124 261.458C150.364 261.458 150.561 261.36 150.713 261.164C150.871 260.961 150.95 260.676 150.95 260.308C150.95 259.947 150.871 259.672 150.713 259.482C150.561 259.285 150.364 259.187 150.124 259.187C149.883 259.187 149.69 259.282 149.544 259.472C149.398 259.662 149.326 259.941 149.326 260.308C149.326 260.682 149.398 260.967 149.544 261.164C149.69 261.36 149.883 261.458 150.124 261.458ZM146.418 258.55C146.145 258.55 145.892 258.487 145.657 258.36C145.423 258.234 145.233 258.04 145.087 257.781C144.948 257.521 144.878 257.192 144.878 256.792C144.878 256.393 144.948 256.067 145.087 255.814C145.233 255.554 145.423 255.361 145.657 255.234C145.892 255.107 146.145 255.044 146.418 255.044C146.703 255.044 146.962 255.107 147.197 255.234C147.431 255.361 147.618 255.554 147.758 255.814C147.897 256.067 147.967 256.393 147.967 256.792C147.967 257.192 147.894 257.521 147.748 257.781C147.602 258.04 147.412 258.234 147.178 258.36C146.943 258.487 146.69 258.55 146.418 258.55ZM146.418 257.933C146.652 257.933 146.845 257.835 146.997 257.638C147.156 257.442 147.235 257.157 147.235 256.783C147.235 256.422 147.159 256.146 147.007 255.956C146.855 255.76 146.658 255.662 146.418 255.662C146.177 255.662 145.981 255.757 145.828 255.947C145.683 256.137 145.61 256.415 145.61 256.783C145.61 257.157 145.683 257.442 145.828 257.638C145.981 257.835 146.177 257.933 146.418 257.933Z" fill="white"/>
<circle cx="166.724" cy="257.791" r="4.80964" fill="#E38E45"/>
<path d="M181.97 261.981V255.139H182.749V261.981H181.97ZM186.55 261.981V255.139H187.33V261.981H186.55ZM182.369 258.075H186.893V258.76H182.369V258.075ZM190.706 262.076C190.244 262.076 189.835 261.968 189.48 261.753C189.126 261.531 188.847 261.23 188.644 260.85C188.441 260.47 188.34 260.033 188.34 259.539C188.34 259.045 188.438 258.611 188.635 258.237C188.837 257.857 189.119 257.562 189.48 257.353C189.842 257.144 190.256 257.04 190.725 257.04C191.175 257.04 191.565 257.138 191.894 257.334C192.23 257.53 192.486 257.806 192.664 258.161C192.848 258.516 192.939 258.934 192.939 259.415C192.939 259.479 192.936 259.539 192.93 259.596C192.93 259.653 192.924 259.716 192.911 259.786H188.91V259.149H192.445L192.198 259.501C192.198 258.918 192.068 258.471 191.809 258.161C191.555 257.844 191.194 257.686 190.725 257.686C190.244 257.686 189.854 257.854 189.556 258.189C189.265 258.519 189.119 258.965 189.119 259.529C189.119 260.106 189.265 260.568 189.556 260.917C189.854 261.259 190.25 261.43 190.744 261.43C191.055 261.43 191.327 261.363 191.562 261.23C191.796 261.091 191.967 260.894 192.075 260.641H192.797C192.638 261.085 192.372 261.436 191.999 261.696C191.631 261.949 191.2 262.076 190.706 262.076ZM196.841 261.981C196.815 261.873 196.796 261.75 196.784 261.61C196.777 261.471 196.774 261.294 196.774 261.078H196.727V258.76C196.727 258.392 196.641 258.123 196.47 257.952C196.305 257.774 196.036 257.686 195.662 257.686C195.295 257.686 195 257.762 194.778 257.914C194.563 258.059 194.443 258.269 194.417 258.541H193.686C193.717 258.072 193.914 257.705 194.275 257.439C194.636 257.173 195.108 257.04 195.691 257.04C196.293 257.04 196.739 257.182 197.031 257.467C197.322 257.752 197.468 258.18 197.468 258.75V261.078C197.468 261.218 197.477 261.363 197.496 261.515C197.515 261.661 197.541 261.816 197.572 261.981H196.841ZM195.178 262.076C194.677 262.076 194.278 261.956 193.98 261.715C193.689 261.468 193.543 261.132 193.543 260.708C193.543 260.283 193.689 259.954 193.98 259.719C194.272 259.485 194.696 259.32 195.254 259.225L196.945 258.94V259.567L195.368 259.814C195.013 259.871 194.744 259.966 194.56 260.099C194.376 260.232 194.284 260.426 194.284 260.679C194.284 260.926 194.367 261.113 194.531 261.24C194.702 261.366 194.953 261.43 195.282 261.43C195.707 261.43 196.052 261.335 196.318 261.145C196.59 260.948 196.727 260.695 196.727 260.384L196.85 261.059C196.749 261.382 196.549 261.633 196.251 261.81C195.96 261.987 195.602 262.076 195.178 262.076ZM198.743 261.981V255.139H199.503V261.981H198.743ZM202.774 262.066C202.236 262.066 201.843 261.946 201.596 261.705C201.355 261.458 201.235 261.104 201.235 260.641V256.004L201.995 255.719V260.632C201.995 260.904 202.065 261.104 202.204 261.23C202.344 261.357 202.572 261.42 202.888 261.42C203.015 261.42 203.123 261.414 203.212 261.401C203.307 261.382 203.383 261.36 203.44 261.335V261.981C203.376 262.006 203.284 262.025 203.164 262.038C203.05 262.057 202.92 262.066 202.774 262.066ZM200.237 257.781V257.135H203.44V257.781H200.237ZM204.228 261.981V255.139H204.988V261.981H204.228ZM207.696 261.981V258.807C207.696 258.44 207.605 258.164 207.421 257.98C207.237 257.797 206.965 257.705 206.604 257.705C206.287 257.705 206.005 257.774 205.758 257.914C205.517 258.053 205.327 258.246 205.188 258.493C205.055 258.741 204.988 259.029 204.988 259.358L204.865 258.208C205.029 257.847 205.28 257.562 205.615 257.353C205.957 257.144 206.344 257.04 206.775 257.04C207.281 257.04 207.687 257.185 207.991 257.477C208.301 257.762 208.457 258.139 208.457 258.607V261.981H207.696Z" fill="#606165"/>
<path d="M274.244 260.594V256.308H275.042V260.594H274.244ZM272.629 258.845V258.066H276.658V258.845H272.629ZM280.214 261.981V260.175L280.252 259.985V256.08L280.613 256.184L277.763 260.042L277.373 259.672H282.067V260.499H276.841V259.729L280.252 255.139H281.25V261.981H280.214ZM283.342 261.981C283.431 260.904 283.688 259.846 284.112 258.807C284.536 257.768 285.138 256.742 285.918 255.728L285.946 255.966H282.059V255.139H286.82V255.871C286.339 256.568 285.933 257.252 285.604 257.923C285.275 258.588 285.015 259.254 284.825 259.919C284.641 260.584 284.521 261.271 284.464 261.981H283.342ZM287.58 261.981L292.655 255.139H293.539L288.474 261.981H287.58ZM292.379 262.076C292.113 262.076 291.863 262.013 291.628 261.886C291.394 261.759 291.204 261.566 291.058 261.306C290.913 261.047 290.84 260.717 290.84 260.318C290.84 259.919 290.909 259.593 291.049 259.339C291.194 259.079 291.385 258.886 291.619 258.76C291.853 258.633 292.107 258.569 292.379 258.569C292.664 258.569 292.924 258.633 293.158 258.76C293.399 258.886 293.589 259.079 293.729 259.339C293.868 259.593 293.938 259.919 293.938 260.318C293.938 260.717 293.865 261.047 293.719 261.306C293.573 261.566 293.38 261.759 293.139 261.886C292.905 262.013 292.652 262.076 292.379 262.076ZM292.379 261.458C292.62 261.458 292.816 261.36 292.968 261.164C293.127 260.961 293.206 260.676 293.206 260.308C293.206 259.947 293.127 259.672 292.968 259.482C292.816 259.285 292.62 259.187 292.379 259.187C292.138 259.187 291.945 259.282 291.8 259.472C291.654 259.662 291.581 259.941 291.581 260.308C291.581 260.682 291.654 260.967 291.8 261.164C291.945 261.36 292.138 261.458 292.379 261.458ZM288.673 258.55C288.401 258.55 288.147 258.487 287.913 258.36C287.678 258.234 287.488 258.04 287.343 257.781C287.203 257.521 287.134 257.192 287.134 256.792C287.134 256.393 287.203 256.067 287.343 255.814C287.488 255.554 287.678 255.361 287.913 255.234C288.147 255.107 288.401 255.044 288.673 255.044C288.958 255.044 289.218 255.107 289.452 255.234C289.687 255.361 289.874 255.554 290.013 255.814C290.152 256.067 290.222 256.393 290.222 256.792C290.222 257.192 290.149 257.521 290.003 257.781C289.858 258.04 289.668 258.234 289.433 258.36C289.199 258.487 288.945 258.55 288.673 258.55ZM288.673 257.933C288.907 257.933 289.101 257.835 289.253 257.638C289.411 257.442 289.49 257.157 289.49 256.783C289.49 256.422 289.414 256.146 289.262 255.956C289.11 255.76 288.914 255.662 288.673 255.662C288.432 255.662 288.236 255.757 288.084 255.947C287.938 256.137 287.865 256.415 287.865 256.783C287.865 257.157 287.938 257.442 288.084 257.638C288.236 257.835 288.432 257.933 288.673 257.933Z" fill="white"/>
<circle cx="309.399" cy="257.791" r="4.80964" fill="white"/>
<path d="M326.964 262.066C326.166 262.066 325.529 261.87 325.054 261.477C324.585 261.085 324.31 260.524 324.227 259.795H324.987C325.057 260.321 325.257 260.717 325.586 260.983C325.916 261.249 326.372 261.382 326.955 261.382C327.449 261.382 327.819 261.29 328.066 261.107C328.32 260.917 328.446 260.641 328.446 260.28C328.446 259.97 328.361 259.722 328.19 259.539C328.019 259.355 327.753 259.203 327.392 259.083L326.242 258.683C325.659 258.481 325.228 258.237 324.949 257.952C324.671 257.66 324.531 257.293 324.531 256.849C324.531 256.482 324.623 256.165 324.807 255.899C324.991 255.627 325.25 255.415 325.586 255.262C325.922 255.11 326.312 255.034 326.755 255.034C327.439 255.034 327.987 255.215 328.399 255.576C328.811 255.931 329.048 256.438 329.112 257.097H328.351C328.269 256.621 328.098 256.273 327.838 256.051C327.585 255.829 327.217 255.719 326.736 255.719C326.28 255.719 325.925 255.81 325.672 255.994C325.418 256.178 325.292 256.438 325.292 256.773C325.292 257.059 325.38 257.287 325.558 257.458C325.735 257.629 326.011 257.778 326.384 257.904L327.61 258.332C328.142 258.516 328.542 258.766 328.808 259.083C329.074 259.393 329.207 259.789 329.207 260.27C329.207 260.841 329.01 261.284 328.618 261.601C328.231 261.911 327.68 262.066 326.964 262.066ZM333.136 261.981C333.11 261.873 333.091 261.75 333.079 261.61C333.072 261.471 333.069 261.294 333.069 261.078H333.022V258.76C333.022 258.392 332.936 258.123 332.765 257.952C332.6 257.774 332.331 257.686 331.957 257.686C331.59 257.686 331.295 257.762 331.073 257.914C330.858 258.059 330.738 258.269 330.712 258.541H329.981C330.012 258.072 330.209 257.705 330.57 257.439C330.931 257.173 331.403 257.04 331.986 257.04C332.588 257.04 333.034 257.182 333.326 257.467C333.617 257.752 333.763 258.18 333.763 258.75V261.078C333.763 261.218 333.772 261.363 333.791 261.515C333.81 261.661 333.836 261.816 333.867 261.981H333.136ZM331.473 262.076C330.972 262.076 330.573 261.956 330.275 261.715C329.984 261.468 329.838 261.132 329.838 260.708C329.838 260.283 329.984 259.954 330.275 259.719C330.567 259.485 330.991 259.32 331.549 259.225L333.24 258.94V259.567L331.663 259.814C331.308 259.871 331.039 259.966 330.855 260.099C330.671 260.232 330.579 260.426 330.579 260.679C330.579 260.926 330.662 261.113 330.826 261.24C330.997 261.366 331.248 261.43 331.577 261.43C332.002 261.43 332.347 261.335 332.613 261.145C332.885 260.948 333.022 260.695 333.022 260.384L333.145 261.059C333.044 261.382 332.844 261.633 332.546 261.81C332.255 261.987 331.897 262.076 331.473 262.076ZM336.268 261.981L334.263 257.135H335.081L336.753 261.468H336.449L338.112 257.135H338.891L336.886 261.981H336.268ZM339.572 261.981V257.135H340.332V261.981H339.572ZM339.515 256.032V255.139H340.389V256.032H339.515ZM341.664 261.981V257.135H342.377V258.275H342.425V261.981H341.664ZM345.133 261.981V258.807C345.133 258.44 345.041 258.164 344.857 257.98C344.674 257.797 344.401 257.705 344.04 257.705C343.723 257.705 343.441 257.774 343.194 257.914C342.954 258.053 342.764 258.246 342.624 258.493C342.491 258.741 342.425 259.029 342.425 259.358L342.301 258.208C342.466 257.847 342.716 257.562 343.052 257.353C343.394 257.144 343.78 257.04 344.211 257.04C344.718 257.04 345.123 257.185 345.428 257.477C345.738 257.762 345.893 258.139 345.893 258.607V261.981H345.133ZM349.092 264.024C348.516 264.024 348.034 263.888 347.648 263.615C347.268 263.349 347.036 262.995 346.954 262.551H347.676C347.746 262.805 347.901 263.004 348.142 263.15C348.389 263.302 348.722 263.378 349.14 263.378C349.634 263.378 350.008 263.242 350.261 262.969C350.514 262.703 350.641 262.31 350.641 261.791V260.755L350.736 260.774C350.628 261.142 350.413 261.436 350.09 261.658C349.767 261.873 349.384 261.981 348.94 261.981C348.516 261.981 348.142 261.88 347.819 261.677C347.496 261.468 347.245 261.18 347.068 260.812C346.891 260.445 346.802 260.017 346.802 259.529C346.802 259.035 346.894 258.601 347.078 258.227C347.261 257.854 347.518 257.565 347.847 257.363C348.183 257.154 348.573 257.049 349.016 257.049C349.472 257.049 349.852 257.16 350.156 257.382C350.467 257.603 350.673 257.92 350.774 258.332L350.689 258.341V257.135H351.401V261.791C351.401 262.481 351.195 263.026 350.784 263.425C350.372 263.825 349.808 264.024 349.092 264.024ZM349.13 261.325C349.605 261.325 349.982 261.161 350.261 260.831C350.54 260.502 350.679 260.055 350.679 259.491C350.679 258.94 350.54 258.506 350.261 258.189C349.982 257.866 349.605 257.705 349.13 257.705C348.649 257.705 348.269 257.866 347.99 258.189C347.717 258.512 347.581 258.956 347.581 259.52C347.581 260.071 347.721 260.511 347.999 260.841C348.278 261.164 348.655 261.325 349.13 261.325Z" fill="#606165"/>
<path d="M418.919 260.594V256.308H419.718V260.594H418.919ZM417.304 258.845V258.066H421.333V258.845H417.304ZM423.153 261.981V256.08L423.333 256.156C423.251 256.333 423.108 256.507 422.905 256.678C422.703 256.849 422.468 256.998 422.202 257.125C421.936 257.245 421.654 257.331 421.357 257.382V256.412C421.635 256.368 421.908 256.286 422.174 256.165C422.44 256.039 422.677 255.886 422.886 255.709C423.096 255.525 423.251 255.335 423.352 255.139H424.131V261.981H423.153ZM427.436 262.076C426.967 262.076 426.552 261.99 426.191 261.819C425.836 261.648 425.548 261.401 425.326 261.078C425.111 260.749 424.978 260.35 424.927 259.881H425.963C426.026 260.331 426.181 260.673 426.429 260.907C426.676 261.135 427.005 261.249 427.417 261.249C427.797 261.249 428.101 261.145 428.329 260.936C428.557 260.727 428.671 260.438 428.671 260.071C428.671 259.697 428.56 259.393 428.339 259.159C428.117 258.924 427.8 258.807 427.388 258.807H426.619V257.999H427.36C427.727 257.999 428.012 257.901 428.215 257.705C428.418 257.508 428.519 257.249 428.519 256.925C428.519 256.596 428.421 256.339 428.225 256.156C428.028 255.966 427.746 255.871 427.379 255.871C427.037 255.871 426.742 255.972 426.495 256.175C426.254 256.377 426.109 256.672 426.058 257.059H425.022C425.066 256.647 425.19 256.292 425.393 255.994C425.602 255.69 425.877 255.456 426.219 255.291C426.568 255.126 426.964 255.044 427.407 255.044C427.844 255.044 428.225 255.117 428.548 255.262C428.877 255.408 429.131 255.617 429.308 255.89C429.492 256.162 429.583 256.482 429.583 256.849C429.583 257.166 429.511 257.448 429.365 257.695C429.219 257.942 429.026 258.135 428.785 258.275C428.551 258.408 428.288 258.474 427.997 258.474L427.959 258.275C428.326 258.275 428.643 258.357 428.909 258.522C429.181 258.68 429.39 258.899 429.536 259.178C429.682 259.45 429.755 259.764 429.755 260.118C429.755 260.511 429.653 260.856 429.45 261.154C429.254 261.446 428.982 261.674 428.633 261.838C428.285 261.997 427.886 262.076 427.436 262.076ZM430.65 261.981L435.725 255.139H436.608L431.543 261.981H430.65ZM435.449 262.076C435.183 262.076 434.933 262.013 434.698 261.886C434.464 261.759 434.274 261.566 434.128 261.306C433.982 261.047 433.91 260.717 433.91 260.318C433.91 259.919 433.979 259.593 434.119 259.339C434.264 259.079 434.454 258.886 434.689 258.76C434.923 258.633 435.177 258.569 435.449 258.569C435.734 258.569 435.994 258.633 436.228 258.76C436.469 258.886 436.659 259.079 436.798 259.339C436.938 259.593 437.007 259.919 437.007 260.318C437.007 260.717 436.935 261.047 436.789 261.306C436.643 261.566 436.45 261.759 436.209 261.886C435.975 262.013 435.721 262.076 435.449 262.076ZM435.449 261.458C435.69 261.458 435.886 261.36 436.038 261.164C436.197 260.961 436.276 260.676 436.276 260.308C436.276 259.947 436.197 259.672 436.038 259.482C435.886 259.285 435.69 259.187 435.449 259.187C435.208 259.187 435.015 259.282 434.869 259.472C434.724 259.662 434.651 259.941 434.651 260.308C434.651 260.682 434.724 260.967 434.869 261.164C435.015 261.36 435.208 261.458 435.449 261.458ZM431.743 258.55C431.471 258.55 431.217 258.487 430.983 258.36C430.748 258.234 430.558 258.04 430.413 257.781C430.273 257.521 430.203 257.192 430.203 256.792C430.203 256.393 430.273 256.067 430.413 255.814C430.558 255.554 430.748 255.361 430.983 255.234C431.217 255.107 431.471 255.044 431.743 255.044C432.028 255.044 432.288 255.107 432.522 255.234C432.757 255.361 432.943 255.554 433.083 255.814C433.222 256.067 433.292 256.393 433.292 256.792C433.292 257.192 433.219 257.521 433.073 257.781C432.928 258.04 432.738 258.234 432.503 258.36C432.269 258.487 432.015 258.55 431.743 258.55ZM431.743 257.933C431.977 257.933 432.171 257.835 432.323 257.638C432.481 257.442 432.56 257.157 432.56 256.783C432.56 256.422 432.484 256.146 432.332 255.956C432.18 255.76 431.984 255.662 431.743 255.662C431.502 255.662 431.306 255.757 431.154 255.947C431.008 256.137 430.935 256.415 430.935 256.783C430.935 257.157 431.008 257.442 431.154 257.638C431.306 257.835 431.502 257.933 431.743 257.933Z" fill="white"/>
<g filter="url(#filter3_f_1_280)">
<rect x="-189.41" y="323.81" width="818.403" height="43.7569" rx="21.8785" transform="rotate(-29.7839 -189.41 323.81)" fill="white" fill-opacity="0.3"/>
</g>
<g filter="url(#filter4_f_1_280)">
<rect x="-189.41" y="115.965" width="818.403" height="43.7569" rx="21.8785" transform="rotate(-29.7839 -189.41 115.965)" fill="white" fill-opacity="0.3"/>
</g>
</g>
<rect x="0.601205" y="0.601205" width="455.798" height="291.636" rx="23.447" stroke="url(#paint0_linear_1_280)" stroke-opacity="0.1" stroke-width="1.20241"/>
<defs>
<filter id="filter0_d_1_280" x="-110.02" y="99.6732" width="1049.79" height="269.433" filterUnits="userSpaceOnUse" color-interpolation-filters="sRGB">
<feFlood flood-opacity="0" result="BackgroundImageFix"/>
<feColorMatrix in="SourceAlpha" type="matrix" values="0 0 0 0 0 0 0 0 0 0 0 0 0 0 0 0 0 0 127 0" result="hardAlpha"/>
<feOffset dy="1.20241"/>
<feGaussianBlur stdDeviation="6.01205"/>
<feComposite in2="hardAlpha" operator="out"/>
<feColorMatrix type="matrix" values="0 0 0 0 1 0 0 0 0 0.537255 0 0 0 0 0.458824 0 0 0 1 0"/>
<feBlend mode="normal" in2="BackgroundImageFix" result="effect1_dropShadow_1_280"/>
<feBlend mode="normal" in="SourceGraphic" in2="effect1_dropShadow_1_280" result="shape"/>
</filter>
<filter id="filter1_d_1_280" x="-225.453" y="111.697" width="1049.79" height="269.433" filterUnits="userSpaceOnUse" color-interpolation-filters="sRGB">
<feFlood flood-opacity="0" result="BackgroundImageFix"/>
<feColorMatrix in="SourceAlpha" type="matrix" values="0 0 0 0 0 0 0 0 0 0 0 0 0 0 0 0 0 0 127 0" result="hardAlpha"/>
<feOffset dy="1.20241"/>
<feGaussianBlur stdDeviation="6.01205"/>
<feComposite in2="hardAlpha" operator="out"/>
<feColorMatrix type="matrix" values="0 0 0 0 1 0 0 0 0 0.627451 0 0 0 0 0.305882 0 0 0 1 0"/>
<feBlend mode="normal" in2="BackgroundImageFix" result="effect1_dropShadow_1_280"/>
<feBlend mode="normal" in="SourceGraphic" in2="effect1_dropShadow_1_280" result="shape"/>
</filter>
<filter id="filter2_d_1_280" x="-273.548" y="99.6734" width="1837.37" height="269.34" filterUnits="userSpaceOnUse" color-interpolation-filters="sRGB">
<feFlood flood-opacity="0" result="BackgroundImageFix"/>
<feColorMatrix in="SourceAlpha" type="matrix" values="0 0 0 0 0 0 0 0 0 0 0 0 0 0 0 0 0 0 127 0" result="hardAlpha"/>
<feOffset dy="1.20241"/>
<feGaussianBlur stdDeviation="6.01205"/>
<feComposite in2="hardAlpha" operator="out"/>
<feColorMatrix type="matrix" values="0 0 0 0 1 0 0 0 0 1 0 0 0 0 1 0 0 0 1 0"/>
<feBlend mode="normal" in2="BackgroundImageFix" result="effect1_dropShadow_1_280"/>
<feBlend mode="normal" in="SourceGraphic" in2="effect1_dropShadow_1_280" result="shape"/>
</filter>
<filter id="filter3_f_1_280" x="-312.707" y="-206.012" width="978.624" height="691.095" filterUnits="userSpaceOnUse" color-interpolation-filters="sRGB">
<feFlood flood-opacity="0" result="BackgroundImageFix"/>
<feBlend mode="normal" in="SourceGraphic" in2="BackgroundImageFix" result="shape"/>
<feGaussianBlur stdDeviation="65.6354" result="effect1_foregroundBlur_1_280"/>
</filter>
<filter id="filter4_f_1_280" x="-312.707" y="-413.857" width="978.624" height="691.095" filterUnits="userSpaceOnUse" color-interpolation-filters="sRGB">
<feFlood flood-opacity="0" result="BackgroundImageFix"/>
<feBlend mode="normal" in="SourceGraphic" in2="BackgroundImageFix" result="shape"/>
<feGaussianBlur stdDeviation="65.6354" result="effect1_foregroundBlur_1_280"/>
</filter>
<linearGradient id="paint0_linear_1_280" x1="228.5" y1="0" x2="228.5" y2="292.839" gradientUnits="userSpaceOnUse">
<stop stop-color="white"/>
<stop offset="1" stop-color="white" stop-opacity="0.2"/>
</linearGradient>
<clipPath id="clip0_1_280">
<rect width="457" height="292.839" rx="24.0482" fill="white"/>
</clipPath>
<clipPath id="clip1_1_280">
<rect width="418.523" height="103.407" fill="white" transform="translate(19.2388 111.096)"/>
</clipPath>
</defs>
</svg>
