<svg width="255" height="236" viewBox="0 0 255 236" fill="none" xmlns="http://www.w3.org/2000/svg">
<path opacity="0.9" d="M-4.85633 233.618H98.434C100.426 233.618 102.354 232.916 103.879 231.635L125.464 213.508C126.989 212.227 128.917 211.525 130.909 211.525H202.173M-4.85633 195.195H98.434C100.426 195.195 102.354 194.493 103.879 193.212L125.464 175.085C126.989 173.804 128.917 173.101 130.909 173.101H202.173M-5.99915 2.11679L72.9912 2.11679C75.8091 2.11679 78.4423 3.51861 80.0156 5.85633L89.8515 20.4707C91.4249 22.8084 94.0581 24.2103 96.8759 24.2103H197.065C199.577 24.2103 201.96 25.3261 203.569 27.2562L206.498 30.7702C208.107 32.7002 210.489 33.8161 213.002 33.8161H230.197M-5.99915 40.5402H72.9912C75.8091 40.5402 78.4423 41.942 80.0156 44.2797L89.8515 58.8941C91.4249 61.2318 94.0581 62.6337 96.8759 62.6337L195.386 62.6337C198.804 62.6337 201.887 64.6887 203.201 67.8436L206.865 76.6354C208.18 79.7904 211.263 81.8454 214.681 81.8454H230.197M-5.99992 78.9636H50.1143C52.9322 78.9636 55.5654 80.3654 57.1387 82.7031L66.9746 97.3175C68.5479 99.6552 71.1811 101.057 73.999 101.057H138.195C141.613 101.057 144.695 103.112 146.01 106.267L149.674 115.059C150.989 118.214 154.072 120.269 157.49 120.269H201.935C204.92 120.269 207.684 121.84 209.211 124.404L225.447 151.675C226.973 154.239 229.737 155.81 232.722 155.81H254.788M-5.99997 117.387H50.1143C52.9321 117.387 55.5653 118.789 57.1387 121.127L66.9745 135.741C68.5479 138.079 71.1811 139.48 73.9989 139.48H143.839L73.0808 139.48C70.7866 139.48 68.5907 140.411 66.9955 142.06L57.1177 152.27C55.5225 153.919 53.3265 154.85 51.0324 154.85H-6" stroke="url(#paint0_linear_2103_6750)" stroke-width="4.23358"/>
<defs>
<linearGradient id="paint0_linear_2103_6750" x1="151.066" y1="117.867" x2="-6" y2="117.867" gradientUnits="userSpaceOnUse">
<stop stop-color="#010101" stop-opacity="0"/>
<stop offset="0.361197" stop-color="#010101"/>
</linearGradient>
</defs>
</svg>
