<svg width="182" height="188" viewBox="0 0 182 188" fill="none" xmlns="http://www.w3.org/2000/svg">
<g opacity="0.1">
<path opacity="0.4" d="M2.26162 128.853C1.05831 126.833 1.88934 124.215 4.03752 123.259L61.5334 97.6691C62.6834 97.1572 64.0092 97.2281 65.0981 97.8596L98.1124 117.006C99.1955 117.635 99.9139 118.742 100.046 119.987L106.739 183.023C106.987 185.354 105.148 187.381 102.804 187.362L66.7227 187.064C64.3558 187.045 62.5447 184.95 62.8671 182.605L68.5306 141.404C68.7481 139.822 67.9848 138.265 66.6003 137.468L63.4467 135.653C62.0609 134.855 60.3299 134.978 59.0706 135.963L26.7187 161.274C24.8566 162.731 22.1386 162.223 20.9287 160.192L2.26162 128.853Z" fill="white"/>
<path opacity="0.4" d="M105.499 116.209L156.308 153.584C158.212 154.984 160.913 154.397 162.062 152.331L179.839 120.398C180.987 118.337 180.069 115.736 177.882 114.851L139.508 99.3266C138.025 98.7269 137.055 97.2876 137.055 95.6885V92.054C137.055 90.465 138.013 89.0328 139.482 88.4264L177.907 72.5639C180.083 71.6655 180.984 69.0663 179.83 67.0137L162.069 35.4069C160.914 33.3518 158.221 32.7713 156.322 34.1681L105.499 71.5534C104.493 72.2929 103.899 73.4666 103.899 74.7147V113.048C103.899 114.296 104.493 115.47 105.499 116.209Z" fill="white"/>
<path d="M100.046 67.4114L106.735 4.41165C106.984 2.06745 105.125 0.0343265 102.768 0.0732477L66.6852 0.669071C64.3316 0.707935 62.5415 2.79557 62.862 5.12754L68.5306 46.3652C68.7481 47.9477 67.9848 49.5042 66.6003 50.301L63.4351 52.1229C62.0552 52.9172 60.3321 52.7991 59.0735 51.8239L26.3565 26.4735C24.4899 25.0272 21.778 25.5448 20.5753 27.5769L2.2445 58.5495C1.04916 60.5692 1.88193 63.1795 4.02606 64.1338L61.5334 89.7292C62.6834 90.2411 64.0092 90.1702 65.0981 89.5387L98.1124 70.3919C99.1955 69.7638 99.9139 68.6565 100.046 67.4114Z" fill="white"/>
</g>
</svg>
