<svg width="107" height="24" viewBox="0 0 107 24" fill="none" xmlns="http://www.w3.org/2000/svg">
<path d="M0.288136 16.4996C0.134832 16.2422 0.240707 15.9087 0.514391 15.7869L7.88181 12.5078C8.02833 12.4426 8.19723 12.4516 8.33597 12.5321L12.5664 14.9856C12.7044 15.0656 12.7959 15.2067 12.8128 15.3653L13.6704 23.4426C13.7019 23.7396 13.4677 23.9978 13.1691 23.9954L8.5422 23.9572C8.24066 23.9547 8.00992 23.6878 8.05099 23.3891L8.77695 18.1078C8.80467 17.9062 8.70742 17.7079 8.53104 17.6063L8.12409 17.3721C7.94754 17.2705 7.727 17.2861 7.56657 17.4116L3.41952 20.6561C3.18228 20.8417 2.836 20.777 2.68186 20.5182L0.288136 16.4996Z" fill="white"/>
<path d="M13.5094 14.8823L20.02 19.6714C20.2626 19.8499 20.6067 19.775 20.7532 19.5119L23.0327 15.417C23.1789 15.1544 23.062 14.823 22.7834 14.7103L17.8644 12.7203C17.6755 12.6439 17.5519 12.4605 17.5519 12.2568V11.7878C17.5519 11.5853 17.674 11.4029 17.8611 11.3256L22.7865 9.29231C23.0638 9.17784 23.1785 8.8467 23.0316 8.58519L20.754 4.53214C20.6069 4.27032 20.2638 4.19636 20.0219 4.37432L13.5094 9.16479C13.3813 9.25902 13.3057 9.40855 13.3057 9.56756V14.4795C13.3057 14.6386 13.3813 14.7881 13.5094 14.8823Z" fill="white"/>
<path d="M12.8128 8.6347L13.6699 0.562056C13.7016 0.263399 13.4647 0.00437329 13.1645 0.00933197L8.53743 0.0857367C8.23758 0.0906881 8.0095 0.356657 8.05034 0.653758L8.77695 5.93975C8.80467 6.14136 8.70742 6.33966 8.53104 6.44118L8.12261 6.67627C7.94681 6.77746 7.72729 6.76241 7.56694 6.63816L3.37313 3.38864C3.13532 3.20438 2.78982 3.27032 2.6366 3.52922L0.285956 7.50097C0.133666 7.75828 0.239764 8.09085 0.512932 8.21243L7.88181 11.4922C8.02833 11.5574 8.19723 11.5484 8.33597 11.4679L12.5664 9.01444C12.7044 8.93441 12.7959 8.79333 12.8128 8.6347Z" fill="white"/>
<path d="M31 18.52V7H36.472C37.3253 7 38.056 7.14933 38.664 7.448C39.2827 7.74667 39.7573 8.16267 40.088 8.696C40.4293 9.22933 40.6 9.85333 40.6 10.568C40.6 11.2827 40.4293 11.912 40.088 12.456C39.7467 13 39.2667 13.4267 38.648 13.736C38.04 14.0347 37.3147 14.184 36.472 14.184H32.952V12.296H36.344C36.9093 12.296 37.3467 12.1413 37.656 11.832C37.976 11.512 38.136 11.096 38.136 10.584C38.136 10.072 37.976 9.66133 37.656 9.352C37.3467 9.04267 36.9093 8.888 36.344 8.888H33.464V18.52H31Z" fill="white"/>
<path d="M39.6859 18.52L43.8139 7H45.9259L42.1339 18.52H39.6859ZM48.1339 18.52L44.3579 7H46.5659L50.6939 18.52H48.1339ZM41.8619 14.056H48.3259V15.976H41.8619V14.056Z" fill="white"/>
<path d="M53.1803 18.52V13.864L48.8923 7H51.8523L55.2443 13.096H53.8523L57.2283 7H59.9323L55.6443 13.864V18.52H53.1803Z" fill="white"/>
<path d="M60.5869 18.52V7H64.4269L67.6269 18.104H66.2349L69.4349 7H73.2909V18.52H70.8589V7.688H71.2749L68.1549 18.52H65.6109L62.5229 7.784H62.9229V18.52H60.5869Z" fill="white"/>
<path d="M74.1478 18.52L78.2758 7H80.3878L76.5958 18.52H74.1478ZM82.5958 18.52L78.8198 7H81.0278L85.1558 18.52H82.5958ZM76.3237 14.056H82.7878V15.976H76.3237V14.056Z" fill="white"/>
<path d="M85.7579 18.52V7H90.9099C91.7419 7 92.4672 7.144 93.0859 7.432C93.7045 7.70933 94.1845 8.104 94.5259 8.616C94.8672 9.128 95.0379 9.72533 95.0379 10.408C95.0379 11.08 94.8672 11.672 94.5259 12.184C94.1845 12.6853 93.7045 13.08 93.0859 13.368C92.4672 13.6453 91.7419 13.784 90.9099 13.784H87.7099V11.976H90.8459C91.4325 11.976 91.8805 11.8427 92.1899 11.576C92.5099 11.2987 92.6699 10.9147 92.6699 10.424C92.6699 9.92267 92.5152 9.544 92.2059 9.288C91.8965 9.02133 91.4432 8.888 90.8459 8.888H88.2219V18.52H85.7579ZM92.2539 18.52L87.6299 12.536H90.2379L95.5819 18.52H92.2539Z" fill="white"/>
<path d="M96.1894 18.52V7H98.6534V18.52H96.1894ZM97.8694 12.536L103.053 7H106.333L100.861 12.536H97.8694ZM103.309 18.52L97.8374 12.536H100.861L106.653 18.52H103.309Z" fill="white"/>
</svg>
