<svg width="1440" height="381" viewBox="0 0 1440 381" fill="none" xmlns="http://www.w3.org/2000/svg">
<path d="M1436.44 3.02513L1424.93 0.25M1436.44 3.02513L1402.32 3.02513M1436.44 3.02513L1448.33 5.8919M1436.44 3.02513L1460.6 3.02513M1391.36 0.25L1424.93 0.25L1429.12 0.251082L1433.26 0.257091L1437.32 0.273986L1441.25 0.307259L1445.02 0.361256L1448.57 0.442534L1451.86 0.555438L1454.93 0.699418L1457.55 0.898511L1459.94 1.12923L1460.6 1.21004L1460.6 3.02513M1391.36 0.25L1357.79 0.25M1391.36 0.25L1402.32 3.02513M1357.79 0.25L1324.22 0.25M1357.79 0.25L1368.21 3.02513M1324.22 0.25L1290.66 0.25M1324.22 0.25L1334.09 3.02513M1290.66 0.25L1257.09 0.25M1290.66 0.25L1299.98 3.02513M1257.09 0.25L1223.52 0.25M1257.09 0.25L1265.86 3.02513M1223.52 0.25L1189.95 0.25M1223.52 0.25L1231.74 3.02513M1189.95 0.25L1156.38 0.25M1189.95 0.25L1197.63 3.02513M1156.38 0.25L1122.82 0.25M1156.38 0.25L1163.51 3.02513M1122.82 0.25L1089.25 0.25M1122.82 0.25L1129.39 3.02513M1089.25 0.25L1055.68 0.25M1089.25 0.25L1095.28 3.02513M1055.68 0.25L1022.11 0.25M1055.68 0.25L1061.16 3.02513M1022.11 0.25L988.544 0.25M1022.11 0.25L1023.33 0.935596L1025.18 1.97355L1027.05 3.02513M988.544 0.25L954.976 0.25M988.544 0.25L989.627 0.935596L992.929 3.02513M954.976 0.25L921.408 0.25M954.976 0.25L958.813 3.02513M921.408 0.25L887.84 0.25M921.408 0.25L922.629 1.2803L923.865 2.32262L924.28 2.67333L924.698 3.02513M887.84 0.25L854.272 0.25M887.84 0.25L888.857 1.2803L889.2 1.6261L889.543 1.97355L890.581 3.02513M854.272 0.25L820.704 0.25M854.272 0.25L856.465 3.02513M820.704 0.25L820.907 0.591974L821.11 0.935596L822.14 2.67333L822.349 3.02513M820.704 0.25L787.136 0.25M787.136 0.25L753.568 0.25M787.136 0.25L788.233 3.02513M753.568 0.25L720 0.25M753.568 0.25L753.771 1.2803L754.116 3.02513M720 0.25L686.432 0.25M720 0.25L720 3.02513M686.432 0.25L652.864 0.25M686.432 0.25L686.229 1.2803L685.884 3.02513M652.864 0.25L619.296 0.25M652.864 0.25L651.768 3.02513M619.296 0.25L619.093 0.591974L618.89 0.935596L617.86 2.67333L617.651 3.02513M619.296 0.25L585.728 0.25M585.728 0.25L552.16 0.25M585.728 0.25L583.814 2.67333L583.535 3.02513M552.16 0.25L518.592 0.25M552.16 0.25L551.143 1.2803L550.8 1.6261L550.112 2.32262L549.767 2.67333L549.419 3.02513M518.592 0.25L485.024 0.25M518.592 0.25L517.372 1.2803L516.135 2.32262L515.72 2.67333L515.303 3.02513M485.024 0.25L451.456 0.25M485.024 0.25L481.187 3.02513M451.456 0.25L417.888 0.25M451.456 0.25L450.373 0.935596L447.071 3.02513M417.888 0.25L384.32 0.25M417.888 0.25L412.954 3.02513M384.32 0.25L350.752 0.25M384.32 0.25L378.838 3.02513M350.752 0.25L317.184 0.25M350.752 0.25L344.722 3.02513M317.184 0.25L283.616 0.25M317.184 0.25L310.606 3.02513M283.616 0.25L250.048 0.25M283.616 0.25L276.489 3.02513M250.048 0.25L216.481 0.25M250.048 0.25L242.373 3.02513M216.481 0.25L182.912 0.25M216.481 0.25L208.257 3.02513M182.912 0.25L149.344 0.25M182.912 0.25L174.141 3.02513M149.344 0.25L115.777 0.25M149.344 0.25L140.024 3.02513M115.777 0.25L82.2082 0.25M115.777 0.25L105.908 3.02513M82.2082 0.25L48.6404 0.25M82.2082 0.25L71.7927 3.02513M-20.6012 3.02513L-20.6012 1.21006L-19.9439 1.12923L-17.5523 0.898511L-14.9255 0.699418L-11.8644 0.555438L-8.56638 0.442534L-5.01536 0.361256L-1.25372 0.307259L2.67841 0.273986L6.73783 0.257091L10.8837 0.251082L15.0727 0.25L48.6404 0.25M48.6404 0.25L37.6764 3.02513M15.0727 0.25L3.56019 3.02513M71.7927 3.02513L105.908 3.02513M71.7927 3.02513L37.6764 3.02513M71.7927 3.02513L61.0301 5.8919M105.908 3.02513L95.7126 5.8919M105.908 3.02513L140.024 3.02513M208.257 3.02513L242.373 3.02513M208.257 3.02513L174.141 3.02513M208.257 3.02513L206.159 3.73309L199.761 5.8919M242.373 3.02513L234.443 5.8919M242.373 3.02513L276.489 3.02513M344.722 3.02513L378.838 3.02513M344.722 3.02513L310.606 3.02513M344.722 3.02513L343.184 3.73309L342.409 4.08872L338.491 5.8919M378.838 3.02513L378.14 3.37802L377.44 3.73309L373.174 5.8919M378.838 3.02513L412.954 3.02513M481.187 3.02513L480.698 3.37802L477.222 5.8919M481.187 3.02513L515.303 3.02513M481.187 3.02513L447.071 3.02513M515.303 3.02513L514.464 3.73309L514.041 4.08872L513.618 4.44652L511.904 5.8919M515.303 3.02513L549.419 3.02513M617.651 3.02513L651.768 3.02513M617.651 3.02513L583.535 3.02513M617.651 3.02513L615.953 5.8919M651.768 3.02513L651.628 3.37802L651.488 3.73309L651.347 4.08872L650.921 5.16594L650.635 5.8919M651.768 3.02513L685.884 3.02513M754.116 3.02513L788.233 3.02513M754.116 3.02513L720 3.02513M754.116 3.02513L754.683 5.8919M788.233 3.02513L788.372 3.37802L788.512 3.73309L788.653 4.08872L789.365 5.8919M788.233 3.02513L822.349 3.02513M890.581 3.02513L924.698 3.02513M890.581 3.02513L856.465 3.02513M890.581 3.02513L891.28 3.73309L892.697 5.16594L893.054 5.5281L893.413 5.8919M924.698 3.02513L925.536 3.73309L925.959 4.08872L926.382 4.44652L928.096 5.8919M924.698 3.02513L958.813 3.02513M1027.05 3.02513L1061.16 3.02513M1027.05 3.02513L992.929 3.02513M1027.05 3.02513L1028.3 3.73309L1028.94 4.08872L1032.14 5.8919M1061.16 3.02513L1061.86 3.37802L1062.56 3.73309L1066.83 5.8919M1061.16 3.02513L1095.28 3.02513M1163.51 3.02513L1197.63 3.02513M1163.51 3.02513L1129.39 3.02513M1163.51 3.02513L1165.33 3.73309L1166.24 4.08872L1170.87 5.8919M1197.63 3.02513L1205.56 5.8919M1197.63 3.02513L1231.74 3.02513M1299.98 3.02513L1334.09 3.02513M1299.98 3.02513L1265.86 3.02513M1299.98 3.02513L1309.6 5.8919M1334.09 3.02513L1344.29 5.8919M1334.09 3.02513L1368.21 3.02513M-20.7207 28.9766H-20.6012M13.6177 28.9766L26.643 25.314M13.6177 28.9766L0.0932496 32.7793M13.6177 28.9766L52.8611 28.9766M13.6177 28.9766L-20.6012 28.9766M26.643 25.314L-11.8767 25.314M26.643 25.314L39.197 21.784M26.643 25.314L65.1628 25.314M-11.8767 25.314L1.37464 21.784M-11.8767 25.314H-20.6012M-11.8767 25.314L-20.6012 27.6376M26.4872 15.0938L62.988 15.0938M26.4872 15.0938L38.397 11.921M26.4872 15.0938L-10.0129 15.0938M26.4872 15.0938L14.1539 18.3795M62.988 15.0938L74.2714 11.921M62.988 15.0938L51.3043 18.3795M62.988 15.0938L99.4889 15.0938M38.397 11.921L74.2714 11.921M38.397 11.921L49.9049 8.85575M38.397 11.921L2.52335 11.921M74.2714 11.921L110.145 11.921M74.2714 11.921L85.1729 8.85575M-20.9769 86.7864H-20.6012M10.6885 86.7864L27.4847 80.7142M10.6885 86.7864L-6.94246 93.1608M10.6885 86.7864L61.3541 86.7864M10.6885 86.7864H-20.6012M27.4847 80.7142L43.5041 74.9228M27.4847 80.7142L76.9499 80.7142M27.4847 80.7142H-20.6012M-4.8171 74.9228L43.5041 74.9228M-4.8171 74.9228L11.5703 69.3933M-4.8171 74.9228H-20.6012M-4.8171 74.9228L-20.6012 80.2487M27.2324 64.1081L73.4166 64.1081M27.2324 64.1081L42.2173 59.052M27.2324 64.1081H-18.9518M27.2324 64.1081L11.5703 69.3933M73.4166 64.1081L87.4032 59.052M73.4166 64.1081L58.7982 69.3933M73.4166 64.1081H119.602M42.2173 59.052L87.4032 59.052M42.2173 59.052L-2.9679 59.052M42.2173 59.052L56.5679 54.2097M87.4032 59.052L100.797 54.2097M87.4032 59.052L132.588 59.052M83.5197 45.1152L125.951 45.1152M83.5197 45.1152L96.1909 40.8396M83.5197 45.1152L41.0878 45.1152M83.5197 45.1152L70.3231 49.5681M125.951 45.1152L137.778 40.8396M125.951 45.1152L113.635 49.5681M125.951 45.1152H168.384M96.1909 40.8396L137.778 40.8396M96.1909 40.8396L54.6038 40.8396M96.1909 40.8396L108.368 36.7309M137.778 40.8396L149.143 36.7309M137.778 40.8396H179.366M131.348 28.9766L170.591 28.9766M131.348 28.9766L142.202 25.314M131.348 28.9766L92.1045 28.9766M131.348 28.9766L120.078 32.7793M170.591 28.9766L180.722 25.314M170.591 28.9766L160.072 32.7793M170.591 28.9766L209.835 28.9766M142.202 25.314L180.722 25.314M142.202 25.314L103.683 25.314M142.202 25.314L152.664 21.784M180.722 25.314L190.486 21.784M180.722 25.314L219.242 25.314M172.49 15.0938L208.991 15.0938M172.49 15.0938L181.892 11.921M172.49 15.0938L135.99 15.0938M172.49 15.0938L162.753 18.3795M208.991 15.0938L217.766 11.921M208.991 15.0938L199.903 18.3795M208.991 15.0938L245.491 15.0938M181.892 11.921L217.766 11.921M181.892 11.921L190.978 8.85575M181.892 11.921L146.019 11.921M217.766 11.921L253.64 11.921M217.766 11.921L226.246 8.85575M5.35614 192.062L28.9952 180.097M5.35614 192.062L-19.9585 204.874M5.35614 192.062H76.8203M5.35614 192.062H-20.6012M28.9952 180.097L51.1214 168.898M28.9952 180.097L98.0956 180.097M28.9952 180.097H-20.6012M28.5154 148.522H91.3777M28.5154 148.522L48.716 139.227M28.5154 148.522L7.06107 158.394M28.5154 148.522H-20.6012M91.3777 148.522L109.742 139.227M91.3777 148.522L71.8737 158.394M91.3777 148.522L154.24 148.522M48.716 139.227L109.742 139.227M48.716 139.227H-12.3095M48.716 139.227L67.7703 130.459M109.742 139.227L127.064 130.459M109.742 139.227H170.768M102.807 114.338L158.916 114.338M102.807 114.338L118.951 106.909M102.807 114.338H46.6987M102.807 114.338L85.7723 122.176M158.916 114.338L173.592 106.909M158.916 114.338L143.429 122.176M158.916 114.338H215.024M118.951 106.909L173.592 106.909M118.951 106.909H64.3103M118.951 106.909L134.272 99.8598M173.592 106.909L187.52 99.8598M173.592 106.909H228.232M162.684 86.7864H213.349M162.684 86.7864L175.881 80.7142M162.684 86.7864L112.019 86.7864M162.684 86.7864L148.831 93.1608M213.349 86.7864L225.346 80.7142M213.349 86.7864L200.755 93.1608M213.349 86.7864H264.014M175.881 80.7142H225.346M175.881 80.7142L126.416 80.7142M175.881 80.7142L188.467 74.9228M225.346 80.7142L236.789 74.9228M225.346 80.7142L274.812 80.7142M211.971 64.1081H258.155M211.971 64.1081L222.959 59.052M211.971 64.1081H165.786M211.971 64.1081L200.484 69.3933M258.155 64.1081L268.145 59.052M258.155 64.1081L247.713 69.3933M258.155 64.1081L304.339 64.1081M222.959 59.052L268.145 59.052M222.959 59.052L177.774 59.052M222.959 59.052L233.483 54.2097M268.145 59.052L277.712 54.2097M268.145 59.052L313.331 59.052M253.248 45.1152H295.68M253.248 45.1152L262.54 40.8396M253.248 45.1152L210.816 45.1152M253.248 45.1152L243.571 49.5681M295.68 45.1152L296.755 44.5714L304.127 40.8396M295.68 45.1152L286.883 49.5681M295.68 45.1152L338.112 45.1152M262.54 40.8396L304.127 40.8396M262.54 40.8396L220.953 40.8396M262.54 40.8396L271.47 36.7309M304.127 40.8396L312.245 36.7309M304.127 40.8396H345.715M288.321 28.9766L327.565 28.9766M288.321 28.9766L296.282 25.314M288.321 28.9766L249.078 28.9766M288.321 28.9766L280.057 32.7793M327.565 28.9766L334.802 25.314M327.565 28.9766L324.781 30.386L320.051 32.7793M327.565 28.9766L366.809 28.9766M296.282 25.314L334.802 25.314M296.282 25.314L257.762 25.314M296.282 25.314L303.953 21.784M334.802 25.314L341.776 21.784M334.802 25.314L373.321 25.314M318.492 15.0938L354.993 15.0938M318.492 15.0938L325.388 11.921M318.492 15.0938L281.992 15.0938M318.492 15.0938L311.352 18.3795M354.993 15.0938L359.715 12.7043L360.49 12.3116L361.262 11.921M354.993 15.0938L348.502 18.3795M354.993 15.0938L391.494 15.0938M325.388 11.921L361.262 11.921M325.388 11.921L332.05 8.85575M325.388 11.921L289.514 11.921M361.262 11.921L397.136 11.921M361.262 11.921L367.318 8.85575M31.2486 328.36H129.642M31.2486 328.36L62.2305 305.958M31.2486 328.36L-2.79587 352.976M31.2486 328.36L-20.6012 328.36M129.642 328.36L156.198 305.958M129.642 328.36L100.461 352.976M129.642 328.36L228.035 328.36M62.2305 305.958H156.198M62.2305 305.958L90.5454 285.485M62.2305 305.958H-20.6012M156.198 305.958L180.467 285.485M156.198 305.958L250.165 305.958M140.441 249.407H223.236M140.441 249.407L162.536 233.431M140.441 249.407L57.6472 249.407M140.441 249.407L116.523 266.701M223.236 249.407L242.173 233.431M223.236 249.407L202.734 266.701M223.236 249.407H306.029M162.536 233.431H242.173M162.536 233.431L82.8979 233.431M162.536 233.431L183.008 218.628M242.173 233.431L259.721 218.628M242.173 233.431H321.811M219.749 192.062H291.214M219.749 192.062L236.297 180.097M219.749 192.062H148.284M219.749 192.062L202.029 204.874M291.214 192.062L305.398 180.097M291.214 192.062L276.025 204.874M291.214 192.062L362.678 192.062M236.297 180.097H305.398M236.297 180.097H167.196M236.297 180.097L251.785 168.898M305.398 180.097L318.673 168.898M305.398 180.097L374.498 180.097M279.964 148.522L342.827 148.522M279.964 148.522L292.82 139.227M279.964 148.522H217.103M279.964 148.522L266.312 158.394M342.827 148.522L353.845 139.227M342.827 148.522L331.124 158.394M342.827 148.522H405.689M292.82 139.227L353.845 139.227M292.82 139.227H231.793M292.82 139.227L304.945 130.459M353.845 139.227L364.238 130.459M353.845 139.227H414.871M327.241 114.338H383.35M327.241 114.338L337.514 106.909M327.241 114.338H271.132M327.241 114.338L316.4 122.176M383.35 114.338L392.155 106.909M383.35 114.338L374.058 122.176M383.35 114.338L439.458 114.338M337.514 106.909L392.155 106.909M337.514 106.909H282.873M337.514 106.909L347.264 99.8598M392.155 106.909L400.512 99.8598M392.155 106.909H446.796M365.345 86.7864L416.009 86.7864M365.345 86.7864L373.743 80.7142M365.345 86.7864H314.679M365.345 86.7864L356.529 93.1608M416.009 86.7864L423.208 80.7142M416.009 86.7864L408.453 93.1608M416.009 86.7864H466.674M373.743 80.7142L423.208 80.7142M373.743 80.7142H324.277M373.743 80.7142L381.752 74.9228M423.208 80.7142L430.073 74.9228M423.208 80.7142H472.673M396.708 64.1081H442.893M396.708 64.1081L403.702 59.052M396.708 64.1081L350.524 64.1081M396.708 64.1081L389.4 69.3933M442.893 64.1081L448.887 59.052M442.893 64.1081L436.628 69.3933M442.893 64.1081H489.078M403.702 59.052L448.887 59.052M403.702 59.052H358.516M403.702 59.052L410.399 54.2097M448.887 59.052L454.627 54.2097M448.887 59.052L494.073 59.052M422.976 45.1152H465.408M422.976 45.1152L428.889 40.8396M422.976 45.1152L380.544 45.1152M422.976 45.1152L416.817 49.5681M465.408 45.1152L464.76 45.6617L460.129 49.5681M465.408 45.1152L470.476 40.8396M465.408 45.1152L507.84 45.1152M428.889 40.8396H470.476M428.889 40.8396L387.302 40.8396M428.889 40.8396L434.572 36.7309M470.476 40.8396L475.347 36.7309M470.476 40.8396L512.064 40.8396M445.296 28.9766L484.539 28.9766M445.296 28.9766L450.361 25.314M445.296 28.9766L406.052 28.9766M445.296 28.9766L440.037 32.7793M484.539 28.9766L488.881 25.314M484.539 28.9766L482.869 30.386L481.742 31.3366L480.031 32.7793M484.539 28.9766L523.782 28.9766M450.361 25.314L488.881 25.314M450.361 25.314L411.841 25.314M450.361 25.314L455.243 21.784M488.881 25.314L490.468 23.975L491.515 23.0925L493.066 21.784M488.881 25.314L527.401 25.314M464.496 15.0938L500.996 15.0938M464.496 15.0938L467.801 12.7043L468.883 11.921M464.496 15.0938L427.995 15.0938M464.496 15.0938L460.528 17.9622L459.952 18.3795M500.996 15.0938L503.829 12.7043L504.294 12.3116L504.757 11.921M500.996 15.0938L499.066 16.7219L497.101 18.3795M500.996 15.0938L537.497 15.0938M468.883 11.921L504.757 11.921M468.883 11.921L473.123 8.85575M468.883 11.921L433.009 11.921M504.757 11.921L540.631 11.921M504.757 11.921L508.391 8.85575M424.821 328.36H523.214M424.821 328.36L438.099 305.958M424.821 328.36H326.428M424.821 328.36L410.231 352.976M523.214 328.36L532.066 305.958M523.214 328.36L513.487 352.976M523.214 328.36H621.607M438.099 305.958H532.066M438.099 305.958H344.132M438.099 305.958L450.234 285.485M532.066 305.958L540.156 285.485M532.066 305.958H626.033M471.618 249.407H554.412M471.618 249.407L481.087 233.431M471.618 249.407H388.823M471.618 249.407L461.367 266.701M554.412 249.407L560.724 233.431M554.412 249.407L547.578 266.701M554.412 249.407L637.206 249.407M481.087 233.431L560.724 233.431M481.087 233.431H401.449M481.087 233.431L489.861 218.628M560.724 233.431L566.574 218.628M560.724 233.431H640.362M505.607 192.062L577.071 192.062M505.607 192.062L512.699 180.097M505.607 192.062H434.143M505.607 192.062L498.013 204.874M577.071 192.062L581.799 180.097M577.071 192.062L572.009 204.874M577.071 192.062H648.536M512.699 180.097L581.799 180.097M512.699 180.097H443.598M512.699 180.097L519.336 168.898M581.799 180.097L586.224 168.898M581.799 180.097H650.9M531.414 148.522L594.275 148.522M531.414 148.522L536.923 139.227M531.414 148.522H468.551M531.414 148.522L525.562 158.394M594.275 148.522L597.948 139.227M594.275 148.522L590.375 158.394M594.275 148.522H657.138M536.923 139.227L597.948 139.227M536.923 139.227H475.897M536.923 139.227L542.119 130.459M597.948 139.227L601.413 130.459M597.948 139.227H658.975M551.675 114.338H607.784M551.675 114.338L556.077 106.909M551.675 114.338L495.566 114.338M551.675 114.338L547.029 122.176M607.784 114.338L610.718 106.909M607.784 114.338L604.686 122.176M607.784 114.338L663.892 114.338M556.077 106.909H610.718M556.077 106.909H501.437M556.077 106.909L560.256 99.8598M610.718 106.909L613.504 99.8598M610.718 106.909L665.359 106.909M568.005 86.7864L618.67 86.7864M568.005 86.7864L571.604 80.7142M568.005 86.7864H517.34M568.005 86.7864L564.227 93.1608M618.67 86.7864L621.07 80.7142M618.67 86.7864L616.151 93.1608M618.67 86.7864H669.335M571.604 80.7142L621.07 80.7142M571.604 80.7142H522.138M571.604 80.7142L572.91 78.5107L575.037 74.9228M621.07 80.7142L623.358 74.9228M621.07 80.7142H670.535M581.447 64.1081L627.631 64.1081M581.447 64.1081L584.444 59.052M581.447 64.1081H535.262M581.447 64.1081L579.111 68.0499L578.314 69.3933M627.631 64.1081L628.391 62.186L629.629 59.052M627.631 64.1081L625.543 69.3933M627.631 64.1081H673.816M584.444 59.052L584.809 58.4351L587.314 54.2097M584.444 59.052L629.629 59.052M584.444 59.052H539.258M629.629 59.052L630.356 57.2117L630.596 56.6047L630.835 56.0014L631.542 54.2097M629.629 59.052L674.815 59.052M592.704 45.1152H635.136M592.704 45.1152L593.984 42.9559L594.3 42.423L594.614 41.8923L594.927 41.3649L595.238 40.8396M592.704 45.1152L550.272 45.1152M592.704 45.1152L590.065 49.5681M635.136 45.1152L636.409 41.8923L636.618 41.3649L636.825 40.8396M635.136 45.1152L633.377 49.5681M635.136 45.1152L677.568 45.1152M595.238 40.8396H636.825M595.238 40.8396L553.651 40.8396M595.238 40.8396L596.772 38.2527L597.073 37.7427L597.674 36.7309M636.825 40.8396L637.847 38.2527L638.049 37.7427L638.249 37.2354L638.449 36.7309M636.825 40.8396L678.413 40.8396M602.27 28.9766L641.513 28.9766M602.27 28.9766L604.441 25.314M602.27 28.9766L563.026 28.9766M602.27 28.9766L601.714 29.9136L600.87 31.3366L600.016 32.7793M641.513 28.9766L641.328 29.444L640.201 32.296L640.011 32.7793M641.513 28.9766L642.961 25.314M641.513 28.9766L680.757 28.9766M604.441 25.314L642.961 25.314M604.441 25.314L565.921 25.314M604.441 25.314L606.533 21.784M642.961 25.314L643.49 23.975L643.664 23.5327L643.838 23.0925L644.355 21.784M642.961 25.314L681.48 25.314M610.498 15.0938L646.998 15.0938M610.498 15.0938L611.915 12.7043L612.378 11.921M610.498 15.0938L573.997 15.0938M610.498 15.0938L609.775 16.3123L609.533 16.7219L609.289 17.1337L608.55 18.3795M646.998 15.0938L647.158 14.6913L647.474 13.8911L647.788 13.0981L648.252 11.921M646.998 15.0938L646.355 16.7219L646.193 17.1337L645.865 17.9622L645.701 18.3795M646.998 15.0938L683.499 15.0938M612.378 11.921L648.252 11.921M612.378 11.921L613.971 9.23319L614.196 8.85575M612.378 11.921L576.505 11.921M648.252 11.921L648.406 11.5322L648.559 11.1449L648.712 10.7593L648.863 10.3753L649.314 9.23319L649.464 8.85575M648.252 11.921L684.126 11.921M818.393 328.36H916.786M818.393 328.36L813.967 305.958M818.393 328.36H720M818.393 328.36L823.257 352.976M916.786 328.36L907.935 305.958M916.786 328.36L926.513 352.976M916.786 328.36H1015.18M813.967 305.958H907.935M813.967 305.958H720M813.967 305.958L809.922 285.485M907.935 305.958L899.844 285.485M907.935 305.958H1001.9M802.794 249.407H885.588M802.794 249.407L799.638 233.431M802.794 249.407L720 249.407M802.794 249.407L806.211 266.701M885.588 249.407L879.276 233.431M885.588 249.407L892.422 266.701M885.588 249.407H968.382M799.638 233.431H879.276M799.638 233.431L720 233.431M799.638 233.431L796.713 218.628M879.276 233.431L873.426 218.628M879.276 233.431H958.913M791.464 192.062H862.929M791.464 192.062L789.1 180.097M791.464 192.062L720 192.062M791.464 192.062L793.996 204.874M862.929 192.062L858.201 180.097M862.929 192.062L867.991 204.874M862.929 192.062H934.393M789.1 180.097L858.201 180.097M789.1 180.097H720M789.1 180.097L786.888 168.898M858.201 180.097L853.776 168.898M858.201 180.097H927.301M782.862 148.522L845.725 148.522M782.862 148.522L781.026 139.227M782.862 148.522H720M782.862 148.522L784.813 158.394M845.725 148.522L842.052 139.227M845.725 148.522L849.625 158.394M845.725 148.522H908.586M781.026 139.227L842.052 139.227M781.026 139.227H720M781.026 139.227L779.294 130.459M842.052 139.227L838.587 130.459M842.052 139.227H903.077M776.108 114.338H832.216M776.108 114.338L774.641 106.909M776.108 114.338L720 114.338M776.108 114.338L777.657 122.176M832.216 114.338L829.282 106.909M832.216 114.338L835.314 122.176M832.216 114.338L888.326 114.338M774.641 106.909H829.282M774.641 106.909L720 106.909M774.641 106.909L773.248 99.8598M829.282 106.909L826.496 99.8598M829.282 106.909L883.923 106.909M770.665 86.7864H821.33M770.665 86.7864L769.465 80.7142M770.665 86.7864L720 86.7864M770.665 86.7864L771.925 93.1608M821.33 86.7864L818.93 80.7142M821.33 86.7864L823.849 93.1608M821.33 86.7864L871.995 86.7864M769.465 80.7142H818.93M769.465 80.7142L720 80.7142M769.465 80.7142L768.321 74.9228M818.93 80.7142L816.642 74.9228M818.93 80.7142L868.396 80.7142M766.184 64.1081H812.369M766.184 64.1081L765.185 59.052M766.184 64.1081L720 64.1081M766.184 64.1081L767.229 69.3933M812.369 64.1081L810.616 59.6721L810.371 59.052M812.369 64.1081L814.457 69.3933M812.369 64.1081L858.553 64.1081M765.185 59.052L765.064 58.4351L764.229 54.2097M765.185 59.052H810.371M765.185 59.052L720 59.052M810.371 59.052L809.644 57.2117L809.404 56.6047L809.165 56.0014L808.458 54.2097M810.371 59.052L855.556 59.052M762.432 45.1152H804.864M762.432 45.1152L761.587 40.8396M762.432 45.1152L720 45.1152M762.432 45.1152L762.757 46.7635L762.868 47.3188L762.977 47.8767L763.2 49.0014L763.312 49.5681M804.864 45.1152L803.591 41.8923L803.174 40.8396M804.864 45.1152L806.623 49.5681M804.864 45.1152L847.296 45.1152M761.587 40.8396L803.174 40.8396M761.587 40.8396H720M761.587 40.8396L760.776 36.7309M803.174 40.8396L802.153 38.2527L801.951 37.7427L801.751 37.2354L801.551 36.7309M803.174 40.8396L844.762 40.8396M759.243 28.9766L798.487 28.9766M759.243 28.9766L758.52 25.314M759.243 28.9766L720 28.9766M759.243 28.9766L759.995 32.7793M798.487 28.9766L798.672 29.444L799.799 32.296L799.99 32.7793M798.487 28.9766L797.04 25.314M798.487 28.9766L837.73 28.9766M758.52 25.314L797.04 25.314M758.52 25.314L720 25.314M758.52 25.314L757.822 21.784M797.04 25.314L796.51 23.975L796.336 23.5327L796.162 23.0925L795.645 21.784M797.04 25.314L835.559 25.314M756.501 15.0938L793.002 15.0938M756.501 15.0938L755.874 11.921M756.501 15.0938L720 15.0938M756.501 15.0938L757.15 18.3795M793.002 15.0938L792.842 14.6913L792.526 13.8911L792.369 13.4935L792.057 12.7043L791.902 12.3116L791.747 11.921M793.002 15.0938L793.645 16.7219L793.807 17.1337L794.135 17.9622L794.299 18.3795M793.002 15.0938L829.502 15.0938M755.874 11.921L755.797 11.5322L755.72 11.1449L755.645 10.7593L755.268 8.85575M755.874 11.921L791.747 11.921M755.874 11.921L720 11.921M791.747 11.921L827.622 11.921M791.747 11.921L791.441 11.1449L791.288 10.7593L791.137 10.3753L790.686 9.23319L790.536 8.85575M1211.97 328.36H1310.36M1211.97 328.36L1189.84 305.958M1211.97 328.36L1113.57 328.36M1211.97 328.36L1236.28 352.976M1310.36 328.36L1283.8 305.958M1310.36 328.36L1339.54 352.976M1310.36 328.36H1408.75M1189.84 305.958H1283.8M1189.84 305.958L1095.87 305.958M1189.84 305.958L1169.61 285.485M1283.8 305.958L1259.53 285.485M1283.8 305.958H1377.77M1133.97 249.407H1216.77M1133.97 249.407L1118.19 233.431M1133.97 249.407H1051.18M1133.97 249.407L1151.06 266.701M1216.77 249.407L1197.83 233.431M1216.77 249.407L1237.27 266.701M1216.77 249.407L1299.56 249.407M1118.19 233.431H1197.83M1118.19 233.431H1038.55M1118.19 233.431L1103.57 218.628M1197.83 233.431L1180.28 218.628M1197.83 233.431L1277.46 233.431M1077.32 192.062H1148.79M1077.32 192.062L1065.5 180.097M1077.32 192.062L1005.86 192.062M1077.32 192.062L1089.98 204.874M1148.79 192.062L1134.6 180.097M1148.79 192.062L1163.98 204.874M1148.79 192.062H1220.25M1065.5 180.097H1134.6M1065.5 180.097L996.402 180.097M1065.5 180.097L1054.44 168.898M1134.6 180.097L1121.33 168.898M1134.6 180.097H1203.7M1034.31 148.522H1097.17M1034.31 148.522L1025.13 139.227M1034.31 148.522L971.449 148.522M1034.31 148.522L1044.06 158.394M1097.17 148.522L1086.15 139.227M1097.17 148.522L1108.88 158.394M1097.17 148.522H1160.04M1025.13 139.227H1086.15M1025.13 139.227L964.103 139.227M1025.13 139.227L1016.47 130.459M1086.15 139.227L1075.76 130.459M1086.15 139.227H1147.18M1000.54 114.338H1056.65M1000.54 114.338L993.204 106.909M1000.54 114.338L944.434 114.338M1000.54 114.338L1008.29 122.176M1056.65 114.338L1047.84 106.909M1056.65 114.338L1065.94 122.176M1056.65 114.338L1112.76 114.338M993.204 106.909H1047.84M993.204 106.909L938.563 106.909M993.204 106.909L986.24 99.8598M1047.84 106.909L1039.49 99.8598M1047.84 106.909L1102.49 106.909M973.326 86.7864H1023.99M973.326 86.7864L967.327 80.7142M973.326 86.7864L922.66 86.7864M973.326 86.7864L979.622 93.1608M1023.99 86.7864L1016.79 80.7142M1023.99 86.7864L1031.55 93.1608M1023.99 86.7864H1074.66M967.327 80.7142H1016.79M967.327 80.7142L917.862 80.7142M967.327 80.7142L961.606 74.9228M1016.79 80.7142L1009.93 74.9228M1016.79 80.7142H1066.26M950.923 64.1081L951.562 64.7561L952.206 65.4073L956.143 69.3933M950.923 64.1081L997.107 64.1081M950.923 64.1081L945.927 59.052M950.923 64.1081H904.738M997.107 64.1081L991.113 59.052M997.107 64.1081L1003.37 69.3933M997.107 64.1081H1043.29M945.927 59.052H991.113M945.927 59.052L900.742 59.052M945.927 59.052L941.144 54.2097M991.113 59.052L985.373 54.2097M991.113 59.052L1036.3 59.052M932.16 45.1152L974.593 45.1152M932.16 45.1152L927.936 40.8396M932.16 45.1152H889.728M932.16 45.1152L936.559 49.5681M974.593 45.1152L971.4 42.423L969.524 40.8396M974.593 45.1152L979.871 49.5681M974.593 45.1152L1017.02 45.1152M927.936 40.8396L969.524 40.8396M927.936 40.8396H886.349M927.936 40.8396L924.377 37.2354L923.878 36.7309M969.524 40.8396L964.653 36.7309M969.524 40.8396L1011.11 40.8396M916.218 28.9766L955.461 28.9766M916.218 28.9766L915.3 28.0477L912.6 25.314M916.218 28.9766L876.974 28.9766M916.218 28.9766L917.143 29.9136L919.022 31.815L919.974 32.7793M955.461 28.9766L951.119 25.314M955.461 28.9766L957.131 30.386L958.258 31.3366L959.969 32.7793M955.461 28.9766L994.704 28.9766M912.6 25.314L951.119 25.314M912.6 25.314L874.079 25.314M912.6 25.314L909.972 22.654L909.112 21.784M951.119 25.314L949.532 23.975L948.485 23.0925L946.934 21.784M951.119 25.314L989.639 25.314M902.503 15.0938L939.004 15.0938M902.503 15.0938L900.532 13.0981L899.369 11.921M902.503 15.0938L866.003 15.0938M902.503 15.0938L905.749 18.3795M939.004 15.0938L936.171 12.7043L935.706 12.3116L935.243 11.921M939.004 15.0938L940.934 16.7219L942.899 18.3795M939.004 15.0938L975.504 15.0938M899.369 11.921L935.243 11.921M899.369 11.921L897.842 10.3753L897.089 9.61225L896.714 9.23319L896.341 8.85575M899.369 11.921L863.495 11.921M935.243 11.921L971.117 11.921M935.243 11.921L931.609 8.85575M1436.74 233.431H1357.1M1436.74 233.431L1410.42 218.628M1436.74 233.431H1460.6M1436.74 233.431L1460.6 246.85M1363.18 192.062H1434.64M1363.18 192.062L1341.9 180.097M1363.18 192.062H1291.72M1363.18 192.062L1385.96 204.874M1434.64 192.062L1411 180.097M1434.64 192.062L1459.96 204.874M1434.64 192.062H1460.6M1341.9 180.097H1411M1341.9 180.097H1272.8M1341.9 180.097L1321.99 168.898M1411 180.097L1388.88 168.898M1411 180.097H1460.6M1285.76 148.522H1348.62M1285.76 148.522L1269.23 139.227M1285.76 148.522L1222.9 148.522M1285.76 148.522L1303.31 158.394M1348.62 148.522L1330.26 139.227M1348.62 148.522L1368.13 158.394M1348.62 148.522H1411.48M1269.23 139.227H1330.26M1269.23 139.227L1208.21 139.227M1269.23 139.227L1253.64 130.459M1330.26 139.227L1312.94 130.459M1330.26 139.227H1391.28M1224.98 114.338H1281.08M1224.98 114.338L1211.77 106.909M1224.98 114.338L1168.87 114.338M1224.98 114.338L1238.91 122.176M1281.08 114.338L1266.41 106.909M1281.08 114.338L1296.57 122.176M1281.08 114.338L1337.19 114.338M1211.77 106.909H1266.41M1211.77 106.909L1157.13 106.909M1211.77 106.909L1199.23 99.8598M1266.41 106.909L1252.48 99.8598M1266.41 106.909L1321.05 106.909M1175.99 86.7864L1226.65 86.7864M1175.99 86.7864L1165.19 80.7142M1175.99 86.7864H1125.32M1175.99 86.7864L1187.32 93.1608M1226.65 86.7864L1214.65 80.7142M1226.65 86.7864L1239.24 93.1608M1226.65 86.7864H1277.32M1165.19 80.7142L1214.65 80.7142M1165.19 80.7142H1115.72M1165.19 80.7142L1154.89 74.9228M1214.65 80.7142L1203.21 74.9228M1214.65 80.7142H1264.12M1135.66 64.1081H1181.85M1135.66 64.1081L1126.67 59.052M1135.66 64.1081H1089.48M1135.66 64.1081L1145.06 69.3933M1181.85 64.1081L1171.85 59.052M1181.85 64.1081L1192.29 69.3933M1181.85 64.1081L1228.03 64.1081M1126.67 59.052L1171.85 59.052M1126.67 59.052L1081.48 59.052M1126.67 59.052L1118.06 54.2097M1171.85 59.052L1162.29 54.2097M1171.85 59.052H1217.04M1101.89 45.1152L1144.32 45.1152M1101.89 45.1152L1094.29 40.8396M1101.89 45.1152H1059.46M1101.89 45.1152L1109.81 49.5681M1144.32 45.1152L1135.87 40.8396M1144.32 45.1152L1153.12 49.5681M1144.32 45.1152L1186.75 45.1152M1094.29 40.8396L1135.87 40.8396M1094.29 40.8396H1052.7M1094.29 40.8396L1086.98 36.7309M1135.87 40.8396L1127.76 36.7309M1135.87 40.8396L1177.46 40.8396M1073.19 28.9766L1112.43 28.9766M1073.19 28.9766L1066.68 25.314M1073.19 28.9766L1033.95 28.9766M1073.19 28.9766L1074.86 29.9136L1075.7 30.386L1079.95 32.7793M1112.43 28.9766L1105.2 25.314M1112.43 28.9766L1119.95 32.7793M1112.43 28.9766L1151.68 28.9766M1066.68 25.314L1105.2 25.314M1066.68 25.314L1028.16 25.314M1066.68 25.314L1060.4 21.784M1105.2 25.314L1098.22 21.784M1105.2 25.314L1143.72 25.314M1048.51 15.0938L1085.01 15.0938M1048.51 15.0938L1042.86 11.921M1048.51 15.0938L1012.01 15.0938M1048.51 15.0938L1054.35 18.3795M1085.01 15.0938L1080.28 12.7043L1079.51 12.3116L1078.74 11.921M1085.01 15.0938L1091.5 18.3795M1085.01 15.0938L1121.51 15.0938M1042.86 11.921L1078.74 11.921M1042.86 11.921L1038.09 9.23319L1037.41 8.85575M1042.86 11.921L1006.99 11.921M1078.74 11.921L1114.61 11.921M1078.74 11.921L1072.68 8.85575M1449.41 114.338L1430.33 106.909M1449.41 114.338L1393.3 114.338M1449.41 114.338L1460.6 118.695M1449.41 114.338H1460.6M1430.33 106.909L1375.69 106.909M1430.33 106.909L1412.22 99.8598M1430.33 106.909H1460.6M1378.65 86.7864H1429.31M1378.65 86.7864L1363.05 80.7142M1378.65 86.7864H1327.98M1378.65 86.7864L1395.02 93.1608M1429.31 86.7864L1412.52 80.7142M1429.31 86.7864L1446.94 93.1608M1429.31 86.7864L1460.6 86.7864M1363.05 80.7142H1412.52M1363.05 80.7142H1313.58M1363.05 80.7142L1348.17 74.9228M1412.52 80.7142L1396.5 74.9228M1412.52 80.7142L1460.6 80.7142M1320.4 64.1081H1366.58M1320.4 64.1081L1307.41 59.052M1320.4 64.1081L1274.21 64.1081M1320.4 64.1081L1333.97 69.3933M1366.58 64.1081L1352.6 59.052M1366.58 64.1081L1381.2 69.3933M1366.58 64.1081H1412.77M1307.41 59.052L1352.6 59.052M1307.41 59.052L1262.23 59.052M1307.41 59.052L1294.97 54.2097M1352.6 59.052L1339.2 54.2097M1352.6 59.052H1397.78M1271.62 45.1152L1314.05 45.1152M1271.62 45.1152L1260.63 40.8396M1271.62 45.1152H1229.18M1271.62 45.1152L1283.05 49.5681M1314.05 45.1152L1302.22 40.8396M1314.05 45.1152L1326.36 49.5681M1314.05 45.1152L1356.48 45.1152M1260.63 40.8396L1302.22 40.8396M1260.63 40.8396L1219.05 40.8396M1260.63 40.8396L1250.08 36.7309M1302.22 40.8396L1290.86 36.7309M1302.22 40.8396L1343.81 40.8396M1230.17 28.9766L1269.41 28.9766M1230.17 28.9766L1220.76 25.314M1230.17 28.9766L1190.92 28.9766M1230.17 28.9766L1239.93 32.7793M1269.41 28.9766L1259.28 25.314M1269.41 28.9766L1279.93 32.7793M1269.41 28.9766L1308.65 28.9766M1220.76 25.314L1259.28 25.314M1220.76 25.314L1182.24 25.314M1220.76 25.314L1211.69 21.784M1259.28 25.314L1249.51 21.784M1259.28 25.314L1297.8 25.314M1194.51 15.0938L1231.01 15.0938M1194.51 15.0938L1186.36 11.921M1194.51 15.0938L1158.01 15.0938M1194.51 15.0938L1202.95 18.3795M1231.01 15.0938L1222.23 11.921M1231.01 15.0938L1240.1 18.3795M1231.01 15.0938L1267.51 15.0938M1186.36 11.921L1222.23 11.921M1186.36 11.921L1178.49 8.85575M1186.36 11.921L1150.49 11.921M1222.23 11.921L1258.11 11.921M1222.23 11.921L1213.75 8.85575M1441.34 45.1152L1426.98 40.8396M1441.34 45.1152L1398.91 45.1152M1441.34 45.1152L1456.3 49.5681M1441.34 45.1152L1460.6 45.1152M1426.98 40.8396L1385.4 40.8396M1426.98 40.8396L1413.18 36.7309M1426.98 40.8396L1460.6 40.8396M1387.14 28.9766L1426.38 28.9766M1387.14 28.9766L1374.84 25.314M1387.14 28.9766L1347.9 28.9766M1387.14 28.9766L1399.91 32.7793M1426.38 28.9766L1413.36 25.314M1426.38 28.9766L1439.91 32.7793M1426.38 28.9766L1460.6 28.9766M1374.84 25.314L1413.36 25.314M1374.84 25.314L1336.32 25.314M1374.84 25.314L1362.98 21.784M1413.36 25.314L1400.8 21.784M1413.36 25.314L1451.88 25.314M1340.51 15.0938L1377.01 15.0938M1340.51 15.0938L1329.86 11.921M1340.51 15.0938L1304.01 15.0938M1340.51 15.0938L1351.55 18.3795M1377.01 15.0938L1365.73 11.921M1377.01 15.0938L1388.7 18.3795M1377.01 15.0938L1413.51 15.0938M1329.86 11.921L1365.73 11.921M1329.86 11.921L1319.56 8.85575M1329.86 11.921L1293.98 11.921M1365.73 11.921L1401.6 11.921M1365.73 11.921L1354.83 8.85575M1388.7 18.3795L1400.8 21.784M1388.7 18.3795L1425.85 18.3795M1388.7 18.3795L1351.55 18.3795M1413.51 15.0938L1401.6 11.921M1413.51 15.0938L1425.85 18.3795M1413.51 15.0938L1450.01 15.0938M1401.6 11.921L1437.48 11.921M1401.6 11.921L1390.1 8.85575M1354.83 8.85575L1319.56 8.85575M1354.83 8.85575L1390.1 8.85575M1354.83 8.85575L1344.29 5.8919M1425.85 18.3795L1438.63 21.784M1425.85 18.3795L1460.6 18.3795M1450.01 15.0938L1437.48 11.921M1450.01 15.0938L1460.6 17.7732M1450.01 15.0938L1460.6 15.0938M1437.48 11.921L1425.36 8.85575M1437.48 11.921L1460.6 11.921M1390.1 8.85575L1425.36 8.85575M1390.1 8.85575L1378.97 5.8919M1425.36 8.85575L1413.65 5.8919M1425.36 8.85575L1460.6 8.85575M1400.8 21.784L1438.63 21.784M1400.8 21.784L1362.98 21.784M1451.88 25.314L1438.63 21.784M1451.88 25.314L1460.6 27.6376M1451.88 25.314H1460.6M1438.63 21.784L1460.6 21.784M1362.98 21.784L1325.16 21.784M1362.98 21.784L1351.55 18.3795M1351.55 18.3795L1314.4 18.3795M1439.91 32.7793L1453.96 36.7309M1439.91 32.7793L1399.91 32.7793M1439.91 32.7793L1460.6 32.7793M1460.72 28.9766H1460.6M1453.96 36.7309H1413.18M1453.96 36.7309L1460.6 38.5984M1453.96 36.7309L1460.6 36.7309M1413.18 36.7309L1372.41 36.7309M1413.18 36.7309L1399.91 32.7793M1399.91 32.7793H1359.92M1240.1 18.3795L1249.51 21.784M1240.1 18.3795L1277.25 18.3795M1240.1 18.3795L1202.95 18.3795M1267.51 15.0938L1258.11 11.921M1267.51 15.0938L1277.25 18.3795M1267.51 15.0938L1304.01 15.0938M1258.11 11.921L1293.98 11.921M1258.11 11.921L1249.02 8.85575M1213.75 8.85575L1249.02 8.85575M1213.75 8.85575L1205.56 5.8919M1213.75 8.85575L1178.49 8.85575M1277.25 18.3795L1287.34 21.784M1277.25 18.3795L1314.4 18.3795M1304.01 15.0938L1293.98 11.921M1304.01 15.0938L1314.4 18.3795M1293.98 11.921L1284.29 8.85575M1249.02 8.85575L1284.29 8.85575M1249.02 8.85575L1240.24 5.8919M1314.4 18.3795L1325.16 21.784M1319.56 8.85575L1284.29 8.85575M1319.56 8.85575L1309.6 5.8919M1284.29 8.85575L1274.92 5.8919M1249.51 21.784L1287.34 21.784M1249.51 21.784L1211.69 21.784M1297.8 25.314L1287.34 21.784M1297.8 25.314L1308.65 28.9766M1297.8 25.314L1336.32 25.314M1287.34 21.784L1325.16 21.784M1211.69 21.784L1173.87 21.784M1211.69 21.784L1202.95 18.3795M1325.16 21.784L1336.32 25.314M1202.95 18.3795L1165.8 18.3795M1308.65 28.9766L1319.92 32.7793M1308.65 28.9766L1347.9 28.9766M1336.32 25.314L1347.9 28.9766M1347.9 28.9766L1359.92 32.7793M1279.93 32.7793L1290.86 36.7309M1279.93 32.7793L1319.92 32.7793M1279.93 32.7793H1239.93M1319.92 32.7793L1331.63 36.7309M1319.92 32.7793L1359.92 32.7793M1359.92 32.7793L1372.41 36.7309M1290.86 36.7309H1331.63M1290.86 36.7309L1250.08 36.7309M1343.81 40.8396L1331.63 36.7309M1343.81 40.8396L1356.48 45.1152M1343.81 40.8396H1385.4M1331.63 36.7309L1372.41 36.7309M1250.08 36.7309L1209.31 36.7309M1250.08 36.7309L1239.93 32.7793M1372.41 36.7309L1385.4 40.8396M1239.93 32.7793L1199.94 32.7793M1356.48 45.1152L1369.68 49.5681M1356.48 45.1152H1398.91M1385.4 40.8396L1398.91 45.1152M1398.91 45.1152L1412.99 49.5681M1326.36 49.5681L1339.2 54.2097M1326.36 49.5681L1369.68 49.5681M1326.36 49.5681L1283.05 49.5681M1369.68 49.5681L1383.43 54.2097M1369.68 49.5681L1412.99 49.5681M1412.99 49.5681L1427.66 54.2097M1412.99 49.5681H1456.3M1456.3 49.5681L1460.6 49.5681M1456.3 49.5681L1460.6 50.8484M1339.2 54.2097L1383.43 54.2097M1339.2 54.2097H1294.97M1397.78 59.052L1383.43 54.2097M1397.78 59.052L1412.77 64.1081M1397.78 59.052L1442.97 59.052M1383.43 54.2097L1427.66 54.2097M1294.97 54.2097L1250.75 54.2097M1294.97 54.2097L1283.05 49.5681M1427.66 54.2097L1442.97 59.052M1427.66 54.2097L1460.6 54.2097M1283.05 49.5681H1239.74M1412.77 64.1081L1428.43 69.3933M1412.77 64.1081L1458.95 64.1081M1442.97 59.052L1458.95 64.1081M1442.97 59.052L1460.6 59.052M1460.83 54.2097H1460.6M1458.95 64.1081L1460.6 64.6299M1458.95 64.1081H1460.6M1381.2 69.3933L1396.5 74.9228M1381.2 69.3933H1428.43M1381.2 69.3933H1333.97M1428.43 69.3933L1444.82 74.9228M1428.43 69.3933L1460.6 69.3933M1461 64.7561L1460.6 64.6299M1396.5 74.9228L1444.82 74.9228M1396.5 74.9228H1348.17M1444.82 74.9228H1460.6M1444.82 74.9228L1460.6 80.2487M1348.17 74.9228L1299.85 74.9228M1348.17 74.9228L1333.97 69.3933M1333.97 69.3933L1286.74 69.3933M1446.94 93.1608L1395.02 93.1608M1446.94 93.1608L1460.6 98.0988M1446.94 93.1608H1460.6M1460.98 86.7864H1460.6M1395.02 93.1608H1343.09M1395.02 93.1608L1412.22 99.8598M1460.75 98.1531L1460.6 98.0988M1091.5 18.3795L1098.22 21.784M1091.5 18.3795L1128.65 18.3795M1091.5 18.3795L1054.35 18.3795M1121.51 15.0938L1114.61 11.921M1121.51 15.0938L1128.65 18.3795M1121.51 15.0938L1158.01 15.0938M1114.61 11.921L1150.49 11.921M1114.61 11.921L1107.95 8.85575M1072.68 8.85575L1107.95 8.85575M1072.68 8.85575L1070.46 7.73272L1066.83 5.8919M1072.68 8.85575L1037.41 8.85575M1128.65 18.3795L1136.05 21.784M1128.65 18.3795L1165.8 18.3795M1158.01 15.0938L1150.49 11.921M1158.01 15.0938L1165.8 18.3795M1150.49 11.921L1143.22 8.85575M1107.95 8.85575L1143.22 8.85575M1107.95 8.85575L1101.51 5.8919M1165.8 18.3795L1173.87 21.784M1178.49 8.85575L1170.87 5.8919M1178.49 8.85575L1143.22 8.85575M1143.22 8.85575L1142.33 8.4794L1140.56 7.73272L1136.19 5.8919M1098.22 21.784L1136.05 21.784M1098.22 21.784L1060.4 21.784M1143.72 25.314L1136.05 21.784M1143.72 25.314L1151.68 28.9766M1143.72 25.314L1182.24 25.314M1136.05 21.784L1173.87 21.784M1060.4 21.784L1022.58 21.784M1060.4 21.784L1054.35 18.3795M1173.87 21.784L1182.24 25.314M1054.35 18.3795L1017.2 18.3795M1151.68 28.9766L1159.94 32.7793M1151.68 28.9766L1190.92 28.9766M1182.24 25.314L1183.31 25.764L1190.92 28.9766M1190.92 28.9766L1199.94 32.7793M1119.95 32.7793L1120.91 33.2653L1127.76 36.7309M1119.95 32.7793H1159.94M1119.95 32.7793L1079.95 32.7793M1159.94 32.7793L1168.53 36.7309M1159.94 32.7793L1199.94 32.7793M1199.94 32.7793L1209.31 36.7309M1127.76 36.7309L1168.53 36.7309M1127.76 36.7309L1086.98 36.7309M1177.46 40.8396L1168.53 36.7309M1177.46 40.8396L1186.75 45.1152M1177.46 40.8396H1219.05M1168.53 36.7309H1209.31M1086.98 36.7309L1046.2 36.7309M1086.98 36.7309L1079.95 32.7793M1209.31 36.7309L1219.05 40.8396M1079.95 32.7793L1039.96 32.7793M1186.75 45.1152L1196.43 49.5681M1186.75 45.1152L1229.18 45.1152M1219.05 40.8396L1229.18 45.1152M1229.18 45.1152L1239.74 49.5681M1153.12 49.5681L1162.29 54.2097M1153.12 49.5681L1196.43 49.5681M1153.12 49.5681L1109.81 49.5681M1196.43 49.5681L1206.52 54.2097M1196.43 49.5681L1239.74 49.5681M1239.74 49.5681L1250.75 54.2097M1162.29 54.2097L1206.52 54.2097M1162.29 54.2097H1118.06M1217.04 59.052L1206.52 54.2097M1217.04 59.052L1228.03 64.1081M1217.04 59.052L1262.23 59.052M1206.52 54.2097L1250.75 54.2097M1118.06 54.2097L1073.83 54.2097M1118.06 54.2097L1109.81 49.5681M1250.75 54.2097L1262.23 59.052M1109.81 49.5681H1066.49M1228.03 64.1081L1239.52 69.3933M1228.03 64.1081H1274.21M1262.23 59.052L1274.21 64.1081M1274.21 64.1081L1286.74 69.3933M1192.29 69.3933L1203.21 74.9228M1192.29 69.3933L1239.52 69.3933M1192.29 69.3933H1145.06M1239.52 69.3933L1251.53 74.9228M1239.52 69.3933H1286.74M1286.74 69.3933L1299.85 74.9228M1203.21 74.9228H1251.53M1203.21 74.9228L1154.89 74.9228M1264.12 80.7142L1251.53 74.9228M1264.12 80.7142L1277.32 86.7864M1264.12 80.7142L1313.58 80.7142M1251.53 74.9228H1299.85M1154.89 74.9228H1106.57M1154.89 74.9228L1145.06 69.3933M1299.85 74.9228L1313.58 80.7142M1145.06 69.3933H1097.83M1277.32 86.7864L1291.17 93.1608M1277.32 86.7864L1327.98 86.7864M1313.58 80.7142L1327.98 86.7864M1327.98 86.7864L1343.09 93.1608M1239.24 93.1608L1252.48 99.8598M1239.24 93.1608H1291.17M1239.24 93.1608L1187.32 93.1608M1291.17 93.1608L1305.73 99.8598M1291.17 93.1608L1343.09 93.1608M1343.09 93.1608L1358.98 99.8598M1252.48 99.8598H1305.73M1252.48 99.8598H1199.23M1321.05 106.909L1305.73 99.8598M1321.05 106.909L1337.19 114.338M1321.05 106.909H1375.69M1305.73 99.8598L1358.98 99.8598M1199.23 99.8598L1145.98 99.8598M1199.23 99.8598L1187.32 93.1608M1358.98 99.8598L1375.69 106.909M1358.98 99.8598H1412.22M1187.32 93.1608H1135.4M1337.19 114.338L1354.23 122.176M1337.19 114.338H1393.3M1375.69 106.909L1393.3 114.338M1412.22 99.8598L1460.6 99.8598M1393.3 114.338L1411.89 122.176M1296.57 122.176L1312.94 130.459M1296.57 122.176L1354.23 122.176M1296.57 122.176H1238.91M1354.23 122.176L1372.23 130.459M1354.23 122.176H1411.89M1411.89 122.176L1431.52 130.459M1411.89 122.176L1460.6 122.176M1312.94 130.459H1372.23M1312.94 130.459L1253.64 130.459M1391.28 139.227L1372.23 130.459M1391.28 139.227L1411.48 148.522M1391.28 139.227H1452.31M1372.23 130.459H1431.52M1253.64 130.459H1194.35M1253.64 130.459L1238.91 122.176M1431.52 130.459L1452.31 139.227M1431.52 130.459H1460.6M1238.91 122.176L1181.26 122.176M1411.48 148.522L1432.94 158.394M1411.48 148.522H1460.6M1452.31 139.227H1460.6M1452.31 139.227L1460.6 142.724M1368.13 158.394L1388.88 168.898M1368.13 158.394H1432.94M1368.13 158.394H1303.31M1432.94 158.394L1455.77 168.898M1432.94 158.394H1460.6M1388.88 168.898H1455.77M1388.88 168.898H1321.99M1455.77 168.898L1460.6 171.122M1455.77 168.898H1460.6M1321.99 168.898L1255.1 168.898M1321.99 168.898L1303.31 158.394M1303.31 158.394L1238.5 158.394M1459.96 204.874H1385.96M1459.96 204.874H1460.6M1459.96 204.874L1460.6 205.199M1385.96 204.874H1311.97M1385.96 204.874L1410.42 218.628M942.899 18.3795L944.395 19.6416L944.898 20.0665L946.934 21.784M942.899 18.3795L980.048 18.3795M942.899 18.3795L905.749 18.3795M975.504 15.0938L972.199 12.7043L971.117 11.921M975.504 15.0938L979.472 17.9622L980.048 18.3795M975.504 15.0938L1012.01 15.0938M971.117 11.921L1006.99 11.921M971.117 11.921L966.877 8.85575M931.609 8.85575L966.877 8.85575M931.609 8.85575L930.278 7.73272L928.096 5.8919M931.609 8.85575L896.341 8.85575M980.048 18.3795L981.21 19.2189L984.757 21.784M980.048 18.3795L1017.2 18.3795M1012.01 15.0938L1006.99 11.921M1012.01 15.0938L1017.2 18.3795M1006.99 11.921L1003.34 9.61225L1002.15 8.85575M966.877 8.85575L1002.15 8.85575M966.877 8.85575L962.778 5.8919M1017.2 18.3795L1022.58 21.784M1037.41 8.85575L1036.75 8.4794L1032.14 5.8919M1037.41 8.85575L1002.15 8.85575M1002.15 8.85575L1000.37 7.73272L997.461 5.8919M946.934 21.784L984.757 21.784M946.934 21.784L909.112 21.784M989.639 25.314L984.757 21.784M989.639 25.314L994.704 28.9766M989.639 25.314L1028.16 25.314M984.757 21.784L1022.58 21.784M909.112 21.784L871.289 21.784M909.112 21.784L905.749 18.3795M1022.58 21.784L1028.16 25.314M905.749 18.3795L868.599 18.3795M994.704 28.9766L997.968 31.3366L998.63 31.815L999.963 32.7793M994.704 28.9766L1033.95 28.9766M1028.16 25.314L1033.95 28.9766M1033.95 28.9766L1039.96 32.7793M959.969 32.7793L964.653 36.7309M959.969 32.7793L999.963 32.7793M959.969 32.7793L919.974 32.7793M999.963 32.7793L1005.43 36.7309M999.963 32.7793H1039.96M1039.96 32.7793L1046.2 36.7309M964.653 36.7309L1005.43 36.7309M964.653 36.7309L923.878 36.7309M1011.11 40.8396L1007.53 38.2527L1006.83 37.7427L1005.43 36.7309M1011.11 40.8396L1017.02 45.1152M1011.11 40.8396L1052.7 40.8396M1005.43 36.7309H1046.2M923.878 36.7309H883.102M923.878 36.7309L919.974 32.7793M1046.2 36.7309L1052.7 40.8396M919.974 32.7793H879.979M1017.02 45.1152L1023.18 49.5681M1017.02 45.1152L1059.46 45.1152M1052.7 40.8396L1059.46 45.1152M1059.46 45.1152L1066.49 49.5681M979.871 49.5681L982.593 51.8643L983.282 52.4463L985.373 54.2097M979.871 49.5681L1023.18 49.5681M979.871 49.5681H936.559M1023.18 49.5681L1029.6 54.2097M1023.18 49.5681L1066.49 49.5681M1066.49 49.5681L1073.83 54.2097M985.373 54.2097L1029.6 54.2097M985.373 54.2097H941.144M1036.3 59.052L1029.6 54.2097M1036.3 59.052L1043.29 64.1081M1036.3 59.052L1081.48 59.052M1029.6 54.2097L1073.83 54.2097M941.144 54.2097L896.915 54.2097M941.144 54.2097L939.979 53.031L936.559 49.5681M1073.83 54.2097L1081.48 59.052M936.559 49.5681L893.247 49.5681M1043.29 64.1081L1050.6 69.3933M1043.29 64.1081L1089.48 64.1081M1081.48 59.052L1089.48 64.1081M1089.48 64.1081L1097.83 69.3933M1003.37 69.3933L1009.93 74.9228M1003.37 69.3933H1050.6M1003.37 69.3933L956.143 69.3933M1050.6 69.3933L1058.25 74.9228M1050.6 69.3933L1097.83 69.3933M1097.83 69.3933L1106.57 74.9228M1009.93 74.9228H1058.25M1009.93 74.9228L961.606 74.9228M1066.26 80.7142L1058.25 74.9228M1066.26 80.7142L1074.66 86.7864M1066.26 80.7142L1115.72 80.7142M1058.25 74.9228L1106.57 74.9228M961.606 74.9228H913.285M961.606 74.9228L956.143 69.3933M1106.57 74.9228L1115.72 80.7142M956.143 69.3933H908.915M1074.66 86.7864L1083.47 93.1608M1074.66 86.7864L1125.32 86.7864M1115.72 80.7142L1125.32 86.7864M1125.32 86.7864L1135.4 93.1608M1031.55 93.1608L1039.49 99.8598M1031.55 93.1608L1083.47 93.1608M1031.55 93.1608H979.622M1083.47 93.1608L1092.74 99.8598M1083.47 93.1608H1135.4M1135.4 93.1608L1145.98 99.8598M1039.49 99.8598L1092.74 99.8598M1039.49 99.8598H986.24M1102.49 106.909L1092.74 99.8598M1102.49 106.909L1112.76 114.338M1102.49 106.909H1157.13M1092.74 99.8598H1145.98M986.24 99.8598L932.992 99.8598M986.24 99.8598L979.622 93.1608M1145.98 99.8598L1157.13 106.909M979.622 93.1608L927.698 93.1608M1112.76 114.338L1123.6 122.176M1112.76 114.338H1168.87M1157.13 106.909L1168.87 114.338M1168.87 114.338L1181.26 122.176M1065.94 122.176L1075.76 130.459M1065.94 122.176L1123.6 122.176M1065.94 122.176H1008.29M1123.6 122.176L1135.06 130.459M1123.6 122.176H1181.26M1181.26 122.176L1194.35 130.459M1075.76 130.459H1135.06M1075.76 130.459L1016.47 130.459M1147.18 139.227L1135.06 130.459M1147.18 139.227L1160.04 148.522M1147.18 139.227H1208.21M1135.06 130.459H1194.35M1016.47 130.459H957.174M1016.47 130.459L1008.29 122.176M1194.35 130.459L1208.21 139.227M1008.29 122.176L950.629 122.176M1160.04 148.522L1173.69 158.394M1160.04 148.522H1222.9M1208.21 139.227L1222.9 148.522M1222.9 148.522L1238.5 158.394M1108.88 158.394L1121.33 168.898M1108.88 158.394H1173.69M1108.88 158.394H1044.06M1173.69 158.394L1188.22 168.898M1173.69 158.394H1238.5M1238.5 158.394L1255.1 168.898M1121.33 168.898H1188.22M1121.33 168.898H1054.44M1203.7 180.097L1188.22 168.898M1203.7 180.097L1220.25 192.062M1203.7 180.097L1272.8 180.097M1188.22 168.898H1255.1M1054.44 168.898L987.551 168.898M1054.44 168.898L1044.06 158.394M1255.1 168.898L1272.8 180.097M1044.06 158.394L979.251 158.394M1220.25 192.062L1237.97 204.874M1220.25 192.062L1291.72 192.062M1272.8 180.097L1291.72 192.062M1291.72 192.062L1311.97 204.874M1163.98 204.874L1180.28 218.628M1163.98 204.874H1237.97M1163.98 204.874H1089.98M1237.97 204.874L1256.99 218.628M1237.97 204.874L1311.97 204.874M1311.97 204.874L1333.71 218.628M1180.28 218.628L1256.99 218.628M1180.28 218.628H1103.57M1277.46 233.431L1256.99 218.628M1277.46 233.431L1299.56 249.407M1277.46 233.431H1357.1M1256.99 218.628H1333.71M1103.57 218.628H1026.85M1103.57 218.628L1089.98 204.874M1333.71 218.628L1357.1 233.431M1333.71 218.628H1410.42M1089.98 204.874L1015.98 204.874M1299.56 249.407L1323.48 266.701M1299.56 249.407H1382.35M1357.1 233.431L1382.35 249.407M1410.42 218.628H1460.6M1382.35 249.407L1409.69 266.701M1382.35 249.407H1460.6M1237.27 266.701L1259.53 285.485M1237.27 266.701H1323.48M1237.27 266.701H1151.06M1323.48 266.701L1349.45 285.485M1323.48 266.701H1409.69M1409.69 266.701L1439.38 285.485M1409.69 266.701H1460.6M1259.53 285.485H1349.45M1259.53 285.485H1169.61M1377.77 305.958L1349.45 285.485M1377.77 305.958L1408.75 328.36M1377.77 305.958H1460.6M1349.45 285.485H1439.38M1169.61 285.485L1079.69 285.485M1169.61 285.485L1151.06 266.701M1439.38 285.485H1460.6M1439.38 285.485L1460.6 298.913M1151.06 266.701L1064.84 266.701M1408.75 328.36L1442.8 352.976M1408.75 328.36H1460.6M1339.54 352.976L1371.76 380.153M1339.54 352.976H1442.8M1339.54 352.976H1236.28M1442.8 352.976L1460.6 365.851M1442.8 352.976H1460.6M1460.6 380.153L1371.76 380.153H1263.13M1263.13 380.153H1154.5M1263.13 380.153L1236.28 352.976M1236.28 352.976L1133.03 352.976M794.299 18.3795L794.465 18.7983L794.631 19.2189L794.799 19.6416L794.966 20.0665L795.474 21.3515L795.645 21.784M794.299 18.3795L831.45 18.3795M794.299 18.3795L757.15 18.3795M829.502 15.0938L828.085 12.7043L827.622 11.921M829.502 15.0938L830.711 17.1337L831.45 18.3795M829.502 15.0938L866.003 15.0938M827.622 11.921L863.495 11.921M827.622 11.921L826.253 9.61225L825.804 8.85575M790.536 8.85575L790.388 8.4794L789.8 6.99148L789.365 5.8919M790.536 8.85575L825.804 8.85575M790.536 8.85575L755.268 8.85575M831.45 18.3795L831.697 18.7983L831.947 19.2189L832.197 19.6416L832.449 20.0665L833.467 21.784M831.45 18.3795L868.599 18.3795M866.003 15.0938L864.114 12.7043L863.495 11.921M866.003 15.0938L868.599 18.3795M863.495 11.921L862.273 10.3753L861.371 9.23319L861.073 8.85575M825.804 8.85575L825.582 8.4794L825.139 7.73272L824.699 6.99148L824.482 6.62332L824.048 5.8919M825.804 8.85575L861.073 8.85575M868.599 18.3795L870.608 20.9211L871.289 21.784M896.341 8.85575L894.136 6.62332L893.413 5.8919M896.341 8.85575L861.073 8.85575M861.073 8.85575L859.019 6.25679L858.73 5.8919M795.645 21.784L833.467 21.784M795.645 21.784L757.822 21.784M835.559 25.314L833.467 21.784M835.559 25.314L837.73 28.9766M835.559 25.314L874.079 25.314M833.467 21.784L871.289 21.784M757.822 21.784L720 21.784M757.822 21.784L757.15 18.3795M871.289 21.784L874.079 25.314M757.15 18.3795L720 18.3795M837.73 28.9766L838.286 29.9136L839.13 31.3366L839.984 32.7793M837.73 28.9766L876.974 28.9766M874.079 25.314L874.435 25.764L876.974 28.9766M876.974 28.9766L877.343 29.444L877.715 29.9136L878.088 30.386L879.979 32.7793M799.99 32.7793L801.551 36.7309M799.99 32.7793L839.984 32.7793M799.99 32.7793L759.995 32.7793M839.984 32.7793L842.326 36.7309M839.984 32.7793L879.979 32.7793M879.979 32.7793L882.31 35.7284L882.705 36.2286L883.102 36.7309M801.551 36.7309L842.326 36.7309M801.551 36.7309L760.776 36.7309M844.762 40.8396L845.073 41.3649L845.386 41.8923L845.7 42.423L847.296 45.1152M844.762 40.8396L843.532 38.7648L843.228 38.2527L842.927 37.7427L842.326 36.7309M844.762 40.8396L886.349 40.8396M842.326 36.7309L883.102 36.7309M760.776 36.7309H720M760.776 36.7309L759.995 32.7793M883.102 36.7309L886.349 40.8396M759.995 32.7793H720M847.296 45.1152L849.6 49.0014L849.935 49.5681M847.296 45.1152L889.728 45.1152M886.349 40.8396L887.181 41.8923L889.728 45.1152M889.728 45.1152L891.031 46.7635L893.247 49.5681M806.623 49.5681L807.531 51.8643L807.761 52.4463L808.458 54.2097M806.623 49.5681L849.935 49.5681M806.623 49.5681H763.312M849.935 49.5681L852.686 54.2097M849.935 49.5681L893.247 49.5681M893.247 49.5681L896.915 54.2097M808.458 54.2097L852.686 54.2097M808.458 54.2097H764.229M855.556 59.052L852.686 54.2097M855.556 59.052L858.553 64.1081M855.556 59.052L900.742 59.052M852.686 54.2097L896.915 54.2097M764.229 54.2097L720 54.2097M764.229 54.2097L763.996 53.031L763.537 50.7102L763.312 49.5681M896.915 54.2097L900.742 59.052M763.312 49.5681L720 49.5681M858.553 64.1081L860.889 68.0499L861.686 69.3933M858.553 64.1081H904.738M900.742 59.052L904.738 64.1081M904.738 64.1081L906.803 66.7212L908.915 69.3933M814.457 69.3933L816.642 74.9228M814.457 69.3933L861.686 69.3933M814.457 69.3933H767.229M861.686 69.3933L864.963 74.9228M861.686 69.3933H908.915M908.915 69.3933L913.285 74.9228M816.642 74.9228L864.963 74.9228M816.642 74.9228H768.321M868.396 80.7142L867.522 79.241L864.963 74.9228M868.396 80.7142L871.995 86.7864M868.396 80.7142H917.862M864.963 74.9228H913.285M768.321 74.9228L720 74.9228M768.321 74.9228L767.229 69.3933M913.285 74.9228L917.862 80.7142M767.229 69.3933L720 69.3933M871.995 86.7864L875.773 93.1608M871.995 86.7864H922.66M917.862 80.7142L922.66 86.7864M922.66 86.7864L927.698 93.1608M823.849 93.1608L826.496 99.8598M823.849 93.1608L875.773 93.1608M823.849 93.1608H771.925M875.773 93.1608L879.744 99.8598M875.773 93.1608H927.698M927.698 93.1608L932.992 99.8598M826.496 99.8598L879.744 99.8598M826.496 99.8598H773.248M883.923 106.909L879.744 99.8598M883.923 106.909L888.326 114.338M883.923 106.909H938.563M879.744 99.8598H932.992M773.248 99.8598L720 99.8598M773.248 99.8598L772.086 93.9801L771.925 93.1608M932.992 99.8598L938.563 106.909M771.925 93.1608L720 93.1608M888.326 114.338L892.971 122.176M888.326 114.338H944.434M938.563 106.909L942.936 112.444L944.434 114.338M944.434 114.338L950.629 122.176M835.314 122.176L838.587 130.459M835.314 122.176L892.971 122.176M835.314 122.176H777.657M892.971 122.176L897.881 130.459M892.971 122.176H950.629M950.629 122.176L957.174 130.459M838.587 130.459H897.881M838.587 130.459L779.294 130.459M903.077 139.227L897.881 130.459M903.077 139.227L908.586 148.522M903.077 139.227H964.103M897.881 130.459H957.174M779.294 130.459H720M779.294 130.459L777.657 122.176M957.174 130.459L964.103 139.227M777.657 122.176L720 122.176M908.586 148.522L914.438 158.394M908.586 148.522H971.449M964.103 139.227L971.449 148.522M971.449 148.522L979.251 158.394M849.625 158.394L853.776 168.898M849.625 158.394H914.438M849.625 158.394L784.813 158.394M914.438 158.394L920.664 168.898M914.438 158.394H979.251M979.251 158.394L987.551 168.898M853.776 168.898H920.664M853.776 168.898L786.888 168.898M927.301 180.097L920.664 168.898M927.301 180.097L934.393 192.062M927.301 180.097H996.402M920.664 168.898H987.551M786.888 168.898H720M786.888 168.898L784.813 158.394M987.551 168.898L996.402 180.097M784.813 158.394H720M934.393 192.062L941.988 204.874M934.393 192.062H1005.86M996.402 180.097L1005.86 192.062M1005.86 192.062L1015.98 204.874M867.991 204.874L873.426 218.628M867.991 204.874H941.988M867.991 204.874H793.996M941.988 204.874L950.14 218.628M941.988 204.874H1015.98M1015.98 204.874L1026.85 218.628M873.426 218.628H950.14M873.426 218.628H796.713M958.913 233.431L950.14 218.628M958.913 233.431L968.382 249.407M958.913 233.431L1038.55 233.431M950.14 218.628L1026.85 218.628M796.713 218.628L720 218.628M796.713 218.628L793.996 204.874M1026.85 218.628L1038.55 233.431M793.996 204.874L720 204.874M968.382 249.407L978.633 266.701M968.382 249.407L1051.18 249.407M1038.55 233.431L1051.18 249.407M1051.18 249.407L1064.84 266.701M892.422 266.701L899.844 285.485M892.422 266.701H978.633M892.422 266.701H806.211M978.633 266.701L989.766 285.485M978.633 266.701H1064.84M1064.84 266.701L1079.69 285.485M899.844 285.485H989.766M899.844 285.485H809.922M1001.9 305.958L989.766 285.485M1001.9 305.958L1015.18 328.36M1001.9 305.958H1095.87M989.766 285.485H1079.69M809.922 285.485H720M809.922 285.485L806.211 266.701M1079.69 285.485L1095.87 305.958M806.211 266.701H720M1015.18 328.36L1029.77 352.976M1015.18 328.36H1113.57M1095.87 305.958L1113.57 328.36M1113.57 328.36L1133.03 352.976M926.513 352.976L937.251 380.153M926.513 352.976H1029.77M926.513 352.976H823.257M1029.77 352.976L1045.88 380.153M1029.77 352.976H1133.03M1133.03 352.976L1154.5 380.153M1045.88 380.153H937.251M1045.88 380.153L1154.5 380.153M937.251 380.153H828.626M828.626 380.153H720M828.626 380.153L823.257 352.976M823.257 352.976H720M645.701 18.3795L645.535 18.7983L645.369 19.2189L645.202 19.6416L645.034 20.0665L644.696 20.9211L644.526 21.3515L644.355 21.784M645.701 18.3795L682.85 18.3795M645.701 18.3795L608.55 18.3795M683.499 15.0938L684.126 11.921M683.499 15.0938L682.85 18.3795M683.499 15.0938L720 15.0938M684.126 11.921L684.203 11.5322L684.28 11.1449L684.356 10.7593L684.732 8.85575M684.126 11.921L720 11.921M649.464 8.85575L649.612 8.4794L650.2 6.99148L650.635 5.8919M649.464 8.85575L684.732 8.85575M649.464 8.85575L614.196 8.85575M682.85 18.3795L682.767 18.7983L682.685 19.2189L682.6 19.6416L682.178 21.784M682.85 18.3795L720 18.3795M720 15.0938L720 11.921M720 15.0938L720 18.3795M720 11.921L720 8.85575M684.732 8.85575L720 8.85575M684.732 8.85575L684.953 7.73272L685.027 7.36128L685.318 5.8919M720 18.3795L720 21.784M755.268 8.85575L755.047 7.73272L754.973 7.36128L754.9 6.99148L754.827 6.62332L754.755 6.25679L754.683 5.8919M755.268 8.85575L720 8.85575M720 8.85575L720 5.8919M644.355 21.784L682.178 21.784M644.355 21.784L606.533 21.784M681.48 25.314L681.391 25.764L681.302 26.2167L680.757 28.9766M681.48 25.314L682.178 21.784M681.48 25.314L720 25.314M682.178 21.784L720 21.784M606.533 21.784L568.711 21.784M606.533 21.784L607.044 20.9211L607.298 20.493L607.551 20.0665L607.803 19.6416L608.053 19.2189L608.303 18.7983L608.55 18.3795M720 21.784L720 25.314M608.55 18.3795L571.401 18.3795M680.757 28.9766L680.005 32.7793M680.757 28.9766L720 28.9766M720 25.314L720 28.9766M720 28.9766L720 32.7793M640.011 32.7793L638.449 36.7309M640.011 32.7793L680.005 32.7793M640.011 32.7793H600.016M680.005 32.7793L679.225 36.7309M680.005 32.7793L720 32.7793M720 32.7793L720 36.7309M638.449 36.7309L679.225 36.7309M638.449 36.7309H597.674M678.413 40.8396L679.225 36.7309M678.413 40.8396L677.568 45.1152M678.413 40.8396L720 40.8396M679.225 36.7309L720 36.7309M597.674 36.7309L556.898 36.7309M597.674 36.7309L600.016 32.7793M720 36.7309L720 40.8396M600.016 32.7793L560.021 32.7793M677.568 45.1152L677.243 46.7635L676.912 48.4374L676.688 49.5681M677.568 45.1152L720 45.1152M720 40.8396L720 45.1152M720 45.1152L720 49.5681M633.377 49.5681L632.469 51.8643L632.24 52.4463L631.542 54.2097M633.377 49.5681L676.688 49.5681M633.377 49.5681H590.065M676.688 49.5681L676.463 50.7102L676.005 53.031L675.772 54.2097M676.688 49.5681L720 49.5681M720 49.5681L720 54.2097M631.542 54.2097L675.772 54.2097M631.542 54.2097L587.314 54.2097M674.815 59.052L674.936 58.4351L675.772 54.2097M674.815 59.052L673.816 64.1081M674.815 59.052L720 59.052M675.772 54.2097L720 54.2097M587.314 54.2097H543.085M587.314 54.2097L590.065 49.5681M720 54.2097L720 59.052M590.065 49.5681L546.753 49.5681M673.816 64.1081L672.771 69.3933M673.816 64.1081H720M720 59.052L720 64.1081M720 64.1081L720 69.3933M625.543 69.3933L623.358 74.9228M625.543 69.3933H672.771M625.543 69.3933L578.314 69.3933M672.771 69.3933L671.679 74.9228M672.771 69.3933H720M720 69.3933L720 74.9228M623.358 74.9228H671.679M623.358 74.9228L575.037 74.9228M670.535 80.7142L671.679 74.9228M670.535 80.7142L669.335 86.7864M670.535 80.7142H720M671.679 74.9228H720M575.037 74.9228H526.715M575.037 74.9228L578.314 69.3933M720 74.9228L720 80.7142M578.314 69.3933H531.085M669.335 86.7864L668.075 93.1608M669.335 86.7864H720M720 80.7142L720 86.7864M720 86.7864L720 93.1608M616.151 93.1608L613.504 99.8598M616.151 93.1608L668.075 93.1608M616.151 93.1608H564.227M668.075 93.1608L666.752 99.8598M668.075 93.1608H720M720 93.1608L720 99.8598M613.504 99.8598L666.752 99.8598M613.504 99.8598H560.256M665.359 106.909L666.752 99.8598M665.359 106.909L663.892 114.338M665.359 106.909H720M666.752 99.8598H720M560.256 99.8598H507.008M560.256 99.8598L564.227 93.1608M720 99.8598L720 106.909M564.227 93.1608H512.302M663.892 114.338L662.343 122.176M663.892 114.338H720M720 106.909L720 114.338M720 114.338L720 122.176M604.686 122.176L601.413 130.459M604.686 122.176L662.343 122.176M604.686 122.176H547.029M662.343 122.176L660.706 130.459M662.343 122.176H720M720 122.176L720 130.459M601.413 130.459H660.706M601.413 130.459L542.119 130.459M658.975 139.227L660.706 130.459M658.975 139.227L657.138 148.522M658.975 139.227H720M660.706 130.459H720M542.119 130.459H482.826M542.119 130.459L547.029 122.176M720 130.459L720 139.227M547.029 122.176L489.371 122.176M657.138 148.522L655.187 158.394M657.138 148.522H720M720 139.227L720 148.522M720 148.522L720 158.394M590.375 158.394L586.224 168.898M590.375 158.394H655.187M590.375 158.394L525.562 158.394M655.187 158.394L653.112 168.898M655.187 158.394H720M720 158.394L720 168.898M586.224 168.898H653.112M586.224 168.898L519.336 168.898M650.9 180.097L653.112 168.898M650.9 180.097L648.536 192.062M650.9 180.097H720M653.112 168.898H720M519.336 168.898H452.449M519.336 168.898L525.562 158.394M720 168.898L720 180.097M525.562 158.394H460.75M648.536 192.062L646.004 204.874M648.536 192.062H720M720 180.097L720 192.062M720 192.062L720 204.874M572.009 204.874L566.574 218.628M572.009 204.874H646.004M572.009 204.874L498.013 204.874M646.004 204.874L643.287 218.628M646.004 204.874H720M720 204.874L720 218.628M566.574 218.628H643.287M566.574 218.628L489.861 218.628M640.362 233.431L643.287 218.628M640.362 233.431L637.206 249.407M640.362 233.431H720M643.287 218.628H720M489.861 218.628H413.147M489.861 218.628L498.013 204.874M720 218.628L720 233.431M498.013 204.874H424.016M637.206 249.407L633.789 266.701M637.206 249.407H720M720 233.431L720 249.407M720 249.407L720 266.701M547.578 266.701L540.156 285.485M547.578 266.701H633.789M547.578 266.701H461.367M633.789 266.701L630.078 285.485M633.789 266.701L720 266.701M720 266.701L720 285.485M540.156 285.485H630.078M540.156 285.485H450.234M626.033 305.958L630.078 285.485M626.033 305.958L621.607 328.36M626.033 305.958L720 305.958M630.078 285.485L720 285.485M450.234 285.485H360.312M450.234 285.485L461.367 266.701M720 285.485L720 305.958M461.367 266.701H375.156M621.607 328.36L616.743 352.976M621.607 328.36L720 328.36M720 305.958L720 328.36M720 328.36L720 352.976M513.487 352.976L502.749 380.153M513.487 352.976H616.743M513.487 352.976H410.231M616.743 352.976L611.374 380.153M616.743 352.976L720 352.976M720 352.976L720 380.153M611.374 380.153H502.749M611.374 380.153L720 380.153M502.749 380.153H394.122M394.122 380.153H285.496M394.122 380.153L410.231 352.976M410.231 352.976H306.974M497.101 18.3795L495.102 20.0665L493.066 21.784M497.101 18.3795L534.251 18.3795M497.101 18.3795L459.952 18.3795M537.497 15.0938L540.631 11.921M537.497 15.0938L534.251 18.3795M537.497 15.0938L573.997 15.0938M540.631 11.921L576.505 11.921M540.631 11.921L542.912 9.61225L543.659 8.85575M508.391 8.85575L543.659 8.85575M508.391 8.85575L509.723 7.73272L511.904 5.8919M508.391 8.85575L473.123 8.85575M534.251 18.3795L530.888 21.784M534.251 18.3795L571.401 18.3795M573.997 15.0938L576.505 11.921M573.997 15.0938L571.401 18.3795M576.505 11.921L577.727 10.3753L578.629 9.23319L578.927 8.85575M543.659 8.85575L578.927 8.85575M543.659 8.85575L545.864 6.62332L546.587 5.8919M571.401 18.3795L569.392 20.9211L568.711 21.784M614.196 8.85575L614.418 8.4794L614.861 7.73272L615.518 6.62332L615.953 5.8919M614.196 8.85575L578.927 8.85575M578.927 8.85575L579.224 8.4794L579.815 7.73272L581.269 5.8919M493.066 21.784L530.888 21.784M493.066 21.784L455.243 21.784M527.401 25.314L527.844 24.8657L528.285 24.419L530.028 22.654L530.888 21.784M527.401 25.314L524.7 28.0477L523.782 28.9766M527.401 25.314L565.921 25.314M530.888 21.784L568.711 21.784M455.243 21.784L417.421 21.784M455.243 21.784L458.79 19.2189L459.952 18.3795M568.711 21.784L565.921 25.314M459.952 18.3795L422.801 18.3795M523.782 28.9766L523.321 29.444L522.857 29.9136L521.452 31.3366L520.978 31.815L520.026 32.7793M523.782 28.9766L563.026 28.9766M565.921 25.314L565.565 25.764L563.026 28.9766M563.026 28.9766L562.657 29.444L562.285 29.9136L561.913 30.386L560.021 32.7793M480.031 32.7793L475.347 36.7309M480.031 32.7793H520.026M480.031 32.7793L440.037 32.7793M520.026 32.7793L516.123 36.7309M520.026 32.7793L560.021 32.7793M560.021 32.7793L556.898 36.7309M475.347 36.7309H516.123M475.347 36.7309L434.572 36.7309M512.064 40.8396L516.123 36.7309M512.064 40.8396L507.84 45.1152M512.064 40.8396L553.651 40.8396M516.123 36.7309L556.898 36.7309M434.572 36.7309L393.796 36.7309M434.572 36.7309L440.037 32.7793M556.898 36.7309L553.651 40.8396M440.037 32.7793L400.041 32.7793M507.84 45.1152L503.441 49.5681M507.84 45.1152L550.272 45.1152M553.651 40.8396L552.819 41.8923L550.272 45.1152M550.272 45.1152L548.969 46.7635L547.646 48.4374L546.753 49.5681M460.129 49.5681L457.407 51.8643L454.627 54.2097M460.129 49.5681L503.441 49.5681M460.129 49.5681H416.817M503.441 49.5681L498.856 54.2097M503.441 49.5681L546.753 49.5681M546.753 49.5681L543.085 54.2097M454.627 54.2097L498.856 54.2097M454.627 54.2097L410.399 54.2097M494.073 59.052L498.856 54.2097M494.073 59.052L489.078 64.1081M494.073 59.052L539.258 59.052M498.856 54.2097L543.085 54.2097M410.399 54.2097H366.169M410.399 54.2097L416.817 49.5681M543.085 54.2097L539.258 59.052M416.817 49.5681L373.506 49.5681M489.078 64.1081L487.794 65.4073L483.857 69.3933M489.078 64.1081L535.262 64.1081M539.258 59.052L535.262 64.1081M535.262 64.1081L534.75 64.7561L533.197 66.7212L531.085 69.3933M436.628 69.3933L430.073 74.9228M436.628 69.3933H483.857M436.628 69.3933H389.4M483.857 69.3933L478.394 74.9228M483.857 69.3933L531.085 69.3933M531.085 69.3933L526.715 74.9228M430.073 74.9228H478.394M430.073 74.9228L381.752 74.9228M472.673 80.7142L476.281 77.0631L478.394 74.9228M472.673 80.7142L466.674 86.7864M472.673 80.7142L522.138 80.7142M478.394 74.9228L526.715 74.9228M381.752 74.9228H333.431M381.752 74.9228L389.4 69.3933M526.715 74.9228L522.138 80.7142M389.4 69.3933L342.171 69.3933M466.674 86.7864L460.378 93.1608M466.674 86.7864L517.34 86.7864M522.138 80.7142L517.34 86.7864M517.34 86.7864L512.302 93.1608M408.453 93.1608L400.512 99.8598M408.453 93.1608H460.378M408.453 93.1608L356.529 93.1608M460.378 93.1608L453.76 99.8598M460.378 93.1608L512.302 93.1608M512.302 93.1608L507.008 99.8598M400.512 99.8598H453.76M400.512 99.8598L347.264 99.8598M446.796 106.909L453.76 99.8598M446.796 106.909L439.458 114.338M446.796 106.909L501.437 106.909M453.76 99.8598L507.008 99.8598M347.264 99.8598H294.016M347.264 99.8598L356.529 93.1608M507.008 99.8598L501.437 106.909M356.529 93.1608H304.605M439.458 114.338L431.715 122.176M439.458 114.338H495.566M501.437 106.909L495.566 114.338M495.566 114.338L489.371 122.176M374.058 122.176L364.238 130.459M374.058 122.176L431.715 122.176M374.058 122.176H316.4M431.715 122.176L423.532 130.459M431.715 122.176H489.371M489.371 122.176L482.826 130.459M364.238 130.459H423.532M364.238 130.459L304.945 130.459M414.871 139.227L423.532 130.459M414.871 139.227L405.689 148.522M414.871 139.227H475.897M423.532 130.459H482.826M304.945 130.459H245.651M304.945 130.459L316.4 122.176M482.826 130.459L475.897 139.227M316.4 122.176L258.744 122.176M405.689 148.522L395.937 158.394M405.689 148.522H468.551M475.897 139.227L468.551 148.522M468.551 148.522L460.75 158.394M331.124 158.394L318.673 168.898M331.124 158.394H395.937M331.124 158.394L266.312 158.394M395.937 158.394L385.561 168.898M395.937 158.394H460.75M460.75 158.394L452.449 168.898M318.673 168.898L385.561 168.898M318.673 168.898H251.785M374.498 180.097L385.561 168.898M374.498 180.097L362.678 192.062M374.498 180.097H443.598M385.561 168.898H452.449M251.785 168.898H184.897M251.785 168.898L266.312 158.394M452.449 168.898L443.598 180.097M266.312 158.394H201.499M362.678 192.062L350.021 204.874M362.678 192.062H434.143M443.598 180.097L434.143 192.062M434.143 192.062L424.016 204.874M276.025 204.874L259.721 218.628M276.025 204.874L350.021 204.874M276.025 204.874H202.029M350.021 204.874L336.434 218.628M350.021 204.874H424.016M424.016 204.874L413.147 218.628M259.721 218.628L336.434 218.628M259.721 218.628H183.008M321.811 233.431L336.434 218.628M321.811 233.431L306.029 249.407M321.811 233.431L401.449 233.431M336.434 218.628H413.147M183.008 218.628H106.295M183.008 218.628L202.029 204.874M413.147 218.628L401.449 233.431M202.029 204.874H128.033M306.029 249.407L288.945 266.701M306.029 249.407L388.823 249.407M401.449 233.431L388.823 249.407M388.823 249.407L375.156 266.701M202.734 266.701L180.467 285.485M202.734 266.701L288.945 266.701M202.734 266.701H116.523M288.945 266.701L270.39 285.485M288.945 266.701H375.156M375.156 266.701L360.312 285.485M180.467 285.485L270.39 285.485M180.467 285.485H90.5454M250.165 305.958L270.39 285.485M250.165 305.958L228.035 328.36M250.165 305.958H344.132M270.39 285.485H360.312M90.5454 285.485H0.623236M90.5454 285.485L116.523 266.701M360.312 285.485L344.132 305.958M116.523 266.701H30.3121M228.035 328.36L203.718 352.976M228.035 328.36H326.428M344.132 305.958L326.428 328.36M326.428 328.36L306.974 352.976M100.461 352.976L68.2448 380.153M100.461 352.976H203.718M100.461 352.976H-2.79587M203.718 352.976L176.871 380.153M203.718 352.976L306.974 352.976M306.974 352.976L285.496 380.153M-20.6012 380.153L68.2448 380.153H176.871M176.871 380.153L285.496 380.153M-2.79587 352.976L-20.6012 365.851M-2.79587 352.976H-20.6012M348.502 18.3795L341.776 21.784M348.502 18.3795L385.652 18.3795M348.502 18.3795L311.352 18.3795M391.494 15.0938L397.136 11.921M391.494 15.0938L385.652 18.3795M391.494 15.0938L427.995 15.0938M397.136 11.921L433.009 11.921M397.136 11.921L402.587 8.85575M367.318 8.85575L402.587 8.85575M367.318 8.85575L369.537 7.73272L373.174 5.8919M367.318 8.85575L332.05 8.85575M385.652 18.3795L379.598 21.784M385.652 18.3795L422.801 18.3795M427.995 15.0938L433.009 11.921M427.995 15.0938L422.801 18.3795M433.009 11.921L436.659 9.61225L437.855 8.85575M402.587 8.85575L403.255 8.4794L407.857 5.8919M402.587 8.85575L437.855 8.85575M422.801 18.3795L417.421 21.784M473.123 8.85575L477.222 5.8919M473.123 8.85575L437.855 8.85575M437.855 8.85575L439.63 7.73272L442.539 5.8919M341.776 21.784L379.598 21.784M341.776 21.784L303.953 21.784M373.321 25.314L379.598 21.784M373.321 25.314L366.809 28.9766M373.321 25.314L411.841 25.314M379.598 21.784L417.421 21.784M303.953 21.784L266.131 21.784M303.953 21.784L311.352 18.3795M417.421 21.784L411.841 25.314M311.352 18.3795L274.203 18.3795M366.809 28.9766L365.142 29.9136L360.046 32.7793M366.809 28.9766L406.052 28.9766M411.841 25.314L406.052 28.9766M406.052 28.9766L400.041 32.7793M320.051 32.7793L319.093 33.2653L312.245 36.7309M320.051 32.7793L360.046 32.7793M320.051 32.7793L280.057 32.7793M360.046 32.7793L353.021 36.7309M360.046 32.7793H400.041M400.041 32.7793L399.274 33.2653L393.796 36.7309M312.245 36.7309H353.021M312.245 36.7309L271.47 36.7309M345.715 40.8396L353.021 36.7309M345.715 40.8396L338.112 45.1152M345.715 40.8396L387.302 40.8396M353.021 36.7309L393.796 36.7309M271.47 36.7309L230.694 36.7309M271.47 36.7309L280.057 32.7793M393.796 36.7309L387.302 40.8396M280.057 32.7793L240.062 32.7793M338.112 45.1152L330.194 49.5681M338.112 45.1152L380.544 45.1152M387.302 40.8396L380.544 45.1152M380.544 45.1152L373.506 49.5681M286.883 49.5681L277.712 54.2097M286.883 49.5681L330.194 49.5681M286.883 49.5681H243.571M330.194 49.5681L321.941 54.2097M330.194 49.5681L373.506 49.5681M373.506 49.5681L366.169 54.2097M277.712 54.2097L321.941 54.2097M277.712 54.2097L233.483 54.2097M313.331 59.052L321.941 54.2097M313.331 59.052L304.339 64.1081M313.331 59.052L358.516 59.052M321.941 54.2097L366.169 54.2097M233.483 54.2097H189.254M233.483 54.2097L243.571 49.5681M366.169 54.2097L358.516 59.052M243.571 49.5681L200.258 49.5681M304.339 64.1081L294.942 69.3933M304.339 64.1081H350.524M358.516 59.052L350.524 64.1081M350.524 64.1081L342.171 69.3933M247.713 69.3933L236.789 74.9228M247.713 69.3933L294.942 69.3933M247.713 69.3933H200.484M294.942 69.3933L285.11 74.9228M294.942 69.3933H342.171M342.171 69.3933L333.431 74.9228M236.789 74.9228L285.11 74.9228M236.789 74.9228H188.467M274.812 80.7142L285.11 74.9228M274.812 80.7142L264.014 86.7864M274.812 80.7142H324.277M285.11 74.9228H333.431M188.467 74.9228L140.146 74.9228M188.467 74.9228L200.484 69.3933M333.431 74.9228L324.277 80.7142M200.484 69.3933H153.256M264.014 86.7864L252.68 93.1608M264.014 86.7864L314.679 86.7864M324.277 80.7142L314.679 86.7864M314.679 86.7864L304.605 93.1608M200.755 93.1608L187.52 99.8598M200.755 93.1608H252.68M200.755 93.1608L148.831 93.1608M252.68 93.1608L240.768 99.8598M252.68 93.1608L304.605 93.1608M304.605 93.1608L294.016 99.8598M187.52 99.8598H240.768M187.52 99.8598L134.272 99.8598M228.232 106.909L240.768 99.8598M228.232 106.909L215.024 114.338M228.232 106.909L282.873 106.909M240.768 99.8598L294.016 99.8598M134.272 99.8598H81.024M134.272 99.8598L148.831 93.1608M294.016 99.8598L282.873 106.909M148.831 93.1608H96.9068M215.024 114.338L201.086 122.176M215.024 114.338L271.132 114.338M282.873 106.909L271.132 114.338M271.132 114.338L258.744 122.176M143.429 122.176L127.064 130.459M143.429 122.176L201.086 122.176M143.429 122.176H85.7723M201.086 122.176L186.358 130.459M201.086 122.176H258.744M258.744 122.176L245.651 130.459M127.064 130.459H186.358M127.064 130.459L67.7703 130.459M170.768 139.227L186.358 130.459M170.768 139.227L154.24 148.522M170.768 139.227H231.793M186.358 130.459H245.651M67.7703 130.459H8.4767M67.7703 130.459L85.7723 122.176M245.651 130.459L231.793 139.227M85.7723 122.176L28.115 122.176M154.24 148.522L136.686 158.394M154.24 148.522H217.103M231.793 139.227L217.103 148.522M217.103 148.522L201.499 158.394M71.8737 158.394L51.1214 168.898M71.8737 158.394L136.686 158.394M71.8737 158.394H7.06107M136.686 158.394L118.009 168.898M136.686 158.394H201.499M201.499 158.394L184.897 168.898M51.1214 168.898L118.009 168.898M51.1214 168.898H-15.7664M98.0956 180.097L118.009 168.898M98.0956 180.097L76.8203 192.062M98.0956 180.097H167.196M118.009 168.898H184.897M-15.7664 168.898L7.06107 158.394M-15.7664 168.898H-20.6012M-15.7664 168.898L-20.6012 171.122M184.897 168.898L167.196 180.097M7.06107 158.394H-20.6012M76.8203 192.062L54.0376 204.874M76.8203 192.062L148.284 192.062M167.196 180.097L148.284 192.062M148.284 192.062L128.033 204.874M-19.9585 204.874H54.0376M-19.9585 204.874H-20.6012M-19.9585 204.874L-20.6012 205.199M54.0376 204.874L29.5807 218.628M54.0376 204.874L128.033 204.874M128.033 204.874L106.295 218.628M3.26009 233.431L29.5807 218.628M3.26009 233.431H82.8979M3.26009 233.431H-20.6012M3.26009 233.431L-20.6012 246.85M29.5807 218.628L106.295 218.628M29.5807 218.628H-20.6012M106.295 218.628L82.8979 233.431M82.8979 233.431L57.6472 249.407M57.6472 249.407L30.3121 266.701M57.6472 249.407H-20.6012M30.3121 266.701L0.623236 285.485M30.3121 266.701H-20.6012M0.623236 285.485H-20.6012M0.623236 285.485L-20.6012 298.913M199.903 18.3795L190.486 21.784M199.903 18.3795L237.053 18.3795M199.903 18.3795L162.753 18.3795M245.491 15.0938L253.64 11.921M245.491 15.0938L237.053 18.3795M245.491 15.0938L281.992 15.0938M253.64 11.921L289.514 11.921M253.64 11.921L261.514 8.85575M226.246 8.85575L261.514 8.85575M226.246 8.85575L234.443 5.8919M226.246 8.85575L190.978 8.85575M237.053 18.3795L228.309 21.784M237.053 18.3795L274.203 18.3795M281.992 15.0938L289.514 11.921M281.992 15.0938L274.203 18.3795M289.514 11.921L296.782 8.85575M261.514 8.85575L262.479 8.4794L269.126 5.8919M261.514 8.85575L296.782 8.85575M274.203 18.3795L266.131 21.784M332.05 8.85575L338.491 5.8919M332.05 8.85575L296.782 8.85575M296.782 8.85575L297.673 8.4794L303.808 5.8919M190.486 21.784L228.309 21.784M190.486 21.784L152.664 21.784M219.242 25.314L228.309 21.784M219.242 25.314L209.835 28.9766M219.242 25.314L257.762 25.314M228.309 21.784L266.131 21.784M152.664 21.784L114.842 21.784M152.664 21.784L162.753 18.3795M266.131 21.784L257.762 25.314M162.753 18.3795L125.604 18.3795M209.835 28.9766L200.067 32.7793M209.835 28.9766L249.078 28.9766M257.762 25.314L256.694 25.764L249.078 28.9766M249.078 28.9766L240.062 32.7793M160.072 32.7793L149.143 36.7309M160.072 32.7793L200.067 32.7793M160.072 32.7793L120.078 32.7793M200.067 32.7793L189.919 36.7309M200.067 32.7793H240.062M240.062 32.7793L230.694 36.7309M149.143 36.7309L189.919 36.7309M149.143 36.7309L108.368 36.7309M179.366 40.8396L189.919 36.7309M179.366 40.8396L168.384 45.1152M179.366 40.8396L220.953 40.8396M189.919 36.7309H230.694M108.368 36.7309H67.5921M108.368 36.7309L120.078 32.7793M230.694 36.7309L220.953 40.8396M120.078 32.7793H80.0828M168.384 45.1152L156.947 49.5681M168.384 45.1152L210.816 45.1152M220.953 40.8396L210.816 45.1152M210.816 45.1152L200.258 49.5681M113.635 49.5681L100.797 54.2097M113.635 49.5681L156.947 49.5681M113.635 49.5681H70.3231M156.947 49.5681L145.026 54.2097M156.947 49.5681L200.258 49.5681M200.258 49.5681L189.254 54.2097M100.797 54.2097L145.026 54.2097M100.797 54.2097L56.5679 54.2097M132.588 59.052L145.026 54.2097M132.588 59.052L119.602 64.1081M132.588 59.052H177.774M145.026 54.2097L189.254 54.2097M56.5679 54.2097H12.3394M56.5679 54.2097L70.3231 49.5681M189.254 54.2097L177.774 59.052M70.3231 49.5681L27.0118 49.5681M119.602 64.1081L106.027 69.3933M119.602 64.1081L165.786 64.1081M177.774 59.052L165.786 64.1081M165.786 64.1081L153.256 69.3933M58.7982 69.3933L43.5041 74.9228M58.7982 69.3933H106.027M58.7982 69.3933L11.5703 69.3933M106.027 69.3933L91.8252 74.9228M106.027 69.3933L153.256 69.3933M153.256 69.3933L140.146 74.9228M43.5041 74.9228H91.8252M76.9499 80.7142L91.8252 74.9228M76.9499 80.7142L61.3541 86.7864M76.9499 80.7142H126.416M91.8252 74.9228H140.146M140.146 74.9228L126.416 80.7142M11.5703 69.3933H-20.6012M61.3541 86.7864L44.9822 93.1608M61.3541 86.7864H112.019M126.416 80.7142L112.019 86.7864M112.019 86.7864L96.9068 93.1608M-6.94246 93.1608L44.9822 93.1608M-6.94246 93.1608H-20.6012M-6.94246 93.1608L-20.6012 98.0987M44.9822 93.1608L27.7755 99.8598M44.9822 93.1608H96.9068M96.9068 93.1608L81.024 99.8598M9.66937 106.909L27.7755 99.8598M9.66937 106.909L-9.40959 114.338M9.66937 106.909L64.3103 106.909M9.66937 106.909H-20.6012M27.7755 99.8598L81.024 99.8598M27.7755 99.8598H-20.6012M81.024 99.8598L64.3103 106.909M-20.7516 98.1531L-20.6012 98.0987M-9.40959 114.338L46.6987 114.338M-9.40959 114.338H-20.6012M-9.40959 114.338L-20.6012 118.695M64.3103 106.909L46.6987 114.338M46.6987 114.338L28.115 122.176M28.115 122.176L8.4767 130.459M28.115 122.176H-20.6012M-12.3095 139.227L8.4767 130.459M-12.3095 139.227H-20.6012M-12.3095 139.227L-20.6012 142.724M8.4767 130.459H-20.6012M51.3043 18.3795L39.197 21.784M51.3043 18.3795L88.4539 18.3795M51.3043 18.3795L14.1539 18.3795M99.4889 15.0938L110.145 11.921M99.4889 15.0938L88.4539 18.3795M99.4889 15.0938L135.99 15.0938M110.145 11.921L146.019 11.921M110.145 11.921L120.441 8.85575M85.1729 8.85575L120.441 8.85575M85.1729 8.85575L95.7126 5.8919M85.1729 8.85575L49.9049 8.85575M88.4539 18.3795L77.0193 21.784M88.4539 18.3795L125.604 18.3795M135.99 15.0938L146.019 11.921M135.99 15.0938L125.604 18.3795M146.019 11.921L155.709 8.85575M120.441 8.85575L155.709 8.85575M120.441 8.85575L130.396 5.8919M125.604 18.3795L114.842 21.784M190.978 8.85575L199.761 5.8919M190.978 8.85575L155.709 8.85575M155.709 8.85575L165.078 5.8919M39.197 21.784L77.0193 21.784M39.197 21.784L1.37464 21.784M65.1628 25.314L77.0193 21.784M65.1628 25.314L52.8611 28.9766M65.1628 25.314L103.683 25.314M77.0193 21.784L114.842 21.784M1.37464 21.784L14.1539 18.3795M1.37464 21.784L-20.6012 21.784M114.842 21.784L103.683 25.314M14.1539 18.3795L-20.6012 18.3795M52.8611 28.9766L40.088 32.7793M52.8611 28.9766L92.1045 28.9766M103.683 25.314L92.1045 28.9766M92.1045 28.9766L80.0828 32.7793M0.0932496 32.7793L-13.9589 36.7309M0.0932496 32.7793L40.088 32.7793M0.0932496 32.7793H-20.6012M40.088 32.7793L26.8166 36.7309M40.088 32.7793L80.0828 32.7793M80.0828 32.7793L67.5921 36.7309M13.0167 40.8396L26.8166 36.7309M13.0167 40.8396L-1.34398 45.1152M13.0167 40.8396H54.6038M13.0167 40.8396L-20.6012 40.8396M26.8166 36.7309L-13.9589 36.7309M26.8166 36.7309L67.5921 36.7309M-13.9589 36.7309L-20.6012 38.5984M-13.9589 36.7309H-20.6012M67.5921 36.7309L54.6038 40.8396M-1.34398 45.1152L-16.3003 49.5681M-1.34398 45.1152L41.0878 45.1152M-1.34398 45.1152H-20.6012M54.6038 40.8396L41.0878 45.1152M41.0878 45.1152L27.0118 49.5681M-16.3003 49.5681L27.0118 49.5681M-16.3003 49.5681L-20.6012 50.8484M-16.3003 49.5681H-20.6012M27.0118 49.5681L12.3394 54.2097M-2.9679 59.052L12.3394 54.2097M-2.9679 59.052L-18.9518 64.1081M-2.9679 59.052H-20.6012M12.3394 54.2097L-20.6012 54.2097M-20.8326 54.2097H-20.6012M-18.9518 64.1081H-20.6012M-18.9518 64.1081L-20.6012 64.6299M-21 64.7561L-20.6012 64.6299M-10.0129 15.0938L2.52335 11.921M-10.0129 15.0938L-20.6012 15.0938M-10.0129 15.0938L-20.6012 17.7732M2.52335 11.921L14.6368 8.85575M2.52335 11.921L-20.6012 11.921M49.9049 8.85575L61.0301 5.8919M49.9049 8.85575L14.6368 8.85575M14.6368 8.85575L26.3476 5.8919M14.6368 8.85575L-20.6012 8.85575M1205.56 5.8919L1240.24 5.8919M1205.56 5.8919L1170.87 5.8919M1231.74 3.02513L1233.84 3.73309L1240.24 5.8919M1231.74 3.02513L1265.86 3.02513M1240.24 5.8919L1274.92 5.8919M1265.86 3.02513L1268.1 3.73309L1269.22 4.08872L1274.92 5.8919M1274.92 5.8919L1309.6 5.8919M1309.6 5.8919L1344.29 5.8919M1170.87 5.8919L1136.19 5.8919M1344.29 5.8919L1378.97 5.8919M1378.97 5.8919L1368.21 3.02513M1378.97 5.8919L1413.65 5.8919M1368.21 3.02513L1402.32 3.02513M1066.83 5.8919L1101.51 5.8919M1066.83 5.8919L1032.14 5.8919M1095.28 3.02513L1096.82 3.73309L1097.59 4.08872L1101.51 5.8919M1095.28 3.02513L1129.39 3.02513M1101.51 5.8919L1136.19 5.8919M1129.39 3.02513L1136.19 5.8919M1032.14 5.8919L997.461 5.8919M928.096 5.8919L962.778 5.8919M928.096 5.8919L893.413 5.8919M958.813 3.02513L959.302 3.37802L959.792 3.73309L960.285 4.08872L962.778 5.8919M958.813 3.02513L992.929 3.02513M962.778 5.8919L997.461 5.8919M992.929 3.02513L997.461 5.8919M893.413 5.8919L858.73 5.8919M789.365 5.8919L824.048 5.8919M789.365 5.8919L754.683 5.8919M822.349 3.02513L824.048 5.8919M822.349 3.02513L856.465 3.02513M824.048 5.8919L858.73 5.8919M856.465 3.02513L856.744 3.37802L857.024 3.73309L857.306 4.08872L858.73 5.8919M754.683 5.8919L720 5.8919M650.635 5.8919L685.318 5.8919M650.635 5.8919L615.953 5.8919M685.884 3.02513L685.318 5.8919M685.884 3.02513L720 3.02513M685.318 5.8919L720 5.8919M720 3.02513L720 5.8919M615.953 5.8919L581.269 5.8919M511.904 5.8919L546.587 5.8919M511.904 5.8919L477.222 5.8919M549.419 3.02513L548.72 3.73309L547.303 5.16594L546.587 5.8919M549.419 3.02513L583.535 3.02513M546.587 5.8919L581.269 5.8919M583.535 3.02513L583.256 3.37802L582.976 3.73309L582.694 4.08872L581.269 5.8919M477.222 5.8919L442.539 5.8919M373.174 5.8919L407.857 5.8919M373.174 5.8919L338.491 5.8919M412.954 3.02513L411.695 3.73309L411.062 4.08872L407.857 5.8919M412.954 3.02513L447.071 3.02513M407.857 5.8919L442.539 5.8919M447.071 3.02513L446.512 3.37802L442.539 5.8919M338.491 5.8919L303.808 5.8919M234.443 5.8919L269.126 5.8919M234.443 5.8919L199.761 5.8919M276.489 3.02513L274.671 3.73309L273.756 4.08872L269.126 5.8919M276.489 3.02513L310.606 3.02513M269.126 5.8919L303.808 5.8919M310.606 3.02513L309.768 3.37802L303.808 5.8919M199.761 5.8919L165.078 5.8919M95.7126 5.8919L130.396 5.8919M95.7126 5.8919L61.0301 5.8919M140.024 3.02513L130.396 5.8919M140.024 3.02513L174.141 3.02513M130.396 5.8919L165.078 5.8919M174.141 3.02513L171.903 3.73309L170.777 4.08872L165.078 5.8919M61.0301 5.8919L26.3476 5.8919M3.56019 3.02513L-8.33495 5.8919M3.56019 3.02513L37.6764 3.02513M3.56019 3.02513L-20.6012 3.02513M-8.33495 5.8919L26.3476 5.8919M-8.33495 5.8919L-20.6012 8.84849M-8.33495 5.8919L-20.6012 5.8919M37.6764 3.02513L34.8791 3.73309L26.3476 5.8919M1402.32 3.02513L1405.12 3.73309L1413.65 5.8919M1413.65 5.8919L1448.33 5.8919M1448.33 5.8919L1460.6 8.84851M1448.33 5.8919L1460.6 5.8919M1460.6 142.724L1460.6 139.227M1460.6 142.724L1460.6 148.522M1460.6 139.227L1460.6 130.459M1460.6 148.522L1460.6 150.254L1460.6 158.394M1460.6 158.394L1460.6 168.898M1460.6 74.9228L1460.6 69.3933M1460.6 74.9228L1460.6 80.2487M1460.6 3.02513L1460.6 5.8919M1460.6 5.8919L1460.6 8.84851M1460.6 8.84851L1460.63 8.85575H1460.6M1460.6 8.84851L1460.6 8.85575M1460.6 8.85575L1460.6 11.921M1460.6 11.921L1460.6 15.0938M1460.6 15.0938L1460.6 17.7732M1460.6 17.7732L1460.6 18.3795M1460.6 18.3795L1460.6 21.784M1460.6 21.784L1460.6 25.314M1460.6 25.314L1460.6 27.6376M1460.6 27.6376L1460.6 28.9766M1460.6 28.9766L1460.6 32.7793M1460.6 32.7793L1460.6 36.7309M1460.6 36.7309L1460.6 38.5984M1460.6 38.5984L1460.6 40.8396M1460.6 40.8396L1460.6 45.1152M1460.6 45.1152L1460.6 49.5681M1460.6 49.5681L1460.6 50.8484M1460.6 50.8484L1460.6 54.2097M1460.6 54.2097L1460.6 59.052M1460.6 59.052L1460.6 64.1081M1460.6 64.1081L1460.6 64.6299M1460.6 64.6299L1460.6 69.3933M1460.6 80.7142L1460.6 86.7864M1460.6 80.7142L1460.6 80.2487M1460.6 86.7864L1460.6 93.1608M1460.6 93.1608L1460.6 98.0988M1460.6 98.0988L1460.6 99.8598M1460.6 99.8598L1460.6 106.909M1460.6 106.909L1460.6 114.338M1460.6 114.338L1460.6 118.695M1460.6 118.695L1460.6 122.176M1460.6 122.176L1460.6 130.459M1460.6 168.898L1460.6 171.122M1460.6 171.122L1460.6 180.097M1460.6 180.097L1460.6 192.062M1460.6 192.062L1460.6 204.874M1460.6 204.874L1460.6 205.199M1460.6 205.199L1460.6 218.628M1460.6 218.628L1460.6 233.431M1460.6 233.431L1460.6 246.85M1460.6 246.85L1460.6 249.407M1460.6 249.407L1460.6 266.701M1460.6 266.701L1460.6 285.485M1460.6 285.485L1460.6 298.913M1460.6 298.913L1460.6 305.958M1460.6 305.958L1460.6 328.36M1460.6 328.36L1460.6 352.976M1460.6 352.976L1460.6 365.851M1460.6 365.851L1460.6 380.153M1460.6 380.153L1460.6 380.25L-20.6012 380.25L-20.6012 380.153M-20.6012 80.7142L-20.6012 86.7864M-20.6012 80.7142L-20.6012 80.2487M-20.6012 80.2487L-20.6012 74.9228M-20.6012 74.9228L-20.6012 69.3933M-20.6012 69.3933L-20.6012 64.6299M-20.6012 64.6299L-20.6012 64.1081M-20.6012 64.1081L-20.6012 59.052M-20.6012 59.052L-20.6012 54.2097M-20.6012 54.2097L-20.6012 50.8484M-20.6012 50.8484L-20.6012 49.5681M-20.6012 49.5681L-20.6012 45.1152M-20.6012 45.1152L-20.6012 40.8396M-20.6012 40.8396L-20.6012 38.5984M-20.6012 38.5984L-20.6012 36.7309M-20.6012 36.7309L-20.6012 32.7793M-20.6012 32.7793L-20.6012 28.9766M-20.6012 28.9766L-20.6012 27.6376M-20.6012 27.6376L-20.6012 25.314M-20.6012 25.314L-20.6012 21.784M-20.6012 21.784L-20.6012 18.3795M-20.6012 18.3795L-20.6012 17.7732M-20.6012 17.7732L-20.6012 15.0938M-20.6012 15.0938L-20.6012 11.921M-20.6012 11.921L-20.6012 8.85575M-20.6012 8.85575H-20.6312L-20.6012 8.84849M-20.6012 8.85575L-20.6012 8.84849M-20.6012 8.84849L-20.6012 5.8919M-20.6012 5.8919L-20.6012 3.02513M-20.6012 380.153L-20.6012 365.851M-20.6012 365.851L-20.6012 352.976M-20.6012 352.976L-20.6012 328.36M-20.6012 328.36L-20.6012 305.958M-20.6012 305.958L-20.6012 298.913M-20.6012 298.913L-20.6012 285.485M-20.6012 285.485L-20.6012 266.701M-20.6012 266.701L-20.6012 249.407M-20.6012 249.407L-20.6012 246.85M-20.6012 246.85L-20.6012 233.431M-20.6012 233.431L-20.6012 218.628M-20.6012 218.628L-20.6012 205.199M-20.6012 205.199L-20.6012 204.874M-20.6012 204.874L-20.6012 192.062M-20.6012 192.062L-20.6012 180.097M-20.6012 180.097L-20.6012 171.122M-20.6012 171.122L-20.6012 168.898M-20.6012 168.898L-20.6012 158.394M-20.6012 158.394L-20.6012 148.522M-20.6012 148.522L-20.6012 142.724M-20.6012 142.724L-20.6012 139.227M-20.6012 139.227L-20.6012 130.459M-20.6012 130.459L-20.6012 122.176M-20.6012 122.176L-20.6012 118.695M-20.6012 118.695L-20.6012 114.338M-20.6012 114.338L-20.6012 106.909M-20.6012 106.909L-20.6012 99.8598M-20.6012 99.8598L-20.6012 98.0987M-20.6012 98.0987L-20.6012 93.1608M-20.6012 93.1608L-20.6012 86.7864" stroke="url(#paint0_radial_1_5)" stroke-opacity="0.4" stroke-width="0.5" stroke-miterlimit="10" stroke-linecap="round" stroke-linejoin="round"/>
<defs>
<radialGradient id="paint0_radial_1_5" cx="0" cy="0" r="1" gradientUnits="userSpaceOnUse" gradientTransform="translate(725.082 180.598) rotate(90) scale(206.257 642.228)">
<stop stop-color="#5D606A"/>
<stop offset="1" stop-color="#CED2DF" stop-opacity="0"/>
</radialGradient>
</defs>
</svg>
