<svg width="517" height="703" viewBox="0 0 517 703" fill="none" xmlns="http://www.w3.org/2000/svg">
<g clip-path="url(#clip0_1_628)">
<path d="M0 24C0 10.7452 10.7452 0 24 0H493C506.255 0 517 10.7452 517 24V679C517 692.255 506.255 703 493 703H24C10.7452 703 0 692.255 0 679V24Z" fill="url(#paint0_linear_1_628)"/>
<g opacity="0.3">
<g filter="url(#filter0_f_1_628)">
<ellipse cx="83.7987" cy="94.1897" rx="83.7987" ry="94.1897" transform="matrix(0.990569 -0.146709 0.107901 0.9931 574.5 -216.402)" fill="white"/>
</g>
<g filter="url(#filter1_f_1_628)">
<ellipse cx="83.7987" cy="94.1897" rx="83.7987" ry="94.1897" transform="matrix(0.990569 -0.146709 0.107901 0.9931 574.51 -216.412)" fill="white"/>
</g>
<g filter="url(#filter2_f_1_628)">
<ellipse cx="95.0956" cy="294.235" rx="95.0956" ry="294.235" transform="matrix(0.600835 0.798808 -0.92126 0.391553 542.135 -192.534)" fill="#CFD0DA"/>
</g>
<g filter="url(#filter3_f_1_628)">
<ellipse cx="56.8312" cy="220.024" rx="56.8312" ry="220.024" transform="matrix(0.334366 0.94158 -0.969588 0.250295 545.191 -70.3052)" fill="#FFBF90"/>
</g>
</g>
<mask id="mask0_1_628" style="mask-type:alpha" maskUnits="userSpaceOnUse" x="221" y="103" width="1128" height="167">
<rect x="221.38" y="103.38" width="40.9909" height="40.9909" stroke="#130F26" stroke-width="0.759091"/>
<rect x="263.13" y="103.38" width="40.9909" height="40.9909" stroke="#130F26" stroke-width="0.759091"/>
<rect x="304.88" y="103.38" width="40.9909" height="40.9909" stroke="#130F26" stroke-width="0.759091"/>
<rect x="346.63" y="103.38" width="40.9909" height="40.9909" stroke="#130F26" stroke-width="0.759091"/>
<rect x="388.38" y="103.38" width="40.9909" height="40.9909" stroke="#130F26" stroke-width="0.759091"/>
<rect x="430.13" y="103.38" width="40.9909" height="40.9909" stroke="#130F26" stroke-width="0.759091"/>
<rect x="471.88" y="103.38" width="40.9909" height="40.9909" stroke="#130F26" stroke-width="0.759091"/>
<rect x="513.63" y="103.38" width="40.9909" height="40.9909" stroke="#130F26" stroke-width="0.759091"/>
<rect x="221.38" y="145.13" width="40.9909" height="40.9909" stroke="#130F26" stroke-width="0.759091"/>
<rect x="263.13" y="145.13" width="40.9909" height="40.9909" stroke="#130F26" stroke-width="0.759091"/>
<rect x="304.88" y="145.13" width="40.9909" height="40.9909" stroke="#130F26" stroke-width="0.759091"/>
<rect x="346.63" y="145.13" width="40.9909" height="40.9909" stroke="#130F26" stroke-width="0.759091"/>
<rect x="388.38" y="145.13" width="40.9909" height="40.9909" stroke="#130F26" stroke-width="0.759091"/>
<rect x="430.13" y="145.13" width="40.9909" height="40.9909" stroke="#130F26" stroke-width="0.759091"/>
<rect x="471.88" y="145.13" width="40.9909" height="40.9909" stroke="#130F26" stroke-width="0.759091"/>
<rect x="513.63" y="145.13" width="40.9909" height="40.9909" stroke="#130F26" stroke-width="0.759091"/>
<rect x="221.38" y="186.88" width="40.9909" height="40.9909" stroke="#130F26" stroke-width="0.759091"/>
<rect x="263.13" y="186.88" width="40.9909" height="40.9909" stroke="#130F26" stroke-width="0.759091"/>
<rect x="304.88" y="186.88" width="40.9909" height="40.9909" stroke="#130F26" stroke-width="0.759091"/>
<rect x="346.63" y="186.88" width="40.9909" height="40.9909" stroke="#130F26" stroke-width="0.759091"/>
<rect x="388.38" y="186.88" width="40.9909" height="40.9909" stroke="#130F26" stroke-width="0.759091"/>
<rect x="430.13" y="186.88" width="40.9909" height="40.9909" stroke="#130F26" stroke-width="0.759091"/>
<rect x="471.88" y="186.88" width="40.9909" height="40.9909" stroke="#130F26" stroke-width="0.759091"/>
<rect x="513.63" y="186.88" width="40.9909" height="40.9909" stroke="#130F26" stroke-width="0.759091"/>
<rect x="221.38" y="228.63" width="40.9909" height="40.9909" stroke="#130F26" stroke-width="0.759091"/>
<rect x="263.13" y="228.63" width="40.9909" height="40.9909" stroke="#130F26" stroke-width="0.759091"/>
<rect x="304.88" y="228.63" width="40.9909" height="40.9909" stroke="#130F26" stroke-width="0.759091"/>
<rect x="346.63" y="228.63" width="40.9909" height="40.9909" stroke="#130F26" stroke-width="0.759091"/>
<rect x="388.38" y="228.63" width="40.9909" height="40.9909" stroke="#130F26" stroke-width="0.759091"/>
<rect x="430.13" y="228.63" width="40.9909" height="40.9909" stroke="#130F26" stroke-width="0.759091"/>
<rect x="471.88" y="228.63" width="40.9909" height="40.9909" stroke="#130F26" stroke-width="0.759091"/>
<rect x="513.63" y="228.63" width="40.9909" height="40.9909" stroke="#130F26" stroke-width="0.759091"/>
</mask>
<g mask="url(#mask0_1_628)">
<g opacity="0.25" filter="url(#filter4_f_1_628)">
<ellipse cx="26.9123" cy="69.1674" rx="26.9123" ry="69.1674" transform="matrix(0.27366 0.961827 -0.240173 0.97073 451.681 48.6626)" fill="#FF9659"/>
</g>
<g opacity="0.03" filter="url(#filter5_f_1_628)">
<ellipse cx="202.811" cy="190.761" rx="202.811" ry="190.761" transform="matrix(0.27366 0.961827 -0.240173 0.97073 262.531 -109.551)" fill="#FF9659"/>
</g>
<path opacity="0.5" d="M431.845 145.509C431.845 145.299 431.675 145.13 431.465 145.13C431.256 145.13 431.086 145.299 431.086 145.509L431.465 145.509L431.845 145.509ZM431.465 186.5L431.845 186.5L431.845 145.509L431.465 145.509L431.086 145.509L431.086 186.5L431.465 186.5Z" fill="url(#paint1_linear_1_628)"/>
<path opacity="0.28" d="M253.851 270C253.851 270.21 254.021 270.38 254.231 270.38C254.441 270.38 254.611 270.21 254.611 270H254.231H253.851ZM254.231 186.5H253.851V270H254.231H254.611V186.5H254.231Z" fill="url(#paint2_linear_1_628)"/>
</g>
<rect opacity="0.6" x="388" y="144.75" width="41.75" height="41.75" fill="url(#paint3_linear_1_628)" fill-opacity="0.23"/>
<rect opacity="0.6" x="471.5" y="186.5" width="41.75" height="41.75" fill="url(#paint4_linear_1_628)" fill-opacity="0.23"/>
<g filter="url(#filter6_f_1_628)" style="mix-blend-mode:plus-lighter">
<path d="M479 638.151C479 656.068 365.844 731 264.5 731C163.156 731 37 656.068 37 638.151C37 620.234 163.156 666.116 264.5 666.116C365.844 666.116 479 620.234 479 638.151Z" fill="#FFCBA1"/>
</g>
</g>
<path d="M24 0.5H493C505.979 0.5 516.5 11.0213 516.5 24V679C516.5 691.979 505.979 702.5 493 702.5H24C11.0213 702.5 0.5 691.979 0.5 679V24C0.5 11.0213 11.0213 0.5 24 0.5Z" stroke="url(#paint5_linear_1_628)"/>
<defs>
<filter id="filter0_f_1_628" x="370.674" y="-442.872" width="593.995" height="615.431" filterUnits="userSpaceOnUse" color-interpolation-filters="sRGB">
<feFlood flood-opacity="0" result="BackgroundImageFix"/>
<feBlend mode="normal" in="SourceGraphic" in2="BackgroundImageFix" result="shape"/>
<feGaussianBlur stdDeviation="106.68" result="effect1_foregroundBlur_1_628"/>
</filter>
<filter id="filter1_f_1_628" x="192.003" y="-621.562" width="951.357" height="972.793" filterUnits="userSpaceOnUse" color-interpolation-filters="sRGB">
<feFlood flood-opacity="0" result="BackgroundImageFix"/>
<feBlend mode="normal" in="SourceGraphic" in2="BackgroundImageFix" result="shape"/>
<feGaussianBlur stdDeviation="196.021" result="effect1_foregroundBlur_1_628"/>
</filter>
<filter id="filter2_f_1_628" x="-162.236" y="-352.736" width="980.881" height="702.747" filterUnits="userSpaceOnUse" color-interpolation-filters="sRGB">
<feFlood flood-opacity="0" result="BackgroundImageFix"/>
<feBlend mode="normal" in="SourceGraphic" in2="BackgroundImageFix" result="shape"/>
<feGaussianBlur stdDeviation="106.68" result="effect1_foregroundBlur_1_628"/>
</filter>
<filter id="filter3_f_1_628" x="-76.6906" y="-251.871" width="855.103" height="580.296" filterUnits="userSpaceOnUse" color-interpolation-filters="sRGB">
<feFlood flood-opacity="0" result="BackgroundImageFix"/>
<feBlend mode="normal" in="SourceGraphic" in2="BackgroundImageFix" result="shape"/>
<feGaussianBlur stdDeviation="106.68" result="effect1_foregroundBlur_1_628"/>
</filter>
<filter id="filter4_f_1_628" x="234.485" y="-120.061" width="415.897" height="523.503" filterUnits="userSpaceOnUse" color-interpolation-filters="sRGB">
<feFlood flood-opacity="0" result="BackgroundImageFix"/>
<feBlend mode="normal" in="SourceGraphic" in2="BackgroundImageFix" result="shape"/>
<feGaussianBlur stdDeviation="94.8864" result="effect1_foregroundBlur_1_628"/>
</filter>
<filter id="filter5_f_1_628" x="10.4734" y="-188.044" width="523.486" height="917.478" filterUnits="userSpaceOnUse" color-interpolation-filters="sRGB">
<feFlood flood-opacity="0" result="BackgroundImageFix"/>
<feBlend mode="normal" in="SourceGraphic" in2="BackgroundImageFix" result="shape"/>
<feGaussianBlur stdDeviation="94.8864" result="effect1_foregroundBlur_1_628"/>
</filter>
<filter id="filter6_f_1_628" x="-24.6" y="572.4" width="565.2" height="220.2" filterUnits="userSpaceOnUse" color-interpolation-filters="sRGB">
<feFlood flood-opacity="0" result="BackgroundImageFix"/>
<feBlend mode="normal" in="SourceGraphic" in2="BackgroundImageFix" result="shape"/>
<feGaussianBlur stdDeviation="30.8" result="effect1_foregroundBlur_1_628"/>
</filter>
<linearGradient id="paint0_linear_1_628" x1="258.5" y1="-0.00823828" x2="258.5" y2="904.05" gradientUnits="userSpaceOnUse">
<stop stop-color="#1A0C06"/>
<stop offset="1" stop-color="#FF6565"/>
</linearGradient>
<linearGradient id="paint1_linear_1_628" x1="432.465" y1="145.509" x2="432.465" y2="186.5" gradientUnits="userSpaceOnUse">
<stop stop-color="#FFA86B"/>
<stop offset="1" stop-color="#FF9A6B" stop-opacity="0"/>
</linearGradient>
<linearGradient id="paint2_linear_1_628" x1="253.231" y1="270" x2="253.231" y2="186.5" gradientUnits="userSpaceOnUse">
<stop stop-color="#FFA66B" stop-opacity="0"/>
<stop offset="0.5" stop-color="#FFB06B"/>
<stop offset="1" stop-color="#FF956B" stop-opacity="0"/>
</linearGradient>
<linearGradient id="paint3_linear_1_628" x1="408.875" y1="144.75" x2="370.92" y2="203.2" gradientUnits="userSpaceOnUse">
<stop stop-color="#B27F56"/>
<stop offset="1" stop-color="#4C3025" stop-opacity="0"/>
</linearGradient>
<linearGradient id="paint4_linear_1_628" x1="492.375" y1="186.5" x2="486.302" y2="229.768" gradientUnits="userSpaceOnUse">
<stop stop-color="#B27056"/>
<stop offset="1" stop-color="#4C3225" stop-opacity="0"/>
</linearGradient>
<linearGradient id="paint5_linear_1_628" x1="258.5" y1="0" x2="258.5" y2="703" gradientUnits="userSpaceOnUse">
<stop stop-color="#7DB8FF" stop-opacity="0.1"/>
<stop offset="1" stop-color="#7DB8FF" stop-opacity="0"/>
</linearGradient>
<clipPath id="clip0_1_628">
<path d="M0 24C0 10.7452 10.7452 0 24 0H493C506.255 0 517 10.7452 517 24V679C517 692.255 506.255 703 493 703H24C10.7452 703 0 692.255 0 679V24Z" fill="white"/>
</clipPath>
</defs>
</svg>
