<svg width="204" height="188" viewBox="0 0 204 188" fill="none" xmlns="http://www.w3.org/2000/svg">
<rect width="203.248" height="187.629" rx="17.8325" fill="#282828"/>
<rect x="0.139316" y="0.139316" width="202.969" height="187.35" rx="17.6932" stroke="white" stroke-opacity="0.1" stroke-width="0.278632"/>
<path d="M15.9691 22.3744V19.5747L13.5528 15.9547H14.6941L16.7359 19.1467H16.2455L18.2874 15.9547H19.3306L16.9143 19.5747V22.3744H15.9691ZM21.0595 22.4636C20.5959 22.4636 20.1887 22.3625 19.838 22.1604C19.4873 21.9524 19.2139 21.67 19.0177 21.3134C18.8216 20.9508 18.7235 20.5406 18.7235 20.0829C18.7235 19.6193 18.8216 19.2121 19.0177 18.8614C19.2198 18.5107 19.4933 18.2373 19.838 18.0411C20.1887 17.839 20.5959 17.7379 21.0595 17.7379C21.5291 17.7379 21.9393 17.839 22.29 18.0411C22.6407 18.2373 22.9111 18.5107 23.1014 18.8614C23.2975 19.2121 23.3956 19.6193 23.3956 20.0829C23.3956 20.5406 23.2975 20.9508 23.1014 21.3134C22.9111 21.67 22.6407 21.9524 22.29 22.1604C21.9393 22.3625 21.5291 22.4636 21.0595 22.4636ZM21.0595 21.7057C21.3389 21.7057 21.5797 21.6373 21.7818 21.5006C21.9898 21.3639 22.1533 21.1737 22.2721 20.93C22.391 20.6862 22.4505 20.4009 22.4505 20.074C22.4505 19.5866 22.3197 19.2032 22.0582 18.9238C21.8026 18.6385 21.4697 18.4958 21.0595 18.4958C20.6553 18.4958 20.3225 18.6385 20.0609 18.9238C19.8053 19.2091 19.6775 19.5925 19.6775 20.074C19.6775 20.4009 19.734 20.6862 19.8469 20.93C19.9658 21.1737 20.1293 21.3639 20.3373 21.5006C20.5513 21.6373 20.7921 21.7057 21.0595 21.7057ZM25.6498 22.4636C25.3466 22.4636 25.0792 22.4011 24.8473 22.2763C24.6155 22.1455 24.4342 21.9672 24.3034 21.7413C24.1786 21.5155 24.1162 21.2569 24.1162 20.9656V17.8271H25.0435V20.7516C25.0435 21.0667 25.1208 21.3015 25.2753 21.456C25.4299 21.6106 25.6498 21.6878 25.9351 21.6878C26.1907 21.6878 26.4166 21.6284 26.6128 21.5095C26.8149 21.3906 26.9724 21.2272 27.0853 21.0191C27.2042 20.8051 27.2636 20.5584 27.2636 20.2791L27.3796 21.3669C27.2309 21.6997 27.0021 21.9672 26.693 22.1693C26.3898 22.3655 26.0421 22.4636 25.6498 22.4636ZM27.2993 22.3744V21.3044H27.2636V17.8271H28.182V22.3744H27.2993ZM29.3028 22.3744V17.8271H30.1855V18.9595H30.2301V22.3744H29.3028ZM30.2301 20.0027L30.1142 18.9238C30.2212 18.5374 30.4055 18.2432 30.667 18.0411C30.9285 17.839 31.2406 17.7379 31.6032 17.7379C31.7399 17.7379 31.835 17.7498 31.8885 17.7736V18.6474C31.8588 18.6355 31.8172 18.6296 31.7637 18.6296C31.7102 18.6236 31.6448 18.6207 31.5675 18.6207C31.1217 18.6207 30.7859 18.7366 30.56 18.9684C30.3401 19.2002 30.2301 19.545 30.2301 20.0027ZM34.8227 22.3744V21.6433H36.7396C37.1022 21.6433 37.3846 21.5452 37.5867 21.349C37.7947 21.1529 37.8988 20.8854 37.8988 20.5466C37.8988 20.1899 37.7888 19.9046 37.5689 19.6906C37.3549 19.4766 37.0606 19.3696 36.6861 19.3696H34.8227V18.6563H36.597C36.9596 18.6563 37.239 18.5701 37.4351 18.3977C37.6372 18.2194 37.7383 17.9668 37.7383 17.6399C37.7383 17.3308 37.6432 17.096 37.4529 16.9355C37.2687 16.769 36.9952 16.6858 36.6327 16.6858H34.8227V15.9547H36.7753C37.3578 15.9547 37.8215 16.0974 38.1662 16.3827C38.511 16.6621 38.6834 17.0455 38.6834 17.5329C38.6834 17.842 38.6121 18.1154 38.4694 18.3532C38.3327 18.585 38.1425 18.7663 37.8988 18.8971C37.655 19.0219 37.3786 19.0843 37.0695 19.0843L37.1141 18.8971C37.447 18.8971 37.7442 18.9743 38.0058 19.1289C38.2673 19.2775 38.4753 19.4826 38.6299 19.7441C38.7844 20.0056 38.8617 20.3088 38.8617 20.6536C38.8617 20.9924 38.7785 21.2926 38.6121 21.5541C38.4516 21.8156 38.2227 22.0177 37.9255 22.1604C37.6283 22.3031 37.2835 22.3744 36.8912 22.3744H34.8227ZM34.1272 22.3744V15.9547H35.0723V22.3744H34.1272ZM42.4259 22.3744C42.3962 22.2615 42.3754 22.1366 42.3635 21.9999C42.3575 21.8632 42.3546 21.6968 42.3546 21.5006H42.31V19.334C42.31 19.0427 42.2357 18.8257 42.0871 18.6831C41.9444 18.5345 41.7156 18.4602 41.4005 18.4602C41.0974 18.4602 40.8537 18.5196 40.6694 18.6385C40.4911 18.7574 40.3871 18.9268 40.3573 19.1467H39.4746C39.5162 18.7187 39.7094 18.3769 40.0542 18.1213C40.3989 17.8657 40.8596 17.7379 41.4362 17.7379C42.0306 17.7379 42.4764 17.8776 42.7736 18.157C43.0708 18.4304 43.2195 18.8346 43.2195 19.3696V21.5006C43.2195 21.6373 43.2284 21.777 43.2462 21.9197C43.264 22.0623 43.2908 22.2139 43.3264 22.3744H42.4259ZM40.8566 22.4636C40.393 22.4636 40.0245 22.3506 39.751 22.1247C39.4776 21.8929 39.3409 21.5808 39.3409 21.1885C39.3409 20.7843 39.4835 20.4663 39.7689 20.2345C40.0601 19.9967 40.4762 19.8362 41.0171 19.753L42.5151 19.5123V20.1632L41.1598 20.3772C40.8566 20.4247 40.6278 20.505 40.4733 20.6179C40.3246 20.7308 40.2503 20.8943 40.2503 21.1083C40.2503 21.3163 40.3187 21.4738 40.4554 21.5808C40.5981 21.6819 40.8032 21.7324 41.0706 21.7324C41.4273 21.7324 41.7215 21.6462 41.9533 21.4738C42.1911 21.3015 42.31 21.0845 42.31 20.823L42.4259 21.4828C42.3189 21.7978 42.1287 22.0415 41.8553 22.2139C41.5818 22.3803 41.249 22.4636 40.8566 22.4636ZM44.2974 22.3744V15.9547H45.2247V22.3744H44.2974ZM49.1657 22.3744C49.136 22.2615 49.1152 22.1366 49.1033 21.9999C49.0973 21.8632 49.0943 21.6968 49.0943 21.5006H49.0498V19.334C49.0498 19.0427 48.9755 18.8257 48.8269 18.6831C48.6842 18.5345 48.4554 18.4602 48.1403 18.4602C47.8372 18.4602 47.5934 18.5196 47.4092 18.6385C47.2309 18.7574 47.1268 18.9268 47.0971 19.1467H46.2144C46.256 18.7187 46.4492 18.3769 46.794 18.1213C47.1387 17.8657 47.5994 17.7379 48.176 17.7379C48.7704 17.7379 49.2162 17.8776 49.5134 18.157C49.8106 18.4304 49.9592 18.8346 49.9592 19.3696V21.5006C49.9592 21.6373 49.9681 21.777 49.986 21.9197C50.0038 22.0623 50.0306 22.2139 50.0662 22.3744H49.1657ZM47.5964 22.4636C47.1328 22.4636 46.7642 22.3506 46.4908 22.1247C46.2174 21.8929 46.0807 21.5808 46.0807 21.1885C46.0807 20.7843 46.2233 20.4663 46.5086 20.2345C46.7999 19.9967 47.216 19.8362 47.7569 19.753L49.2548 19.5123V20.1632L47.8996 20.3772C47.5964 20.4247 47.3676 20.505 47.213 20.6179C47.0644 20.7308 46.9901 20.8943 46.9901 21.1083C46.9901 21.3163 47.0585 21.4738 47.1952 21.5808C47.3378 21.6819 47.5429 21.7324 47.8104 21.7324C48.1671 21.7324 48.4613 21.6462 48.6931 21.4738C48.9309 21.3015 49.0498 21.0845 49.0498 20.823L49.1657 21.4828C49.0587 21.7978 48.8685 22.0415 48.595 22.2139C48.3216 22.3803 47.9887 22.4636 47.5964 22.4636ZM51.0372 22.3744V17.8271H51.9199V18.8971H51.9645V22.3744H51.0372ZM54.2649 22.3744V19.4499C54.2649 19.1348 54.1846 18.9 54.0241 18.7455C53.8696 18.5909 53.6377 18.5137 53.3287 18.5137C53.0612 18.5137 52.8234 18.5731 52.6154 18.692C52.4133 18.8109 52.2528 18.9743 52.1339 19.1824C52.0209 19.3904 51.9645 19.6371 51.9645 19.9224L51.8486 18.8346C51.9972 18.4958 52.226 18.2283 52.5351 18.0322C52.8442 17.836 53.2038 17.7379 53.614 17.7379C54.1014 17.7379 54.4848 17.8747 54.7642 18.1481C55.0435 18.4215 55.1832 18.7841 55.1832 19.2359V22.3744H54.2649ZM58.1563 22.4636C57.7224 22.4636 57.336 22.3625 56.9972 22.1604C56.6584 21.9524 56.3909 21.67 56.1947 21.3134C56.0045 20.9567 55.9094 20.5495 55.9094 20.0918C55.9094 19.6341 56.0045 19.2299 56.1947 18.8792C56.3909 18.5226 56.6584 18.2432 56.9972 18.0411C57.336 17.839 57.7194 17.7379 58.1474 17.7379C58.51 17.7379 58.8339 17.8063 59.1193 17.943C59.4046 18.0797 59.6394 18.2699 59.8236 18.5137C60.0079 18.7574 60.1268 19.0457 60.1803 19.3785H59.3065C59.2471 19.111 59.1163 18.8971 58.9142 18.7366C58.718 18.5761 58.4684 18.4958 58.1652 18.4958C57.9037 18.4958 57.6748 18.5612 57.4787 18.692C57.2825 18.8228 57.1309 19.007 57.0239 19.2448C56.917 19.4826 56.8635 19.7649 56.8635 20.0918C56.8635 20.4128 56.917 20.6952 57.0239 20.9389C57.1309 21.1826 57.2825 21.3728 57.4787 21.5095C57.6748 21.6403 57.9067 21.7057 58.1741 21.7057C58.4654 21.7057 58.7121 21.6284 58.9142 21.4738C59.1222 21.3134 59.256 21.0994 59.3154 20.8319H60.1892C60.1298 21.1588 60.0049 21.4441 59.8147 21.6878C59.6305 21.9315 59.3957 22.1218 59.1103 22.2585C58.825 22.3952 58.507 22.4636 58.1563 22.4636ZM62.8731 22.4636C62.4154 22.4636 62.0112 22.3625 61.6605 22.1604C61.3158 21.9583 61.0453 21.6789 60.8491 21.3223C60.653 20.9656 60.5549 20.5555 60.5549 20.0918C60.5549 19.6222 60.65 19.2121 60.8402 18.8614C61.0364 18.5047 61.3098 18.2283 61.6605 18.0322C62.0112 17.836 62.4125 17.7379 62.8642 17.7379C63.3041 17.7379 63.6845 17.8331 64.0055 18.0233C64.3324 18.2075 64.5821 18.4661 64.7545 18.799C64.9328 19.1319 65.0219 19.5271 65.0219 19.9848C65.0219 20.0562 65.019 20.1245 65.013 20.1899C65.013 20.2494 65.0071 20.3118 64.9952 20.3772H61.179V19.6817H64.3443L64.1125 19.9581C64.1125 19.4707 64.0025 19.0992 63.7826 18.8436C63.5627 18.588 63.2565 18.4602 62.8642 18.4602C62.4422 18.4602 62.1063 18.6058 61.8567 18.8971C61.613 19.1824 61.4911 19.5806 61.4911 20.0918C61.4911 20.609 61.613 21.0132 61.8567 21.3044C62.1063 21.5957 62.4511 21.7413 62.891 21.7413C63.1585 21.7413 63.3903 21.6878 63.5864 21.5808C63.7826 21.4679 63.9282 21.3044 64.0233 21.0905H64.8971C64.7485 21.5184 64.4959 21.8543 64.1392 22.098C63.7885 22.3417 63.3665 22.4636 62.8731 22.4636Z" fill="#606165"/>
<path d="M20.7839 34.9863V31.402H23.0575V34.9863H20.7839ZM23.0575 53.0684V56.519H20.7839V53.0684H23.0575ZM22.3353 53.8441C20.0171 53.8441 18.1625 53.2913 16.7716 52.1857C15.3807 51.0801 14.5693 49.5019 14.3375 47.4512H17.0926C17.2531 48.7886 17.788 49.8051 18.6975 50.5005C19.607 51.196 20.8374 51.5437 22.3888 51.5437C23.6906 51.5437 24.6714 51.303 25.3312 50.8215C26.0088 50.3401 26.3476 49.6535 26.3476 48.7619C26.3476 47.9594 26.1247 47.3264 25.6789 46.8627C25.2331 46.3812 24.5287 45.9889 23.5658 45.6858L20.2222 44.6158C18.5103 44.063 17.2531 43.3676 16.4506 42.5294C15.6482 41.6913 15.2469 40.6303 15.2469 39.3463C15.2469 38.2586 15.5144 37.3223 16.0494 36.5377C16.6022 35.7531 17.369 35.1468 18.3498 34.7188C19.3484 34.273 20.5075 34.0501 21.8271 34.0501C23.86 34.0501 25.4828 34.5672 26.6954 35.6015C27.9258 36.618 28.6302 38.0356 28.8085 39.8546H26.0534C25.8394 38.6419 25.3758 37.7592 24.6625 37.2064C23.9492 36.6358 22.9684 36.3505 21.7201 36.3505C20.5432 36.3505 19.6248 36.5823 18.965 37.0459C18.3052 37.5096 17.9753 38.1605 17.9753 38.9986C17.9753 39.6762 18.1893 40.2469 18.6173 40.7105C19.0631 41.1563 19.7942 41.5397 20.8107 41.8607L24.3147 42.9842C25.9375 43.5013 27.1323 44.2057 27.8991 45.0973C28.6837 45.9889 29.076 47.1124 29.076 48.4676C29.076 50.1796 28.4875 51.5081 27.3106 52.4532C26.1336 53.3805 24.4752 53.8441 22.3353 53.8441ZM34.804 53.6034V36.9924L35.3122 37.2064C35.0804 37.7057 34.6792 38.1961 34.1085 38.6776C33.5379 39.1591 32.8781 39.5782 32.1291 39.9348C31.3802 40.2736 30.5866 40.5144 29.7485 40.657V37.9287C30.5331 37.8038 31.2999 37.572 32.0489 37.2332C32.7978 36.8765 33.4666 36.4486 34.055 35.9492C34.6435 35.4321 35.0804 34.8971 35.3657 34.3443H37.5591V53.6034H34.804ZM46.3295 53.8709C44.3858 53.8709 42.8255 53.3627 41.6485 52.3462C40.4716 51.3119 39.7494 49.9477 39.4819 48.2537H42.3975C42.6115 49.2879 43.0662 50.0993 43.7617 50.6878C44.4571 51.2584 45.2863 51.5437 46.2493 51.5437C47.2836 51.5437 48.1485 51.2138 48.8439 50.554C49.5572 49.8764 49.9139 48.8243 49.9139 47.3977C49.9139 45.9889 49.5661 44.9279 48.8707 44.2146C48.1752 43.4835 47.2836 43.1179 46.1958 43.1179C45.4647 43.1179 44.8138 43.2784 44.2431 43.5994C43.6725 43.9025 43.2624 44.3038 43.0127 44.8031H40.4448L41.381 34.3443H51.8398V36.6715H42.7185L43.9489 36.0562L43.3872 43.2249L42.6115 43.0377C42.9681 42.4313 43.4942 41.941 44.1896 41.5665C44.9029 41.1742 45.7767 40.978 46.811 40.978C48.0058 40.978 49.0668 41.2366 49.9941 41.7537C50.9214 42.2709 51.6436 43.0109 52.1608 43.9739C52.6779 44.9368 52.9365 46.0781 52.9365 47.3977C52.9365 48.753 52.6601 49.9121 52.1073 50.875C51.5723 51.838 50.8055 52.578 49.8069 53.0952C48.8261 53.6123 47.667 53.8709 46.3295 53.8709ZM54.0087 57.6692V56.2783C54.6329 56.0643 55.0608 55.7344 55.2927 55.2886C55.5423 54.8606 55.6671 54.2364 55.6671 53.4162L56.7638 53.6034H53.982V50.3133H57.2721V52.8009C57.2721 54.0314 57.0135 55.0657 56.4964 55.9038C55.997 56.7419 55.1678 57.3304 54.0087 57.6692ZM67.1693 53.6034V48.5211L67.2763 47.9862V36.9924L68.2927 37.2867L60.2681 48.1467L59.1714 47.1035H72.3853V49.4306H57.6735V47.2639L67.2763 34.3443H70.0849V53.6034H67.1693ZM80.2339 53.8709C78.9143 53.8709 77.7463 53.6301 76.7299 53.1487C75.7312 52.6672 74.9199 51.9717 74.2957 51.0623C73.6894 50.135 73.3149 49.0115 73.1723 47.6919H76.0879C76.2662 48.958 76.7031 49.921 77.3986 50.5808C78.0941 51.2228 79.0213 51.5437 80.1805 51.5437C81.2504 51.5437 82.1064 51.2495 82.7483 50.661C83.3903 50.0726 83.7113 49.2612 83.7113 48.2269C83.7113 47.1748 83.3992 46.3188 82.7751 45.659C82.1509 44.9992 81.2593 44.6693 80.1002 44.6693H77.9336V42.3957H80.02C81.0542 42.3957 81.8567 42.1193 82.4273 41.5665C82.998 41.0137 83.2833 40.2825 83.2833 39.3731C83.2833 38.4458 83.0069 37.7236 82.4541 37.2064C81.9013 36.6715 81.1077 36.404 80.0735 36.404C79.1105 36.404 78.2813 36.6893 77.5858 37.2599C76.9082 37.8306 76.498 38.6598 76.3554 39.7476H73.4398C73.5646 38.5885 73.9123 37.5898 74.483 36.7517C75.0714 35.8957 75.8472 35.2359 76.8101 34.7723C77.7909 34.3087 78.9054 34.0768 80.1537 34.0768C81.3841 34.0768 82.4541 34.2819 83.3635 34.6921C84.2908 35.1022 85.0041 35.6907 85.5034 36.4575C86.0206 37.2243 86.2792 38.1248 86.2792 39.1591C86.2792 40.0507 86.0741 40.8443 85.6639 41.5397C85.2538 42.2352 84.7099 42.7791 84.0323 43.1714C83.3725 43.5459 82.6324 43.7331 81.8121 43.7331L81.7051 43.1714C82.7394 43.1714 83.631 43.4032 84.38 43.8669C85.1468 44.3127 85.7353 44.9279 86.1454 45.7125C86.5556 46.4793 86.7606 47.362 86.7606 48.3606C86.7606 49.4663 86.4753 50.4381 85.9047 51.2763C85.3519 52.0965 84.5851 52.7385 83.6043 53.2022C82.6235 53.648 81.5001 53.8709 80.2339 53.8709ZM90.8647 53.6034C91.1143 50.5719 91.8365 47.5939 93.0313 44.6693C94.2261 41.7448 95.9202 38.8559 98.1136 36.0027L98.1938 36.6715H87.2536V34.3443H100.655V36.404C99.2994 38.3655 98.1582 40.2915 97.2309 42.1817C96.3036 44.0541 95.5725 45.9265 95.0375 47.7989C94.5203 49.6713 94.1815 51.6062 94.021 53.6034H90.8647Z" fill="white"/>
<rect x="13.3745" y="125.918" width="19.4823" height="32.3214" rx="4.45812" fill="white" fill-opacity="0.1"/>
<path d="M18.7731 171.325C18.0969 171.325 17.556 171.163 17.1503 170.841C16.7446 170.518 16.508 170.058 16.4404 169.46H17.2439C17.2908 169.85 17.4468 170.147 17.712 170.349C17.9773 170.552 18.3362 170.654 18.7887 170.654C19.1684 170.654 19.4544 170.583 19.6469 170.443C19.8445 170.303 19.9433 170.102 19.9433 169.842C19.9433 169.608 19.8783 169.424 19.7483 169.288C19.6183 169.148 19.4128 169.034 19.132 168.945L18.1567 168.633C17.6574 168.472 17.2908 168.269 17.0567 168.024C16.8227 167.78 16.7056 167.471 16.7056 167.096C16.7056 166.779 16.7836 166.506 16.9397 166.277C17.1009 166.048 17.3246 165.871 17.6106 165.746C17.9019 165.616 18.24 165.551 18.6248 165.551C19.2178 165.551 19.6911 165.702 20.0448 166.004C20.4036 166.3 20.6091 166.714 20.6611 167.244H19.8575C19.7951 166.891 19.6599 166.633 19.4518 166.472C19.2438 166.306 18.9577 166.222 18.5936 166.222C18.2504 166.222 17.9825 166.29 17.7901 166.425C17.5976 166.56 17.5014 166.75 17.5014 166.995C17.5014 167.192 17.5638 167.359 17.6886 167.494C17.8187 167.624 18.0319 167.736 18.3284 167.829L19.3504 168.157C19.8237 168.308 20.1722 168.513 20.3958 168.773C20.6247 169.034 20.7391 169.361 20.7391 169.756C20.7391 170.256 20.5675 170.643 20.2242 170.919C19.8809 171.189 19.3972 171.325 18.7731 171.325ZM22.7137 171.332C22.4484 171.332 22.2144 171.278 22.0115 171.169C21.8087 171.054 21.65 170.898 21.5356 170.7C21.4264 170.503 21.3718 170.277 21.3718 170.022V167.276H22.1832V169.834C22.1832 170.11 22.2508 170.316 22.386 170.451C22.5212 170.586 22.7137 170.654 22.9633 170.654C23.187 170.654 23.3846 170.602 23.5563 170.498C23.7331 170.394 23.8709 170.251 23.9697 170.069C24.0738 169.881 24.1258 169.665 24.1258 169.421L24.2272 170.373C24.0972 170.664 23.8969 170.898 23.6265 171.075C23.3612 171.247 23.0569 171.332 22.7137 171.332ZM24.157 171.254V170.318H24.1258V167.276H24.9294V171.254H24.157ZM25.9101 171.254V167.276H26.6824V168.212H26.7214V171.254H25.9101ZM28.7343 171.254V168.695C28.7343 168.42 28.6641 168.214 28.5236 168.079C28.3884 167.944 28.1856 167.876 27.9151 167.876C27.681 167.876 27.473 167.928 27.291 168.032C27.1141 168.136 26.9737 168.279 26.8697 168.461C26.7708 168.643 26.7214 168.859 26.7214 169.109L26.62 168.157C26.75 167.861 26.9503 167.627 27.2207 167.455C27.4912 167.283 27.8059 167.198 28.1648 167.198C28.5912 167.198 28.9267 167.317 29.1712 167.556C29.4156 167.796 29.5379 168.113 29.5379 168.508V171.254H28.7343Z" fill="white"/>
<rect x="39.5439" y="79.1077" width="19.4823" height="79.1316" rx="4.45812" fill="url(#paint0_linear_1_198)"/>
<path d="M41.8282 171.255V165.637H43.1077L44.9801 171.052H44.5588L46.4156 165.637H47.7107V171.255H46.8915V165.973H47.0163L45.2063 171.255H44.2857L42.4757 166.02H42.6006V171.255H41.8282ZM50.4362 171.333C50.0305 171.333 49.6742 171.244 49.3673 171.067C49.0605 170.885 48.8212 170.638 48.6496 170.326C48.4779 170.009 48.3921 169.65 48.3921 169.25C48.3921 168.844 48.4779 168.488 48.6496 168.181C48.8264 167.874 49.0657 167.635 49.3673 167.463C49.6742 167.286 50.0305 167.198 50.4362 167.198C50.8471 167.198 51.2059 167.286 51.5128 167.463C51.8197 167.635 52.0563 167.874 52.2228 168.181C52.3944 168.488 52.4802 168.844 52.4802 169.25C52.4802 169.65 52.3944 170.009 52.2228 170.326C52.0563 170.638 51.8197 170.885 51.5128 171.067C51.2059 171.244 50.8471 171.333 50.4362 171.333ZM50.4362 170.67C50.6806 170.67 50.8913 170.61 51.0681 170.49C51.2501 170.37 51.3932 170.204 51.4972 169.991C51.6012 169.778 51.6532 169.528 51.6532 169.242C51.6532 168.815 51.5388 168.48 51.31 168.235C51.0863 167.986 50.795 167.861 50.4362 167.861C50.0825 167.861 49.7912 167.986 49.5624 168.235C49.3387 168.485 49.2269 168.821 49.2269 169.242C49.2269 169.528 49.2763 169.778 49.3751 169.991C49.4792 170.204 49.6222 170.37 49.8042 170.49C49.9915 170.61 50.2021 170.67 50.4362 170.67ZM53.1576 171.255V167.276H53.9299V168.212H53.9689V171.255H53.1576ZM55.9818 171.255V168.696C55.9818 168.42 55.9116 168.215 55.7711 168.079C55.6359 167.944 55.4331 167.876 55.1626 167.876C54.9285 167.876 54.7205 167.929 54.5385 168.033C54.3616 168.137 54.2212 168.28 54.1172 168.462C54.0183 168.644 53.9689 168.86 53.9689 169.109L53.8675 168.157C53.9975 167.861 54.1978 167.627 54.4682 167.455C54.7387 167.284 55.0534 167.198 55.4123 167.198C55.8387 167.198 56.1742 167.317 56.4187 167.557C56.6631 167.796 56.7854 168.113 56.7854 168.508V171.255H55.9818Z" fill="white"/>
<rect x="65.7134" y="103.627" width="19.4823" height="54.6119" rx="4.45812" fill="white" fill-opacity="0.1"/>
<path d="M71.0286 171.255V166.316H69.1328V165.637H73.7514V166.316H71.8556V171.255H71.0286ZM74.9878 171.333C74.7225 171.333 74.4885 171.278 74.2856 171.169C74.0828 171.054 73.9241 170.898 73.8097 170.701C73.7005 170.503 73.6459 170.277 73.6459 170.022V167.276H74.4573V169.835C74.4573 170.11 74.5249 170.316 74.6601 170.451C74.7953 170.586 74.9878 170.654 75.2374 170.654C75.4611 170.654 75.6587 170.602 75.8304 170.498C76.0072 170.394 76.145 170.251 76.2439 170.069C76.3479 169.882 76.3999 169.666 76.3999 169.421L76.5013 170.373C76.3713 170.664 76.171 170.898 75.9006 171.075C75.6353 171.247 75.3311 171.333 74.9878 171.333ZM76.4311 171.255V170.318H76.3999V167.276H77.2035V171.255H76.4311ZM79.8853 171.333C79.4848 171.333 79.1311 171.244 78.8243 171.067C78.5226 170.891 78.2859 170.646 78.1143 170.334C77.9427 170.022 77.8569 169.663 77.8569 169.257C77.8569 168.847 77.9401 168.488 78.1065 168.181C78.2781 167.869 78.5174 167.627 78.8243 167.455C79.1311 167.284 79.4822 167.198 79.8775 167.198C80.2624 167.198 80.5953 167.281 80.8761 167.447C81.1622 167.609 81.3806 167.835 81.5315 168.126C81.6875 168.417 81.7655 168.763 81.7655 169.164C81.7655 169.226 81.7629 169.286 81.7577 169.343C81.7577 169.395 81.7525 169.45 81.7421 169.507H78.403V168.899H81.1726L80.9697 169.14C80.9697 168.714 80.8735 168.389 80.6811 168.165C80.4886 167.942 80.2208 167.83 79.8775 167.83C79.5082 167.83 79.2144 167.957 78.9959 168.212C78.7827 168.462 78.676 168.81 78.676 169.257C78.676 169.71 78.7827 170.064 78.9959 170.318C79.2144 170.573 79.516 170.701 79.9009 170.701C80.135 170.701 80.3378 170.654 80.5094 170.56C80.6811 170.461 80.8085 170.318 80.8917 170.131H81.6563C81.5263 170.506 81.3052 170.8 80.9931 171.013C80.6863 171.226 80.317 171.333 79.8853 171.333Z" fill="white"/>
<rect x="91.8828" y="95.8257" width="19.4823" height="62.4137" rx="4.45812" fill="white" fill-opacity="0.1"/>
<path d="M95.1333 171.255L93.5027 165.638H94.3453L95.773 170.81H95.5702L96.9277 165.638H97.9029L99.2682 170.81H99.0654L100.493 165.638H101.289L99.6583 171.255H98.6909L97.3178 166.223H97.4816L96.1007 171.255H95.1333ZM103.304 171.333C102.904 171.333 102.55 171.244 102.243 171.068C101.941 170.891 101.705 170.646 101.533 170.334C101.362 170.022 101.276 169.663 101.276 169.258C101.276 168.847 101.359 168.488 101.525 168.181C101.697 167.869 101.936 167.627 102.243 167.455C102.55 167.284 102.901 167.198 103.296 167.198C103.681 167.198 104.014 167.281 104.295 167.448C104.581 167.609 104.8 167.835 104.95 168.126C105.106 168.418 105.184 168.763 105.184 169.164C105.184 169.226 105.182 169.286 105.177 169.343C105.177 169.395 105.171 169.45 105.161 169.507H101.822V168.899H104.591L104.389 169.14C104.389 168.714 104.292 168.389 104.1 168.165C103.908 167.942 103.64 167.83 103.296 167.83C102.927 167.83 102.633 167.957 102.415 168.212C102.202 168.462 102.095 168.81 102.095 169.258C102.095 169.71 102.202 170.064 102.415 170.319C102.633 170.573 102.935 170.701 103.32 170.701C103.554 170.701 103.757 170.654 103.928 170.56C104.1 170.462 104.227 170.319 104.311 170.131H105.075C104.945 170.506 104.724 170.8 104.412 171.013C104.105 171.226 103.736 171.333 103.304 171.333ZM108.752 171.255V170.342L108.83 170.365C108.747 170.662 108.575 170.898 108.315 171.075C108.055 171.247 107.743 171.333 107.379 171.333C107.02 171.333 106.706 171.247 106.435 171.075C106.17 170.904 105.962 170.664 105.811 170.358C105.665 170.051 105.593 169.692 105.593 169.281C105.593 168.865 105.668 168.501 105.819 168.189C105.97 167.877 106.18 167.635 106.451 167.463C106.721 167.291 107.038 167.206 107.403 167.206C107.782 167.206 108.094 167.297 108.339 167.479C108.588 167.656 108.752 167.905 108.83 168.228L108.721 168.243V165.638H109.525V171.255H108.752ZM107.582 170.654C107.941 170.654 108.224 170.532 108.432 170.287C108.64 170.038 108.744 169.694 108.744 169.258C108.744 168.831 108.638 168.496 108.425 168.251C108.216 168.001 107.933 167.877 107.574 167.877C107.22 167.877 106.94 168.001 106.732 168.251C106.529 168.496 106.427 168.839 106.427 169.281C106.427 169.713 106.529 170.051 106.732 170.295C106.94 170.534 107.223 170.654 107.582 170.654Z" fill="white"/>
<rect x="118.053" y="108.085" width="19.4823" height="50.1538" rx="4.45812" fill="white" fill-opacity="0.1"/>
<path d="M122.869 171.255V166.316H120.973V165.637H125.592V166.316H123.696V171.255H122.869ZM126.257 171.255V165.637H127.068V171.255H126.257ZM129.081 171.255V168.696C129.081 168.42 129.011 168.215 128.87 168.079C128.735 167.944 128.532 167.876 128.262 167.876C128.028 167.876 127.82 167.929 127.638 168.033C127.461 168.137 127.32 168.28 127.216 168.462C127.118 168.644 127.068 168.86 127.068 169.109L126.967 168.157C127.097 167.861 127.297 167.627 127.567 167.455C127.838 167.284 128.153 167.198 128.512 167.198C128.938 167.198 129.273 167.317 129.518 167.557C129.762 167.796 129.885 168.113 129.885 168.508V171.255H129.081ZM132.081 171.333C131.816 171.333 131.582 171.278 131.379 171.169C131.176 171.054 131.018 170.898 130.903 170.701C130.794 170.503 130.74 170.277 130.74 170.022V167.276H131.551V169.835C131.551 170.11 131.619 170.316 131.754 170.451C131.889 170.586 132.081 170.654 132.331 170.654C132.555 170.654 132.752 170.602 132.924 170.498C133.101 170.394 133.239 170.251 133.338 170.069C133.442 169.882 133.494 169.666 133.494 169.421L133.595 170.373C133.465 170.664 133.265 170.898 132.994 171.075C132.729 171.247 132.425 171.333 132.081 171.333ZM133.525 171.255V170.318H133.494V167.276H134.297V171.255H133.525Z" fill="white"/>
<rect x="144.222" y="68.5197" width="19.4823" height="89.7196" rx="4.45812" fill="url(#paint1_linear_1_198)"/>
<path d="M149.931 171.255V165.637H150.758V171.255H149.931ZM150.336 168.922V168.243H153.426V168.922H150.336ZM150.336 166.316V165.637H153.636V166.316H150.336ZM154.43 171.255V167.276H155.202V168.267H155.241V171.255H154.43ZM155.241 169.179L155.139 168.235C155.233 167.897 155.394 167.64 155.623 167.463C155.852 167.286 156.125 167.198 156.442 167.198C156.562 167.198 156.645 167.208 156.692 167.229V167.994C156.666 167.983 156.63 167.978 156.583 167.978C156.536 167.973 156.479 167.97 156.411 167.97C156.021 167.97 155.727 168.072 155.53 168.274C155.337 168.477 155.241 168.779 155.241 169.179ZM157.192 171.255V167.276H158.003V171.255H157.192ZM157.152 166.496V165.583H158.05V166.496H157.152Z" fill="white"/>
<rect x="170.392" y="114.773" width="19.4823" height="43.4667" rx="4.45812" fill="white" fill-opacity="0.1"/>
<path d="M176.899 171.325C176.223 171.325 175.682 171.164 175.276 170.841C174.87 170.519 174.634 170.058 174.566 169.46H175.37C175.416 169.85 175.572 170.147 175.838 170.35C176.103 170.552 176.462 170.654 176.914 170.654C177.294 170.654 177.58 170.584 177.773 170.443C177.97 170.303 178.069 170.103 178.069 169.843C178.069 169.608 178.004 169.424 177.874 169.289C177.744 169.148 177.538 169.034 177.258 168.945L176.282 168.633C175.783 168.472 175.416 168.269 175.182 168.025C174.948 167.78 174.831 167.471 174.831 167.096C174.831 166.779 174.909 166.506 175.065 166.277C175.227 166.048 175.45 165.871 175.736 165.747C176.028 165.617 176.366 165.552 176.75 165.552C177.343 165.552 177.817 165.702 178.17 166.004C178.529 166.301 178.735 166.714 178.787 167.245H177.983C177.921 166.891 177.786 166.633 177.577 166.472C177.369 166.306 177.083 166.223 176.719 166.223C176.376 166.223 176.108 166.29 175.916 166.425C175.723 166.561 175.627 166.75 175.627 166.995C175.627 167.193 175.689 167.359 175.814 167.494C175.944 167.624 176.158 167.736 176.454 167.83L177.476 168.157C177.949 168.308 178.298 168.514 178.521 168.774C178.75 169.034 178.865 169.361 178.865 169.757C178.865 170.256 178.693 170.644 178.35 170.919C178.007 171.19 177.523 171.325 176.899 171.325ZM182.017 171.255C181.991 171.156 181.973 171.047 181.963 170.927C181.957 170.807 181.955 170.662 181.955 170.49H181.916V168.594C181.916 168.339 181.851 168.15 181.721 168.025C181.596 167.895 181.396 167.83 181.12 167.83C180.855 167.83 180.641 167.882 180.48 167.986C180.324 168.09 180.233 168.238 180.207 168.43H179.435C179.471 168.056 179.64 167.757 179.942 167.533C180.244 167.31 180.647 167.198 181.151 167.198C181.671 167.198 182.061 167.32 182.321 167.564C182.582 167.804 182.712 168.157 182.712 168.625V170.49C182.712 170.61 182.719 170.732 182.735 170.857C182.751 170.982 182.774 171.114 182.805 171.255H182.017ZM180.644 171.333C180.238 171.333 179.916 171.234 179.677 171.036C179.437 170.833 179.318 170.56 179.318 170.217C179.318 169.863 179.443 169.585 179.692 169.382C179.947 169.174 180.311 169.034 180.785 168.961L182.095 168.75V169.32L180.909 169.507C180.644 169.549 180.444 169.619 180.309 169.718C180.179 169.817 180.114 169.96 180.114 170.147C180.114 170.329 180.173 170.467 180.293 170.56C180.418 170.649 180.597 170.693 180.831 170.693C181.143 170.693 181.401 170.617 181.604 170.467C181.812 170.316 181.916 170.126 181.916 169.897L182.017 170.474C181.924 170.75 181.757 170.963 181.518 171.114C181.279 171.26 180.987 171.333 180.644 171.333ZM185.188 171.333C184.725 171.333 184.384 171.226 184.166 171.013C183.952 170.794 183.846 170.474 183.846 170.053V166.363L184.649 166.059V170.061C184.649 170.269 184.704 170.422 184.813 170.521C184.922 170.62 185.099 170.67 185.344 170.67C185.437 170.67 185.521 170.662 185.593 170.646C185.666 170.631 185.729 170.612 185.781 170.591V171.247C185.723 171.273 185.643 171.294 185.539 171.309C185.435 171.325 185.318 171.333 185.188 171.333ZM183.05 167.923V167.276H185.781V167.923H183.05Z" fill="white"/>
<defs>
<linearGradient id="paint0_linear_1_198" x1="49.2851" y1="79.1077" x2="49.2851" y2="158.239" gradientUnits="userSpaceOnUse">
<stop stop-color="#FFA04E"/>
<stop offset="1" stop-color="#99602F"/>
</linearGradient>
<linearGradient id="paint1_linear_1_198" x1="153.963" y1="68.5197" x2="153.963" y2="158.239" gradientUnits="userSpaceOnUse">
<stop stop-color="#FF8975"/>
<stop offset="1" stop-color="#995246"/>
</linearGradient>
</defs>
</svg>
