<svg width="395" height="256" viewBox="0 0 395 256" fill="none" xmlns="http://www.w3.org/2000/svg">
<g clip-path="url(#clip0_1_258)">
<rect width="395" height="255.773" rx="20" fill="#0E0E0E"/>
<g filter="url(#filter0_f_1_258)">
<rect x="-173.148" y="295.731" width="748.136" height="40" rx="20" transform="rotate(-29.7839 -173.148 295.731)" fill="white" fill-opacity="0.3"/>
</g>
<path d="M20.62 39.126C19.444 39.126 18.506 38.8367 17.806 38.258C17.1153 37.6793 16.7093 36.8533 16.588 35.78H17.708C17.8107 36.5547 18.1047 37.138 18.59 37.53C19.0753 37.922 19.7473 38.118 20.606 38.118C21.334 38.118 21.88 37.9827 22.244 37.712C22.6173 37.432 22.804 37.026 22.804 36.494C22.804 36.0367 22.678 35.6727 22.426 35.402C22.174 35.1313 21.782 34.9073 21.25 34.73L19.556 34.142C18.6973 33.8433 18.0627 33.484 17.652 33.064C17.2413 32.6347 17.036 32.0933 17.036 31.44C17.036 30.8987 17.1713 30.432 17.442 30.04C17.7127 29.6387 18.0953 29.326 18.59 29.102C19.0847 28.878 19.6587 28.766 20.312 28.766C21.32 28.766 22.1273 29.032 22.734 29.564C23.3407 30.0867 23.6907 30.8333 23.784 31.804H22.664C22.5427 31.104 22.2907 30.5907 21.908 30.264C21.5347 29.9373 20.9933 29.774 20.284 29.774C19.612 29.774 19.0893 29.9093 18.716 30.18C18.3427 30.4507 18.156 30.8333 18.156 31.328C18.156 31.748 18.2867 32.084 18.548 32.336C18.8093 32.588 19.2153 32.8073 19.766 32.994L21.572 33.624C22.356 33.8947 22.944 34.2633 23.336 34.73C23.728 35.1873 23.924 35.7707 23.924 36.48C23.924 37.32 23.6347 37.9733 23.056 38.44C22.4867 38.8973 21.6747 39.126 20.62 39.126ZM28.2562 39.14C27.5749 39.14 26.9729 38.9813 26.4502 38.664C25.9276 38.3373 25.5169 37.894 25.2182 37.334C24.9196 36.774 24.7702 36.13 24.7702 35.402C24.7702 34.674 24.9149 34.0347 25.2042 33.484C25.5029 32.924 25.9182 32.49 26.4502 32.182C26.9822 31.874 27.5936 31.72 28.2842 31.72C28.9469 31.72 29.5209 31.8647 30.0062 32.154C30.5009 32.4433 30.8789 32.8493 31.1402 33.372C31.4109 33.8947 31.5462 34.5107 31.5462 35.22C31.5462 35.3133 31.5416 35.402 31.5322 35.486C31.5322 35.57 31.5229 35.6633 31.5042 35.766H25.6102V34.828H30.8182L30.4542 35.346C30.4542 34.4873 30.2629 33.8293 29.8802 33.372C29.5069 32.9053 28.9749 32.672 28.2842 32.672C27.5749 32.672 27.0009 32.9193 26.5622 33.414C26.1329 33.8993 25.9182 34.5573 25.9182 35.388C25.9182 36.2373 26.1329 36.9187 26.5622 37.432C27.0009 37.936 27.5842 38.188 28.3122 38.188C28.7696 38.188 29.1709 38.09 29.5162 37.894C29.8616 37.6887 30.1136 37.3993 30.2722 37.026H31.3362C31.1029 37.6793 30.7109 38.1973 30.1602 38.58C29.6189 38.9533 28.9842 39.14 28.2562 39.14ZM32.9526 39V31.86H34.0026V33.54H34.0726V39H32.9526ZM38.0626 39V34.324C38.0626 33.7827 37.9272 33.3767 37.6566 33.106C37.3859 32.8353 36.9846 32.7 36.4526 32.7C35.9859 32.7 35.5706 32.8027 35.2066 33.008C34.8519 33.2133 34.5719 33.498 34.3666 33.862C34.1706 34.226 34.0726 34.6507 34.0726 35.136L33.8906 33.442C34.1332 32.91 34.5019 32.49 34.9966 32.182C35.5006 31.874 36.0699 31.72 36.7046 31.72C37.4512 31.72 38.0486 31.9347 38.4966 32.364C38.9539 32.784 39.1826 33.3393 39.1826 34.03V39H38.0626ZM43.718 39.126C42.9247 39.126 42.346 38.9487 41.982 38.594C41.6274 38.23 41.45 37.7073 41.45 37.026V30.194L42.57 29.774V37.012C42.57 37.4133 42.6727 37.7073 42.878 37.894C43.0834 38.0807 43.4194 38.174 43.886 38.174C44.0727 38.174 44.2314 38.1647 44.362 38.146C44.502 38.118 44.614 38.0853 44.698 38.048V39C44.6047 39.0373 44.4694 39.0653 44.292 39.084C44.124 39.112 43.9327 39.126 43.718 39.126ZM39.98 32.812V31.86H44.698V32.812H39.98Z" fill="white"/>
<rect x="16" y="52" width="363" height="67.8863" rx="19.2156" fill="white" fill-opacity="0.05"/>
<rect x="16.1501" y="52.1501" width="362.7" height="67.586" rx="19.0654" stroke="white" stroke-opacity="0.1" stroke-width="0.300243"/>
<path d="M38.416 85.1031C37.7013 85.1031 37.04 84.9591 36.432 84.6711C35.8347 84.3724 35.312 83.9618 34.864 83.4391C34.416 82.9058 34.064 82.2818 33.808 81.5671C33.5627 80.8418 33.44 80.0471 33.44 79.1831C33.44 78.3191 33.5627 77.5298 33.808 76.8151C34.064 76.0898 34.4107 75.4658 34.848 74.9431C35.296 74.4098 35.8187 73.9991 36.416 73.7111C37.0133 73.4124 37.664 73.2631 38.368 73.2631C39.0507 73.2631 39.6747 73.3858 40.24 73.6311C40.8053 73.8658 41.28 74.2071 41.664 74.6551C42.0587 75.1031 42.32 75.6311 42.448 76.2391H41.072C40.9547 75.6738 40.6507 75.2364 40.16 74.9271C39.68 74.6071 39.0987 74.4471 38.416 74.4471C37.7013 74.4471 37.0667 74.6498 36.512 75.0551C35.968 75.4498 35.5413 76.0044 35.232 76.7191C34.9333 77.4231 34.784 78.2444 34.784 79.1831C34.784 80.1218 34.9387 80.9484 35.248 81.6631C35.5573 82.3671 35.984 82.9218 36.528 83.3271C37.072 83.7218 37.696 83.9191 38.4 83.9191C39.0933 83.9191 39.6853 83.7644 40.176 83.4551C40.6773 83.1351 40.9867 82.6924 41.104 82.1271H42.48C42.352 82.7458 42.096 83.2791 41.712 83.7271C41.328 84.1644 40.8533 84.5058 40.288 84.7511C39.7227 84.9858 39.0987 85.1031 38.416 85.1031ZM32 78.5111L32.224 77.4231H39.984L39.76 78.5111H32ZM32 80.9111L32.224 79.8231H39.552L39.328 80.9111H32ZM47.5068 85.1031C46.8348 85.1031 46.2321 84.9751 45.6988 84.7191C45.1654 84.4524 44.7334 84.0631 44.4028 83.5511C44.0721 83.0284 43.8588 82.3778 43.7628 81.5991H45.1708C45.2774 82.4311 45.5388 83.0338 45.9548 83.4071C46.3708 83.7698 46.8988 83.9511 47.5388 83.9511C48.0081 83.9511 48.4134 83.8551 48.7548 83.6631C49.0961 83.4711 49.3788 83.1778 49.6028 82.7831C49.8268 82.3884 49.9921 81.8871 50.0988 81.2791C50.2054 80.6604 50.2588 79.9298 50.2588 79.0871V78.0471L50.6268 78.0951C50.5308 78.5858 50.3174 79.0231 49.9868 79.4071C49.6561 79.7804 49.2454 80.0738 48.7548 80.2871C48.2641 80.4898 47.7361 80.5911 47.1708 80.5911C46.4668 80.5911 45.8481 80.4364 45.3148 80.1271C44.7814 79.8071 44.3601 79.3698 44.0508 78.8151C43.7521 78.2604 43.6028 77.6311 43.6028 76.9271C43.6028 76.1804 43.7681 75.5351 44.0988 74.9911C44.4294 74.4471 44.8881 74.0258 45.4748 73.7271C46.0721 73.4178 46.7548 73.2631 47.5228 73.2631C48.8881 73.2631 49.9228 73.7591 50.6268 74.7511C51.3414 75.7431 51.6988 77.1991 51.6988 79.1191C51.6988 80.3991 51.5334 81.4871 51.2028 82.3831C50.8828 83.2684 50.4081 83.9458 49.7788 84.4151C49.1601 84.8738 48.4028 85.1031 47.5068 85.1031ZM47.5068 79.4711C48.2428 79.4711 48.8508 79.2631 49.3308 78.8471C49.8214 78.4311 50.0668 77.8338 50.0668 77.0551C50.0668 76.5324 49.9494 76.0738 49.7148 75.6791C49.4908 75.2844 49.1814 74.9751 48.7868 74.7511C48.3921 74.5271 47.9441 74.4151 47.4428 74.4151C46.7281 74.4151 46.1468 74.6444 45.6988 75.1031C45.2614 75.5511 45.0428 76.1698 45.0428 76.9591C45.0428 77.7164 45.2561 78.3244 45.6828 78.7831C46.1201 79.2418 46.7281 79.4711 47.5068 79.4711ZM52.4826 87.2471V86.5911C52.792 86.4738 53.016 86.2871 53.1546 86.0311C53.2933 85.7858 53.3626 85.4071 53.3626 84.8951L53.8586 84.9431H52.4826V83.3111H54.0986V84.6071C54.0986 85.2898 53.9706 85.8551 53.7146 86.3031C53.4586 86.7511 53.048 87.0658 52.4826 87.2471ZM58.8995 85.1031C57.7582 85.1031 56.8462 84.7991 56.1635 84.1911C55.4808 83.5724 55.0648 82.7724 54.9155 81.7911H56.3235C56.4622 82.4844 56.7555 83.0178 57.2035 83.3911C57.6622 83.7644 58.2168 83.9511 58.8675 83.9511C59.5502 83.9511 60.1262 83.7378 60.5955 83.3111C61.0755 82.8844 61.3155 82.2071 61.3155 81.2791C61.3155 80.3511 61.0755 79.6578 60.5955 79.1991C60.1262 78.7298 59.5288 78.4951 58.8035 78.4951C58.2808 78.4951 57.8275 78.6018 57.4435 78.8151C57.0595 79.0284 56.8035 79.2791 56.6755 79.5671H55.4915L56.0195 73.4231H62.0995V74.5751H56.8035L57.2515 74.0951L56.8835 78.7351L56.5795 78.6231C56.7715 78.3031 57.0808 78.0258 57.5075 77.7911C57.9342 77.5564 58.4568 77.4391 59.0755 77.4391C59.7902 77.4391 60.4195 77.5938 60.9635 77.9031C61.5182 78.2124 61.9502 78.6551 62.2595 79.2311C62.5795 79.7964 62.7395 80.4791 62.7395 81.2791C62.7395 82.0791 62.5795 82.7671 62.2595 83.3431C61.9502 83.9084 61.5075 84.3458 60.9315 84.6551C60.3662 84.9538 59.6888 85.1031 58.8995 85.1031ZM68.119 85.1031C66.7643 85.1031 65.719 84.6124 64.983 83.6311C64.2577 82.6391 63.895 81.2098 63.895 79.3431C63.895 78.0524 64.0657 76.9538 64.407 76.0471C64.759 75.1404 65.2603 74.4524 65.911 73.9831C66.5617 73.5031 67.335 73.2631 68.231 73.2631C69.2123 73.2631 70.023 73.5458 70.663 74.1111C71.303 74.6764 71.6923 75.4551 71.831 76.4471H70.423C70.327 75.7858 70.0817 75.2844 69.687 74.9431C69.303 74.5911 68.8123 74.4151 68.215 74.4151C67.2657 74.4151 66.5457 74.8204 66.055 75.6311C65.575 76.4418 65.335 77.6578 65.335 79.2791V80.3191L64.967 80.1751C65.063 79.6738 65.2763 79.2364 65.607 78.8631C65.9377 78.4898 66.3483 78.2018 66.839 77.9991C67.3297 77.7858 67.8577 77.6791 68.423 77.6791C69.1483 77.6791 69.7777 77.8391 70.311 78.1591C70.855 78.4684 71.2763 78.9058 71.575 79.4711C71.8843 80.0258 72.039 80.6764 72.039 81.4231C72.039 82.1591 71.8737 82.8044 71.543 83.3591C71.2123 83.9138 70.7537 84.3458 70.167 84.6551C69.5803 84.9538 68.8977 85.1031 68.119 85.1031ZM68.167 83.9511C68.8923 83.9511 69.479 83.7218 69.927 83.2631C70.375 82.8044 70.599 82.1858 70.599 81.4071C70.599 80.5964 70.3803 79.9618 69.943 79.5031C69.5163 79.0338 68.9137 78.7991 68.135 78.7991C67.3883 78.7991 66.7643 79.0178 66.263 79.4551C65.7723 79.8924 65.527 80.4951 65.527 81.2631C65.527 81.7964 65.639 82.2658 65.863 82.6711C66.0977 83.0764 66.4123 83.3911 66.807 83.6151C67.2123 83.8391 67.6657 83.9511 68.167 83.9511ZM75.8906 84.9431V74.7351L76.2266 74.8151C76.0986 75.1031 75.8533 75.3911 75.4906 75.6791C75.128 75.9671 74.7066 76.2178 74.2266 76.4311C73.7573 76.6444 73.272 76.7884 72.7706 76.8631V75.6311C73.272 75.5458 73.752 75.3964 74.2106 75.1831C74.6693 74.9698 75.0746 74.7138 75.4266 74.4151C75.7893 74.1058 76.056 73.7751 76.2266 73.4231H77.1706V84.9431H75.8906Z" fill="white"/>
<path d="M33.4 100.943V100.263H35.7C36.14 100.263 36.49 100.143 36.75 99.9031C37.01 99.6631 37.14 99.3398 37.14 98.9331C37.14 98.4998 37.0033 98.1531 36.73 97.8931C36.4567 97.6331 36.09 97.5031 35.63 97.5031H33.4V96.8431H35.52C35.9733 96.8431 36.3267 96.7331 36.58 96.5131C36.8333 96.2931 36.96 95.9831 36.96 95.5831C36.96 95.2098 36.84 94.9231 36.6 94.7231C36.3667 94.5231 36.0233 94.4231 35.57 94.4231H33.4V93.7431H35.64C36.3 93.7431 36.82 93.8998 37.2 94.2131C37.5867 94.5264 37.78 94.9531 37.78 95.4931C37.78 95.8331 37.7033 96.1364 37.55 96.4031C37.3967 96.6698 37.1867 96.8798 36.92 97.0331C36.6533 97.1798 36.3467 97.2531 36 97.2531L36.05 97.0431C36.4167 97.0431 36.7433 97.1298 37.03 97.3031C37.3233 97.4764 37.5533 97.7131 37.72 98.0131C37.8933 98.3064 37.98 98.6431 37.98 99.0231C37.98 99.4031 37.8867 99.7398 37.7 100.033C37.52 100.32 37.2633 100.543 36.93 100.703C36.5967 100.863 36.21 100.943 35.77 100.943H33.4ZM32.86 100.943V93.7431H33.68V100.943H32.86ZM42.0874 100.943C42.0608 100.83 42.0408 100.7 42.0274 100.553C42.0208 100.406 42.0174 100.22 42.0174 99.9931H41.9674V97.5531C41.9674 97.1664 41.8774 96.8831 41.6974 96.7031C41.5241 96.5164 41.2408 96.4231 40.8474 96.4231C40.4608 96.4231 40.1508 96.5031 39.9174 96.6631C39.6908 96.8164 39.5641 97.0364 39.5374 97.3231H38.7674C38.8008 96.8298 39.0074 96.4431 39.3874 96.1631C39.7674 95.8831 40.2641 95.7431 40.8774 95.7431C41.5108 95.7431 41.9808 95.8931 42.2874 96.1931C42.5941 96.4931 42.7474 96.9431 42.7474 97.5431V99.9931C42.7474 100.14 42.7574 100.293 42.7774 100.453C42.7974 100.606 42.8241 100.77 42.8574 100.943H42.0874ZM40.3374 101.043C39.8108 101.043 39.3908 100.916 39.0774 100.663C38.7708 100.403 38.6174 100.05 38.6174 99.6031C38.6174 99.1564 38.7708 98.8098 39.0774 98.5631C39.3841 98.3164 39.8308 98.1431 40.4174 98.0431L42.1974 97.7431V98.4031L40.5374 98.6631C40.1641 98.7231 39.8808 98.8231 39.6874 98.9631C39.4941 99.1031 39.3974 99.3064 39.3974 99.5731C39.3974 99.8331 39.4841 100.03 39.6574 100.163C39.8374 100.296 40.1008 100.363 40.4474 100.363C40.8941 100.363 41.2574 100.263 41.5374 100.063C41.8241 99.8564 41.9674 99.5898 41.9674 99.2631L42.0974 99.9731C41.9908 100.313 41.7808 100.576 41.4674 100.763C41.1608 100.95 40.7841 101.043 40.3374 101.043ZM44.0895 100.943V93.7431H44.8895V100.943H44.0895ZM49.4218 100.943C49.3951 100.83 49.3751 100.7 49.3618 100.553C49.3551 100.406 49.3518 100.22 49.3518 99.9931H49.3018V97.5531C49.3018 97.1664 49.2118 96.8831 49.0318 96.7031C48.8585 96.5164 48.5751 96.4231 48.1818 96.4231C47.7951 96.4231 47.4851 96.5031 47.2518 96.6631C47.0251 96.8164 46.8985 97.0364 46.8718 97.3231H46.1018C46.1351 96.8298 46.3418 96.4431 46.7218 96.1631C47.1018 95.8831 47.5985 95.7431 48.2118 95.7431C48.8451 95.7431 49.3151 95.8931 49.6218 96.1931C49.9285 96.4931 50.0818 96.9431 50.0818 97.5431V99.9931C50.0818 100.14 50.0918 100.293 50.1118 100.453C50.1318 100.606 50.1585 100.77 50.1918 100.943H49.4218ZM47.6718 101.043C47.1451 101.043 46.7251 100.916 46.4118 100.663C46.1051 100.403 45.9518 100.05 45.9518 99.6031C45.9518 99.1564 46.1051 98.8098 46.4118 98.5631C46.7185 98.3164 47.1651 98.1431 47.7518 98.0431L49.5318 97.7431V98.4031L47.8718 98.6631C47.4985 98.7231 47.2151 98.8231 47.0218 98.9631C46.8285 99.1031 46.7318 99.3064 46.7318 99.5731C46.7318 99.8331 46.8185 100.03 46.9918 100.163C47.1718 100.296 47.4351 100.363 47.7818 100.363C48.2285 100.363 48.5918 100.263 48.8718 100.063C49.1585 99.8564 49.3018 99.5898 49.3018 99.2631L49.4318 99.9731C49.3251 100.313 49.1151 100.576 48.8018 100.763C48.4951 100.95 48.1185 101.043 47.6718 101.043ZM51.4238 100.943V95.8431H52.1738V97.0431H52.2238V100.943H51.4238ZM55.0738 100.943V97.6031C55.0738 97.2164 54.9772 96.9264 54.7838 96.7331C54.5905 96.5398 54.3038 96.4431 53.9238 96.4431C53.5905 96.4431 53.2938 96.5164 53.0338 96.6631C52.7805 96.8098 52.5805 97.0131 52.4338 97.2731C52.2938 97.5331 52.2238 97.8364 52.2238 98.1831L52.0938 96.9731C52.2672 96.5931 52.5305 96.2931 52.8838 96.0731C53.2438 95.8531 53.6505 95.7431 54.1038 95.7431C54.6372 95.7431 55.0638 95.8964 55.3838 96.2031C55.7105 96.5031 55.8738 96.8998 55.8738 97.3931V100.943H55.0738ZM59.2302 101.043C58.7635 101.043 58.3468 100.93 57.9802 100.703C57.6202 100.47 57.3335 100.153 57.1202 99.7531C56.9135 99.3464 56.8102 98.8864 56.8102 98.3731C56.8102 97.8598 56.9135 97.4064 57.1202 97.0131C57.3335 96.6198 57.6202 96.3098 57.9802 96.0831C58.3468 95.8564 58.7602 95.7431 59.2202 95.7431C59.6002 95.7431 59.9402 95.8164 60.2402 95.9631C60.5468 96.1098 60.7968 96.3198 60.9902 96.5931C61.1902 96.8598 61.3168 97.1731 61.3702 97.5331H60.6302C60.5635 97.2064 60.4102 96.9398 60.1702 96.7331C59.9302 96.5264 59.6202 96.4231 59.2402 96.4231C58.9135 96.4231 58.6302 96.5031 58.3902 96.6631C58.1502 96.8231 57.9635 97.0498 57.8302 97.3431C57.6968 97.6364 57.6302 97.9798 57.6302 98.3731C57.6302 98.7664 57.6968 99.1131 57.8302 99.4131C57.9635 99.7131 58.1502 99.9464 58.3902 100.113C58.6368 100.28 58.9235 100.363 59.2502 100.363C59.6168 100.363 59.9235 100.263 60.1702 100.063C60.4168 99.8564 60.5735 99.5898 60.6402 99.2631H61.3802C61.3202 99.6164 61.1868 99.9298 60.9802 100.203C60.7802 100.47 60.5302 100.676 60.2302 100.823C59.9302 100.97 59.5968 101.043 59.2302 101.043ZM64.4127 101.043C63.926 101.043 63.496 100.93 63.1227 100.703C62.7493 100.47 62.456 100.153 62.2427 99.7531C62.0293 99.3531 61.9227 98.8931 61.9227 98.3731C61.9227 97.8531 62.026 97.3964 62.2327 97.0031C62.446 96.6031 62.7427 96.2931 63.1227 96.0731C63.5027 95.8531 63.9393 95.7431 64.4327 95.7431C64.906 95.7431 65.316 95.8464 65.6627 96.0531C66.016 96.2598 66.286 96.5498 66.4727 96.9231C66.666 97.2964 66.7627 97.7364 66.7627 98.2431C66.7627 98.3098 66.7593 98.3731 66.7527 98.4331C66.7527 98.4931 66.746 98.5598 66.7327 98.6331H62.5227V97.9631H66.2427L65.9827 98.3331C65.9827 97.7198 65.846 97.2498 65.5727 96.9231C65.306 96.5898 64.926 96.4231 64.4327 96.4231C63.926 96.4231 63.516 96.5998 63.2027 96.9531C62.896 97.2998 62.7427 97.7698 62.7427 98.3631C62.7427 98.9698 62.896 99.4564 63.2027 99.8231C63.516 100.183 63.9327 100.363 64.4527 100.363C64.7793 100.363 65.066 100.293 65.3127 100.153C65.5593 100.006 65.7393 99.7998 65.8527 99.5331H66.6127C66.446 99.9998 66.166 100.37 65.7727 100.643C65.386 100.91 64.9327 101.043 64.4127 101.043ZM69.5291 100.943V99.9131H70.5591V100.943H69.5291ZM69.5291 97.1431V96.1131H70.5591V97.1431H69.5291ZM76.9299 101.043C76.4833 101.043 76.0699 100.953 75.6899 100.773C75.3166 100.586 74.9899 100.33 74.7099 100.003C74.4299 99.6698 74.2099 99.2798 74.0499 98.8331C73.8966 98.3798 73.8199 97.8831 73.8199 97.3431C73.8199 96.8031 73.8966 96.3098 74.0499 95.8631C74.2099 95.4098 74.4266 95.0198 74.6999 94.6931C74.9799 94.3598 75.3066 94.1031 75.6799 93.9231C76.0533 93.7364 76.4599 93.6431 76.8999 93.6431C77.3266 93.6431 77.7166 93.7198 78.0699 93.8731C78.4233 94.0198 78.7199 94.2331 78.9599 94.5131C79.2066 94.7931 79.3699 95.1231 79.4499 95.5031H78.5899C78.5166 95.1498 78.3266 94.8764 78.0199 94.6831C77.7199 94.4831 77.3566 94.3831 76.9299 94.3831C76.4833 94.3831 76.0866 94.5098 75.7399 94.7631C75.3999 95.0098 75.1333 95.3564 74.9399 95.8031C74.7533 96.2431 74.6599 96.7564 74.6599 97.3431C74.6599 97.9298 74.7566 98.4464 74.9499 98.8931C75.1433 99.3331 75.4099 99.6798 75.7499 99.9331C76.0899 100.18 76.4799 100.303 76.9199 100.303C77.3533 100.303 77.7233 100.206 78.0299 100.013C78.3433 99.8131 78.5366 99.5364 78.6099 99.1831H79.4699C79.3899 99.5698 79.2299 99.9031 78.9899 100.183C78.7499 100.456 78.4533 100.67 78.0999 100.823C77.7466 100.97 77.3566 101.043 76.9299 101.043ZM72.9199 96.9231L73.0599 96.2431H77.9099L77.7699 96.9231H72.9199ZM72.9199 98.4231L73.0599 97.7431H77.6399L77.4999 98.4231H72.9199ZM81.3716 100.943C81.465 99.8098 81.7283 98.6898 82.1616 97.5831C82.6016 96.4698 83.2583 95.3331 84.1316 94.1731L84.1816 94.4631H79.9716V93.7431H84.8316V94.3431C84.2983 95.1231 83.855 95.8764 83.5016 96.6031C83.155 97.3298 82.885 98.0498 82.6916 98.7631C82.4983 99.4698 82.375 100.196 82.3216 100.943H81.3716ZM87.637 101.043C87.1303 101.043 86.6903 100.953 86.317 100.773C85.9503 100.593 85.667 100.346 85.467 100.033C85.267 99.7198 85.167 99.3698 85.167 98.9831C85.167 98.6231 85.247 98.2964 85.407 98.0031C85.567 97.7098 85.7803 97.4764 86.047 97.3031C86.3203 97.1298 86.6203 97.0431 86.947 97.0431L86.967 97.2531C86.6603 97.2531 86.3836 97.1798 86.137 97.0331C85.8903 96.8798 85.697 96.6731 85.557 96.4131C85.417 96.1531 85.347 95.8664 85.347 95.5531C85.347 95.1798 85.4436 94.8498 85.637 94.5631C85.8303 94.2764 86.1003 94.0531 86.447 93.8931C86.7936 93.7264 87.1936 93.6431 87.647 93.6431C88.1003 93.6431 88.497 93.7264 88.837 93.8931C89.177 94.0531 89.4436 94.2764 89.637 94.5631C89.8303 94.8498 89.927 95.1764 89.927 95.5431C89.927 95.8631 89.857 96.1531 89.717 96.4131C89.577 96.6664 89.3836 96.8698 89.137 97.0231C88.8903 97.1764 88.6103 97.2531 88.297 97.2531L88.327 97.0431C88.6603 97.0431 88.9603 97.1298 89.227 97.3031C89.4936 97.4764 89.707 97.7098 89.867 98.0031C90.027 98.2964 90.107 98.6231 90.107 98.9831C90.107 99.3698 90.007 99.7198 89.807 100.033C89.607 100.346 89.3203 100.593 88.947 100.773C88.5803 100.953 88.1436 101.043 87.637 101.043ZM87.637 100.323C88.1236 100.323 88.507 100.193 88.787 99.9331C89.0736 99.6731 89.217 99.3298 89.217 98.9031C89.217 98.4764 89.077 98.1398 88.797 97.8931C88.517 97.6464 88.1303 97.5231 87.637 97.5231C87.1436 97.5231 86.757 97.6464 86.477 97.8931C86.197 98.1398 86.057 98.4764 86.057 98.9031C86.057 99.3298 86.197 99.6731 86.477 99.9331C86.7636 100.193 87.1503 100.323 87.637 100.323ZM87.637 96.8231C88.077 96.8231 88.4203 96.7131 88.667 96.4931C88.9203 96.2731 89.047 95.9798 89.047 95.6131C89.047 95.2331 88.917 94.9298 88.657 94.7031C88.397 94.4764 88.057 94.3631 87.637 94.3631C87.2103 94.3631 86.867 94.4764 86.607 94.7031C86.3536 94.9298 86.227 95.2331 86.227 95.6131C86.227 95.9798 86.3536 96.2731 86.607 96.4931C86.8603 96.7131 87.2036 96.8231 87.637 96.8231ZM93.403 101.043C92.983 101.043 92.6064 100.963 92.273 100.803C91.9397 100.636 91.6697 100.393 91.463 100.073C91.2564 99.7464 91.123 99.3398 91.063 98.8531H91.943C92.0097 99.3731 92.173 99.7498 92.433 99.9831C92.693 100.21 93.023 100.323 93.423 100.323C93.7164 100.323 93.9697 100.263 94.183 100.143C94.3964 100.023 94.573 99.8398 94.713 99.5931C94.853 99.3464 94.9564 99.0331 95.023 98.6531C95.0897 98.2664 95.123 97.8098 95.123 97.2831V96.6331L95.353 96.6631C95.293 96.9698 95.1597 97.2431 94.953 97.4831C94.7464 97.7164 94.4897 97.8998 94.183 98.0331C93.8764 98.1598 93.5464 98.2231 93.193 98.2231C92.753 98.2231 92.3664 98.1264 92.033 97.9331C91.6997 97.7331 91.4364 97.4598 91.243 97.1131C91.0564 96.7664 90.963 96.3731 90.963 95.9331C90.963 95.4664 91.0664 95.0631 91.273 94.7231C91.4797 94.3831 91.7664 94.1198 92.133 93.9331C92.5064 93.7398 92.933 93.6431 93.413 93.6431C94.2664 93.6431 94.913 93.9531 95.353 94.5731C95.7997 95.1931 96.023 96.1031 96.023 97.3031C96.023 98.1031 95.9197 98.7831 95.713 99.3431C95.513 99.8964 95.2164 100.32 94.823 100.613C94.4364 100.9 93.963 101.043 93.403 101.043ZM93.403 97.5231C93.863 97.5231 94.243 97.3931 94.543 97.1331C94.8497 96.8731 95.003 96.4998 95.003 96.0131C95.003 95.6864 94.9297 95.3998 94.783 95.1531C94.643 94.9064 94.4497 94.7131 94.203 94.5731C93.9564 94.4331 93.6764 94.3631 93.363 94.3631C92.9164 94.3631 92.553 94.5064 92.273 94.7931C91.9997 95.0731 91.863 95.4598 91.863 95.9531C91.863 96.4264 91.9964 96.8064 92.263 97.0931C92.5364 97.3798 92.9164 97.5231 93.403 97.5231ZM96.513 102.383V101.973C96.7063 101.9 96.8463 101.783 96.933 101.623C97.0196 101.47 97.063 101.233 97.063 100.913L97.373 100.943H96.513V99.9231H97.523V100.733C97.523 101.16 97.443 101.513 97.283 101.793C97.123 102.073 96.8663 102.27 96.513 102.383ZM98.2965 100.943V100.243C99.0165 99.6498 99.6165 99.1298 100.096 98.6831C100.583 98.2364 100.97 97.8398 101.256 97.4931C101.55 97.1464 101.756 96.8298 101.876 96.5431C102.003 96.2498 102.066 95.9631 102.066 95.6831C102.066 95.2698 101.943 94.9464 101.696 94.7131C101.45 94.4798 101.11 94.3631 100.676 94.3631C100.23 94.3631 99.8698 94.4898 99.5965 94.7431C99.3232 94.9964 99.1565 95.3598 99.0965 95.8331H98.2365C98.3032 95.1798 98.5532 94.6531 98.9865 94.2531C99.4265 93.8464 100.01 93.6431 100.736 93.6431C101.41 93.6431 101.946 93.8231 102.346 94.1831C102.746 94.5431 102.946 95.0364 102.946 95.6631C102.946 96.0031 102.88 96.3431 102.746 96.6831C102.62 97.0231 102.406 97.3798 102.106 97.7531C101.813 98.1264 101.423 98.5398 100.936 98.9931C100.456 99.4398 99.8598 99.9464 99.1465 100.513L98.9565 100.223H103.066V100.943H98.2965ZM105.435 100.943V94.5631L105.645 94.6131C105.565 94.7931 105.411 94.9731 105.185 95.1531C104.958 95.3331 104.695 95.4898 104.395 95.6231C104.101 95.7564 103.798 95.8464 103.485 95.8931V95.1231C103.798 95.0698 104.098 94.9764 104.385 94.8431C104.671 94.7098 104.925 94.5498 105.145 94.3631C105.371 94.1698 105.538 93.9631 105.645 93.7431H106.235V100.943H105.435ZM109.812 101.043C109.332 101.043 108.909 100.956 108.542 100.783C108.182 100.603 107.889 100.343 107.662 100.003C107.442 99.6631 107.305 99.2531 107.252 98.7731H108.112C108.185 99.2731 108.369 99.6564 108.662 99.9231C108.955 100.19 109.342 100.323 109.822 100.323C110.275 100.323 110.632 100.203 110.892 99.9631C111.152 99.7231 111.282 99.3964 111.282 98.9831C111.282 98.5498 111.155 98.1998 110.902 97.9331C110.649 97.6598 110.309 97.5231 109.882 97.5231H108.982V96.8231H109.852C110.239 96.8231 110.545 96.7131 110.772 96.4931C111.005 96.2664 111.122 95.9664 111.122 95.5931C111.122 95.1998 110.999 94.8964 110.752 94.6831C110.512 94.4698 110.185 94.3631 109.772 94.3631C109.365 94.3631 109.019 94.4831 108.732 94.7231C108.445 94.9564 108.275 95.2931 108.222 95.7331H107.352C107.392 95.3064 107.519 94.9398 107.732 94.6331C107.945 94.3198 108.229 94.0764 108.582 93.9031C108.942 93.7298 109.345 93.6431 109.792 93.6431C110.225 93.6431 110.609 93.7198 110.942 93.8731C111.275 94.0264 111.535 94.2464 111.722 94.5331C111.909 94.8131 112.002 95.1431 112.002 95.5231C112.002 95.8631 111.925 96.1631 111.772 96.4231C111.619 96.6831 111.409 96.8864 111.142 97.0331C110.882 97.1798 110.582 97.2531 110.242 97.2531L110.182 97.0431C110.589 97.0431 110.939 97.1298 111.232 97.3031C111.532 97.4698 111.762 97.6998 111.922 97.9931C112.089 98.2864 112.172 98.6264 112.172 99.0131C112.172 99.4131 112.072 99.7664 111.872 100.073C111.672 100.38 111.395 100.62 111.042 100.793C110.689 100.96 110.279 101.043 109.812 101.043ZM112.774 102.383V101.973C112.967 101.9 113.107 101.783 113.194 101.623C113.28 101.47 113.324 101.233 113.324 100.913L113.634 100.943H112.774V99.9231H113.784V100.733C113.784 101.16 113.704 101.513 113.544 101.793C113.384 102.073 113.127 102.27 112.774 102.383ZM116.784 101.043C116.071 101.043 115.501 100.853 115.074 100.473C114.647 100.086 114.387 99.5864 114.294 98.9731H115.174C115.261 99.4064 115.444 99.7398 115.724 99.9731C116.011 100.206 116.357 100.323 116.764 100.323C117.191 100.323 117.551 100.19 117.844 99.9231C118.144 99.6564 118.294 99.2331 118.294 98.6531C118.294 98.0731 118.144 97.6398 117.844 97.3531C117.551 97.0598 117.177 96.9131 116.724 96.9131C116.397 96.9131 116.114 96.9798 115.874 97.1131C115.634 97.2464 115.474 97.4031 115.394 97.5831H114.654L114.984 93.7431H118.784V94.4631H115.474L115.754 94.1631L115.524 97.0631L115.334 96.9931C115.454 96.7931 115.647 96.6198 115.914 96.4731C116.181 96.3264 116.507 96.2531 116.894 96.2531C117.341 96.2531 117.734 96.3498 118.074 96.5431C118.421 96.7364 118.691 97.0131 118.884 97.3731C119.084 97.7264 119.184 98.1531 119.184 98.6531C119.184 99.1531 119.084 99.5831 118.884 99.9431C118.691 100.296 118.414 100.57 118.054 100.763C117.701 100.95 117.277 101.043 116.784 101.043ZM122.546 101.043C121.7 101.043 121.046 100.736 120.586 100.123C120.133 99.5031 119.906 98.6098 119.906 97.4431C119.906 96.6364 120.013 95.9498 120.226 95.3831C120.446 94.8164 120.76 94.3864 121.166 94.0931C121.573 93.7931 122.056 93.6431 122.616 93.6431C123.23 93.6431 123.736 93.8198 124.136 94.1731C124.536 94.5264 124.78 95.0131 124.866 95.6331H123.986C123.926 95.2198 123.773 94.9064 123.526 94.6931C123.286 94.4731 122.98 94.3631 122.606 94.3631C122.013 94.3631 121.563 94.6164 121.256 95.1231C120.956 95.6298 120.806 96.3898 120.806 97.4031V98.0531L120.576 97.9631C120.636 97.6498 120.77 97.3764 120.976 97.1431C121.183 96.9098 121.44 96.7298 121.746 96.6031C122.053 96.4698 122.383 96.4031 122.736 96.4031C123.19 96.4031 123.583 96.5031 123.916 96.7031C124.256 96.8964 124.52 97.1698 124.706 97.5231C124.9 97.8698 124.996 98.2764 124.996 98.7431C124.996 99.2031 124.893 99.6064 124.686 99.9531C124.48 100.3 124.193 100.57 123.826 100.763C123.46 100.95 123.033 101.043 122.546 101.043ZM122.576 100.323C123.03 100.323 123.396 100.18 123.676 99.8931C123.956 99.6064 124.096 99.2198 124.096 98.7331C124.096 98.2264 123.96 97.8298 123.686 97.5431C123.42 97.2498 123.043 97.1031 122.556 97.1031C122.09 97.1031 121.7 97.2398 121.386 97.5131C121.08 97.7864 120.926 98.1631 120.926 98.6431C120.926 98.9764 120.996 99.2698 121.136 99.5231C121.283 99.7764 121.48 99.9731 121.726 100.113C121.98 100.253 122.263 100.323 122.576 100.323ZM127.404 100.943V94.5631L127.614 94.6131C127.534 94.7931 127.38 94.9731 127.154 95.1531C126.927 95.3331 126.664 95.4898 126.364 95.6231C126.07 95.7564 125.767 95.8464 125.454 95.8931V95.1231C125.767 95.0698 126.067 94.9764 126.354 94.8431C126.64 94.7098 126.894 94.5498 127.114 94.3631C127.34 94.1698 127.507 93.9631 127.614 93.7431H128.204V100.943H127.404Z" fill="#606165"/>
<path d="M337.204 90.9431V80.8631H338.352V90.9431H337.204ZM337.792 90.9431V89.9351H343.952V90.9431H337.792ZM337.792 86.1971V85.1891H343.448V86.1971H337.792ZM337.792 81.8711V80.8631H343.84V81.8711H337.792ZM349.126 91.0831C347.912 91.0831 346.965 90.7144 346.284 89.9771C345.612 89.2304 345.276 88.1898 345.276 86.8551V80.8631H346.424V86.9111C346.424 87.9191 346.657 88.6938 347.124 89.2351C347.59 89.7764 348.258 90.0471 349.126 90.0471C350.012 90.0471 350.689 89.7811 351.156 89.2491C351.622 88.7078 351.856 87.9284 351.856 86.9111V80.8631H353.004V86.8691C353.004 88.1944 352.663 89.2304 351.982 89.9771C351.3 90.7144 350.348 91.0831 349.126 91.0831ZM354.896 90.9431V80.8631H358.62C359.339 80.8631 359.95 80.9798 360.454 81.2131C360.958 81.4464 361.341 81.7731 361.602 82.1931C361.873 82.6038 362.008 83.0938 362.008 83.6631C362.008 84.2324 361.873 84.7318 361.602 85.1611C361.341 85.5811 360.958 85.9124 360.454 86.1551C359.95 86.3884 359.339 86.5051 358.62 86.5051H355.736V85.4971H358.578C359.325 85.4971 359.889 85.3338 360.272 85.0071C360.664 84.6804 360.86 84.2324 360.86 83.6631C360.86 83.1031 360.669 82.6644 360.286 82.3471C359.903 82.0298 359.334 81.8711 358.578 81.8711H356.044V90.9431H354.896ZM360.804 90.9431L355.442 85.9451H357.01L362.54 90.9431H360.804Z" fill="white"/>
<path d="M17.204 150.886V140.806H20.928C21.6467 140.806 22.258 140.923 22.762 141.156C23.266 141.39 23.6487 141.716 23.91 142.136C24.1807 142.547 24.316 143.037 24.316 143.606C24.316 144.176 24.1807 144.675 23.91 145.104C23.6487 145.524 23.266 145.856 22.762 146.098C22.258 146.332 21.6467 146.448 20.928 146.448H18.044V145.44H20.886C21.6327 145.44 22.1973 145.277 22.58 144.95C22.972 144.624 23.168 144.176 23.168 143.606C23.168 143.046 22.9767 142.608 22.594 142.29C22.2113 141.973 21.642 141.814 20.886 141.814H18.352V150.886H17.204ZM23.112 150.886L17.75 145.888H19.318L24.848 150.886H23.112ZM28.5297 151.026C27.8483 151.026 27.2463 150.868 26.7237 150.55C26.201 150.224 25.7903 149.78 25.4917 149.22C25.193 148.66 25.0437 148.016 25.0437 147.288C25.0437 146.56 25.1883 145.921 25.4777 145.37C25.7763 144.81 26.1917 144.376 26.7237 144.068C27.2557 143.76 27.867 143.606 28.5577 143.606C29.2203 143.606 29.7943 143.751 30.2797 144.04C30.7743 144.33 31.1523 144.736 31.4137 145.258C31.6843 145.781 31.8197 146.397 31.8197 147.106C31.8197 147.2 31.815 147.288 31.8057 147.372C31.8057 147.456 31.7963 147.55 31.7777 147.652H25.8837V146.714H31.0917L30.7277 147.232C30.7277 146.374 30.5363 145.716 30.1537 145.258C29.7803 144.792 29.2483 144.558 28.5577 144.558C27.8483 144.558 27.2743 144.806 26.8357 145.3C26.4063 145.786 26.1917 146.444 26.1917 147.274C26.1917 148.124 26.4063 148.805 26.8357 149.318C27.2743 149.822 27.8577 150.074 28.5857 150.074C29.043 150.074 29.4443 149.976 29.7897 149.78C30.135 149.575 30.387 149.286 30.5457 148.912H31.6097C31.3763 149.566 30.9843 150.084 30.4337 150.466C29.8923 150.84 29.2577 151.026 28.5297 151.026ZM36.054 151.026C35.4007 151.026 34.8173 150.868 34.304 150.55C33.8 150.224 33.3987 149.78 33.1 149.22C32.8107 148.651 32.666 148.007 32.666 147.288C32.666 146.57 32.8107 145.935 33.1 145.384C33.3987 144.834 33.8 144.4 34.304 144.082C34.8173 143.765 35.396 143.606 36.04 143.606C36.572 143.606 37.048 143.709 37.468 143.914C37.8973 144.12 38.2473 144.414 38.518 144.796C38.798 145.17 38.9753 145.608 39.05 146.112H38.014C37.9207 145.655 37.706 145.282 37.37 144.992C37.034 144.703 36.6 144.558 36.068 144.558C35.6107 144.558 35.214 144.67 34.878 144.894C34.542 145.118 34.2807 145.436 34.094 145.846C33.9073 146.257 33.814 146.738 33.814 147.288C33.814 147.839 33.9073 148.324 34.094 148.744C34.2807 149.164 34.542 149.491 34.878 149.724C35.2233 149.958 35.6247 150.074 36.082 150.074C36.5953 150.074 37.0247 149.934 37.37 149.654C37.7153 149.365 37.9347 148.992 38.028 148.534H39.064C38.98 149.029 38.7933 149.468 38.504 149.85C38.224 150.224 37.874 150.513 37.454 150.718C37.034 150.924 36.5673 151.026 36.054 151.026ZM43.3095 151.026C42.6282 151.026 42.0262 150.868 41.5035 150.55C40.9808 150.224 40.5702 149.78 40.2715 149.22C39.9728 148.66 39.8235 148.016 39.8235 147.288C39.8235 146.56 39.9682 145.921 40.2575 145.37C40.5562 144.81 40.9715 144.376 41.5035 144.068C42.0355 143.76 42.6468 143.606 43.3375 143.606C44.0002 143.606 44.5742 143.751 45.0595 144.04C45.5542 144.33 45.9322 144.736 46.1935 145.258C46.4642 145.781 46.5995 146.397 46.5995 147.106C46.5995 147.2 46.5948 147.288 46.5855 147.372C46.5855 147.456 46.5762 147.55 46.5575 147.652H40.6635V146.714H45.8715L45.5075 147.232C45.5075 146.374 45.3162 145.716 44.9335 145.258C44.5602 144.792 44.0282 144.558 43.3375 144.558C42.6282 144.558 42.0542 144.806 41.6155 145.3C41.1862 145.786 40.9715 146.444 40.9715 147.274C40.9715 148.124 41.1862 148.805 41.6155 149.318C42.0542 149.822 42.6375 150.074 43.3655 150.074C43.8228 150.074 44.2242 149.976 44.5695 149.78C44.9148 149.575 45.1668 149.286 45.3255 148.912H46.3895C46.1562 149.566 45.7642 150.084 45.2135 150.466C44.6722 150.84 44.0375 151.026 43.3095 151.026ZM48.0059 150.886V143.746H49.1259V150.886H48.0059ZM47.9219 142.122V140.806H49.2099V142.122H47.9219ZM53.0794 150.886L50.1254 143.746H51.3294L53.7934 150.13H53.3454L55.7954 143.746H56.9434L53.9894 150.886H53.0794ZM60.7898 151.026C60.1085 151.026 59.5065 150.868 58.9838 150.55C58.4612 150.224 58.0505 149.78 57.7518 149.22C57.4532 148.66 57.3038 148.016 57.3038 147.288C57.3038 146.56 57.4485 145.921 57.7378 145.37C58.0365 144.81 58.4518 144.376 58.9838 144.068C59.5158 143.76 60.1272 143.606 60.8178 143.606C61.4805 143.606 62.0545 143.751 62.5398 144.04C63.0345 144.33 63.4125 144.736 63.6738 145.258C63.9445 145.781 64.0798 146.397 64.0798 147.106C64.0798 147.2 64.0752 147.288 64.0658 147.372C64.0658 147.456 64.0565 147.55 64.0378 147.652H58.1438V146.714H63.3518L62.9878 147.232C62.9878 146.374 62.7965 145.716 62.4138 145.258C62.0405 144.792 61.5085 144.558 60.8178 144.558C60.1085 144.558 59.5345 144.806 59.0958 145.3C58.6665 145.786 58.4518 146.444 58.4518 147.274C58.4518 148.124 58.6665 148.805 59.0958 149.318C59.5345 149.822 60.1178 150.074 60.8458 150.074C61.3032 150.074 61.7045 149.976 62.0498 149.78C62.3952 149.575 62.6472 149.286 62.8058 148.912H63.8698C63.6365 149.566 63.2445 150.084 62.6938 150.466C62.1525 150.84 61.5178 151.026 60.7898 151.026Z" fill="white"/>
<rect x="16" y="163.886" width="363" height="67.8863" rx="19.2156" fill="white" fill-opacity="0.05"/>
<rect x="16.1501" y="164.036" width="362.7" height="67.586" rx="19.0654" stroke="white" stroke-opacity="0.1" stroke-width="0.300243"/>
<path d="M38.416 196.989C37.7013 196.989 37.04 196.845 36.432 196.557C35.8347 196.259 35.312 195.848 34.864 195.325C34.416 194.792 34.064 194.168 33.808 193.453C33.5627 192.728 33.44 191.933 33.44 191.069C33.44 190.205 33.5627 189.416 33.808 188.701C34.064 187.976 34.4107 187.352 34.848 186.829C35.296 186.296 35.8187 185.885 36.416 185.597C37.0133 185.299 37.664 185.149 38.368 185.149C39.0507 185.149 39.6747 185.272 40.24 185.517C40.8053 185.752 41.28 186.093 41.664 186.541C42.0587 186.989 42.32 187.517 42.448 188.125H41.072C40.9547 187.56 40.6507 187.123 40.16 186.813C39.68 186.493 39.0987 186.333 38.416 186.333C37.7013 186.333 37.0667 186.536 36.512 186.941C35.968 187.336 35.5413 187.891 35.232 188.605C34.9333 189.309 34.784 190.131 34.784 191.069C34.784 192.008 34.9387 192.835 35.248 193.549C35.5573 194.253 35.984 194.808 36.528 195.213C37.072 195.608 37.696 195.805 38.4 195.805C39.0933 195.805 39.6853 195.651 40.176 195.341C40.6773 195.021 40.9867 194.579 41.104 194.013H42.48C42.352 194.632 42.096 195.165 41.712 195.613C41.328 196.051 40.8533 196.392 40.288 196.637C39.7227 196.872 39.0987 196.989 38.416 196.989ZM32 190.397L32.224 189.309H39.984L39.76 190.397H32ZM32 192.797L32.224 191.709H39.552L39.328 192.797H32ZM47.5068 196.989C46.8348 196.989 46.2321 196.861 45.6988 196.605C45.1654 196.339 44.7334 195.949 44.4028 195.437C44.0721 194.915 43.8588 194.264 43.7628 193.485H45.1708C45.2774 194.317 45.5388 194.92 45.9548 195.293C46.3708 195.656 46.8988 195.837 47.5388 195.837C48.0081 195.837 48.4134 195.741 48.7548 195.549C49.0961 195.357 49.3788 195.064 49.6028 194.669C49.8268 194.275 49.9921 193.773 50.0988 193.165C50.2054 192.547 50.2588 191.816 50.2588 190.973V189.933L50.6268 189.981C50.5308 190.472 50.3174 190.909 49.9868 191.293C49.6561 191.667 49.2454 191.96 48.7548 192.173C48.2641 192.376 47.7361 192.477 47.1708 192.477C46.4668 192.477 45.8481 192.323 45.3148 192.013C44.7814 191.693 44.3601 191.256 44.0508 190.701C43.7521 190.147 43.6028 189.517 43.6028 188.813C43.6028 188.067 43.7681 187.421 44.0988 186.877C44.4294 186.333 44.8881 185.912 45.4748 185.613C46.0721 185.304 46.7548 185.149 47.5228 185.149C48.8881 185.149 49.9228 185.645 50.6268 186.637C51.3414 187.629 51.6988 189.085 51.6988 191.005C51.6988 192.285 51.5334 193.373 51.2028 194.269C50.8828 195.155 50.4081 195.832 49.7788 196.301C49.1601 196.76 48.4028 196.989 47.5068 196.989ZM47.5068 191.357C48.2428 191.357 48.8508 191.149 49.3308 190.733C49.8214 190.317 50.0668 189.72 50.0668 188.941C50.0668 188.419 49.9494 187.96 49.7148 187.565C49.4908 187.171 49.1814 186.861 48.7868 186.637C48.3921 186.413 47.9441 186.301 47.4428 186.301C46.7281 186.301 46.1468 186.531 45.6988 186.989C45.2614 187.437 45.0428 188.056 45.0428 188.845C45.0428 189.603 45.2561 190.211 45.6828 190.669C46.1201 191.128 46.7281 191.357 47.5068 191.357ZM52.4826 199.133V198.477C52.792 198.36 53.016 198.173 53.1546 197.917C53.2933 197.672 53.3626 197.293 53.3626 196.781L53.8586 196.829H52.4826V195.197H54.0986V196.493C54.0986 197.176 53.9706 197.741 53.7146 198.189C53.4586 198.637 53.048 198.952 52.4826 199.133ZM58.8995 196.989C57.7582 196.989 56.8462 196.685 56.1635 196.077C55.4808 195.459 55.0648 194.659 54.9155 193.677H56.3235C56.4622 194.371 56.7555 194.904 57.2035 195.277C57.6622 195.651 58.2168 195.837 58.8675 195.837C59.5502 195.837 60.1262 195.624 60.5955 195.197C61.0755 194.771 61.3155 194.093 61.3155 193.165C61.3155 192.237 61.0755 191.544 60.5955 191.085C60.1262 190.616 59.5288 190.381 58.8035 190.381C58.2808 190.381 57.8275 190.488 57.4435 190.701C57.0595 190.915 56.8035 191.165 56.6755 191.453H55.4915L56.0195 185.309H62.0995V186.461H56.8035L57.2515 185.981L56.8835 190.621L56.5795 190.509C56.7715 190.189 57.0808 189.912 57.5075 189.677C57.9342 189.443 58.4568 189.325 59.0755 189.325C59.7902 189.325 60.4195 189.48 60.9635 189.789C61.5182 190.099 61.9502 190.541 62.2595 191.117C62.5795 191.683 62.7395 192.365 62.7395 193.165C62.7395 193.965 62.5795 194.653 62.2595 195.229C61.9502 195.795 61.5075 196.232 60.9315 196.541C60.3662 196.84 59.6888 196.989 58.8995 196.989ZM68.119 196.989C66.7643 196.989 65.719 196.499 64.983 195.517C64.2577 194.525 63.895 193.096 63.895 191.229C63.895 189.939 64.0657 188.84 64.407 187.933C64.759 187.027 65.2603 186.339 65.911 185.869C66.5617 185.389 67.335 185.149 68.231 185.149C69.2123 185.149 70.023 185.432 70.663 185.997C71.303 186.563 71.6923 187.341 71.831 188.333H70.423C70.327 187.672 70.0817 187.171 69.687 186.829C69.303 186.477 68.8123 186.301 68.215 186.301C67.2657 186.301 66.5457 186.707 66.055 187.517C65.575 188.328 65.335 189.544 65.335 191.165V192.205L64.967 192.061C65.063 191.56 65.2763 191.123 65.607 190.749C65.9377 190.376 66.3483 190.088 66.839 189.885C67.3297 189.672 67.8577 189.565 68.423 189.565C69.1483 189.565 69.7777 189.725 70.311 190.045C70.855 190.355 71.2763 190.792 71.575 191.357C71.8843 191.912 72.039 192.563 72.039 193.309C72.039 194.045 71.8737 194.691 71.543 195.245C71.2123 195.8 70.7537 196.232 70.167 196.541C69.5803 196.84 68.8977 196.989 68.119 196.989ZM68.167 195.837C68.8923 195.837 69.479 195.608 69.927 195.149C70.375 194.691 70.599 194.072 70.599 193.293C70.599 192.483 70.3803 191.848 69.943 191.389C69.5163 190.92 68.9137 190.685 68.135 190.685C67.3883 190.685 66.7643 190.904 66.263 191.341C65.7723 191.779 65.527 192.381 65.527 193.149C65.527 193.683 65.639 194.152 65.863 194.557C66.0977 194.963 66.4123 195.277 66.807 195.501C67.2123 195.725 67.6657 195.837 68.167 195.837ZM75.8906 196.829V186.621L76.2266 186.701C76.0986 186.989 75.8533 187.277 75.4906 187.565C75.128 187.853 74.7066 188.104 74.2266 188.317C73.7573 188.531 73.272 188.675 72.7706 188.749V187.517C73.272 187.432 73.752 187.283 74.2106 187.069C74.6693 186.856 75.0746 186.6 75.4266 186.301C75.7893 185.992 76.056 185.661 76.2266 185.309H77.1706V196.829H75.8906Z" fill="white"/>
<path d="M33.4 212.829V212.149H35.7C36.14 212.149 36.49 212.029 36.75 211.789C37.01 211.549 37.14 211.226 37.14 210.819C37.14 210.386 37.0033 210.039 36.73 209.779C36.4567 209.519 36.09 209.389 35.63 209.389H33.4V208.729H35.52C35.9733 208.729 36.3267 208.619 36.58 208.399C36.8333 208.179 36.96 207.869 36.96 207.469C36.96 207.096 36.84 206.809 36.6 206.609C36.3667 206.409 36.0233 206.309 35.57 206.309H33.4V205.629H35.64C36.3 205.629 36.82 205.786 37.2 206.099C37.5867 206.413 37.78 206.839 37.78 207.379C37.78 207.719 37.7033 208.023 37.55 208.289C37.3967 208.556 37.1867 208.766 36.92 208.919C36.6533 209.066 36.3467 209.139 36 209.139L36.05 208.929C36.4167 208.929 36.7433 209.016 37.03 209.189C37.3233 209.363 37.5533 209.599 37.72 209.899C37.8933 210.193 37.98 210.529 37.98 210.909C37.98 211.289 37.8867 211.626 37.7 211.919C37.52 212.206 37.2633 212.429 36.93 212.589C36.5967 212.749 36.21 212.829 35.77 212.829H33.4ZM32.86 212.829V205.629H33.68V212.829H32.86ZM42.0874 212.829C42.0608 212.716 42.0408 212.586 42.0274 212.439C42.0208 212.293 42.0174 212.106 42.0174 211.879H41.9674V209.439C41.9674 209.053 41.8774 208.769 41.6974 208.589C41.5241 208.403 41.2408 208.309 40.8474 208.309C40.4608 208.309 40.1508 208.389 39.9174 208.549C39.6908 208.703 39.5641 208.923 39.5374 209.209H38.7674C38.8008 208.716 39.0074 208.329 39.3874 208.049C39.7674 207.769 40.2641 207.629 40.8774 207.629C41.5108 207.629 41.9808 207.779 42.2874 208.079C42.5941 208.379 42.7474 208.829 42.7474 209.429V211.879C42.7474 212.026 42.7574 212.179 42.7774 212.339C42.7974 212.493 42.8241 212.656 42.8574 212.829H42.0874ZM40.3374 212.929C39.8108 212.929 39.3908 212.803 39.0774 212.549C38.7708 212.289 38.6174 211.936 38.6174 211.489C38.6174 211.043 38.7708 210.696 39.0774 210.449C39.3841 210.203 39.8308 210.029 40.4174 209.929L42.1974 209.629V210.289L40.5374 210.549C40.1641 210.609 39.8808 210.709 39.6874 210.849C39.4941 210.989 39.3974 211.193 39.3974 211.459C39.3974 211.719 39.4841 211.916 39.6574 212.049C39.8374 212.183 40.1008 212.249 40.4474 212.249C40.8941 212.249 41.2574 212.149 41.5374 211.949C41.8241 211.743 41.9674 211.476 41.9674 211.149L42.0974 211.859C41.9908 212.199 41.7808 212.463 41.4674 212.649C41.1608 212.836 40.7841 212.929 40.3374 212.929ZM44.0895 212.829V205.629H44.8895V212.829H44.0895ZM49.4218 212.829C49.3951 212.716 49.3751 212.586 49.3618 212.439C49.3551 212.293 49.3518 212.106 49.3518 211.879H49.3018V209.439C49.3018 209.053 49.2118 208.769 49.0318 208.589C48.8585 208.403 48.5751 208.309 48.1818 208.309C47.7951 208.309 47.4851 208.389 47.2518 208.549C47.0251 208.703 46.8985 208.923 46.8718 209.209H46.1018C46.1351 208.716 46.3418 208.329 46.7218 208.049C47.1018 207.769 47.5985 207.629 48.2118 207.629C48.8451 207.629 49.3151 207.779 49.6218 208.079C49.9285 208.379 50.0818 208.829 50.0818 209.429V211.879C50.0818 212.026 50.0918 212.179 50.1118 212.339C50.1318 212.493 50.1585 212.656 50.1918 212.829H49.4218ZM47.6718 212.929C47.1451 212.929 46.7251 212.803 46.4118 212.549C46.1051 212.289 45.9518 211.936 45.9518 211.489C45.9518 211.043 46.1051 210.696 46.4118 210.449C46.7185 210.203 47.1651 210.029 47.7518 209.929L49.5318 209.629V210.289L47.8718 210.549C47.4985 210.609 47.2151 210.709 47.0218 210.849C46.8285 210.989 46.7318 211.193 46.7318 211.459C46.7318 211.719 46.8185 211.916 46.9918 212.049C47.1718 212.183 47.4351 212.249 47.7818 212.249C48.2285 212.249 48.5918 212.149 48.8718 211.949C49.1585 211.743 49.3018 211.476 49.3018 211.149L49.4318 211.859C49.3251 212.199 49.1151 212.463 48.8018 212.649C48.4951 212.836 48.1185 212.929 47.6718 212.929ZM51.4238 212.829V207.729H52.1738V208.929H52.2238V212.829H51.4238ZM55.0738 212.829V209.489C55.0738 209.103 54.9772 208.813 54.7838 208.619C54.5905 208.426 54.3038 208.329 53.9238 208.329C53.5905 208.329 53.2938 208.403 53.0338 208.549C52.7805 208.696 52.5805 208.899 52.4338 209.159C52.2938 209.419 52.2238 209.723 52.2238 210.069L52.0938 208.859C52.2672 208.479 52.5305 208.179 52.8838 207.959C53.2438 207.739 53.6505 207.629 54.1038 207.629C54.6372 207.629 55.0638 207.783 55.3838 208.089C55.7105 208.389 55.8738 208.786 55.8738 209.279V212.829H55.0738ZM59.2302 212.929C58.7635 212.929 58.3468 212.816 57.9802 212.589C57.6202 212.356 57.3335 212.039 57.1202 211.639C56.9135 211.233 56.8102 210.773 56.8102 210.259C56.8102 209.746 56.9135 209.293 57.1202 208.899C57.3335 208.506 57.6202 208.196 57.9802 207.969C58.3468 207.743 58.7602 207.629 59.2202 207.629C59.6002 207.629 59.9402 207.703 60.2402 207.849C60.5468 207.996 60.7968 208.206 60.9902 208.479C61.1902 208.746 61.3168 209.059 61.3702 209.419H60.6302C60.5635 209.093 60.4102 208.826 60.1702 208.619C59.9302 208.413 59.6202 208.309 59.2402 208.309C58.9135 208.309 58.6302 208.389 58.3902 208.549C58.1502 208.709 57.9635 208.936 57.8302 209.229C57.6968 209.523 57.6302 209.866 57.6302 210.259C57.6302 210.653 57.6968 210.999 57.8302 211.299C57.9635 211.599 58.1502 211.833 58.3902 211.999C58.6368 212.166 58.9235 212.249 59.2502 212.249C59.6168 212.249 59.9235 212.149 60.1702 211.949C60.4168 211.743 60.5735 211.476 60.6402 211.149H61.3802C61.3202 211.503 61.1868 211.816 60.9802 212.089C60.7802 212.356 60.5302 212.563 60.2302 212.709C59.9302 212.856 59.5968 212.929 59.2302 212.929ZM64.4127 212.929C63.926 212.929 63.496 212.816 63.1227 212.589C62.7493 212.356 62.456 212.039 62.2427 211.639C62.0293 211.239 61.9227 210.779 61.9227 210.259C61.9227 209.739 62.026 209.283 62.2327 208.889C62.446 208.489 62.7427 208.179 63.1227 207.959C63.5027 207.739 63.9393 207.629 64.4327 207.629C64.906 207.629 65.316 207.733 65.6627 207.939C66.016 208.146 66.286 208.436 66.4727 208.809C66.666 209.183 66.7627 209.623 66.7627 210.129C66.7627 210.196 66.7593 210.259 66.7527 210.319C66.7527 210.379 66.746 210.446 66.7327 210.519H62.5227V209.849H66.2427L65.9827 210.219C65.9827 209.606 65.846 209.136 65.5727 208.809C65.306 208.476 64.926 208.309 64.4327 208.309C63.926 208.309 63.516 208.486 63.2027 208.839C62.896 209.186 62.7427 209.656 62.7427 210.249C62.7427 210.856 62.896 211.343 63.2027 211.709C63.516 212.069 63.9327 212.249 64.4527 212.249C64.7793 212.249 65.066 212.179 65.3127 212.039C65.5593 211.893 65.7393 211.686 65.8527 211.419H66.6127C66.446 211.886 66.166 212.256 65.7727 212.529C65.386 212.796 64.9327 212.929 64.4127 212.929ZM69.5291 212.829V211.799H70.5591V212.829H69.5291ZM69.5291 209.029V207.999H70.5591V209.029H69.5291ZM76.9299 212.929C76.4833 212.929 76.0699 212.839 75.6899 212.659C75.3166 212.473 74.9899 212.216 74.7099 211.889C74.4299 211.556 74.2099 211.166 74.0499 210.719C73.8966 210.266 73.8199 209.769 73.8199 209.229C73.8199 208.689 73.8966 208.196 74.0499 207.749C74.2099 207.296 74.4266 206.906 74.6999 206.579C74.9799 206.246 75.3066 205.989 75.6799 205.809C76.0533 205.623 76.4599 205.529 76.8999 205.529C77.3266 205.529 77.7166 205.606 78.0699 205.759C78.4233 205.906 78.7199 206.119 78.9599 206.399C79.2066 206.679 79.3699 207.009 79.4499 207.389H78.5899C78.5166 207.036 78.3266 206.763 78.0199 206.569C77.7199 206.369 77.3566 206.269 76.9299 206.269C76.4833 206.269 76.0866 206.396 75.7399 206.649C75.3999 206.896 75.1333 207.243 74.9399 207.689C74.7533 208.129 74.6599 208.643 74.6599 209.229C74.6599 209.816 74.7566 210.333 74.9499 210.779C75.1433 211.219 75.4099 211.566 75.7499 211.819C76.0899 212.066 76.4799 212.189 76.9199 212.189C77.3533 212.189 77.7233 212.093 78.0299 211.899C78.3433 211.699 78.5366 211.423 78.6099 211.069H79.4699C79.3899 211.456 79.2299 211.789 78.9899 212.069C78.7499 212.343 78.4533 212.556 78.0999 212.709C77.7466 212.856 77.3566 212.929 76.9299 212.929ZM72.9199 208.809L73.0599 208.129H77.9099L77.7699 208.809H72.9199ZM72.9199 210.309L73.0599 209.629H77.6399L77.4999 210.309H72.9199ZM81.3716 212.829C81.465 211.696 81.7283 210.576 82.1616 209.469C82.6016 208.356 83.2583 207.219 84.1316 206.059L84.1816 206.349H79.9716V205.629H84.8316V206.229C84.2983 207.009 83.855 207.763 83.5016 208.489C83.155 209.216 82.885 209.936 82.6916 210.649C82.4983 211.356 82.375 212.083 82.3216 212.829H81.3716ZM87.637 212.929C87.1303 212.929 86.6903 212.839 86.317 212.659C85.9503 212.479 85.667 212.233 85.467 211.919C85.267 211.606 85.167 211.256 85.167 210.869C85.167 210.509 85.247 210.183 85.407 209.889C85.567 209.596 85.7803 209.363 86.047 209.189C86.3203 209.016 86.6203 208.929 86.947 208.929L86.967 209.139C86.6603 209.139 86.3836 209.066 86.137 208.919C85.8903 208.766 85.697 208.559 85.557 208.299C85.417 208.039 85.347 207.753 85.347 207.439C85.347 207.066 85.4436 206.736 85.637 206.449C85.8303 206.163 86.1003 205.939 86.447 205.779C86.7936 205.613 87.1936 205.529 87.647 205.529C88.1003 205.529 88.497 205.613 88.837 205.779C89.177 205.939 89.4436 206.163 89.637 206.449C89.8303 206.736 89.927 207.063 89.927 207.429C89.927 207.749 89.857 208.039 89.717 208.299C89.577 208.553 89.3836 208.756 89.137 208.909C88.8903 209.063 88.6103 209.139 88.297 209.139L88.327 208.929C88.6603 208.929 88.9603 209.016 89.227 209.189C89.4936 209.363 89.707 209.596 89.867 209.889C90.027 210.183 90.107 210.509 90.107 210.869C90.107 211.256 90.007 211.606 89.807 211.919C89.607 212.233 89.3203 212.479 88.947 212.659C88.5803 212.839 88.1436 212.929 87.637 212.929ZM87.637 212.209C88.1236 212.209 88.507 212.079 88.787 211.819C89.0736 211.559 89.217 211.216 89.217 210.789C89.217 210.363 89.077 210.026 88.797 209.779C88.517 209.533 88.1303 209.409 87.637 209.409C87.1436 209.409 86.757 209.533 86.477 209.779C86.197 210.026 86.057 210.363 86.057 210.789C86.057 211.216 86.197 211.559 86.477 211.819C86.7636 212.079 87.1503 212.209 87.637 212.209ZM87.637 208.709C88.077 208.709 88.4203 208.599 88.667 208.379C88.9203 208.159 89.047 207.866 89.047 207.499C89.047 207.119 88.917 206.816 88.657 206.589C88.397 206.363 88.057 206.249 87.637 206.249C87.2103 206.249 86.867 206.363 86.607 206.589C86.3536 206.816 86.227 207.119 86.227 207.499C86.227 207.866 86.3536 208.159 86.607 208.379C86.8603 208.599 87.2036 208.709 87.637 208.709ZM93.403 212.929C92.983 212.929 92.6064 212.849 92.273 212.689C91.9397 212.523 91.6697 212.279 91.463 211.959C91.2564 211.633 91.123 211.226 91.063 210.739H91.943C92.0097 211.259 92.173 211.636 92.433 211.869C92.693 212.096 93.023 212.209 93.423 212.209C93.7164 212.209 93.9697 212.149 94.183 212.029C94.3964 211.909 94.573 211.726 94.713 211.479C94.853 211.233 94.9564 210.919 95.023 210.539C95.0897 210.153 95.123 209.696 95.123 209.169V208.519L95.353 208.549C95.293 208.856 95.1597 209.129 94.953 209.369C94.7464 209.603 94.4897 209.786 94.183 209.919C93.8764 210.046 93.5464 210.109 93.193 210.109C92.753 210.109 92.3664 210.013 92.033 209.819C91.6997 209.619 91.4364 209.346 91.243 208.999C91.0564 208.653 90.963 208.259 90.963 207.819C90.963 207.353 91.0664 206.949 91.273 206.609C91.4797 206.269 91.7664 206.006 92.133 205.819C92.5064 205.626 92.933 205.529 93.413 205.529C94.2664 205.529 94.913 205.839 95.353 206.459C95.7997 207.079 96.023 207.989 96.023 209.189C96.023 209.989 95.9197 210.669 95.713 211.229C95.513 211.783 95.2164 212.206 94.823 212.499C94.4364 212.786 93.963 212.929 93.403 212.929ZM93.403 209.409C93.863 209.409 94.243 209.279 94.543 209.019C94.8497 208.759 95.003 208.386 95.003 207.899C95.003 207.573 94.9297 207.286 94.783 207.039C94.643 206.793 94.4497 206.599 94.203 206.459C93.9564 206.319 93.6764 206.249 93.363 206.249C92.9164 206.249 92.553 206.393 92.273 206.679C91.9997 206.959 91.863 207.346 91.863 207.839C91.863 208.313 91.9964 208.693 92.263 208.979C92.5364 209.266 92.9164 209.409 93.403 209.409ZM96.513 214.269V213.859C96.7063 213.786 96.8463 213.669 96.933 213.509C97.0196 213.356 97.063 213.119 97.063 212.799L97.373 212.829H96.513V211.809H97.523V212.619C97.523 213.046 97.443 213.399 97.283 213.679C97.123 213.959 96.8663 214.156 96.513 214.269ZM98.2965 212.829V212.129C99.0165 211.536 99.6165 211.016 100.096 210.569C100.583 210.123 100.97 209.726 101.256 209.379C101.55 209.033 101.756 208.716 101.876 208.429C102.003 208.136 102.066 207.849 102.066 207.569C102.066 207.156 101.943 206.833 101.696 206.599C101.45 206.366 101.11 206.249 100.676 206.249C100.23 206.249 99.8698 206.376 99.5965 206.629C99.3232 206.883 99.1565 207.246 99.0965 207.719H98.2365C98.3032 207.066 98.5532 206.539 98.9865 206.139C99.4265 205.733 100.01 205.529 100.736 205.529C101.41 205.529 101.946 205.709 102.346 206.069C102.746 206.429 102.946 206.923 102.946 207.549C102.946 207.889 102.88 208.229 102.746 208.569C102.62 208.909 102.406 209.266 102.106 209.639C101.813 210.013 101.423 210.426 100.936 210.879C100.456 211.326 99.8598 211.833 99.1465 212.399L98.9565 212.109H103.066V212.829H98.2965ZM105.435 212.829V206.449L105.645 206.499C105.565 206.679 105.411 206.859 105.185 207.039C104.958 207.219 104.695 207.376 104.395 207.509C104.101 207.643 103.798 207.733 103.485 207.779V207.009C103.798 206.956 104.098 206.863 104.385 206.729C104.671 206.596 104.925 206.436 105.145 206.249C105.371 206.056 105.538 205.849 105.645 205.629H106.235V212.829H105.435ZM109.812 212.929C109.332 212.929 108.909 212.843 108.542 212.669C108.182 212.489 107.889 212.229 107.662 211.889C107.442 211.549 107.305 211.139 107.252 210.659H108.112C108.185 211.159 108.369 211.543 108.662 211.809C108.955 212.076 109.342 212.209 109.822 212.209C110.275 212.209 110.632 212.089 110.892 211.849C111.152 211.609 111.282 211.283 111.282 210.869C111.282 210.436 111.155 210.086 110.902 209.819C110.649 209.546 110.309 209.409 109.882 209.409H108.982V208.709H109.852C110.239 208.709 110.545 208.599 110.772 208.379C111.005 208.153 111.122 207.853 111.122 207.479C111.122 207.086 110.999 206.783 110.752 206.569C110.512 206.356 110.185 206.249 109.772 206.249C109.365 206.249 109.019 206.369 108.732 206.609C108.445 206.843 108.275 207.179 108.222 207.619H107.352C107.392 207.193 107.519 206.826 107.732 206.519C107.945 206.206 108.229 205.963 108.582 205.789C108.942 205.616 109.345 205.529 109.792 205.529C110.225 205.529 110.609 205.606 110.942 205.759C111.275 205.913 111.535 206.133 111.722 206.419C111.909 206.699 112.002 207.029 112.002 207.409C112.002 207.749 111.925 208.049 111.772 208.309C111.619 208.569 111.409 208.773 111.142 208.919C110.882 209.066 110.582 209.139 110.242 209.139L110.182 208.929C110.589 208.929 110.939 209.016 111.232 209.189C111.532 209.356 111.762 209.586 111.922 209.879C112.089 210.173 112.172 210.513 112.172 210.899C112.172 211.299 112.072 211.653 111.872 211.959C111.672 212.266 111.395 212.506 111.042 212.679C110.689 212.846 110.279 212.929 109.812 212.929ZM112.774 214.269V213.859C112.967 213.786 113.107 213.669 113.194 213.509C113.28 213.356 113.324 213.119 113.324 212.799L113.634 212.829H112.774V211.809H113.784V212.619C113.784 213.046 113.704 213.399 113.544 213.679C113.384 213.959 113.127 214.156 112.774 214.269ZM116.784 212.929C116.071 212.929 115.501 212.739 115.074 212.359C114.647 211.973 114.387 211.473 114.294 210.859H115.174C115.261 211.293 115.444 211.626 115.724 211.859C116.011 212.093 116.357 212.209 116.764 212.209C117.191 212.209 117.551 212.076 117.844 211.809C118.144 211.543 118.294 211.119 118.294 210.539C118.294 209.959 118.144 209.526 117.844 209.239C117.551 208.946 117.177 208.799 116.724 208.799C116.397 208.799 116.114 208.866 115.874 208.999C115.634 209.133 115.474 209.289 115.394 209.469H114.654L114.984 205.629H118.784V206.349H115.474L115.754 206.049L115.524 208.949L115.334 208.879C115.454 208.679 115.647 208.506 115.914 208.359C116.181 208.213 116.507 208.139 116.894 208.139C117.341 208.139 117.734 208.236 118.074 208.429C118.421 208.623 118.691 208.899 118.884 209.259C119.084 209.613 119.184 210.039 119.184 210.539C119.184 211.039 119.084 211.469 118.884 211.829C118.691 212.183 118.414 212.456 118.054 212.649C117.701 212.836 117.277 212.929 116.784 212.929ZM122.546 212.929C121.7 212.929 121.046 212.623 120.586 212.009C120.133 211.389 119.906 210.496 119.906 209.329C119.906 208.523 120.013 207.836 120.226 207.269C120.446 206.703 120.76 206.273 121.166 205.979C121.573 205.679 122.056 205.529 122.616 205.529C123.23 205.529 123.736 205.706 124.136 206.059C124.536 206.413 124.78 206.899 124.866 207.519H123.986C123.926 207.106 123.773 206.793 123.526 206.579C123.286 206.359 122.98 206.249 122.606 206.249C122.013 206.249 121.563 206.503 121.256 207.009C120.956 207.516 120.806 208.276 120.806 209.289V209.939L120.576 209.849C120.636 209.536 120.77 209.263 120.976 209.029C121.183 208.796 121.44 208.616 121.746 208.489C122.053 208.356 122.383 208.289 122.736 208.289C123.19 208.289 123.583 208.389 123.916 208.589C124.256 208.783 124.52 209.056 124.706 209.409C124.9 209.756 124.996 210.163 124.996 210.629C124.996 211.089 124.893 211.493 124.686 211.839C124.48 212.186 124.193 212.456 123.826 212.649C123.46 212.836 123.033 212.929 122.546 212.929ZM122.576 212.209C123.03 212.209 123.396 212.066 123.676 211.779C123.956 211.493 124.096 211.106 124.096 210.619C124.096 210.113 123.96 209.716 123.686 209.429C123.42 209.136 123.043 208.989 122.556 208.989C122.09 208.989 121.7 209.126 121.386 209.399C121.08 209.673 120.926 210.049 120.926 210.529C120.926 210.863 120.996 211.156 121.136 211.409C121.283 211.663 121.48 211.859 121.726 211.999C121.98 212.139 122.263 212.209 122.576 212.209ZM127.404 212.829V206.449L127.614 206.499C127.534 206.679 127.38 206.859 127.154 207.039C126.927 207.219 126.664 207.376 126.364 207.509C126.07 207.643 125.767 207.733 125.454 207.779V207.009C125.767 206.956 126.067 206.863 126.354 206.729C126.64 206.596 126.894 206.436 127.114 206.249C127.34 206.056 127.507 205.849 127.614 205.629H128.204V212.829H127.404Z" fill="#606165"/>
<path d="M337.204 202.829V192.749H338.352V202.829H337.204ZM337.792 202.829V201.821H343.952V202.829H337.792ZM337.792 198.083V197.075H343.448V198.083H337.792ZM337.792 193.757V192.749H343.84V193.757H337.792ZM349.126 202.969C347.912 202.969 346.965 202.601 346.284 201.863C345.612 201.117 345.276 200.076 345.276 198.741V192.749H346.424V198.797C346.424 199.805 346.657 200.58 347.124 201.121C347.59 201.663 348.258 201.933 349.126 201.933C350.012 201.933 350.689 201.667 351.156 201.135C351.622 200.594 351.856 199.815 351.856 198.797V192.749H353.004V198.755C353.004 200.081 352.663 201.117 351.982 201.863C351.3 202.601 350.348 202.969 349.126 202.969ZM354.896 202.829V192.749H358.62C359.339 192.749 359.95 192.866 360.454 193.099C360.958 193.333 361.341 193.659 361.602 194.079C361.873 194.49 362.008 194.98 362.008 195.549C362.008 196.119 361.873 196.618 361.602 197.047C361.341 197.467 360.958 197.799 360.454 198.041C359.95 198.275 359.339 198.391 358.62 198.391H355.736V197.383H358.578C359.325 197.383 359.889 197.22 360.272 196.893C360.664 196.567 360.86 196.119 360.86 195.549C360.86 194.989 360.669 194.551 360.286 194.233C359.903 193.916 359.334 193.757 358.578 193.757H356.044V202.829H354.896ZM360.804 202.829L355.442 197.831H357.01L362.54 202.829H360.804Z" fill="white"/>
<g opacity="0.3">
<g filter="url(#filter1_f_1_258)">
<ellipse cx="35.2175" cy="37.2876" rx="35.2175" ry="37.2876" transform="matrix(0.954757 0.301977 -0.32333 0.94517 278.521 -93.02)" fill="white"/>
</g>
<g filter="url(#filter2_f_1_258)">
<ellipse cx="35.2175" cy="37.2876" rx="35.2175" ry="37.2876" transform="matrix(0.954757 0.301977 -0.32333 0.94517 278.531 -93.022)" fill="white"/>
</g>
<g filter="url(#filter3_f_1_258)">
<ellipse cx="38.501" cy="122.705" rx="38.501" ry="122.705" transform="matrix(0.228003 0.973197 -0.998932 -0.0645744 262.166 -90.3555)" fill="#CFD0DA"/>
</g>
</g>
</g>
<rect x="0.5" y="0.5" width="394" height="254.773" rx="19.5" stroke="url(#paint0_linear_1_258)" stroke-opacity="0.1"/>
<defs>
<filter id="filter0_f_1_258" x="-285.859" y="-188.601" width="894.602" height="631.759" filterUnits="userSpaceOnUse" color-interpolation-filters="sRGB">
<feFlood flood-opacity="0" result="BackgroundImageFix"/>
<feBlend mode="normal" in="SourceGraphic" in2="BackgroundImageFix" result="shape"/>
<feGaussianBlur stdDeviation="60" result="effect1_foregroundBlur_1_258"/>
</filter>
<filter id="filter1_f_1_258" x="50.9988" y="-297.325" width="498.181" height="500.366" filterUnits="userSpaceOnUse" color-interpolation-filters="sRGB">
<feFlood flood-opacity="0" result="BackgroundImageFix"/>
<feBlend mode="normal" in="SourceGraphic" in2="BackgroundImageFix" result="shape"/>
<feGaussianBlur stdDeviation="106.68" result="effect1_foregroundBlur_1_258"/>
</filter>
<filter id="filter2_f_1_258" x="-127.672" y="-476.008" width="855.543" height="857.728" filterUnits="userSpaceOnUse" color-interpolation-filters="sRGB">
<feFlood flood-opacity="0" result="BackgroundImageFix"/>
<feBlend mode="normal" in="SourceGraphic" in2="BackgroundImageFix" result="shape"/>
<feGaussianBlur stdDeviation="196.021" result="effect1_foregroundBlur_1_258"/>
</filter>
<filter id="filter3_f_1_258" x="-187.883" y="-312.476" width="672.507" height="503.332" filterUnits="userSpaceOnUse" color-interpolation-filters="sRGB">
<feFlood flood-opacity="0" result="BackgroundImageFix"/>
<feBlend mode="normal" in="SourceGraphic" in2="BackgroundImageFix" result="shape"/>
<feGaussianBlur stdDeviation="106.68" result="effect1_foregroundBlur_1_258"/>
</filter>
<linearGradient id="paint0_linear_1_258" x1="197.5" y1="0" x2="197.5" y2="255.773" gradientUnits="userSpaceOnUse">
<stop stop-color="white"/>
<stop offset="1" stop-color="white" stop-opacity="0.2"/>
</linearGradient>
<clipPath id="clip0_1_258">
<rect width="395" height="255.773" rx="20" fill="white"/>
</clipPath>
</defs>
</svg>
