<svg width="242" height="164" viewBox="0 0 242 164" fill="none" xmlns="http://www.w3.org/2000/svg">
<g clip-path="url(#clip0_1_241)">
<rect width="242" height="164" rx="20" fill="#0E0E0E"/>
<rect x="16.5" y="24.5" width="209" height="51" rx="9.5" stroke="white" stroke-opacity="0.1"/>
<path d="M29.5507 43V35.8H30.8507V43H29.5507ZM30.1707 40.11V39.08H34.2207V40.11H30.1707ZM30.1707 36.83V35.8H34.4607V36.83H30.1707ZM35.3382 43V37.9H36.5682V39.13H36.5982V43H35.3382ZM36.5982 40.34L36.4682 39.13C36.5882 38.6967 36.7915 38.3667 37.0782 38.14C37.3648 37.9133 37.7082 37.8 38.1082 37.8C38.2482 37.8 38.3482 37.8133 38.4082 37.84V39.03C38.3748 39.0167 38.3282 39.01 38.2682 39.01C38.2082 39.0033 38.1348 39 38.0482 39C37.5615 39 37.1982 39.1067 36.9582 39.32C36.7182 39.5333 36.5982 39.8733 36.5982 40.34ZM41.3058 43.1C40.7658 43.1 40.2892 42.9867 39.8758 42.76C39.4692 42.5333 39.1525 42.22 38.9258 41.82C38.6992 41.4133 38.5858 40.95 38.5858 40.43C38.5858 39.91 38.6992 39.4533 38.9258 39.06C39.1525 38.6667 39.4692 38.36 39.8758 38.14C40.2892 37.9133 40.7658 37.8 41.3058 37.8C41.8525 37.8 42.3292 37.9133 42.7358 38.14C43.1425 38.36 43.4592 38.6667 43.6858 39.06C43.9125 39.4533 44.0258 39.91 44.0258 40.43C44.0258 40.95 43.9092 41.4133 43.6758 41.82C43.4492 42.22 43.1325 42.5333 42.7258 42.76C42.3192 42.9867 41.8458 43.1 41.3058 43.1ZM41.3058 42.09C41.5725 42.09 41.8125 42.0233 42.0258 41.89C42.2392 41.75 42.4058 41.5567 42.5258 41.31C42.6458 41.0567 42.7058 40.76 42.7058 40.42C42.7058 39.92 42.5725 39.5267 42.3058 39.24C42.0458 38.9533 41.7125 38.81 41.3058 38.81C40.8992 38.81 40.5625 38.9533 40.2958 39.24C40.0292 39.5267 39.8958 39.92 39.8958 40.42C39.8958 40.76 39.9558 41.0567 40.0758 41.31C40.2025 41.5567 40.3692 41.75 40.5758 41.89C40.7892 42.0233 41.0325 42.09 41.3058 42.09ZM44.7526 43V37.9H45.9826V39.1H46.0126V43H44.7526ZM48.1826 43V39.71C48.1826 39.41 48.106 39.19 47.9526 39.05C47.806 38.9033 47.596 38.83 47.3226 38.83C47.0826 38.83 46.8626 38.8867 46.6626 39C46.4626 39.1133 46.3026 39.2733 46.1826 39.48C46.0693 39.6867 46.0126 39.9267 46.0126 40.2L45.8826 39.03C46.056 38.6567 46.306 38.36 46.6326 38.14C46.9593 37.9133 47.3393 37.8 47.7726 37.8C48.2926 37.8 48.7026 37.95 49.0026 38.25C49.3026 38.5433 49.4526 38.9233 49.4526 39.39V43H48.1826ZM51.6126 43V39.71C51.6126 39.41 51.5393 39.19 51.3926 39.05C51.246 38.9033 51.036 38.83 50.7626 38.83C50.516 38.83 50.2926 38.8867 50.0926 39C49.8926 39.1133 49.736 39.2733 49.6226 39.48C49.5093 39.6867 49.4526 39.9267 49.4526 40.2L49.2326 39.03C49.3993 38.6567 49.6526 38.36 49.9926 38.14C50.3326 37.9133 50.726 37.8 51.1726 37.8C51.706 37.8 52.1226 37.9533 52.4226 38.26C52.7293 38.56 52.8826 38.96 52.8826 39.46V43H51.6126ZM55.3103 43L57.9603 35.8H59.0803L56.5903 43H55.3103ZM60.7403 43L58.2603 35.8H59.4403L62.0803 43H60.7403ZM56.6803 40.17H60.6203V41.21H56.6803V40.17ZM62.8343 43V35.8H64.0943V43H62.8343ZM67.5219 43.1C66.9819 43.1 66.5086 42.9867 66.1019 42.76C65.7019 42.5333 65.3886 42.22 65.1619 41.82C64.9419 41.42 64.8319 40.96 64.8319 40.44C64.8319 39.92 64.9419 39.4633 65.1619 39.07C65.3886 38.67 65.7019 38.36 66.1019 38.14C66.5019 37.9133 66.9686 37.8 67.5019 37.8C68.0086 37.8 68.4486 37.9067 68.8219 38.12C69.1952 38.3267 69.4852 38.62 69.6919 39C69.8986 39.38 70.0019 39.8233 70.0019 40.33C70.0019 40.4233 69.9986 40.51 69.9919 40.59C69.9852 40.67 69.9752 40.75 69.9619 40.83H65.6119V39.95H68.9919L68.7319 40.19C68.7319 39.71 68.6219 39.35 68.4019 39.11C68.1819 38.87 67.8752 38.75 67.4819 38.75C67.0552 38.75 66.7152 38.8967 66.4619 39.19C66.2152 39.4833 66.0919 39.9067 66.0919 40.46C66.0919 41.0067 66.2152 41.4267 66.4619 41.72C66.7152 42.0067 67.0719 42.15 67.5319 42.15C67.7986 42.15 68.0319 42.1 68.2319 42C68.4319 41.9 68.5786 41.7467 68.6719 41.54H69.8619C69.6952 42.02 69.4119 42.4 69.0119 42.68C68.6186 42.96 68.1219 43.1 67.5219 43.1ZM73.8249 43L72.2549 40.72L70.1349 37.9H71.5649L72.9849 39.97L75.2549 43H73.8249ZM72.3549 39.93L73.7849 37.9H75.1849L72.9649 40.81L72.3549 39.93ZM72.8549 40.87L71.3149 43H69.9249L72.2549 39.98L72.8549 40.87ZM77.6776 43V35.8H79.6976L81.8976 42.74H81.1876L83.3876 35.8H85.4176V43H84.1376V36.23H84.3476L82.2076 43H80.8176L78.6976 36.29H78.8976V43H77.6776ZM89.692 43C89.6587 42.8667 89.632 42.72 89.612 42.56C89.5987 42.4 89.592 42.2067 89.592 41.98H89.552V39.56C89.552 39.2933 89.4753 39.0933 89.322 38.96C89.1753 38.82 88.9487 38.75 88.642 38.75C88.342 38.75 88.102 38.8067 87.922 38.92C87.7487 39.0267 87.642 39.1833 87.602 39.39H86.392C86.4453 38.9167 86.672 38.5333 87.072 38.24C87.472 37.9467 88.0087 37.8 88.682 37.8C89.382 37.8 89.912 37.96 90.272 38.28C90.632 38.5933 90.812 39.0567 90.812 39.67V41.98C90.812 42.14 90.822 42.3033 90.842 42.47C90.8687 42.6367 90.9053 42.8133 90.952 43H89.692ZM87.922 43.1C87.4087 43.1 86.9987 42.9733 86.692 42.72C86.392 42.46 86.242 42.1133 86.242 41.68C86.242 41.2133 86.412 40.8433 86.752 40.57C87.092 40.2967 87.572 40.1133 88.192 40.02L89.782 39.78V40.58L88.402 40.79C88.102 40.8367 87.8753 40.92 87.722 41.04C87.5753 41.16 87.502 41.3267 87.502 41.54C87.502 41.7333 87.572 41.8833 87.712 41.99C87.852 42.09 88.0453 42.14 88.292 42.14C88.652 42.14 88.952 42.05 89.192 41.87C89.432 41.69 89.552 41.47 89.552 41.21L89.692 41.98C89.5587 42.3467 89.3387 42.6267 89.032 42.82C88.732 43.0067 88.362 43.1 87.922 43.1ZM91.8882 43V37.9H93.1182V39.1H93.1482V43H91.8882ZM95.4682 43V39.78C95.4682 39.4667 95.3882 39.23 95.2282 39.07C95.0682 38.91 94.8348 38.83 94.5282 38.83C94.2615 38.83 94.0215 38.89 93.8082 39.01C93.6015 39.13 93.4382 39.2967 93.3182 39.51C93.2048 39.7233 93.1482 39.97 93.1482 40.25L93.0182 39.03C93.1915 38.6567 93.4448 38.36 93.7782 38.14C94.1115 37.9133 94.5115 37.8 94.9782 37.8C95.5315 37.8 95.9615 37.9567 96.2682 38.27C96.5815 38.5833 96.7382 39 96.7382 39.52V43H95.4682ZM101.451 43V41.85L101.551 41.87C101.465 42.2433 101.255 42.5433 100.921 42.77C100.588 42.99 100.191 43.1 99.7312 43.1C99.2645 43.1 98.8579 42.9933 98.5112 42.78C98.1712 42.56 97.9079 42.2533 97.7212 41.86C97.5345 41.4667 97.4412 41.0033 97.4412 40.47C97.4412 39.93 97.5379 39.46 97.7312 39.06C97.9245 38.66 98.1945 38.35 98.5412 38.13C98.8945 37.91 99.3045 37.8 99.7712 37.8C100.251 37.8 100.648 37.9167 100.961 38.15C101.275 38.3767 101.468 38.6933 101.541 39.1L101.411 39.11V35.8H102.681V43H101.451ZM100.101 42.07C100.508 42.07 100.831 41.93 101.071 41.65C101.318 41.3633 101.441 40.9633 101.441 40.45C101.441 39.9367 101.318 39.54 101.071 39.26C100.825 38.98 100.498 38.84 100.091 38.84C99.6912 38.84 99.3679 38.9833 99.1212 39.27C98.8745 39.55 98.7512 39.9467 98.7512 40.46C98.7512 40.9733 98.8745 41.37 99.1212 41.65C99.3679 41.93 99.6945 42.07 100.101 42.07ZM107.002 43C106.969 42.8667 106.942 42.72 106.922 42.56C106.909 42.4 106.902 42.2067 106.902 41.98H106.862V39.56C106.862 39.2933 106.785 39.0933 106.632 38.96C106.485 38.82 106.259 38.75 105.952 38.75C105.652 38.75 105.412 38.8067 105.232 38.92C105.059 39.0267 104.952 39.1833 104.912 39.39H103.702C103.755 38.9167 103.982 38.5333 104.382 38.24C104.782 37.9467 105.319 37.8 105.992 37.8C106.692 37.8 107.222 37.96 107.582 38.28C107.942 38.5933 108.122 39.0567 108.122 39.67V41.98C108.122 42.14 108.132 42.3033 108.152 42.47C108.179 42.6367 108.215 42.8133 108.262 43H107.002ZM105.232 43.1C104.719 43.1 104.309 42.9733 104.002 42.72C103.702 42.46 103.552 42.1133 103.552 41.68C103.552 41.2133 103.722 40.8433 104.062 40.57C104.402 40.2967 104.882 40.1133 105.502 40.02L107.092 39.78V40.58L105.712 40.79C105.412 40.8367 105.185 40.92 105.032 41.04C104.885 41.16 104.812 41.3267 104.812 41.54C104.812 41.7333 104.882 41.8833 105.022 41.99C105.162 42.09 105.355 42.14 105.602 42.14C105.962 42.14 106.262 42.05 106.502 41.87C106.742 41.69 106.862 41.47 106.862 41.21L107.002 41.98C106.869 42.3467 106.649 42.6267 106.342 42.82C106.042 43.0067 105.672 43.1 105.232 43.1Z" fill="white"/>
<path d="M31.7607 65V58.52H29.2907V57.8H35.0507V58.52H32.5807V65H31.7607ZM37.0706 65.1C36.5706 65.1 36.1306 64.9833 35.7506 64.75C35.3706 64.5167 35.0739 64.2 34.8606 63.8C34.6539 63.3933 34.5506 62.9367 34.5506 62.43C34.5506 61.9167 34.6573 61.4633 34.8706 61.07C35.0839 60.6767 35.3773 60.3667 35.7506 60.14C36.1306 59.9133 36.5706 59.8 37.0706 59.8C37.5773 59.8 38.0173 59.9133 38.3906 60.14C38.7706 60.3667 39.0639 60.6767 39.2706 61.07C39.4839 61.4633 39.5906 61.9167 39.5906 62.43C39.5906 62.9367 39.4839 63.3933 39.2706 63.8C39.0639 64.2 38.7706 64.5167 38.3906 64.75C38.0173 64.9833 37.5773 65.1 37.0706 65.1ZM37.0706 64.42C37.4173 64.42 37.7173 64.3367 37.9706 64.17C38.2239 63.9967 38.4206 63.76 38.5606 63.46C38.7006 63.16 38.7706 62.8133 38.7706 62.42C38.7706 61.8333 38.6139 61.3633 38.3006 61.01C37.9939 60.6567 37.5839 60.48 37.0706 60.48C36.5639 60.48 36.1539 60.6567 35.8406 61.01C35.5273 61.3633 35.3706 61.8333 35.3706 62.42C35.3706 62.8133 35.4406 63.16 35.5806 63.46C35.7206 63.76 35.9173 63.9967 36.1706 64.17C36.4306 64.3367 36.7306 64.42 37.0706 64.42ZM44.3004 65V63.81L44.4004 63.84C44.2738 64.2267 44.0404 64.5333 43.7004 64.76C43.3671 64.9867 42.9671 65.1 42.5004 65.1C42.0404 65.1 41.6371 64.99 41.2904 64.77C40.9504 64.55 40.6838 64.2433 40.4904 63.85C40.3038 63.4567 40.2104 62.9967 40.2104 62.47C40.2104 61.9367 40.3071 61.47 40.5004 61.07C40.6938 60.67 40.9638 60.36 41.3104 60.14C41.6571 59.92 42.0638 59.81 42.5304 59.81C43.0104 59.81 43.4138 59.9267 43.7404 60.16C44.0671 60.3933 44.2904 60.7233 44.4104 61.15L44.2504 61.17V57.8H45.0504V65H44.3004ZM42.6504 64.4C43.1638 64.4 43.5638 64.2267 43.8504 63.88C44.1438 63.5267 44.2904 63.0467 44.2904 62.44C44.2904 61.8467 44.1438 61.3767 43.8504 61.03C43.5571 60.6833 43.1571 60.51 42.6504 60.51C42.1438 60.51 41.7471 60.6833 41.4604 61.03C41.1738 61.3767 41.0304 61.8567 41.0304 62.47C41.0304 63.07 41.1738 63.5433 41.4604 63.89C41.7471 64.23 42.1438 64.4 42.6504 64.4ZM49.5849 65C49.5582 64.8867 49.5382 64.7567 49.5249 64.61C49.5182 64.4633 49.5149 64.2767 49.5149 64.05H49.4649V61.61C49.4649 61.2233 49.3749 60.94 49.1949 60.76C49.0215 60.5733 48.7382 60.48 48.3449 60.48C47.9582 60.48 47.6482 60.56 47.4149 60.72C47.1882 60.8733 47.0615 61.0933 47.0349 61.38H46.2649C46.2982 60.8867 46.5049 60.5 46.8849 60.22C47.2649 59.94 47.7615 59.8 48.3749 59.8C49.0082 59.8 49.4782 59.95 49.7849 60.25C50.0915 60.55 50.2449 61 50.2449 61.6V64.05C50.2449 64.1967 50.2549 64.35 50.2749 64.51C50.2949 64.6633 50.3215 64.8267 50.3549 65H49.5849ZM47.8349 65.1C47.3082 65.1 46.8882 64.9733 46.5749 64.72C46.2682 64.46 46.1149 64.1067 46.1149 63.66C46.1149 63.2133 46.2682 62.8667 46.5749 62.62C46.8815 62.3733 47.3282 62.2 47.9149 62.1L49.6949 61.8V62.46L48.0349 62.72C47.6615 62.78 47.3782 62.88 47.1849 63.02C46.9915 63.16 46.8949 63.3633 46.8949 63.63C46.8949 63.89 46.9815 64.0867 47.1549 64.22C47.3349 64.3533 47.5982 64.42 47.9449 64.42C48.3915 64.42 48.7549 64.32 49.0349 64.12C49.3215 63.9133 49.4649 63.6467 49.4649 63.32L49.5949 64.03C49.4882 64.37 49.2782 64.6333 48.9649 64.82C48.6582 65.0067 48.2815 65.1 47.8349 65.1ZM51.8023 67.05L52.9423 64.4L53.1223 64.12L54.7923 59.9H55.6123L52.6523 67.05H51.8023ZM53.0323 65.05L50.7423 59.9H51.6223L53.5923 64.51L53.0323 65.05ZM55.4975 66.44V66.03C55.6909 65.9567 55.8309 65.84 55.9175 65.68C56.0042 65.5267 56.0475 65.29 56.0475 64.97L56.3575 65H55.4975V63.98H56.5075V64.79C56.5075 65.2167 56.4275 65.57 56.2675 65.85C56.1075 66.13 55.8509 66.3267 55.4975 66.44ZM61.1283 65V58.62L61.3383 58.67C61.2583 58.85 61.105 59.03 60.8783 59.21C60.6517 59.39 60.3883 59.5467 60.0883 59.68C59.795 59.8133 59.4917 59.9033 59.1783 59.95V59.18C59.4917 59.1267 59.7917 59.0333 60.0783 58.9C60.365 58.7667 60.6183 58.6067 60.8383 58.42C61.065 58.2267 61.2317 58.02 61.3383 57.8H61.9283V65H61.1283ZM65.7246 65.1C64.8779 65.1 64.2246 64.7933 63.7646 64.18C63.3112 63.56 63.0846 62.6667 63.0846 61.5C63.0846 60.6933 63.1912 60.0067 63.4046 59.44C63.6246 58.8733 63.9379 58.4433 64.3446 58.15C64.7512 57.85 65.2346 57.7 65.7946 57.7C66.4079 57.7 66.9146 57.8767 67.3146 58.23C67.7146 58.5833 67.9579 59.07 68.0446 59.69H67.1646C67.1046 59.2767 66.9512 58.9633 66.7046 58.75C66.4646 58.53 66.1579 58.42 65.7846 58.42C65.1912 58.42 64.7412 58.6733 64.4346 59.18C64.1346 59.6867 63.9846 60.4467 63.9846 61.46V62.11L63.7546 62.02C63.8146 61.7067 63.9479 61.4333 64.1546 61.2C64.3612 60.9667 64.6179 60.7867 64.9246 60.66C65.2312 60.5267 65.5612 60.46 65.9146 60.46C66.3679 60.46 66.7612 60.56 67.0946 60.76C67.4346 60.9533 67.6979 61.2267 67.8846 61.58C68.0779 61.9267 68.1746 62.3333 68.1746 62.8C68.1746 63.26 68.0712 63.6633 67.8646 64.01C67.6579 64.3567 67.3712 64.6267 67.0046 64.82C66.6379 65.0067 66.2112 65.1 65.7246 65.1ZM65.7546 64.38C66.2079 64.38 66.5746 64.2367 66.8546 63.95C67.1346 63.6633 67.2746 63.2767 67.2746 62.79C67.2746 62.2833 67.1379 61.8867 66.8646 61.6C66.5979 61.3067 66.2212 61.16 65.7346 61.16C65.2679 61.16 64.8779 61.2967 64.5646 61.57C64.2579 61.8433 64.1046 62.22 64.1046 62.7C64.1046 63.0333 64.1746 63.3267 64.3146 63.58C64.4612 63.8333 64.6579 64.03 64.9046 64.17C65.1579 64.31 65.4412 64.38 65.7546 64.38ZM68.8184 65V63.97H69.8484V65H68.8184ZM68.8184 61.2V60.17H69.8484V61.2H68.8184ZM73.0059 65.1C72.5259 65.1 72.1026 65.0133 71.7359 64.84C71.3759 64.66 71.0826 64.4 70.8559 64.06C70.6359 63.72 70.4992 63.31 70.4459 62.83H71.3059C71.3792 63.33 71.5626 63.7133 71.8559 63.98C72.1492 64.2467 72.5359 64.38 73.0159 64.38C73.4692 64.38 73.8259 64.26 74.0859 64.02C74.3459 63.78 74.4759 63.4533 74.4759 63.04C74.4759 62.6067 74.3492 62.2567 74.0959 61.99C73.8426 61.7167 73.5026 61.58 73.0759 61.58H72.1759V60.88H73.0459C73.4326 60.88 73.7392 60.77 73.9659 60.55C74.1992 60.3233 74.3159 60.0233 74.3159 59.65C74.3159 59.2567 74.1926 58.9533 73.9459 58.74C73.7059 58.5267 73.3792 58.42 72.9659 58.42C72.5592 58.42 72.2126 58.54 71.9259 58.78C71.6392 59.0133 71.4692 59.35 71.4159 59.79H70.5459C70.5859 59.3633 70.7126 58.9967 70.9259 58.69C71.1392 58.3767 71.4226 58.1333 71.7759 57.96C72.1359 57.7867 72.5392 57.7 72.9859 57.7C73.4192 57.7 73.8026 57.7767 74.1359 57.93C74.4692 58.0833 74.7292 58.3033 74.9159 58.59C75.1026 58.87 75.1959 59.2 75.1959 59.58C75.1959 59.92 75.1192 60.22 74.9659 60.48C74.8126 60.74 74.6026 60.9433 74.3359 61.09C74.0759 61.2367 73.7759 61.31 73.4359 61.31L73.3759 61.1C73.7826 61.1 74.1326 61.1867 74.4259 61.36C74.7259 61.5267 74.9559 61.7567 75.1159 62.05C75.2826 62.3433 75.3659 62.6833 75.3659 63.07C75.3659 63.47 75.2659 63.8233 75.0659 64.13C74.8659 64.4367 74.5892 64.6767 74.2359 64.85C73.8826 65.0167 73.4726 65.1 73.0059 65.1ZM78.9039 65.1C78.0572 65.1 77.4039 64.7933 76.9439 64.18C76.4905 63.56 76.2639 62.6667 76.2639 61.5C76.2639 60.6933 76.3705 60.0067 76.5839 59.44C76.8039 58.8733 77.1172 58.4433 77.5239 58.15C77.9305 57.85 78.4139 57.7 78.9739 57.7C79.5872 57.7 80.0939 57.8767 80.4939 58.23C80.8939 58.5833 81.1372 59.07 81.2239 59.69H80.3439C80.2839 59.2767 80.1305 58.9633 79.8839 58.75C79.6439 58.53 79.3372 58.42 78.9639 58.42C78.3705 58.42 77.9205 58.6733 77.6139 59.18C77.3139 59.6867 77.1639 60.4467 77.1639 61.46V62.11L76.9339 62.02C76.9939 61.7067 77.1272 61.4333 77.3339 61.2C77.5405 60.9667 77.7972 60.7867 78.1039 60.66C78.4105 60.5267 78.7405 60.46 79.0939 60.46C79.5472 60.46 79.9405 60.56 80.2739 60.76C80.6139 60.9533 80.8772 61.2267 81.0639 61.58C81.2572 61.9267 81.3539 62.3333 81.3539 62.8C81.3539 63.26 81.2505 63.6633 81.0439 64.01C80.8372 64.3567 80.5505 64.6267 80.1839 64.82C79.8172 65.0067 79.3905 65.1 78.9039 65.1ZM78.9339 64.38C79.3872 64.38 79.7539 64.2367 80.0339 63.95C80.3139 63.6633 80.4539 63.2767 80.4539 62.79C80.4539 62.2833 80.3172 61.8867 80.0439 61.6C79.7772 61.3067 79.4005 61.16 78.9139 61.16C78.4472 61.16 78.0572 61.2967 77.7439 61.57C77.4372 61.8433 77.2839 62.22 77.2839 62.7C77.2839 63.0333 77.3539 63.3267 77.4939 63.58C77.6405 63.8333 77.8372 64.03 78.0839 64.17C78.3372 64.31 78.6205 64.38 78.9339 64.38Z" fill="#606165"/>
<rect x="181.069" y="41" width="32" height="18" rx="7" fill="white"/>
<path d="M187.379 52.47V48.1H188.079V52.47H187.379ZM185.669 50.63V49.95H189.779V50.63H185.669ZM192.962 47.04V45.7H193.622V47.04H192.962ZM193.622 53.8V55.09H192.962V53.8H193.622ZM193.482 54.09C192.642 54.09 191.972 53.8833 191.472 53.47C190.979 53.0567 190.689 52.4667 190.602 51.7H191.402C191.475 52.2533 191.685 52.67 192.032 52.95C192.379 53.23 192.859 53.37 193.472 53.37C193.992 53.37 194.382 53.2733 194.642 53.08C194.909 52.88 195.042 52.59 195.042 52.21C195.042 51.8833 194.952 51.6233 194.772 51.43C194.592 51.2367 194.312 51.0767 193.932 50.95L192.722 50.53C192.109 50.3167 191.655 50.06 191.362 49.76C191.069 49.4533 190.922 49.0667 190.922 48.6C190.922 48.2133 191.019 47.88 191.212 47.6C191.405 47.3133 191.679 47.09 192.032 46.93C192.385 46.77 192.795 46.69 193.262 46.69C193.982 46.69 194.559 46.88 194.992 47.26C195.425 47.6333 195.675 48.1667 195.742 48.86H194.942C194.855 48.36 194.675 47.9933 194.402 47.76C194.135 47.5267 193.749 47.41 193.242 47.41C192.762 47.41 192.389 47.5067 192.122 47.7C191.855 47.8933 191.722 48.1667 191.722 48.52C191.722 48.82 191.815 49.06 192.002 49.24C192.189 49.42 192.479 49.5767 192.872 49.71L194.162 50.16C194.722 50.3533 195.142 50.6167 195.422 50.95C195.702 51.2767 195.842 51.6933 195.842 52.2C195.842 52.8 195.635 53.2667 195.222 53.6C194.815 53.9267 194.235 54.09 193.482 54.09ZM198.966 54.1C198.253 54.1 197.683 53.91 197.256 53.53C196.83 53.1433 196.57 52.6433 196.476 52.03H197.356C197.443 52.4633 197.626 52.7967 197.906 53.03C198.193 53.2633 198.54 53.38 198.946 53.38C199.373 53.38 199.733 53.2467 200.026 52.98C200.326 52.7133 200.476 52.29 200.476 51.71C200.476 51.13 200.326 50.6967 200.026 50.41C199.733 50.1167 199.36 49.97 198.906 49.97C198.58 49.97 198.296 50.0367 198.056 50.17C197.816 50.3033 197.656 50.46 197.576 50.64H196.836L197.166 46.8H200.966V47.52H197.656L197.936 47.22L197.706 50.12L197.516 50.05C197.636 49.85 197.83 49.6767 198.096 49.53C198.363 49.3833 198.69 49.31 199.076 49.31C199.523 49.31 199.916 49.4067 200.256 49.6C200.603 49.7933 200.873 50.07 201.066 50.43C201.266 50.7833 201.366 51.21 201.366 51.71C201.366 52.21 201.266 52.64 201.066 53C200.873 53.3533 200.596 53.6267 200.236 53.82C199.883 54.0067 199.46 54.1 198.966 54.1ZM204.918 54.1C204.352 54.1 203.855 53.9433 203.428 53.63C203.008 53.31 202.678 52.87 202.438 52.31C202.205 51.7433 202.088 51.0967 202.088 50.37C202.088 49.6433 202.205 49.0067 202.438 48.46C202.672 47.9067 203.002 47.4767 203.428 47.17C203.855 46.8567 204.352 46.7 204.918 46.7C205.485 46.7 205.978 46.8567 206.398 47.17C206.825 47.4767 207.155 47.9067 207.388 48.46C207.628 49.0067 207.748 49.6433 207.748 50.37C207.748 51.1033 207.628 51.75 207.388 52.31C207.155 52.87 206.825 53.31 206.398 53.63C205.978 53.9433 205.485 54.1 204.918 54.1ZM204.918 53.38C205.325 53.38 205.672 53.26 205.958 53.02C206.245 52.7733 206.465 52.4267 206.618 51.98C206.772 51.5267 206.848 50.9867 206.848 50.36C206.848 49.74 206.772 49.21 206.618 48.77C206.472 48.33 206.255 47.9967 205.968 47.77C205.682 47.5367 205.332 47.42 204.918 47.42C204.505 47.42 204.155 47.5367 203.868 47.77C203.582 48.0033 203.362 48.34 203.208 48.78C203.062 49.2133 202.988 49.74 202.988 50.36C202.988 50.9867 203.065 51.5267 203.218 51.98C203.372 52.4333 203.592 52.78 203.878 53.02C204.165 53.26 204.512 53.38 204.918 53.38Z" fill="#282828"/>
<rect x="16.5" y="88.5" width="209" height="51" rx="9.5" stroke="white" stroke-opacity="0.1"/>
<path d="M31.6007 107V100.83H29.2107V99.8H35.2907V100.83H32.9007V107H31.6007ZM37.2187 107.1C36.6787 107.1 36.202 106.987 35.7887 106.76C35.382 106.533 35.0654 106.22 34.8387 105.82C34.612 105.413 34.4987 104.95 34.4987 104.43C34.4987 103.91 34.612 103.453 34.8387 103.06C35.0654 102.667 35.382 102.36 35.7887 102.14C36.202 101.913 36.6787 101.8 37.2187 101.8C37.7654 101.8 38.242 101.913 38.6487 102.14C39.0554 102.36 39.372 102.667 39.5987 103.06C39.8254 103.453 39.9387 103.91 39.9387 104.43C39.9387 104.95 39.822 105.413 39.5887 105.82C39.362 106.22 39.0454 106.533 38.6387 106.76C38.232 106.987 37.7587 107.1 37.2187 107.1ZM37.2187 106.09C37.4854 106.09 37.7254 106.023 37.9387 105.89C38.152 105.75 38.3187 105.557 38.4387 105.31C38.5587 105.057 38.6187 104.76 38.6187 104.42C38.6187 103.92 38.4854 103.527 38.2187 103.24C37.9587 102.953 37.6254 102.81 37.2187 102.81C36.812 102.81 36.4754 102.953 36.2087 103.24C35.942 103.527 35.8087 103.92 35.8087 104.42C35.8087 104.76 35.8687 105.057 35.9887 105.31C36.1154 105.557 36.282 105.75 36.4887 105.89C36.702 106.023 36.9454 106.09 37.2187 106.09ZM42.3491 107V99.8H43.6491V107H42.3491ZM42.9691 107V105.97H47.1891V107H42.9691ZM51.0236 107C50.9903 106.867 50.9636 106.72 50.9436 106.56C50.9303 106.4 50.9236 106.207 50.9236 105.98H50.8836V103.56C50.8836 103.293 50.807 103.093 50.6536 102.96C50.507 102.82 50.2803 102.75 49.9736 102.75C49.6736 102.75 49.4336 102.807 49.2536 102.92C49.0803 103.027 48.9736 103.183 48.9336 103.39H47.7236C47.777 102.917 48.0036 102.533 48.4036 102.24C48.8036 101.947 49.3403 101.8 50.0136 101.8C50.7136 101.8 51.2436 101.96 51.6036 102.28C51.9636 102.593 52.1436 103.057 52.1436 103.67V105.98C52.1436 106.14 52.1536 106.303 52.1736 106.47C52.2003 106.637 52.237 106.813 52.2836 107H51.0236ZM49.2536 107.1C48.7403 107.1 48.3303 106.973 48.0236 106.72C47.7236 106.46 47.5736 106.113 47.5736 105.68C47.5736 105.213 47.7436 104.843 48.0836 104.57C48.4236 104.297 48.9036 104.113 49.5236 104.02L51.1136 103.78V104.58L49.7336 104.79C49.4336 104.837 49.207 104.92 49.0536 105.04C48.907 105.16 48.8336 105.327 48.8336 105.54C48.8336 105.733 48.9036 105.883 49.0436 105.99C49.1836 106.09 49.377 106.14 49.6236 106.14C49.9836 106.14 50.2836 106.05 50.5236 105.87C50.7636 105.69 50.8836 105.47 50.8836 105.21L51.0236 105.98C50.8903 106.347 50.6703 106.627 50.3636 106.82C50.0636 107.007 49.6936 107.1 49.2536 107.1ZM54.694 107.1C54.3407 107.1 54.034 107.027 53.774 106.88C53.5207 106.727 53.324 106.52 53.184 106.26C53.0507 106 52.984 105.707 52.984 105.38V101.9H54.244V105.12C54.244 105.433 54.3207 105.67 54.474 105.83C54.634 105.99 54.8574 106.07 55.144 106.07C55.404 106.07 55.6307 106.01 55.824 105.89C56.024 105.77 56.1807 105.603 56.294 105.39C56.414 105.17 56.474 104.923 56.474 104.65L56.604 105.87C56.4374 106.243 56.1874 106.543 55.854 106.77C55.5274 106.99 55.1407 107.1 54.694 107.1ZM56.514 107V105.8H56.474V101.9H57.744V107H56.514ZM58.8792 107V101.9H60.1092V103.13H60.1392V107H58.8792ZM60.1392 104.34L60.0092 103.13C60.1292 102.697 60.3325 102.367 60.6192 102.14C60.9058 101.913 61.2492 101.8 61.6492 101.8C61.7892 101.8 61.8892 101.813 61.9492 101.84V103.03C61.9158 103.017 61.8692 103.01 61.8092 103.01C61.7492 103.003 61.6758 103 61.5892 103C61.1025 103 60.7392 103.107 60.4992 103.32C60.2592 103.533 60.1392 103.873 60.1392 104.34ZM65.5799 107C65.5465 106.867 65.5199 106.72 65.4999 106.56C65.4865 106.4 65.4799 106.207 65.4799 105.98H65.4399V103.56C65.4399 103.293 65.3632 103.093 65.2099 102.96C65.0632 102.82 64.8365 102.75 64.5299 102.75C64.2299 102.75 63.9899 102.807 63.8099 102.92C63.6365 103.027 63.5299 103.183 63.4899 103.39H62.2799C62.3332 102.917 62.5599 102.533 62.9599 102.24C63.3599 101.947 63.8965 101.8 64.5699 101.8C65.2699 101.8 65.7999 101.96 66.1599 102.28C66.5199 102.593 66.6999 103.057 66.6999 103.67V105.98C66.6999 106.14 66.7099 106.303 66.7299 106.47C66.7565 106.637 66.7932 106.813 66.8399 107H65.5799ZM63.8099 107.1C63.2965 107.1 62.8865 106.973 62.5799 106.72C62.2799 106.46 62.1299 106.113 62.1299 105.68C62.1299 105.213 62.2999 104.843 62.6399 104.57C62.9799 104.297 63.4599 104.113 64.0799 104.02L65.6699 103.78V104.58L64.2899 104.79C63.9899 104.837 63.7632 104.92 63.6099 105.04C63.4632 105.16 63.3899 105.327 63.3899 105.54C63.3899 105.733 63.4599 105.883 63.5999 105.99C63.7399 106.09 63.9332 106.14 64.1799 106.14C64.5399 106.14 64.8399 106.05 65.0799 105.87C65.3199 105.69 65.4399 105.47 65.4399 105.21L65.5799 105.98C65.4465 106.347 65.2265 106.627 64.9199 106.82C64.6199 107.007 64.2499 107.1 63.8099 107.1ZM72.2496 107.09C71.343 107.09 70.6196 106.883 70.0796 106.47C69.5463 106.05 69.233 105.46 69.1396 104.7H70.3896C70.4496 105.14 70.6463 105.483 70.9796 105.73C71.313 105.97 71.7496 106.09 72.2896 106.09C72.7363 106.09 73.0763 106.01 73.3096 105.85C73.5496 105.683 73.6696 105.453 73.6696 105.16C73.6696 104.9 73.5963 104.69 73.4496 104.53C73.303 104.37 73.0563 104.24 72.7096 104.14L71.4096 103.75C70.7496 103.55 70.263 103.287 69.9496 102.96C69.643 102.633 69.4896 102.223 69.4896 101.73C69.4896 101.317 69.5963 100.957 69.8096 100.65C70.023 100.343 70.323 100.107 70.7096 99.94C71.103 99.7733 71.5596 99.69 72.0796 99.69C72.8796 99.69 73.5163 99.8867 73.9896 100.28C74.4696 100.667 74.743 101.193 74.8096 101.86H73.5596C73.4863 101.46 73.3196 101.167 73.0596 100.98C72.7996 100.787 72.4496 100.69 72.0096 100.69C71.623 100.69 71.3163 100.767 71.0896 100.92C70.863 101.073 70.7496 101.283 70.7496 101.55C70.7496 101.77 70.8163 101.957 70.9496 102.11C71.0896 102.263 71.3463 102.397 71.7196 102.51L73.0396 102.91C73.6996 103.103 74.1796 103.367 74.4796 103.7C74.7796 104.033 74.9296 104.457 74.9296 104.97C74.9296 105.65 74.693 106.173 74.2196 106.54C73.753 106.907 73.0963 107.09 72.2496 107.09ZM78.8471 107C78.8137 106.867 78.7871 106.72 78.7671 106.56C78.7537 106.4 78.7471 106.207 78.7471 105.98H78.7071V103.56C78.7071 103.293 78.6304 103.093 78.4771 102.96C78.3304 102.82 78.1037 102.75 77.7971 102.75C77.4971 102.75 77.2571 102.807 77.0771 102.92C76.9037 103.027 76.7971 103.183 76.7571 103.39H75.5471C75.6004 102.917 75.8271 102.533 76.2271 102.24C76.6271 101.947 77.1637 101.8 77.8371 101.8C78.5371 101.8 79.0671 101.96 79.4271 102.28C79.7871 102.593 79.9671 103.057 79.9671 103.67V105.98C79.9671 106.14 79.9771 106.303 79.9971 106.47C80.0237 106.637 80.0604 106.813 80.1071 107H78.8471ZM77.0771 107.1C76.5637 107.1 76.1537 106.973 75.8471 106.72C75.5471 106.46 75.3971 106.113 75.3971 105.68C75.3971 105.213 75.5671 104.843 75.9071 104.57C76.2471 104.297 76.7271 104.113 77.3471 104.02L78.9371 103.78V104.58L77.5571 104.79C77.2571 104.837 77.0304 104.92 76.8771 105.04C76.7304 105.16 76.6571 105.327 76.6571 105.54C76.6571 105.733 76.7271 105.883 76.8671 105.99C77.0071 106.09 77.2004 106.14 77.4471 106.14C77.8071 106.14 78.1071 106.05 78.3471 105.87C78.5871 105.69 78.7071 105.47 78.7071 105.21L78.8471 105.98C78.7137 106.347 78.4937 106.627 78.1871 106.82C77.8871 107.007 77.5171 107.1 77.0771 107.1ZM81.0432 107V101.9H82.2732V103.1H82.3032V107H81.0432ZM84.6232 107V103.78C84.6232 103.467 84.5432 103.23 84.3832 103.07C84.2232 102.91 83.9899 102.83 83.6832 102.83C83.4166 102.83 83.1766 102.89 82.9632 103.01C82.7566 103.13 82.5932 103.297 82.4732 103.51C82.3599 103.723 82.3032 103.97 82.3032 104.25L82.1732 103.03C82.3466 102.657 82.5999 102.36 82.9332 102.14C83.2666 101.913 83.6666 101.8 84.1332 101.8C84.6866 101.8 85.1166 101.957 85.4232 102.27C85.7366 102.583 85.8932 103 85.8932 103.52V107H84.6232ZM89.0707 107.1C88.4441 107.1 87.9807 106.953 87.6807 106.66C87.3874 106.36 87.2407 105.913 87.2407 105.32V100.74L88.5107 100.27V105.35C88.5107 105.597 88.5774 105.78 88.7107 105.9C88.8441 106.02 89.0541 106.08 89.3407 106.08C89.4541 106.08 89.5541 106.073 89.6407 106.06C89.7341 106.04 89.8207 106.017 89.9007 105.99V106.97C89.8207 107.01 89.7074 107.04 89.5607 107.06C89.4141 107.087 89.2507 107.1 89.0707 107.1ZM86.2607 102.89V101.9H89.9007V102.89H86.2607ZM92.807 107.1C92.267 107.1 91.7903 106.987 91.377 106.76C90.9703 106.533 90.6537 106.22 90.427 105.82C90.2003 105.413 90.087 104.95 90.087 104.43C90.087 103.91 90.2003 103.453 90.427 103.06C90.6537 102.667 90.9703 102.36 91.377 102.14C91.7903 101.913 92.267 101.8 92.807 101.8C93.3537 101.8 93.8303 101.913 94.237 102.14C94.6437 102.36 94.9603 102.667 95.187 103.06C95.4137 103.453 95.527 103.91 95.527 104.43C95.527 104.95 95.4103 105.413 95.177 105.82C94.9503 106.22 94.6337 106.533 94.227 106.76C93.8203 106.987 93.347 107.1 92.807 107.1ZM92.807 106.09C93.0737 106.09 93.3137 106.023 93.527 105.89C93.7403 105.75 93.907 105.557 94.027 105.31C94.147 105.057 94.207 104.76 94.207 104.42C94.207 103.92 94.0737 103.527 93.807 103.24C93.547 102.953 93.2137 102.81 92.807 102.81C92.4003 102.81 92.0637 102.953 91.797 103.24C91.5303 103.527 91.397 103.92 91.397 104.42C91.397 104.76 91.457 105.057 91.577 105.31C91.7037 105.557 91.8703 105.75 92.077 105.89C92.2903 106.023 92.5337 106.09 92.807 106.09ZM98.2233 107.1C97.5167 107.1 96.9533 106.953 96.5333 106.66C96.1133 106.36 95.8833 105.947 95.8433 105.42H96.9933C97.0267 105.68 97.15 105.877 97.3633 106.01C97.5767 106.143 97.8633 106.21 98.2233 106.21C98.55 106.21 98.7933 106.16 98.9533 106.06C99.12 105.953 99.2033 105.803 99.2033 105.61C99.2033 105.47 99.1567 105.357 99.0633 105.27C98.97 105.177 98.7933 105.1 98.5333 105.04L97.7133 104.85C97.1533 104.73 96.7367 104.543 96.4633 104.29C96.1967 104.03 96.0633 103.707 96.0633 103.32C96.0633 102.847 96.2433 102.477 96.6033 102.21C96.97 101.937 97.4733 101.8 98.1133 101.8C98.7467 101.8 99.2533 101.937 99.6333 102.21C100.02 102.477 100.233 102.847 100.273 103.32H99.1233C99.09 103.113 98.9833 102.957 98.8033 102.85C98.63 102.743 98.39 102.69 98.0833 102.69C97.7967 102.69 97.58 102.737 97.4333 102.83C97.2867 102.917 97.2133 103.047 97.2133 103.22C97.2133 103.353 97.27 103.467 97.3833 103.56C97.4967 103.647 97.6867 103.723 97.9533 103.79L98.8333 103.99C99.3333 104.103 99.71 104.3 99.9633 104.58C100.223 104.86 100.353 105.19 100.353 105.57C100.353 106.057 100.167 106.433 99.7933 106.7C99.42 106.967 98.8967 107.1 98.2233 107.1Z" fill="white"/>
<path d="M31.7607 129V122.52H29.2907V121.8H35.0507V122.52H32.5807V129H31.7607ZM37.0706 129.1C36.5706 129.1 36.1306 128.983 35.7506 128.75C35.3706 128.517 35.0739 128.2 34.8606 127.8C34.6539 127.393 34.5506 126.937 34.5506 126.43C34.5506 125.917 34.6573 125.463 34.8706 125.07C35.0839 124.677 35.3773 124.367 35.7506 124.14C36.1306 123.913 36.5706 123.8 37.0706 123.8C37.5773 123.8 38.0173 123.913 38.3906 124.14C38.7706 124.367 39.0639 124.677 39.2706 125.07C39.4839 125.463 39.5906 125.917 39.5906 126.43C39.5906 126.937 39.4839 127.393 39.2706 127.8C39.0639 128.2 38.7706 128.517 38.3906 128.75C38.0173 128.983 37.5773 129.1 37.0706 129.1ZM37.0706 128.42C37.4173 128.42 37.7173 128.337 37.9706 128.17C38.2239 127.997 38.4206 127.76 38.5606 127.46C38.7006 127.16 38.7706 126.813 38.7706 126.42C38.7706 125.833 38.6139 125.363 38.3006 125.01C37.9939 124.657 37.5839 124.48 37.0706 124.48C36.5639 124.48 36.1539 124.657 35.8406 125.01C35.5273 125.363 35.3706 125.833 35.3706 126.42C35.3706 126.813 35.4406 127.16 35.5806 127.46C35.7206 127.76 35.9173 127.997 36.1706 128.17C36.4306 128.337 36.7306 128.42 37.0706 128.42ZM44.3004 129V127.81L44.4004 127.84C44.2738 128.227 44.0404 128.533 43.7004 128.76C43.3671 128.987 42.9671 129.1 42.5004 129.1C42.0404 129.1 41.6371 128.99 41.2904 128.77C40.9504 128.55 40.6838 128.243 40.4904 127.85C40.3038 127.457 40.2104 126.997 40.2104 126.47C40.2104 125.937 40.3071 125.47 40.5004 125.07C40.6938 124.67 40.9638 124.36 41.3104 124.14C41.6571 123.92 42.0638 123.81 42.5304 123.81C43.0104 123.81 43.4138 123.927 43.7404 124.16C44.0671 124.393 44.2904 124.723 44.4104 125.15L44.2504 125.17V121.8H45.0504V129H44.3004ZM42.6504 128.4C43.1638 128.4 43.5638 128.227 43.8504 127.88C44.1438 127.527 44.2904 127.047 44.2904 126.44C44.2904 125.847 44.1438 125.377 43.8504 125.03C43.5571 124.683 43.1571 124.51 42.6504 124.51C42.1438 124.51 41.7471 124.683 41.4604 125.03C41.1738 125.377 41.0304 125.857 41.0304 126.47C41.0304 127.07 41.1738 127.543 41.4604 127.89C41.7471 128.23 42.1438 128.4 42.6504 128.4ZM49.5849 129C49.5582 128.887 49.5382 128.757 49.5249 128.61C49.5182 128.463 49.5149 128.277 49.5149 128.05H49.4649V125.61C49.4649 125.223 49.3749 124.94 49.1949 124.76C49.0215 124.573 48.7382 124.48 48.3449 124.48C47.9582 124.48 47.6482 124.56 47.4149 124.72C47.1882 124.873 47.0615 125.093 47.0349 125.38H46.2649C46.2982 124.887 46.5049 124.5 46.8849 124.22C47.2649 123.94 47.7615 123.8 48.3749 123.8C49.0082 123.8 49.4782 123.95 49.7849 124.25C50.0915 124.55 50.2449 125 50.2449 125.6V128.05C50.2449 128.197 50.2549 128.35 50.2749 128.51C50.2949 128.663 50.3215 128.827 50.3549 129H49.5849ZM47.8349 129.1C47.3082 129.1 46.8882 128.973 46.5749 128.72C46.2682 128.46 46.1149 128.107 46.1149 127.66C46.1149 127.213 46.2682 126.867 46.5749 126.62C46.8815 126.373 47.3282 126.2 47.9149 126.1L49.6949 125.8V126.46L48.0349 126.72C47.6615 126.78 47.3782 126.88 47.1849 127.02C46.9915 127.16 46.8949 127.363 46.8949 127.63C46.8949 127.89 46.9815 128.087 47.1549 128.22C47.3349 128.353 47.5982 128.42 47.9449 128.42C48.3915 128.42 48.7549 128.32 49.0349 128.12C49.3215 127.913 49.4649 127.647 49.4649 127.32L49.5949 128.03C49.4882 128.37 49.2782 128.633 48.9649 128.82C48.6582 129.007 48.2815 129.1 47.8349 129.1ZM51.8023 131.05L52.9423 128.4L53.1223 128.12L54.7923 123.9H55.6123L52.6523 131.05H51.8023ZM53.0323 129.05L50.7423 123.9H51.6223L53.5923 128.51L53.0323 129.05ZM55.4975 130.44V130.03C55.6909 129.957 55.8309 129.84 55.9175 129.68C56.0042 129.527 56.0475 129.29 56.0475 128.97L56.3575 129H55.4975V127.98H56.5075V128.79C56.5075 129.217 56.4275 129.57 56.2675 129.85C56.1075 130.13 55.8509 130.327 55.4975 130.44ZM62.2083 129.1C61.6417 129.1 61.145 128.943 60.7183 128.63C60.2983 128.31 59.9683 127.87 59.7283 127.31C59.495 126.743 59.3783 126.097 59.3783 125.37C59.3783 124.643 59.495 124.007 59.7283 123.46C59.9617 122.907 60.2917 122.477 60.7183 122.17C61.145 121.857 61.6417 121.7 62.2083 121.7C62.775 121.7 63.2683 121.857 63.6883 122.17C64.115 122.477 64.445 122.907 64.6783 123.46C64.9183 124.007 65.0383 124.643 65.0383 125.37C65.0383 126.103 64.9183 126.75 64.6783 127.31C64.445 127.87 64.115 128.31 63.6883 128.63C63.2683 128.943 62.775 129.1 62.2083 129.1ZM62.2083 128.38C62.615 128.38 62.9617 128.26 63.2483 128.02C63.535 127.773 63.755 127.427 63.9083 126.98C64.0617 126.527 64.1383 125.987 64.1383 125.36C64.1383 124.74 64.0617 124.21 63.9083 123.77C63.7617 123.33 63.545 122.997 63.2583 122.77C62.9717 122.537 62.6217 122.42 62.2083 122.42C61.795 122.42 61.445 122.537 61.1583 122.77C60.8717 123.003 60.6517 123.34 60.4983 123.78C60.3517 124.213 60.2783 124.74 60.2783 125.36C60.2783 125.987 60.355 126.527 60.5083 126.98C60.6617 127.433 60.8817 127.78 61.1683 128.02C61.455 128.26 61.8017 128.38 62.2083 128.38ZM68.4047 129.1C67.8981 129.1 67.4581 129.01 67.0847 128.83C66.7181 128.65 66.4347 128.403 66.2347 128.09C66.0347 127.777 65.9347 127.427 65.9347 127.04C65.9347 126.68 66.0147 126.353 66.1747 126.06C66.3347 125.767 66.5481 125.533 66.8147 125.36C67.0881 125.187 67.3881 125.1 67.7147 125.1L67.7347 125.31C67.4281 125.31 67.1514 125.237 66.9047 125.09C66.6581 124.937 66.4647 124.73 66.3247 124.47C66.1847 124.21 66.1147 123.923 66.1147 123.61C66.1147 123.237 66.2114 122.907 66.4047 122.62C66.5981 122.333 66.8681 122.11 67.2147 121.95C67.5614 121.783 67.9614 121.7 68.4147 121.7C68.8681 121.7 69.2647 121.783 69.6047 121.95C69.9447 122.11 70.2114 122.333 70.4047 122.62C70.5981 122.907 70.6947 123.233 70.6947 123.6C70.6947 123.92 70.6247 124.21 70.4847 124.47C70.3447 124.723 70.1514 124.927 69.9047 125.08C69.6581 125.233 69.3781 125.31 69.0647 125.31L69.0947 125.1C69.4281 125.1 69.7281 125.187 69.9947 125.36C70.2614 125.533 70.4747 125.767 70.6347 126.06C70.7947 126.353 70.8747 126.68 70.8747 127.04C70.8747 127.427 70.7747 127.777 70.5747 128.09C70.3747 128.403 70.0881 128.65 69.7147 128.83C69.3481 129.01 68.9114 129.1 68.4047 129.1ZM68.4047 128.38C68.8914 128.38 69.2747 128.25 69.5547 127.99C69.8414 127.73 69.9847 127.387 69.9847 126.96C69.9847 126.533 69.8447 126.197 69.5647 125.95C69.2847 125.703 68.8981 125.58 68.4047 125.58C67.9114 125.58 67.5247 125.703 67.2447 125.95C66.9647 126.197 66.8247 126.533 66.8247 126.96C66.8247 127.387 66.9647 127.73 67.2447 127.99C67.5314 128.25 67.9181 128.38 68.4047 128.38ZM68.4047 124.88C68.8447 124.88 69.1881 124.77 69.4347 124.55C69.6881 124.33 69.8147 124.037 69.8147 123.67C69.8147 123.29 69.6847 122.987 69.4247 122.76C69.1647 122.533 68.8247 122.42 68.4047 122.42C67.9781 122.42 67.6347 122.533 67.3747 122.76C67.1214 122.987 66.9947 123.29 66.9947 123.67C66.9947 124.037 67.1214 124.33 67.3747 124.55C67.6281 124.77 67.9714 124.88 68.4047 124.88ZM71.5821 129V127.97H72.6121V129H71.5821ZM71.5821 125.2V124.17H72.6121V125.2H71.5821ZM76.5636 129V127.1L76.5836 126.9V122.79H76.8536L73.8136 126.95L73.5436 126.62H78.3436V127.34H72.9836V126.72L76.6036 121.8H77.4236V129H76.5636ZM81.3196 129.1C80.8996 129.1 80.523 129.02 80.1896 128.86C79.8563 128.693 79.5863 128.45 79.3796 128.13C79.173 127.803 79.0396 127.397 78.9796 126.91H79.8596C79.9263 127.43 80.0896 127.807 80.3496 128.04C80.6096 128.267 80.9396 128.38 81.3396 128.38C81.633 128.38 81.8863 128.32 82.0996 128.2C82.313 128.08 82.4896 127.897 82.6296 127.65C82.7696 127.403 82.873 127.09 82.9396 126.71C83.0063 126.323 83.0396 125.867 83.0396 125.34V124.69L83.2696 124.72C83.2096 125.027 83.0763 125.3 82.8696 125.54C82.663 125.773 82.4063 125.957 82.0996 126.09C81.793 126.217 81.463 126.28 81.1096 126.28C80.6696 126.28 80.283 126.183 79.9496 125.99C79.6163 125.79 79.353 125.517 79.1596 125.17C78.973 124.823 78.8796 124.43 78.8796 123.99C78.8796 123.523 78.983 123.12 79.1896 122.78C79.3963 122.44 79.683 122.177 80.0496 121.99C80.423 121.797 80.8496 121.7 81.3296 121.7C82.183 121.7 82.8296 122.01 83.2696 122.63C83.7163 123.25 83.9396 124.16 83.9396 125.36C83.9396 126.16 83.8363 126.84 83.6296 127.4C83.4296 127.953 83.133 128.377 82.7396 128.67C82.353 128.957 81.8796 129.1 81.3196 129.1ZM81.3196 125.58C81.7796 125.58 82.1596 125.45 82.4596 125.19C82.7663 124.93 82.9196 124.557 82.9196 124.07C82.9196 123.743 82.8463 123.457 82.6996 123.21C82.5596 122.963 82.3663 122.77 82.1196 122.63C81.873 122.49 81.593 122.42 81.2796 122.42C80.833 122.42 80.4696 122.563 80.1896 122.85C79.9163 123.13 79.7796 123.517 79.7796 124.01C79.7796 124.483 79.913 124.863 80.1796 125.15C80.453 125.437 80.833 125.58 81.3196 125.58Z" fill="#606165"/>
<rect x="184.07" y="105" width="29" height="18" rx="7" fill="white" fill-opacity="0.05"/>
<path d="M188.87 115.66V114.9H192.33V115.66H188.87ZM195.22 111.04V109.7H195.88V111.04H195.22ZM195.88 117.8V119.09H195.22V117.8H195.88ZM195.74 118.09C194.9 118.09 194.23 117.883 193.73 117.47C193.237 117.057 192.947 116.467 192.86 115.7H193.66C193.733 116.253 193.943 116.67 194.29 116.95C194.637 117.23 195.117 117.37 195.73 117.37C196.25 117.37 196.64 117.273 196.9 117.08C197.167 116.88 197.3 116.59 197.3 116.21C197.3 115.883 197.21 115.623 197.03 115.43C196.85 115.237 196.57 115.077 196.19 114.95L194.98 114.53C194.367 114.317 193.913 114.06 193.62 113.76C193.327 113.453 193.18 113.067 193.18 112.6C193.18 112.213 193.277 111.88 193.47 111.6C193.663 111.313 193.937 111.09 194.29 110.93C194.643 110.77 195.053 110.69 195.52 110.69C196.24 110.69 196.817 110.88 197.25 111.26C197.683 111.633 197.933 112.167 198 112.86H197.2C197.113 112.36 196.933 111.993 196.66 111.76C196.393 111.527 196.007 111.41 195.5 111.41C195.02 111.41 194.647 111.507 194.38 111.7C194.113 111.893 193.98 112.167 193.98 112.52C193.98 112.82 194.073 113.06 194.26 113.24C194.447 113.42 194.737 113.577 195.13 113.71L196.42 114.16C196.98 114.353 197.4 114.617 197.68 114.95C197.96 115.277 198.1 115.693 198.1 116.2C198.1 116.8 197.893 117.267 197.48 117.6C197.073 117.927 196.493 118.09 195.74 118.09ZM198.724 118V117.3C199.444 116.707 200.044 116.187 200.524 115.74C201.011 115.293 201.397 114.897 201.684 114.55C201.977 114.203 202.184 113.887 202.304 113.6C202.431 113.307 202.494 113.02 202.494 112.74C202.494 112.327 202.371 112.003 202.124 111.77C201.877 111.537 201.537 111.42 201.104 111.42C200.657 111.42 200.297 111.547 200.024 111.8C199.751 112.053 199.584 112.417 199.524 112.89H198.664C198.731 112.237 198.981 111.71 199.414 111.31C199.854 110.903 200.437 110.7 201.164 110.7C201.837 110.7 202.374 110.88 202.774 111.24C203.174 111.6 203.374 112.093 203.374 112.72C203.374 113.06 203.307 113.4 203.174 113.74C203.047 114.08 202.834 114.437 202.534 114.81C202.241 115.183 201.851 115.597 201.364 116.05C200.884 116.497 200.287 117.003 199.574 117.57L199.384 117.28H203.494V118H198.724ZM205.194 118C205.287 116.867 205.55 115.747 205.984 114.64C206.424 113.527 207.08 112.39 207.954 111.23L208.004 111.52H203.794V110.8H208.654V111.4C208.12 112.18 207.677 112.933 207.324 113.66C206.977 114.387 206.707 115.107 206.514 115.82C206.32 116.527 206.197 117.253 206.144 118H205.194Z" fill="white"/>
<g filter="url(#filter0_f_1_241)">
<rect x="-173.148" y="295.958" width="748.136" height="40" rx="20" transform="rotate(-29.7839 -173.148 295.958)" fill="white" fill-opacity="0.3"/>
</g>
<g filter="url(#filter1_f_1_241)">
<rect x="-5.87695" y="4" width="74.1115" height="14" rx="7" transform="rotate(17.1259 -5.87695 4)" fill="#FFA04E"/>
</g>
</g>
<rect x="0.5" y="0.5" width="241" height="163" rx="19.5" stroke="url(#paint0_linear_1_241)" stroke-opacity="0.1"/>
<defs>
<filter id="filter0_f_1_241" x="-285.859" y="-188.374" width="894.602" height="631.759" filterUnits="userSpaceOnUse" color-interpolation-filters="sRGB">
<feFlood flood-opacity="0" result="BackgroundImageFix"/>
<feBlend mode="normal" in="SourceGraphic" in2="BackgroundImageFix" result="shape"/>
<feGaussianBlur stdDeviation="60" result="effect1_foregroundBlur_1_241"/>
</filter>
<filter id="filter1_f_1_241" x="-68.2505" y="-54.251" width="191.45" height="151.705" filterUnits="userSpaceOnUse" color-interpolation-filters="sRGB">
<feFlood flood-opacity="0" result="BackgroundImageFix"/>
<feBlend mode="normal" in="SourceGraphic" in2="BackgroundImageFix" result="shape"/>
<feGaussianBlur stdDeviation="30" result="effect1_foregroundBlur_1_241"/>
</filter>
<linearGradient id="paint0_linear_1_241" x1="121" y1="0" x2="121" y2="164" gradientUnits="userSpaceOnUse">
<stop stop-color="white"/>
<stop offset="1" stop-color="white" stop-opacity="0.2"/>
</linearGradient>
<clipPath id="clip0_1_241">
<rect width="242" height="164" rx="20" fill="white"/>
</clipPath>
</defs>
</svg>
