<svg width="477" height="306" viewBox="0 0 477 306" fill="none" xmlns="http://www.w3.org/2000/svg">
<g clip-path="url(#clip0_4203_2924)">
<rect width="477" height="306" rx="25.1344" fill="#0E0E0E"/>
<path d="M31.2872 40.1716V34.7828H33.9414V40.1716H31.2872ZM33.9414 67.357V72.5447H31.2872V67.357H33.9414ZM33.3784 68.5232C30.0003 68.5232 27.3059 67.6921 25.2952 66.0299C23.3112 64.3676 22.145 61.995 21.7965 58.9118H25.0137C25.3086 61.137 26.1531 62.8127 27.5472 63.9387C28.9413 65.0647 30.8716 65.6277 33.3382 65.6277C35.4293 65.6277 36.9977 65.239 38.0433 64.4615C39.1157 63.6572 39.6519 62.4909 39.6519 60.9628C39.6519 59.6491 39.29 58.6035 38.5661 57.826C37.8422 57.0485 36.7162 56.4051 35.188 55.8957L30.322 54.2067C27.8555 53.3487 26.0324 52.3166 24.8528 51.1101C23.6732 49.8768 23.0833 48.3219 23.0833 46.4452C23.0833 44.8902 23.4721 43.5497 24.2496 42.4237C25.0271 41.2708 26.1263 40.3727 27.5472 39.7293C28.9681 39.0858 30.6169 38.7641 32.4936 38.7641C35.3891 38.7641 37.7082 39.5282 39.4508 41.0564C41.1935 42.5577 42.1989 44.7025 42.467 47.4908H39.2498C38.9012 45.48 38.1774 44.0055 37.0781 43.0671C36.0057 42.1288 34.4508 41.6596 32.4132 41.6596C30.4829 41.6596 28.9815 42.0483 27.9091 42.8258C26.8367 43.6033 26.3005 44.7025 26.3005 46.1234C26.3005 47.3299 26.6759 48.2951 27.4265 49.0189C28.1772 49.7428 29.3435 50.3728 30.9253 50.909L36.113 52.7187C38.365 53.4962 40.0541 54.5552 41.1801 55.8957C42.3061 57.2094 42.8691 58.885 42.8691 60.9226C42.8691 63.3355 42.038 65.2122 40.3758 66.5527C38.7404 67.8663 36.4079 68.5232 33.3784 68.5232ZM55.4341 68.5634C52.5654 68.5634 50.2732 67.7993 48.5573 66.2712C46.8415 64.7162 45.7959 62.7054 45.4206 60.2389H48.9595C49.308 61.9816 50.0453 63.3221 51.1713 64.2604C52.3241 65.1988 53.7182 65.6679 55.3537 65.6679C57.0695 65.6679 58.5172 65.1317 59.6969 64.0593C60.9033 62.9869 61.5065 61.2845 61.5065 58.952C61.5065 56.6196 60.9033 54.8769 59.6969 53.7241C58.5172 52.5444 57.0159 51.9546 55.1928 51.9546C53.8791 51.9546 52.7397 52.2227 51.7745 52.7589C50.8094 53.2951 50.1659 53.9251 49.8442 54.649H46.8683L48.1954 39.2065H63.4771V42.1019H50.1659L51.2919 40.8955L50.367 52.5578L49.6029 52.2763C50.0855 51.472 50.863 50.775 51.9354 50.1852C53.0078 49.5953 54.3215 49.3004 55.8765 49.3004C57.6727 49.3004 59.2545 49.6892 60.6218 50.4667C62.0159 51.2442 63.1017 52.3568 63.8792 53.8045C64.6835 55.2254 65.0857 56.9413 65.0857 58.952C65.0857 60.9628 64.6835 62.692 63.8792 64.1398C63.1017 65.5607 61.9891 66.6599 60.5414 67.4374C59.1205 68.1881 57.418 68.5634 55.4341 68.5634ZM66.9594 68.1613V65.3462C69.8549 62.9601 72.2678 60.8689 74.1981 59.0727C76.1553 57.2764 77.7103 55.6812 78.8631 54.2871C80.0427 52.893 80.8738 51.6195 81.3564 50.4667C81.8658 49.287 82.1205 48.1342 82.1205 47.0082C82.1205 45.346 81.6245 44.0457 80.6325 43.1073C79.6406 42.169 78.2733 41.6998 76.5306 41.6998C74.7343 41.6998 73.2866 42.2092 72.1874 43.228C71.0882 44.2467 70.4179 45.7079 70.1766 47.6114H66.7182C66.9863 44.984 67.9916 42.866 69.7343 41.2574C71.5037 39.622 73.8496 38.8043 76.7719 38.8043C79.4797 38.8043 81.6379 39.5282 83.2465 40.9759C84.8551 42.4237 85.6594 44.4076 85.6594 46.9277C85.6594 48.2951 85.3913 49.6624 84.8551 51.0297C84.3457 52.397 83.4878 53.8313 82.2814 55.3327C81.1017 56.834 79.5333 58.4963 77.5762 60.3193C75.6459 62.1156 73.2464 64.1532 70.3777 66.432L69.6136 65.2658H86.142V68.1613H66.9594ZM95.666 68.1613V42.5041L96.5106 42.7052C96.1888 43.429 95.5722 44.1529 94.6607 44.8768C93.7491 45.6006 92.6901 46.2307 91.4837 46.7669C90.304 47.3031 89.0842 47.665 87.8241 47.8527V44.7561C89.0842 44.5417 90.2906 44.1663 91.4435 43.6301C92.5963 43.0939 93.6151 42.4505 94.4998 41.6998C95.4113 40.9223 96.0816 40.0912 96.5106 39.2065H98.8832V68.1613H95.666ZM104.981 68.1613V39.2065H108.278V68.1613H104.981ZM107.917 53.1209L122.957 39.2065H127.582L112.22 53.1209H107.917ZM123.6 68.1613L107.836 53.1209H112.22L128.386 68.1613H123.6Z" fill="white"/>
<path d="M24.2006 92.1613V88.0644L20.7698 83.1129H22.0265L25.0049 87.4611H24.5274L27.5058 83.1129H28.662L25.2311 88.0644V92.1613H24.2006ZM31.1641 92.2869C30.5358 92.2869 29.9828 92.1403 29.5053 91.8471C29.0277 91.5538 28.6549 91.1559 28.3868 90.6532C28.1271 90.1421 27.9972 89.5682 27.9972 88.9315C27.9972 88.2864 28.1312 87.7167 28.3993 87.2224C28.6674 86.728 29.0361 86.3385 29.5053 86.0536C29.9828 85.7687 30.5358 85.6263 31.1641 85.6263C31.8009 85.6263 32.3538 85.7687 32.823 86.0536C33.3005 86.3385 33.6692 86.728 33.9289 87.2224C34.197 87.7167 34.3311 88.2864 34.3311 88.9315C34.3311 89.5682 34.197 90.1421 33.9289 90.6532C33.6692 91.1559 33.3005 91.5538 32.823 91.8471C32.3538 92.1403 31.8009 92.2869 31.1641 92.2869ZM31.1641 91.4324C31.5998 91.4324 31.9768 91.3276 32.2952 91.1182C32.6135 90.9003 32.8607 90.6029 33.0366 90.2259C33.2126 89.8489 33.3005 89.4132 33.3005 88.9189C33.3005 88.1816 33.1037 87.591 32.7099 87.1469C32.3245 86.7029 31.8092 86.4809 31.1641 86.4809C30.5274 86.4809 30.0121 86.7029 29.6184 87.1469C29.2246 87.591 29.0277 88.1816 29.0277 88.9189C29.0277 89.4132 29.1157 89.8489 29.2916 90.2259C29.4676 90.6029 29.7147 90.9003 30.0331 91.1182C30.3598 91.3276 30.7368 91.4324 31.1641 91.4324ZM37.6737 92.2869C37.2548 92.2869 36.882 92.2031 36.5553 92.0356C36.2285 91.8596 35.973 91.6167 35.7887 91.3067C35.6043 90.9883 35.5122 90.6239 35.5122 90.2133V85.752H36.5176V89.9494C36.5176 90.4354 36.6348 90.7998 36.8694 91.0428C37.1124 91.2857 37.4559 91.4072 37.8999 91.4072C38.3021 91.4072 38.6582 91.3151 38.9682 91.1307C39.2781 90.9464 39.5211 90.6909 39.697 90.3641C39.8814 90.029 39.9735 89.6478 39.9735 89.2205L40.1369 90.7412C39.9274 91.2187 39.6007 91.5957 39.1567 91.8722C38.7126 92.1487 38.2183 92.2869 37.6737 92.2869ZM40.0364 92.1613V90.6532H39.9735V85.752H40.9789V92.1613H40.0364ZM42.7366 92.1613V85.752H43.6792V87.3857H43.742V92.1613H42.7366ZM43.742 88.8184L43.5786 87.2978C43.7294 86.7532 43.9975 86.3385 44.3829 86.0536C44.7683 85.7687 45.2124 85.6263 45.7151 85.6263C45.9245 85.6263 46.0669 85.6431 46.1423 85.6766V86.6443C46.1005 86.6275 46.0418 86.6191 45.9664 86.6191C45.891 86.6107 45.7988 86.6066 45.6899 86.6066C45.0532 86.6066 44.5673 86.7993 44.2321 87.1847C43.9054 87.5617 43.742 88.1062 43.742 88.8184ZM49.4625 92.1613V85.752H50.4679V92.1613H49.4625ZM49.3871 84.2942V83.1129H50.5433V84.2942H49.3871ZM52.2303 92.1613V85.752H53.1728V87.2601H53.2356V92.1613H52.2303ZM56.8173 92.1613V87.9638C56.8173 87.4779 56.6958 87.1134 56.4528 86.8705C56.2099 86.6275 55.8496 86.506 55.3721 86.506C54.9531 86.506 54.5803 86.5982 54.2536 86.7825C53.9352 86.9668 53.6839 87.2224 53.4995 87.5491C53.3236 87.8758 53.2356 88.2571 53.2356 88.6927L53.0723 87.1721C53.2901 86.6945 53.621 86.3175 54.0651 86.041C54.5175 85.7646 55.0286 85.6263 55.5983 85.6263C56.2685 85.6263 56.8047 85.819 57.2069 86.2044C57.6174 86.5814 57.8227 87.0799 57.8227 87.6999V92.1613H56.8173ZM61.1291 92.1613L58.4774 85.752H59.5582L61.77 91.4826H61.3679L63.5671 85.752H64.5976L61.946 92.1613H61.1291ZM68.0504 92.2869C67.4388 92.2869 66.8984 92.1445 66.4292 91.8596C65.96 91.5664 65.5914 91.1684 65.3233 90.6658C65.0552 90.1631 64.9211 89.585 64.9211 88.9315C64.9211 88.278 65.051 87.7041 65.3107 87.2098C65.5788 86.7071 65.9517 86.3175 66.4292 86.041C66.9068 85.7646 67.4555 85.6263 68.0755 85.6263C68.6704 85.6263 69.1856 85.7562 69.6213 86.0159C70.0653 86.2756 70.4046 86.6401 70.6392 87.1092C70.8822 87.5784 71.0037 88.1314 71.0037 88.7681C71.0037 88.8519 70.9995 88.9315 70.9911 89.0069C70.9911 89.0823 70.9827 89.1661 70.966 89.2582H65.6752V88.4162H70.3502L70.0234 88.8812C70.0234 88.1104 69.8517 87.5198 69.5082 87.1092C69.173 86.6903 68.6955 86.4809 68.0755 86.4809C67.4388 86.4809 66.9235 86.7029 66.5297 87.1469C66.1444 87.5826 65.9517 88.1733 65.9517 88.9189C65.9517 89.6813 66.1444 90.2929 66.5297 90.7537C66.9235 91.2061 67.4472 91.4324 68.1006 91.4324C68.5112 91.4324 68.8714 91.3444 69.1814 91.1684C69.4914 90.9841 69.7176 90.7244 69.8601 90.3893H70.8152C70.6057 90.9758 70.2538 91.4407 69.7595 91.7842C69.2736 92.1194 68.7039 92.2869 68.0504 92.2869ZM74.4402 92.2869C73.6527 92.2869 73.0243 92.1068 72.5551 91.7465C72.0859 91.3779 71.8178 90.8585 71.7508 90.1882H72.7185C72.7771 90.5987 72.9573 90.9129 73.2589 91.1307C73.5605 91.3486 73.9626 91.4575 74.4653 91.4575C74.9094 91.4575 75.2571 91.3737 75.5084 91.2061C75.7598 91.0386 75.8854 90.7998 75.8854 90.4898C75.8854 90.272 75.8142 90.0835 75.6718 89.9243C75.5294 89.7567 75.2445 89.6185 74.8172 89.5096L73.7867 89.2457C73.2002 89.0949 72.7604 88.8645 72.4672 88.5545C72.1739 88.2361 72.0273 87.8591 72.0273 87.4234C72.0273 86.8705 72.2326 86.4348 72.6431 86.1164C73.0536 85.7897 73.6108 85.6263 74.3145 85.6263C75.0099 85.6263 75.5754 85.7939 76.0111 86.129C76.4468 86.4641 76.6939 86.9291 76.7526 87.524H75.7849C75.7262 87.1805 75.5671 86.9166 75.3073 86.7322C75.0476 86.5479 74.7041 86.4558 74.2768 86.4558C73.8663 86.4558 73.5479 86.5353 73.3217 86.6945C73.0955 86.8453 72.9824 87.0632 72.9824 87.348C72.9824 87.5659 73.062 87.7544 73.2212 87.9135C73.3887 88.0727 73.6652 88.2068 74.0506 88.3157L75.056 88.5922C75.6508 88.7514 76.0991 88.9943 76.4007 89.3211C76.7023 89.6478 76.8531 90.0416 76.8531 90.5024C76.8531 91.0637 76.6395 91.5036 76.2122 91.8219C75.7849 92.1319 75.1942 92.2869 74.4402 92.2869ZM80.5184 92.2744C79.8063 92.2744 79.2868 92.1152 78.9601 91.7968C78.6417 91.4701 78.4825 91.0009 78.4825 90.3893V84.2565L79.4879 83.8795V90.3767C79.4879 90.737 79.58 91.0009 79.7644 91.1684C79.9487 91.336 80.2503 91.4198 80.6692 91.4198C80.8368 91.4198 80.9792 91.4114 81.0965 91.3947C81.2222 91.3695 81.3227 91.3402 81.3981 91.3067V92.1613C81.3143 92.1948 81.1928 92.2199 81.0337 92.2367C80.8828 92.2618 80.7111 92.2744 80.5184 92.2744ZM77.163 86.6066V85.752H81.3981V86.6066H77.163ZM82.4406 92.1613V85.752H83.3831V87.2601H83.446V92.1613H82.4406ZM86.7637 92.1613V87.9135C86.7637 87.4276 86.6548 87.0715 86.437 86.8453C86.2191 86.6191 85.9049 86.506 85.4944 86.506C85.109 86.506 84.7613 86.5982 84.4513 86.7825C84.1413 86.9668 83.8942 87.2224 83.7099 87.5491C83.5339 87.8758 83.446 88.2571 83.446 88.6927L83.2826 87.1721C83.5004 86.6945 83.8272 86.3175 84.2628 86.041C84.6985 85.7646 85.1719 85.6263 85.6829 85.6263C86.3029 85.6263 86.8056 85.8106 87.191 86.1793C87.5764 86.5395 87.7691 87.0297 87.7691 87.6496V92.1613H86.7637ZM91.0868 92.1613V87.9135C91.0868 87.4276 90.9779 87.0715 90.7601 86.8453C90.5422 86.6191 90.2281 86.506 89.8175 86.506C89.4321 86.506 89.0844 86.5982 88.7745 86.7825C88.4645 86.9668 88.2173 87.2224 88.033 87.5491C87.857 87.8758 87.7691 88.2571 87.7691 88.6927L87.5177 87.1721C87.7356 86.6945 88.0707 86.3175 88.5231 86.041C88.9755 85.7646 89.4615 85.6263 89.9809 85.6263C90.6009 85.6263 91.1078 85.8106 91.5015 86.1793C91.8953 86.5395 92.0922 87.0297 92.0922 87.6496V92.1613H91.0868ZM96.4012 92.2869C95.7896 92.2869 95.2492 92.1445 94.78 91.8596C94.3108 91.5664 93.9422 91.1684 93.6741 90.6658C93.406 90.1631 93.2719 89.585 93.2719 88.9315C93.2719 88.278 93.4018 87.7041 93.6615 87.2098C93.9296 86.7071 94.3024 86.3175 94.78 86.041C95.2575 85.7646 95.8063 85.6263 96.4263 85.6263C97.0211 85.6263 97.5364 85.7562 97.9721 86.0159C98.4161 86.2756 98.7554 86.6401 98.99 87.1092C99.233 87.5784 99.3544 88.1314 99.3544 88.7681C99.3544 88.8519 99.3503 88.9315 99.3419 89.0069C99.3419 89.0823 99.3335 89.1661 99.3167 89.2582H94.026V88.4162H98.701L98.3742 88.8812C98.3742 88.1104 98.2025 87.5198 97.859 87.1092C97.5238 86.6903 97.0463 86.4809 96.4263 86.4809C95.7896 86.4809 95.2743 86.7029 94.8805 87.1469C94.4951 87.5826 94.3024 88.1733 94.3024 88.9189C94.3024 89.6813 94.4951 90.2929 94.8805 90.7537C95.2743 91.2061 95.7979 91.4324 96.4514 91.4324C96.862 91.4324 97.2222 91.3444 97.5322 91.1684C97.8422 90.9841 98.0684 90.7244 98.2108 90.3893H99.1659C98.9565 90.9758 98.6046 91.4407 98.1103 91.7842C97.6244 92.1194 97.0547 92.2869 96.4012 92.2869ZM100.617 92.1613V85.752H101.559V87.2601H101.622V92.1613H100.617ZM105.204 92.1613V87.9638C105.204 87.4779 105.082 87.1134 104.839 86.8705C104.596 86.6275 104.236 86.506 103.759 86.506C103.34 86.506 102.967 86.5982 102.64 86.7825C102.322 86.9668 102.07 87.2224 101.886 87.5491C101.71 87.8758 101.622 88.2571 101.622 88.6927L101.459 87.1721C101.677 86.6945 102.008 86.3175 102.452 86.041C102.904 85.7646 103.415 85.6263 103.985 85.6263C104.655 85.6263 105.191 85.819 105.593 86.2044C106.004 86.5814 106.209 87.0799 106.209 87.6999V92.1613H105.204ZM110.281 92.2744C109.568 92.2744 109.049 92.1152 108.722 91.7968C108.404 91.4701 108.245 91.0009 108.245 90.3893V84.2565L109.25 83.8795V90.3767C109.25 90.737 109.342 91.0009 109.526 91.1684C109.711 91.336 110.012 91.4198 110.431 91.4198C110.599 91.4198 110.741 91.4114 110.859 91.3947C110.984 91.3695 111.085 91.3402 111.16 91.3067V92.1613C111.076 92.1948 110.955 92.2199 110.796 92.2367C110.645 92.2618 110.473 92.2744 110.281 92.2744ZM106.925 86.6066V85.752H111.16V86.6066H106.925ZM114.467 92.1613V85.752H115.473V92.1613H114.467ZM114.392 84.2942V83.1129H115.548V84.2942H114.392ZM119.409 92.2869C118.622 92.2869 117.993 92.1068 117.524 91.7465C117.055 91.3779 116.787 90.8585 116.72 90.1882H117.687C117.746 90.5987 117.926 90.9129 118.228 91.1307C118.529 91.3486 118.932 91.4575 119.434 91.4575C119.878 91.4575 120.226 91.3737 120.477 91.2061C120.729 91.0386 120.854 90.7998 120.854 90.4898C120.854 90.272 120.783 90.0835 120.641 89.9243C120.498 89.7567 120.213 89.6185 119.786 89.5096L118.756 89.2457C118.169 89.0949 117.729 88.8645 117.436 88.5545C117.143 88.2361 116.996 87.8591 116.996 87.4234C116.996 86.8705 117.201 86.4348 117.612 86.1164C118.023 85.7897 118.58 85.6263 119.283 85.6263C119.979 85.6263 120.544 85.7939 120.98 86.129C121.416 86.4641 121.663 86.9291 121.721 87.524H120.754C120.695 87.1805 120.536 86.9166 120.276 86.7322C120.017 86.5479 119.673 86.4558 119.246 86.4558C118.835 86.4558 118.517 86.5353 118.291 86.6945C118.064 86.8453 117.951 87.0632 117.951 87.348C117.951 87.5659 118.031 87.7544 118.19 87.9135C118.358 88.0727 118.634 88.2068 119.02 88.3157L120.025 88.5922C120.62 88.7514 121.068 88.9943 121.37 89.3211C121.671 89.6478 121.822 90.0416 121.822 90.5024C121.822 91.0637 121.608 91.5036 121.181 91.8219C120.754 92.1319 120.163 92.2869 119.409 92.2869ZM127.739 94.8632C126.977 94.8632 126.34 94.6831 125.829 94.3228C125.326 93.9709 125.021 93.5018 124.912 92.9153H125.867C125.959 93.2504 126.164 93.5143 126.483 93.707C126.809 93.9081 127.249 94.0086 127.802 94.0086C128.456 94.0086 128.95 93.8285 129.285 93.4682C129.62 93.1164 129.788 92.5969 129.788 91.9099V90.5401L129.913 90.5652C129.771 91.0512 129.486 91.4407 129.059 91.734C128.632 92.0188 128.125 92.1613 127.538 92.1613C126.977 92.1613 126.483 92.0272 126.055 91.7591C125.628 91.4826 125.297 91.1014 125.062 90.6155C124.828 90.1296 124.711 89.564 124.711 88.9189C124.711 88.2654 124.832 87.6915 125.075 87.1972C125.318 86.7029 125.657 86.3217 126.093 86.0536C126.537 85.7771 127.052 85.6389 127.639 85.6389C128.242 85.6389 128.745 85.7855 129.147 86.0787C129.557 86.372 129.83 86.7909 129.964 87.3355L129.851 87.348V85.752H130.793V91.9099C130.793 92.8231 130.521 93.5436 129.976 94.0715C129.432 94.5993 128.686 94.8632 127.739 94.8632ZM127.79 91.2941C128.418 91.2941 128.916 91.0763 129.285 90.6406C129.654 90.205 129.838 89.6143 129.838 88.8687C129.838 88.1398 129.654 87.5659 129.285 87.1469C128.916 86.7197 128.418 86.506 127.79 86.506C127.153 86.506 126.65 86.7197 126.281 87.1469C125.921 87.5742 125.741 88.1607 125.741 88.9064C125.741 89.6353 125.925 90.2175 126.294 90.6532C126.663 91.0805 127.161 91.2941 127.79 91.2941ZM132.558 92.1613V85.752H133.501V87.3857H133.563V92.1613H132.558ZM133.563 88.8184L133.4 87.2978C133.551 86.7532 133.819 86.3385 134.204 86.0536C134.59 85.7687 135.034 85.6263 135.537 85.6263C135.746 85.6263 135.888 85.6431 135.964 85.6766V86.6443C135.922 86.6275 135.863 86.6191 135.788 86.6191C135.712 86.6107 135.62 86.6066 135.511 86.6066C134.875 86.6066 134.389 86.7993 134.054 87.1847C133.727 87.5617 133.563 88.1062 133.563 88.8184ZM139.684 92.2869C139.055 92.2869 138.502 92.1403 138.025 91.8471C137.547 91.5538 137.174 91.1559 136.906 90.6532C136.647 90.1421 136.517 89.5682 136.517 88.9315C136.517 88.2864 136.651 87.7167 136.919 87.2224C137.187 86.728 137.556 86.3385 138.025 86.0536C138.502 85.7687 139.055 85.6263 139.684 85.6263C140.32 85.6263 140.873 85.7687 141.343 86.0536C141.82 86.3385 142.189 86.728 142.448 87.2224C142.717 87.7167 142.851 88.2864 142.851 88.9315C142.851 89.5682 142.717 90.1421 142.448 90.6532C142.189 91.1559 141.82 91.5538 141.343 91.8471C140.873 92.1403 140.32 92.2869 139.684 92.2869ZM139.684 91.4324C140.119 91.4324 140.496 91.3276 140.815 91.1182C141.133 90.9003 141.38 90.6029 141.556 90.2259C141.732 89.8489 141.82 89.4132 141.82 88.9189C141.82 88.1816 141.623 87.591 141.229 87.1469C140.844 86.7029 140.329 86.4809 139.684 86.4809C139.047 86.4809 138.532 86.7029 138.138 87.1469C137.744 87.591 137.547 88.1816 137.547 88.9189C137.547 89.4132 137.635 89.8489 137.811 90.2259C137.987 90.6029 138.234 90.9003 138.553 91.1182C138.879 91.3276 139.256 91.4324 139.684 91.4324ZM145.291 92.1613L143.331 85.752H144.349L145.857 91.2439H145.606L147.415 85.752H148.232L150.054 91.2439H149.803L151.299 85.752H152.266L150.306 92.1613H149.489L147.679 86.7951H147.943L146.108 92.1613H145.291ZM153.343 92.1613V85.752H154.348V92.1613H153.343ZM153.267 84.2942V83.1129H154.423V84.2942H153.267ZM156.11 92.1613V85.752H157.053V87.2601H157.116V92.1613H156.11ZM160.697 92.1613V87.9638C160.697 87.4779 160.576 87.1134 160.333 86.8705C160.09 86.6275 159.73 86.506 159.252 86.506C158.833 86.506 158.46 86.5982 158.134 86.7825C157.815 86.9668 157.564 87.2224 157.38 87.5491C157.204 87.8758 157.116 88.2571 157.116 88.6927L156.952 87.1721C157.17 86.6945 157.501 86.3175 157.945 86.041C158.398 85.7646 158.909 85.6263 159.478 85.6263C160.149 85.6263 160.685 85.819 161.087 86.2044C161.497 86.5814 161.703 87.0799 161.703 87.6999V92.1613H160.697ZM165.933 94.8632C165.171 94.8632 164.534 94.6831 164.023 94.3228C163.52 93.9709 163.215 93.5018 163.106 92.9153H164.061C164.153 93.2504 164.358 93.5143 164.677 93.707C165.003 93.9081 165.443 94.0086 165.996 94.0086C166.65 94.0086 167.144 93.8285 167.479 93.4682C167.814 93.1164 167.982 92.5969 167.982 91.9099V90.5401L168.107 90.5652C167.965 91.0512 167.68 91.4407 167.253 91.734C166.825 92.0188 166.319 92.1613 165.732 92.1613C165.171 92.1613 164.677 92.0272 164.249 91.7591C163.822 91.4826 163.491 91.1014 163.256 90.6155C163.022 90.1296 162.905 89.564 162.905 88.9189C162.905 88.2654 163.026 87.6915 163.269 87.1972C163.512 86.7029 163.851 86.3217 164.287 86.0536C164.731 85.7771 165.246 85.6389 165.833 85.6389C166.436 85.6389 166.939 85.7855 167.341 86.0787C167.751 86.372 168.024 86.7909 168.158 87.3355L168.045 87.348V85.752H168.987V91.9099C168.987 92.8231 168.715 93.5436 168.17 94.0715C167.626 94.5993 166.88 94.8632 165.933 94.8632ZM165.983 91.2941C166.612 91.2941 167.11 91.0763 167.479 90.6406C167.848 90.205 168.032 89.6143 168.032 88.8687C168.032 88.1398 167.848 87.5659 167.479 87.1469C167.11 86.7197 166.612 86.506 165.983 86.506C165.347 86.506 164.844 86.7197 164.475 87.1469C164.115 87.5742 163.935 88.1607 163.935 88.9064C163.935 89.6353 164.119 90.2175 164.488 90.6532C164.857 91.0805 165.355 91.2941 165.983 91.2941Z" fill="#A6A6A6"/>
<g clip-path="url(#clip1_4203_2924)">
<g filter="url(#filter0_d_4203_2924)">
<path d="M816.504 187.999C841.405 198.555 874.605 189.465 888.093 183.601L969.019 352.629L-97.024 371.48C-103.768 294.611 -108.54 137.982 -73.6801 126.42C-30.1046 111.968 -8.31689 138.987 -0.535583 147.156C7.24579 155.324 33.7023 161.608 55.4901 159.094C77.2778 156.581 123.966 187.999 156.647 195.539C189.329 203.08 234.461 161.608 254.692 154.696C274.924 147.784 292.043 162.865 299.824 161.608C307.605 160.351 340.287 120.765 363.631 121.393C386.975 122.021 407.206 159.094 424.325 154.696C441.444 150.298 460.119 183.601 517.701 205.593C575.283 227.586 598.627 122.021 629.752 116.994C660.878 111.968 670.215 133.96 701.341 154.696C732.466 175.432 746.472 159.723 755.81 154.696C765.148 149.669 785.379 174.804 816.504 187.999Z" stroke="#FF8975" stroke-width="1.25672" stroke-linecap="round" stroke-linejoin="round" shape-rendering="crispEdges"/>
</g>
<g filter="url(#filter1_d_4203_2924)">
<path d="M-69.9263 200.566C-94.8266 211.123 -128.027 202.032 -141.515 196.168L-222.44 365.196L843.602 384.047C850.346 307.178 855.119 150.549 820.258 138.987C776.683 124.535 754.895 151.554 747.114 159.723C739.332 167.891 712.876 174.175 691.088 171.662C669.3 169.148 622.612 200.566 589.931 208.106C557.249 215.647 512.117 174.175 491.886 167.263C471.654 160.351 454.536 175.432 446.754 174.175C438.973 172.918 406.291 133.332 382.947 133.96C359.603 134.588 339.372 171.662 322.253 167.263C305.134 162.865 286.459 196.168 228.877 218.16C171.295 240.153 147.951 134.588 116.826 129.561C85.7003 124.535 76.3628 146.527 45.2374 167.263C14.1121 187.999 0.105698 172.29 -9.2319 167.263C-18.5695 162.236 -38.801 187.371 -69.9263 200.566Z" stroke="#FFA04E" stroke-width="1.25672" stroke-linecap="round" stroke-linejoin="round" shape-rendering="crispEdges"/>
</g>
<g filter="url(#filter2_d_4203_2924)">
<path d="M-2.95331 197.972C-46.9948 208.524 -105.717 199.437 -129.573 193.575L-272.708 362.539L1612.82 381.382C1624.75 304.543 1633.19 147.973 1571.53 136.416C1494.46 121.969 1455.92 148.978 1442.16 157.144C1428.4 165.31 1381.6 171.591 1343.07 169.078C1304.53 166.566 1221.95 197.972 1164.15 205.509C1106.34 213.047 1026.52 171.591 990.733 164.681C954.949 157.772 924.671 172.847 910.908 171.591C897.145 170.334 839.34 130.763 798.052 131.391C756.763 132.019 720.979 169.078 690.7 164.681C660.422 160.285 627.391 193.575 525.545 215.559C423.699 237.543 382.41 132.019 327.358 126.994C272.306 121.969 255.791 143.954 200.739 164.681C145.687 185.409 120.913 169.706 104.398 164.681C87.8823 159.656 52.0986 184.781 -2.95331 197.972Z" stroke="white" stroke-width="1.25672" stroke-linecap="round" stroke-linejoin="round" shape-rendering="crispEdges"/>
</g>
</g>
<line x1="20.1074" y1="244.206" x2="456.892" y2="244.206" stroke="white" stroke-opacity="0.1" stroke-width="0.4966"/>
<circle cx="25.1343" cy="269.588" r="5.02687" fill="#DC7765"/>
<path d="M41.069 274.562V267.41H41.8834V274.562H41.069ZM41.4861 274.562V273.846H45.8562V274.562H41.4861ZM41.4861 271.195V270.479H45.4987V271.195H41.4861ZM41.4861 268.126V267.41H45.7768V268.126H41.4861ZM50.4024 274.562V273.38L50.5017 273.409C50.3759 273.793 50.1441 274.098 49.8064 274.323C49.4754 274.548 49.0781 274.661 48.6146 274.661C48.1577 274.661 47.7571 274.552 47.4128 274.333C47.0751 274.115 46.8103 273.81 46.6183 273.419C46.4329 273.029 46.3402 272.572 46.3402 272.049C46.3402 271.519 46.4362 271.056 46.6282 270.658C46.8202 270.261 47.0884 269.953 47.4327 269.735C47.777 269.516 48.1809 269.407 48.6444 269.407C49.1211 269.407 49.5217 269.523 49.8462 269.754C50.1706 269.986 50.3924 270.314 50.5116 270.738L50.3527 270.758V267.41H51.1473V274.562H50.4024ZM48.7636 273.966C49.2734 273.966 49.6707 273.793 49.9554 273.449C50.2468 273.098 50.3924 272.621 50.3924 272.019C50.3924 271.43 50.2468 270.963 49.9554 270.619C49.6641 270.274 49.2668 270.102 48.7636 270.102C48.2604 270.102 47.8664 270.274 47.5817 270.619C47.297 270.963 47.1546 271.44 47.1546 272.049C47.1546 272.645 47.297 273.115 47.5817 273.459C47.8664 273.797 48.2604 273.966 48.7636 273.966ZM54.1909 274.661C53.8598 274.661 53.5652 274.595 53.3069 274.462C53.0487 274.323 52.8467 274.131 52.7011 273.886C52.5554 273.635 52.4826 273.347 52.4826 273.022V269.496H53.2771V272.813C53.2771 273.198 53.3698 273.486 53.5552 273.678C53.7472 273.87 54.0187 273.966 54.3696 273.966C54.6875 273.966 54.9689 273.893 55.2139 273.747C55.4589 273.601 55.6509 273.399 55.7899 273.141C55.9356 272.876 56.0084 272.575 56.0084 272.237L56.1375 273.439C55.972 273.817 55.7138 274.115 55.3628 274.333C55.0119 274.552 54.6213 274.661 54.1909 274.661ZM56.0581 274.562V273.37H56.0084V269.496H56.803V274.562H56.0581ZM60.179 274.661C59.7155 274.661 59.3017 274.548 58.9375 274.323C58.58 274.091 58.2952 273.777 58.0834 273.38C57.8781 272.976 57.7755 272.519 57.7755 272.009C57.7755 271.499 57.8781 271.049 58.0834 270.658C58.2952 270.268 58.58 269.96 58.9375 269.735C59.3017 269.509 59.7122 269.397 60.1691 269.397C60.5465 269.397 60.8842 269.47 61.1821 269.615C61.4867 269.761 61.735 269.97 61.927 270.241C62.1257 270.506 62.2515 270.817 62.3045 271.175H61.5695C61.5033 270.85 61.351 270.585 61.1126 270.38C60.8743 270.175 60.5664 270.072 60.1889 270.072C59.8645 270.072 59.5831 270.152 59.3447 270.311C59.1064 270.47 58.921 270.695 58.7885 270.986C58.6561 271.277 58.5899 271.618 58.5899 272.009C58.5899 272.4 58.6561 272.744 58.7885 273.042C58.921 273.34 59.1064 273.572 59.3447 273.737C59.5897 273.903 59.8744 273.985 60.1989 273.985C60.563 273.985 60.8676 273.886 61.1126 273.688C61.3576 273.482 61.5132 273.217 61.5794 272.893H62.3144C62.2548 273.244 62.1224 273.555 61.9171 273.827C61.7185 274.091 61.4702 274.297 61.1722 274.442C60.8743 274.588 60.5432 274.661 60.179 274.661ZM66.3592 274.562C66.3327 274.449 66.3128 274.32 66.2996 274.174C66.293 274.029 66.2897 273.843 66.2897 273.618H66.24V271.195C66.24 270.811 66.1506 270.529 65.9719 270.35C65.7997 270.165 65.5183 270.072 65.1276 270.072C64.7436 270.072 64.4357 270.152 64.204 270.311C63.9788 270.463 63.853 270.681 63.8265 270.966H63.0618C63.0949 270.476 63.3001 270.092 63.6776 269.814C64.055 269.536 64.5483 269.397 65.1574 269.397C65.7865 269.397 66.2533 269.546 66.5578 269.844C66.8624 270.142 67.0147 270.589 67.0147 271.185V273.618C67.0147 273.764 67.0246 273.916 67.0445 274.075C67.0644 274.227 67.0909 274.389 67.124 274.562H66.3592ZM64.6211 274.661C64.098 274.661 63.6809 274.535 63.3697 274.283C63.0651 274.025 62.9128 273.674 62.9128 273.231C62.9128 272.787 63.0651 272.443 63.3697 272.198C63.6742 271.953 64.1179 271.781 64.7006 271.681L66.4685 271.383V272.039L64.8197 272.297C64.4489 272.357 64.1675 272.456 63.9755 272.595C63.7835 272.734 63.6875 272.936 63.6875 273.201C63.6875 273.459 63.7736 273.654 63.9457 273.787C64.1245 273.919 64.386 273.985 64.7304 273.985C65.174 273.985 65.5348 273.886 65.8129 273.688C66.0977 273.482 66.24 273.217 66.24 272.893L66.3691 273.598C66.2632 273.936 66.0546 274.197 65.7434 274.383C65.4388 274.568 65.0647 274.661 64.6211 274.661ZM70.238 274.651C69.6751 274.651 69.2646 274.525 69.0064 274.273C68.7548 274.015 68.629 273.644 68.629 273.161V268.314L69.4235 268.016V273.151C69.4235 273.436 69.4964 273.644 69.642 273.777C69.7877 273.909 70.0261 273.976 70.3571 273.976C70.4896 273.976 70.6021 273.969 70.6948 273.956C70.7941 273.936 70.8736 273.913 70.9332 273.886V274.562C70.867 274.588 70.771 274.608 70.6452 274.621C70.526 274.641 70.3902 274.651 70.238 274.651ZM67.5861 270.172V269.496H70.9332V270.172H67.5861ZM71.7571 274.562V269.496H72.5516V274.562H71.7571ZM71.6975 268.344V267.41H72.6112V268.344H71.6975ZM76.0306 274.661C75.534 274.661 75.097 274.545 74.7196 274.313C74.3422 274.081 74.0475 273.767 73.8357 273.37C73.6304 272.966 73.5278 272.512 73.5278 272.009C73.5278 271.499 73.6337 271.049 73.8456 270.658C74.0575 270.268 74.3488 269.96 74.7196 269.735C75.097 269.509 75.534 269.397 76.0306 269.397C76.5339 269.397 76.9709 269.509 77.3417 269.735C77.7191 269.96 78.0104 270.268 78.2157 270.658C78.4276 271.049 78.5335 271.499 78.5335 272.009C78.5335 272.512 78.4276 272.966 78.2157 273.37C78.0104 273.767 77.7191 274.081 77.3417 274.313C76.9709 274.545 76.5339 274.661 76.0306 274.661ZM76.0306 273.985C76.3749 273.985 76.6729 273.903 76.9245 273.737C77.1761 273.565 77.3715 273.33 77.5105 273.032C77.6496 272.734 77.7191 272.39 77.7191 271.999C77.7191 271.416 77.5635 270.95 77.2523 270.599C76.9477 270.248 76.5405 270.072 76.0306 270.072C75.5274 270.072 75.1202 270.248 74.809 270.599C74.4978 270.95 74.3422 271.416 74.3422 271.999C74.3422 272.39 74.4117 272.734 74.5508 273.032C74.6898 273.33 74.8851 273.565 75.1368 273.737C75.395 273.903 75.6929 273.985 76.0306 273.985ZM79.5265 274.562V269.496H80.2714V270.688H80.3211V274.562H79.5265ZM83.1517 274.562V271.244C83.1517 270.86 83.0557 270.572 82.8637 270.38C82.6717 270.188 82.387 270.092 82.0095 270.092C81.6785 270.092 81.3838 270.165 81.1256 270.311C80.874 270.456 80.6753 270.658 80.5297 270.916C80.3906 271.175 80.3211 271.476 80.3211 271.82L80.192 270.619C80.3641 270.241 80.6257 269.943 80.9766 269.725C81.3342 269.506 81.7381 269.397 82.1883 269.397C82.718 269.397 83.1418 269.549 83.4596 269.854C83.7841 270.152 83.9463 270.546 83.9463 271.036V274.562H83.1517Z" fill="#A6A6A6"/>
<path d="M136.336 273.111V268.632H137.17V273.111H136.336ZM134.647 271.284V270.47H138.858V271.284H134.647ZM142.575 274.562V272.674L142.615 272.476V268.394L142.993 268.503L140.013 272.535L139.606 272.148H144.512V273.012H139.05V272.208L142.615 267.41H143.658V274.562H142.575ZM147.913 274.661C147.337 274.661 146.831 274.505 146.394 274.194C145.957 273.876 145.616 273.439 145.371 272.883C145.126 272.32 145.003 271.678 145.003 270.956C145.003 270.234 145.126 269.602 145.371 269.059C145.616 268.51 145.957 268.083 146.394 267.778C146.831 267.467 147.337 267.311 147.913 267.311C148.489 267.311 148.992 267.467 149.423 267.778C149.86 268.083 150.201 268.51 150.446 269.059C150.691 269.602 150.813 270.234 150.813 270.956C150.813 271.685 150.691 272.327 150.446 272.883C150.201 273.439 149.86 273.876 149.423 274.194C148.986 274.505 148.483 274.661 147.913 274.661ZM147.913 273.757C148.291 273.757 148.612 273.641 148.877 273.409C149.141 273.171 149.34 272.843 149.472 272.426C149.612 272.002 149.681 271.509 149.681 270.946C149.681 270.39 149.612 269.907 149.472 269.496C149.34 269.086 149.141 268.771 148.877 268.553C148.618 268.328 148.297 268.215 147.913 268.215C147.522 268.215 147.195 268.328 146.93 268.553C146.672 268.778 146.473 269.096 146.334 269.506C146.202 269.91 146.135 270.39 146.135 270.946C146.135 271.509 146.205 272.002 146.344 272.426C146.483 272.85 146.682 273.178 146.94 273.409C147.205 273.641 147.529 273.757 147.913 273.757ZM151.758 274.562L157.062 267.41H157.986L152.692 274.562H151.758ZM156.774 274.661C156.496 274.661 156.234 274.595 155.989 274.462C155.744 274.33 155.546 274.128 155.393 273.856C155.241 273.585 155.165 273.241 155.165 272.823C155.165 272.406 155.238 272.065 155.383 271.8C155.536 271.529 155.734 271.327 155.979 271.195C156.224 271.062 156.489 270.996 156.774 270.996C157.072 270.996 157.343 271.062 157.588 271.195C157.84 271.327 158.038 271.529 158.184 271.8C158.33 272.065 158.403 272.406 158.403 272.823C158.403 273.241 158.327 273.585 158.174 273.856C158.022 274.128 157.82 274.33 157.568 274.462C157.323 274.595 157.059 274.661 156.774 274.661ZM156.774 274.015C157.025 274.015 157.231 273.913 157.39 273.707C157.555 273.495 157.638 273.198 157.638 272.813C157.638 272.436 157.555 272.148 157.39 271.949C157.231 271.744 157.025 271.642 156.774 271.642C156.522 271.642 156.32 271.741 156.168 271.939C156.016 272.138 155.94 272.429 155.94 272.813C155.94 273.204 156.016 273.502 156.168 273.707C156.32 273.913 156.522 274.015 156.774 274.015ZM152.9 270.976C152.616 270.976 152.351 270.91 152.106 270.777C151.861 270.645 151.662 270.443 151.51 270.172C151.364 269.9 151.291 269.556 151.291 269.139C151.291 268.722 151.364 268.381 151.51 268.116C151.662 267.844 151.861 267.642 152.106 267.51C152.351 267.377 152.616 267.311 152.9 267.311C153.198 267.311 153.47 267.377 153.715 267.51C153.96 267.642 154.155 267.844 154.301 268.116C154.446 268.381 154.519 268.722 154.519 269.139C154.519 269.556 154.443 269.9 154.291 270.172C154.139 270.443 153.94 270.645 153.695 270.777C153.45 270.91 153.185 270.976 152.9 270.976ZM152.9 270.33C153.145 270.33 153.347 270.228 153.506 270.023C153.672 269.817 153.754 269.519 153.754 269.129C153.754 268.751 153.675 268.463 153.516 268.265C153.357 268.059 153.152 267.957 152.9 267.957C152.649 267.957 152.443 268.056 152.285 268.255C152.132 268.453 152.056 268.745 152.056 269.129C152.056 269.519 152.132 269.817 152.285 270.023C152.443 270.228 152.649 270.33 152.9 270.33Z" fill="white"/>
<circle cx="174.04" cy="269.588" r="5.02687" fill="#E38E45"/>
<path d="M189.975 274.562V267.41H190.789V274.562H189.975ZM194.762 274.562V267.41H195.576V274.562H194.762ZM190.392 270.479H195.12V271.195H190.392V270.479ZM199.106 274.661C198.622 274.661 198.195 274.548 197.824 274.323C197.453 274.091 197.162 273.777 196.95 273.38C196.738 272.982 196.632 272.525 196.632 272.009C196.632 271.493 196.735 271.039 196.94 270.648C197.152 270.251 197.447 269.943 197.824 269.725C198.202 269.506 198.635 269.397 199.125 269.397C199.596 269.397 200.003 269.5 200.347 269.705C200.698 269.91 200.966 270.198 201.152 270.569C201.344 270.94 201.44 271.377 201.44 271.88C201.44 271.946 201.436 272.009 201.43 272.069C201.43 272.128 201.423 272.194 201.41 272.267H197.228V271.602H200.923L200.665 271.969C200.665 271.36 200.529 270.893 200.258 270.569C199.993 270.238 199.615 270.072 199.125 270.072C198.622 270.072 198.215 270.248 197.904 270.599C197.599 270.943 197.447 271.41 197.447 271.999C197.447 272.602 197.599 273.085 197.904 273.449C198.215 273.807 198.629 273.985 199.145 273.985C199.47 273.985 199.754 273.916 199.999 273.777C200.244 273.631 200.423 273.426 200.536 273.161H201.291C201.125 273.625 200.847 273.992 200.456 274.264C200.072 274.528 199.622 274.661 199.106 274.661ZM205.517 274.562C205.49 274.449 205.471 274.32 205.457 274.174C205.451 274.029 205.447 273.843 205.447 273.618H205.398V271.195C205.398 270.811 205.308 270.529 205.13 270.35C204.957 270.165 204.676 270.072 204.285 270.072C203.901 270.072 203.593 270.152 203.362 270.311C203.136 270.463 203.011 270.681 202.984 270.966H202.219C202.253 270.476 202.458 270.092 202.835 269.814C203.213 269.536 203.706 269.397 204.315 269.397C204.944 269.397 205.411 269.546 205.715 269.844C206.02 270.142 206.172 270.589 206.172 271.185V273.618C206.172 273.764 206.182 273.916 206.202 274.075C206.222 274.227 206.249 274.389 206.282 274.562H205.517ZM203.779 274.661C203.256 274.661 202.839 274.535 202.527 274.283C202.223 274.025 202.07 273.674 202.07 273.231C202.07 272.787 202.223 272.443 202.527 272.198C202.832 271.953 203.276 271.781 203.858 271.681L205.626 271.383V272.039L203.977 272.297C203.607 272.357 203.325 272.456 203.133 272.595C202.941 272.734 202.845 272.936 202.845 273.201C202.845 273.459 202.931 273.654 203.103 273.787C203.282 273.919 203.544 273.985 203.888 273.985C204.332 273.985 204.693 273.886 204.971 273.688C205.255 273.482 205.398 273.217 205.398 272.893L205.527 273.598C205.421 273.936 205.212 274.197 204.901 274.383C204.596 274.568 204.222 274.661 203.779 274.661ZM207.505 274.562V267.41H208.3V274.562H207.505ZM211.719 274.651C211.156 274.651 210.745 274.525 210.487 274.273C210.236 274.015 210.11 273.644 210.11 273.161V268.314L210.904 268.016V273.151C210.904 273.436 210.977 273.644 211.123 273.777C211.269 273.909 211.507 273.976 211.838 273.976C211.97 273.976 212.083 273.969 212.176 273.956C212.275 273.936 212.354 273.913 212.414 273.886V274.562C212.348 274.588 212.252 274.608 212.126 274.621C212.007 274.641 211.871 274.651 211.719 274.651ZM209.067 270.172V269.496H212.414V270.172H209.067ZM213.238 274.562V267.41H214.032V274.562H213.238ZM216.863 274.562V271.244C216.863 270.86 216.767 270.572 216.575 270.38C216.383 270.188 216.098 270.092 215.721 270.092C215.39 270.092 215.095 270.165 214.837 270.311C214.585 270.456 214.387 270.658 214.241 270.916C214.102 271.175 214.032 271.476 214.032 271.82L213.903 270.619C214.075 270.241 214.337 269.943 214.688 269.725C215.046 269.506 215.449 269.397 215.9 269.397C216.429 269.397 216.853 269.549 217.171 269.854C217.495 270.152 217.658 270.546 217.658 271.036V274.562H216.863Z" fill="#A6A6A6"/>
<path d="M286.241 273.111V268.632H287.076V273.111H286.241ZM284.553 271.284V270.47H288.764V271.284H284.553ZM292.481 274.562V272.674L292.521 272.476V268.394L292.898 268.503L289.919 272.535L289.512 272.148H294.418V273.012H288.955V272.208L292.521 267.41H293.564V274.562H292.481ZM295.751 274.562C295.843 273.436 296.111 272.33 296.555 271.244C296.999 270.158 297.628 269.086 298.442 268.026L298.472 268.275H294.41V267.41H299.386V268.175C298.882 268.904 298.459 269.619 298.114 270.321C297.77 271.016 297.499 271.711 297.3 272.406C297.108 273.102 296.982 273.82 296.923 274.562H295.751ZM300.18 274.562L305.484 267.41H306.407L301.114 274.562H300.18ZM305.196 274.661C304.917 274.661 304.656 274.595 304.411 274.462C304.166 274.33 303.967 274.128 303.815 273.856C303.663 273.585 303.587 273.241 303.587 272.823C303.587 272.406 303.659 272.065 303.805 271.8C303.957 271.529 304.156 271.327 304.401 271.195C304.646 271.062 304.911 270.996 305.196 270.996C305.494 270.996 305.765 271.062 306.01 271.195C306.262 271.327 306.46 271.529 306.606 271.8C306.752 272.065 306.824 272.406 306.824 272.823C306.824 273.241 306.748 273.585 306.596 273.856C306.444 274.128 306.242 274.33 305.99 274.462C305.745 274.595 305.48 274.661 305.196 274.661ZM305.196 274.015C305.447 274.015 305.652 273.913 305.811 273.707C305.977 273.495 306.06 273.198 306.06 272.813C306.06 272.436 305.977 272.148 305.811 271.949C305.652 271.744 305.447 271.642 305.196 271.642C304.944 271.642 304.742 271.741 304.59 271.939C304.437 272.138 304.361 272.429 304.361 272.813C304.361 273.204 304.437 273.502 304.59 273.707C304.742 273.913 304.944 274.015 305.196 274.015ZM301.322 270.976C301.037 270.976 300.773 270.91 300.528 270.777C300.283 270.645 300.084 270.443 299.932 270.172C299.786 269.9 299.713 269.556 299.713 269.139C299.713 268.722 299.786 268.381 299.932 268.116C300.084 267.844 300.283 267.642 300.528 267.51C300.773 267.377 301.037 267.311 301.322 267.311C301.62 267.311 301.892 267.377 302.137 267.51C302.382 267.642 302.577 267.844 302.723 268.116C302.868 268.381 302.941 268.722 302.941 269.139C302.941 269.556 302.865 269.9 302.713 270.172C302.56 270.443 302.362 270.645 302.117 270.777C301.872 270.91 301.607 270.976 301.322 270.976ZM301.322 270.33C301.567 270.33 301.769 270.228 301.928 270.023C302.093 269.817 302.176 269.519 302.176 269.129C302.176 268.751 302.097 268.463 301.938 268.265C301.779 268.059 301.574 267.957 301.322 267.957C301.07 267.957 300.865 268.056 300.706 268.255C300.554 268.453 300.478 268.745 300.478 269.129C300.478 269.519 300.554 269.817 300.706 270.023C300.865 270.228 301.07 270.33 301.322 270.33Z" fill="white"/>
<circle cx="322.946" cy="269.588" r="5.02687" fill="white"/>
<path d="M341.304 274.651C340.47 274.651 339.804 274.446 339.308 274.035C338.818 273.625 338.53 273.039 338.444 272.277H339.238C339.311 272.827 339.519 273.241 339.864 273.519C340.208 273.797 340.685 273.936 341.294 273.936C341.81 273.936 342.198 273.84 342.456 273.648C342.721 273.449 342.853 273.161 342.853 272.784C342.853 272.459 342.764 272.201 342.585 272.009C342.406 271.817 342.128 271.658 341.751 271.532L340.549 271.115C339.94 270.903 339.49 270.648 339.198 270.35C338.907 270.046 338.761 269.662 338.761 269.198C338.761 268.814 338.857 268.483 339.049 268.205C339.241 267.92 339.513 267.699 339.864 267.54C340.215 267.381 340.622 267.301 341.085 267.301C341.801 267.301 342.373 267.49 342.804 267.867C343.234 268.238 343.482 268.768 343.549 269.456H342.754C342.668 268.96 342.489 268.596 342.218 268.364C341.953 268.132 341.569 268.016 341.066 268.016C340.589 268.016 340.218 268.112 339.953 268.304C339.688 268.496 339.556 268.768 339.556 269.119C339.556 269.417 339.649 269.655 339.834 269.834C340.019 270.013 340.307 270.168 340.698 270.301L341.979 270.748C342.535 270.94 342.953 271.201 343.231 271.532C343.509 271.857 343.648 272.271 343.648 272.774C343.648 273.37 343.443 273.833 343.032 274.164C342.628 274.489 342.052 274.651 341.304 274.651ZM347.754 274.562C347.728 274.449 347.708 274.32 347.695 274.174C347.688 274.029 347.685 273.843 347.685 273.618H347.635V271.195C347.635 270.811 347.546 270.529 347.367 270.35C347.195 270.165 346.913 270.072 346.523 270.072C346.139 270.072 345.831 270.152 345.599 270.311C345.374 270.463 345.248 270.681 345.222 270.966H344.457C344.49 270.476 344.695 270.092 345.073 269.814C345.45 269.536 345.943 269.397 346.552 269.397C347.181 269.397 347.648 269.546 347.953 269.844C348.257 270.142 348.41 270.589 348.41 271.185V273.618C348.41 273.764 348.42 273.916 348.44 274.075C348.459 274.227 348.486 274.389 348.519 274.562H347.754ZM346.016 274.661C345.493 274.661 345.076 274.535 344.765 274.283C344.46 274.025 344.308 273.674 344.308 273.231C344.308 272.787 344.46 272.443 344.765 272.198C345.069 271.953 345.513 271.781 346.096 271.681L347.863 271.383V272.039L346.215 272.297C345.844 272.357 345.563 272.456 345.371 272.595C345.179 272.734 345.083 272.936 345.083 273.201C345.083 273.459 345.169 273.654 345.341 273.787C345.52 273.919 345.781 273.985 346.125 273.985C346.569 273.985 346.93 273.886 347.208 273.688C347.493 273.482 347.635 273.217 347.635 272.893L347.764 273.598C347.658 273.936 347.45 274.197 347.138 274.383C346.834 274.568 346.46 274.661 346.016 274.661ZM351.029 274.562L348.933 269.496H349.787L351.535 274.025H351.217L352.955 269.496H353.77L351.674 274.562H351.029ZM354.481 274.562V269.496H355.275V274.562H354.481ZM354.421 268.344V267.41H355.335V268.344H354.421ZM356.668 274.562V269.496H357.413V270.688H357.463V274.562H356.668ZM360.293 274.562V271.244C360.293 270.86 360.197 270.572 360.005 270.38C359.813 270.188 359.529 270.092 359.151 270.092C358.82 270.092 358.526 270.165 358.267 270.311C358.016 270.456 357.817 270.658 357.671 270.916C357.532 271.175 357.463 271.476 357.463 271.82L357.334 270.619C357.506 270.241 357.767 269.943 358.118 269.725C358.476 269.506 358.88 269.397 359.33 269.397C359.86 269.397 360.284 269.549 360.601 269.854C360.926 270.152 361.088 270.546 361.088 271.036V274.562H360.293ZM364.431 276.697C363.829 276.697 363.326 276.555 362.922 276.27C362.524 275.992 362.283 275.621 362.197 275.157H362.952C363.024 275.422 363.187 275.631 363.438 275.783C363.696 275.942 364.044 276.022 364.481 276.022C364.998 276.022 365.388 275.879 365.653 275.594C365.918 275.316 366.05 274.906 366.05 274.363V273.28L366.15 273.3C366.037 273.684 365.812 273.992 365.474 274.224C365.137 274.449 364.736 274.562 364.273 274.562C363.829 274.562 363.438 274.456 363.101 274.244C362.763 274.025 362.501 273.724 362.316 273.34C362.131 272.956 362.038 272.509 362.038 271.999C362.038 271.483 362.134 271.029 362.326 270.638C362.518 270.248 362.786 269.946 363.13 269.735C363.481 269.516 363.888 269.407 364.352 269.407C364.829 269.407 365.226 269.523 365.544 269.754C365.868 269.986 366.083 270.317 366.189 270.748L366.1 270.758V269.496H366.845V274.363C366.845 275.085 366.63 275.654 366.199 276.071C365.769 276.488 365.18 276.697 364.431 276.697ZM364.471 273.876C364.968 273.876 365.362 273.704 365.653 273.36C365.944 273.015 366.09 272.549 366.09 271.959C366.09 271.383 365.944 270.93 365.653 270.599C365.362 270.261 364.968 270.092 364.471 270.092C363.968 270.092 363.571 270.261 363.279 270.599C362.995 270.936 362.852 271.4 362.852 271.989C362.852 272.565 362.998 273.025 363.289 273.37C363.581 273.707 363.975 273.876 364.471 273.876Z" fill="#A6A6A6"/>
<path d="M437.147 273.111V268.632H437.981V273.111H437.147ZM435.459 271.284V270.47H439.67V271.284H435.459ZM441.572 274.562V268.394L441.76 268.473C441.674 268.659 441.525 268.841 441.313 269.019C441.101 269.198 440.856 269.354 440.578 269.486C440.3 269.612 440.006 269.701 439.694 269.754V268.741C439.986 268.695 440.27 268.609 440.549 268.483C440.827 268.351 441.075 268.192 441.293 268.006C441.512 267.814 441.674 267.616 441.78 267.41H442.595V274.562H441.572ZM446.048 274.661C445.558 274.661 445.125 274.571 444.747 274.393C444.376 274.214 444.075 273.956 443.843 273.618C443.618 273.274 443.479 272.857 443.426 272.367H444.509C444.575 272.837 444.737 273.194 444.996 273.439C445.254 273.678 445.598 273.797 446.028 273.797C446.426 273.797 446.744 273.688 446.982 273.469C447.22 273.25 447.339 272.949 447.339 272.565C447.339 272.175 447.224 271.857 446.992 271.612C446.76 271.367 446.429 271.244 445.999 271.244H445.194V270.4H445.969C446.353 270.4 446.651 270.297 446.863 270.092C447.075 269.887 447.181 269.615 447.181 269.278C447.181 268.933 447.078 268.665 446.873 268.473C446.667 268.275 446.373 268.175 445.989 268.175C445.631 268.175 445.323 268.281 445.065 268.493C444.813 268.705 444.661 269.013 444.608 269.417H443.526C443.572 268.986 443.701 268.616 443.913 268.304C444.131 267.987 444.419 267.742 444.777 267.569C445.141 267.397 445.555 267.311 446.019 267.311C446.475 267.311 446.873 267.387 447.21 267.54C447.555 267.692 447.82 267.91 448.005 268.195C448.197 268.48 448.293 268.814 448.293 269.198C448.293 269.529 448.217 269.824 448.065 270.082C447.912 270.34 447.71 270.542 447.459 270.688C447.214 270.827 446.939 270.897 446.634 270.897L446.595 270.688C446.979 270.688 447.31 270.774 447.588 270.946C447.872 271.112 448.091 271.34 448.243 271.632C448.396 271.916 448.472 272.244 448.472 272.615C448.472 273.025 448.366 273.386 448.154 273.697C447.949 274.002 447.664 274.24 447.3 274.413C446.936 274.578 446.518 274.661 446.048 274.661ZM449.408 274.562L454.711 267.41H455.635L450.341 274.562H449.408ZM454.423 274.661C454.145 274.661 453.884 274.595 453.639 274.462C453.394 274.33 453.195 274.128 453.043 273.856C452.891 273.585 452.814 273.241 452.814 272.823C452.814 272.406 452.887 272.065 453.033 271.8C453.185 271.529 453.384 271.327 453.629 271.195C453.874 271.062 454.139 270.996 454.423 270.996C454.721 270.996 454.993 271.062 455.238 271.195C455.489 271.327 455.688 271.529 455.834 271.8C455.979 272.065 456.052 272.406 456.052 272.823C456.052 273.241 455.976 273.585 455.824 273.856C455.672 274.128 455.47 274.33 455.218 274.462C454.973 274.595 454.708 274.661 454.423 274.661ZM454.423 274.015C454.675 274.015 454.88 273.913 455.039 273.707C455.205 273.495 455.287 273.198 455.287 272.813C455.287 272.436 455.205 272.148 455.039 271.949C454.88 271.744 454.675 271.642 454.423 271.642C454.172 271.642 453.97 271.741 453.818 271.939C453.665 272.138 453.589 272.429 453.589 272.813C453.589 273.204 453.665 273.502 453.818 273.707C453.97 273.913 454.172 274.015 454.423 274.015ZM450.55 270.976C450.265 270.976 450 270.91 449.755 270.777C449.51 270.645 449.312 270.443 449.159 270.172C449.014 269.9 448.941 269.556 448.941 269.139C448.941 268.722 449.014 268.381 449.159 268.116C449.312 267.844 449.51 267.642 449.755 267.51C450 267.377 450.265 267.311 450.55 267.311C450.848 267.311 451.119 267.377 451.364 267.51C451.609 267.642 451.805 267.844 451.95 268.116C452.096 268.381 452.169 268.722 452.169 269.139C452.169 269.556 452.093 269.9 451.94 270.172C451.788 270.443 451.589 270.645 451.344 270.777C451.099 270.91 450.835 270.976 450.55 270.976ZM450.55 270.33C450.795 270.33 450.997 270.228 451.156 270.023C451.321 269.817 451.404 269.519 451.404 269.129C451.404 268.751 451.325 268.463 451.166 268.265C451.007 268.059 450.802 267.957 450.55 267.957C450.298 267.957 450.093 268.056 449.934 268.255C449.782 268.453 449.706 268.745 449.706 269.129C449.706 269.519 449.782 269.817 449.934 270.023C450.093 270.228 450.298 270.33 450.55 270.33Z" fill="white"/>
<g filter="url(#filter3_f_4203_2924)">
<rect x="-40.7612" y="203.807" width="535.125" height="163.046" rx="81.5229" fill="white" fill-opacity="0.1"/>
</g>
<g filter="url(#filter4_f_4203_2924)">
<rect x="-158.533" y="182.954" width="338.308" height="134.945" rx="67.4727" transform="rotate(-57.1816 -158.533 182.954)" fill="white" fill-opacity="0.3"/>
</g>
</g>
<defs>
<filter id="filter0_d_4203_2924" x="-114.989" y="104.33" width="1097.2" height="281.603" filterUnits="userSpaceOnUse" color-interpolation-filters="sRGB">
<feFlood flood-opacity="0" result="BackgroundImageFix"/>
<feColorMatrix in="SourceAlpha" type="matrix" values="0 0 0 0 0 0 0 0 0 0 0 0 0 0 0 0 0 0 127 0" result="hardAlpha"/>
<feOffset dy="1.25672"/>
<feGaussianBlur stdDeviation="6.28359"/>
<feComposite in2="hardAlpha" operator="out"/>
<feColorMatrix type="matrix" values="0 0 0 0 1 0 0 0 0 0.537255 0 0 0 0 0.458824 0 0 0 1 0"/>
<feBlend mode="normal" in2="BackgroundImageFix" result="effect1_dropShadow_4203_2924"/>
<feBlend mode="normal" in="SourceGraphic" in2="effect1_dropShadow_4203_2924" result="shape"/>
</filter>
<filter id="filter1_d_4203_2924" x="-235.636" y="116.897" width="1097.2" height="281.603" filterUnits="userSpaceOnUse" color-interpolation-filters="sRGB">
<feFlood flood-opacity="0" result="BackgroundImageFix"/>
<feColorMatrix in="SourceAlpha" type="matrix" values="0 0 0 0 0 0 0 0 0 0 0 0 0 0 0 0 0 0 127 0" result="hardAlpha"/>
<feOffset dy="1.25672"/>
<feGaussianBlur stdDeviation="6.28359"/>
<feComposite in2="hardAlpha" operator="out"/>
<feColorMatrix type="matrix" values="0 0 0 0 1 0 0 0 0 0.627451 0 0 0 0 0.305882 0 0 0 1 0"/>
<feBlend mode="normal" in2="BackgroundImageFix" result="effect1_dropShadow_4203_2924"/>
<feBlend mode="normal" in="SourceGraphic" in2="effect1_dropShadow_4203_2924" result="shape"/>
</filter>
<filter id="filter2_d_4203_2924" x="-285.903" y="114.33" width="1920.35" height="281.505" filterUnits="userSpaceOnUse" color-interpolation-filters="sRGB">
<feFlood flood-opacity="0" result="BackgroundImageFix"/>
<feColorMatrix in="SourceAlpha" type="matrix" values="0 0 0 0 0 0 0 0 0 0 0 0 0 0 0 0 0 0 127 0" result="hardAlpha"/>
<feOffset dy="1.25672"/>
<feGaussianBlur stdDeviation="6.28359"/>
<feComposite in2="hardAlpha" operator="out"/>
<feColorMatrix type="matrix" values="0 0 0 0 1 0 0 0 0 1 0 0 0 0 1 0 0 0 1 0"/>
<feBlend mode="normal" in2="BackgroundImageFix" result="effect1_dropShadow_4203_2924"/>
<feBlend mode="normal" in="SourceGraphic" in2="effect1_dropShadow_4203_2924" result="shape"/>
</filter>
<filter id="filter3_f_4203_2924" x="-177.961" y="66.6076" width="809.524" height="437.445" filterUnits="userSpaceOnUse" color-interpolation-filters="sRGB">
<feFlood flood-opacity="0" result="BackgroundImageFix"/>
<feBlend mode="normal" in="SourceGraphic" in2="BackgroundImageFix" result="shape"/>
<feGaussianBlur stdDeviation="68.5998" result="effect1_foregroundBlur_4203_2924"/>
</filter>
<filter id="filter4_f_4203_2924" x="-269.941" y="-212.766" width="519.579" height="580.266" filterUnits="userSpaceOnUse" color-interpolation-filters="sRGB">
<feFlood flood-opacity="0" result="BackgroundImageFix"/>
<feBlend mode="normal" in="SourceGraphic" in2="BackgroundImageFix" result="shape"/>
<feGaussianBlur stdDeviation="68.5998" result="effect1_foregroundBlur_4203_2924"/>
</filter>
<clipPath id="clip0_4203_2924">
<rect width="477" height="306" rx="25.1344" fill="white"/>
</clipPath>
<clipPath id="clip1_4203_2924">
<rect width="436.785" height="108.078" fill="white" transform="translate(20.1074 116.269)"/>
</clipPath>
</defs>
</svg>
