<svg width="130" height="23" viewBox="0 0 130 23" fill="none" xmlns="http://www.w3.org/2000/svg">
<path d="M104.063 22.6943C98.411 22.6943 95.9175 20.3317 95.9175 16.8377H100.871C101.071 18.5015 101.869 19.4 104.129 19.4C106.257 19.4 107.122 18.5681 107.122 17.5033C107.122 16.5383 106.324 16.0058 104.961 15.8062L102.234 15.4402C97.9123 14.8079 96.3829 13.377 96.3829 10.3822C96.3829 7.22099 98.7102 4.8584 104.063 4.8584C109.416 4.8584 111.743 7.22099 111.743 10.4488H106.789C106.623 9.18427 106.124 8.15272 103.996 8.15272C102.168 8.15272 101.47 8.88479 101.47 9.94962C101.47 10.8813 101.968 11.3139 103.099 11.4803L105.792 11.8463C109.881 12.4453 112.208 13.7098 112.208 17.1705C112.208 20.3317 109.715 22.6943 104.063 22.6943Z" fill="#9C9EAC"/>
<path d="M92.5253 22.5612C88.3362 22.5612 87.0063 21.2302 87.0063 17.1372V8.7517H84.4131V5.19117H87.0063V0.00012207H92.0598V5.19117H95.584V8.7517H92.0598V17.3369C92.0598 18.5348 92.5918 18.9674 93.7886 18.9674H95.584V22.3616C94.8193 22.4281 93.3232 22.5612 92.5253 22.5612Z" fill="#9C9EAC"/>
<path d="M76.5795 22.6943C70.8944 22.6943 67.6694 19.1338 67.6694 13.7764C67.6694 8.41893 70.8944 4.8584 76.5795 4.8584C82.298 4.8584 84.9577 8.35237 84.9577 11.9129H80.1702C79.9042 10.0162 78.8403 8.68513 76.5795 8.68513C74.1525 8.68513 72.7562 10.3157 72.7562 13.7764C72.7562 17.2371 74.1525 18.8676 76.5795 18.8676C78.5078 18.8676 79.871 17.9026 80.1702 15.5067H84.9577C84.9577 19.4 82.0985 22.6943 76.5795 22.6943Z" fill="#9C9EAC"/>
<path d="M56.4828 22.6943C52.3935 22.6943 50.2324 20.6645 50.2324 17.5033C50.2324 14.8412 51.7618 12.6782 56.1503 12.3122L59.8075 12.0127C61.2371 11.8796 61.636 11.447 61.636 10.715C61.636 9.25082 60.7384 8.41892 59.0095 8.41892C57.314 8.41892 56.3831 9.18427 56.2168 10.715H51.1633C51.1633 7.15444 53.4241 4.8584 58.943 4.8584C64.462 4.8584 66.7228 7.15444 66.7228 10.715V17.9691C66.7228 20.2984 66.9222 21.7959 67.2547 22.3615H62.6334C62.168 21.7626 61.902 21.0971 61.902 19.9657C60.9378 21.7626 59.342 22.6943 56.4828 22.6943ZM57.9789 19.3002C60.3062 19.3002 61.636 17.5365 61.636 15.4402V14.4751C61.4033 14.7414 60.7384 14.9077 59.8075 15.0076L57.9456 15.1407C56.0506 15.307 55.3192 16.0724 55.3192 17.1372C55.3192 18.435 56.1171 19.3002 57.9789 19.3002Z" fill="#9C9EAC"/>
<path d="M44.9437 22.3615H39.8569V5.19106H44.6777V8.88469C45.5421 5.88986 47.0382 4.95813 49.299 4.95813C49.7644 4.95813 50.5624 5.05796 50.8948 5.19106V9.61676L49.0995 9.58349C46.5728 9.58349 44.9437 11.3804 44.9437 14.5083V22.3615Z" fill="#9C9EAC"/>
<path d="M35.7982 22.5612C31.6091 22.5612 30.2793 21.2302 30.2793 17.1372V8.7517H27.686V5.19117H30.2793V0.00012207H35.3328V5.19117H38.8569V8.7517H35.3328V17.3369C35.3328 18.5348 35.8647 18.9674 37.0616 18.9674H38.8569V22.3616C38.0922 22.4281 36.5961 22.5612 35.7982 22.5612Z" fill="#9C9EAC"/>
<path d="M24.7582 22.5612C20.5691 22.5612 19.2392 21.2302 19.2392 17.1372V8.7517H16.646V5.19117H19.2392V0.00012207H24.2927V5.19117H27.8169V8.7517H24.2927V17.3369C24.2927 18.5348 24.8247 18.9674 26.0216 18.9674H27.8169V22.3616C27.0522 22.4281 25.5561 22.5612 24.7582 22.5612Z" fill="#9C9EAC"/>
<path d="M6.25037 22.6943C2.16103 22.6943 0 20.6645 0 17.5033C0 14.8412 1.52935 12.6782 5.9179 12.3122L9.57504 12.0127C11.0046 11.8796 11.4036 11.447 11.4036 10.715C11.4036 9.25082 10.5059 8.41892 8.77712 8.41892C7.08154 8.41892 6.15063 9.18427 5.9844 10.715H0.930906C0.930906 7.15444 3.19168 4.8584 8.71062 4.8584C14.2296 4.8584 16.4903 7.15444 16.4903 10.715V17.9691C16.4903 20.2984 16.6898 21.7959 17.0223 22.3615H12.401C11.9356 21.7626 11.6696 21.0971 11.6696 19.9657C10.7054 21.7626 9.10958 22.6943 6.25037 22.6943ZM7.74647 19.3002C10.0737 19.3002 11.4036 17.5365 11.4036 15.4402V14.4751C11.1709 14.7414 10.5059 14.9077 9.57504 15.0076L7.71322 15.1407C5.81817 15.307 5.08674 16.0724 5.08674 17.1372C5.08674 18.435 5.88466 19.3002 7.74647 19.3002Z" fill="#9C9EAC"/>
<path fill-rule="evenodd" clip-rule="evenodd" d="M123.292 21.5939C126.144 21.5939 128.456 19.3538 128.456 16.5906C128.456 13.8273 126.144 11.5873 123.292 11.5873C120.44 11.5873 118.128 13.8273 118.128 16.5906C118.128 19.3538 120.44 21.5939 123.292 21.5939ZM123.292 22.4662C126.641 22.4662 129.357 19.8356 129.357 16.5906C129.357 13.3456 126.641 10.715 123.292 10.715C119.943 10.715 117.228 13.3456 117.228 16.5906C117.228 19.8356 119.943 22.4662 123.292 22.4662Z" fill="#9C9EAC"/>
<path d="M122.433 16.8902V16.3084H123.552C123.775 16.3084 123.948 16.2533 124.07 16.1431C124.196 16.0288 124.26 15.8716 124.26 15.6715C124.26 15.4919 124.198 15.3409 124.076 15.2184C123.954 15.0959 123.781 15.0347 123.558 15.0347H122.433V14.4223H123.59C123.868 14.4223 124.112 14.4774 124.323 14.5876C124.533 14.6938 124.696 14.8408 124.809 15.0285C124.927 15.2123 124.986 15.4225 124.986 15.6593C124.986 15.9083 124.927 16.1247 124.809 16.3084C124.696 16.4921 124.533 16.635 124.323 16.7371C124.112 16.8391 123.868 16.8902 123.59 16.8902H122.433ZM121.934 18.7089V14.4223H122.66V18.7089H121.934ZM124.361 18.7089L122.812 16.8473L123.488 16.6085L125.277 18.7089H124.361Z" fill="#9C9EAC"/>
</svg>
