<svg width="57" height="24" viewBox="0 0 57 24" fill="none" xmlns="http://www.w3.org/2000/svg">
<path d="M48.8144 21.7594C43.8985 21.7594 41.1479 18.6594 41.1479 13.847C41.1479 9.06406 43.8985 5.93451 48.8144 5.93451C53.7596 5.93451 56.5102 9.06406 56.5102 13.847C56.5102 18.6594 53.7596 21.7594 48.8144 21.7594ZM48.8144 18.8661C51.3309 18.8661 52.7355 17.2127 52.7355 13.847C52.7355 10.4812 51.3309 8.82787 48.8144 8.82787C46.3272 8.82787 44.9227 10.4812 44.9227 13.847C44.9227 17.2127 46.3272 18.8661 48.8144 18.8661Z" fill="#9C9EAC"/>
<path d="M40.163 21.4641H36.3883V6.22971H40.163V21.4641ZM38.2903 3.95635C36.8858 3.95635 36.0957 3.10015 36.0957 1.97824C36.0957 0.856322 36.8858 0.00012207 38.2903 0.00012207C39.6949 0.00012207 40.4556 0.856322 40.4556 1.97824C40.4556 3.10015 39.6949 3.95635 38.2903 3.95635Z" fill="#9C9EAC"/>
<path d="M34.8187 21.4641H31.0439V0.442932H34.8187V21.4641Z" fill="#9C9EAC"/>
<path d="M22.6928 21.7594C17.7769 21.7594 15.0264 18.6594 15.0264 13.847C15.0264 9.15264 17.6599 5.93451 22.5173 5.93451C27.4039 5.93451 30.0375 9.18216 30.0375 13.6698C30.0375 13.9946 30.0082 14.2898 29.9789 14.6441H18.8011C18.9181 17.7442 20.3812 19.1613 22.6928 19.1613C24.5656 19.1613 25.7946 18.2165 26.2335 16.6518H29.7156C29.0718 19.7813 26.7602 21.7594 22.6928 21.7594ZM22.5173 8.53263C20.4397 8.53263 19.123 9.74312 18.8011 12.1641H26.2627C25.9409 9.74312 24.5948 8.53263 22.5173 8.53263Z" fill="#9C9EAC"/>
<path d="M10.578 4.24182L2.04346 13.4681L10.578 22.6944" stroke="#9C9EAC" stroke-width="3"/>
</svg>
