<svg width="99" height="23" viewBox="0 0 99 23" fill="none" xmlns="http://www.w3.org/2000/svg">
<path d="M98.7202 19.9472H94.9994V8.63231C94.9994 5.89143 94.0166 4.48586 91.4541 4.48586C88.7513 4.48586 86.9962 6.52394 86.9962 9.82705V19.9472H83.2754V1.81526H86.8207V4.97781C87.8035 2.86944 89.5586 1.46387 92.5774 1.46387C96.7194 1.46387 98.7202 3.57223 98.7202 7.96466V19.9472Z" fill="#9C9EAC"/>
<path d="M72.9095 20.2986C67.1528 20.2986 63.9585 16.6441 63.9585 10.8812C63.9585 5.11836 67.1528 1.46387 72.9095 1.46387C78.6662 1.46387 81.8605 5.11836 81.8605 10.8812C81.8605 16.6441 78.6662 20.2986 72.9095 20.2986ZM72.9095 17.4523C76.2442 17.4523 78.1397 15.2737 78.1397 10.8812C78.1397 6.52394 76.2442 4.31016 72.9095 4.31016C69.5748 4.31016 67.6793 6.52394 67.6793 10.8812C67.6793 15.2737 69.5748 17.4523 72.9095 17.4523Z" fill="#9C9EAC"/>
<path d="M65.3805 19.9472H61.2385L56.6051 13.4465L51.9365 19.9472H47.8296L54.4638 10.5299L48.1806 1.81531H52.2875L56.6051 7.85929L60.8875 1.81531H65.0295L58.7463 10.5299L65.3805 19.9472Z" fill="#9C9EAC"/>
<path d="M40.7186 20.2986C34.9619 20.2986 31.7676 16.6441 31.7676 10.8812C31.7676 5.29406 34.7863 1.46387 40.5079 1.46387C46.2296 1.46387 49.2483 5.36434 49.2483 10.565C49.2483 10.9164 49.2132 11.2326 49.1781 11.584H35.4884C35.5937 15.871 37.6296 17.7334 40.7186 17.7334C43.281 17.7334 44.8957 16.3981 45.4573 14.3249H48.8622C48.0549 18.0145 45.4222 20.2986 40.7186 20.2986ZM40.5079 4.02905C37.6998 4.02905 35.8745 5.71574 35.4884 9.12426H45.5275C45.1414 5.71574 43.3161 4.02905 40.5079 4.02905Z" fill="#9C9EAC"/>
<path d="M22.67 6.10352e-05L16.8197 5.12456L0 6.10352e-05L16.8197 22.6943L22.67 17.5698V6.10352e-05Z" fill="#9C9EAC"/>
</svg>
