<svg width="78" height="24" viewBox="0 0 78 24" fill="none" xmlns="http://www.w3.org/2000/svg">
<path d="M70.5085 24C67.5583 24 65.702 22.7036 64.7738 20.5097V23.6676H61.4258V0H64.9395V9.44045C65.9009 7.31302 67.7572 6.18283 70.5085 6.18283C75.1162 6.18283 78.0001 9.47369 78.0001 15.0914C78.0001 20.7092 75.1162 24 70.5085 24ZM69.713 21.3075C72.5306 21.3075 74.4864 19.4128 74.4864 15.0914C74.4864 10.8033 72.5306 8.87535 69.713 8.87535C66.8622 8.87535 64.9395 10.8033 64.9395 15.0914C64.9395 19.4128 66.8622 21.3075 69.713 21.3075Z" fill="#9C9EAC"/>
<path d="M50.9816 24.0002C47.0038 24.0002 44.8491 22.0057 44.8491 18.8146C44.8491 16.255 46.4071 14.2273 50.6501 13.8617L53.965 13.5957C55.9871 13.3963 56.5838 12.9309 56.5838 11.834C56.5838 9.87274 55.4567 8.7093 52.9706 8.7093C50.6501 8.7093 49.3905 9.70653 49.2248 11.834H45.7773C45.7773 8.37689 47.8988 6.18298 52.9374 6.18298C57.9429 6.18298 60.0975 8.37689 60.0975 11.834V19.2799C60.0975 21.6068 60.2964 23.1027 60.6279 23.6678H57.4788C56.9484 23.0029 56.7495 22.3049 56.7495 20.7093C55.8213 22.9032 53.9319 24.0002 50.9816 24.0002ZM51.9429 21.5736C54.9595 21.5736 56.5838 19.2135 56.5838 16.388V14.9254C56.2191 15.3907 55.291 15.6567 53.965 15.7564L51.7772 15.9558C49.3242 16.1553 48.3629 17.1858 48.3629 18.5819C48.3629 20.3437 49.4236 21.5736 51.9429 21.5736Z" fill="#9C9EAC"/>
<path d="M44.1852 23.6676H40.6714V0H44.1852V23.6676Z" fill="#9C9EAC"/>
<path d="M31.5447 24.0002C26.1083 24.0002 23.0918 20.5431 23.0918 15.0916C23.0918 9.64005 26.1083 6.18298 31.5447 6.18298C36.9811 6.18298 39.9976 9.64005 39.9976 15.0916C39.9976 20.5431 36.9811 24.0002 31.5447 24.0002ZM31.5447 21.3076C34.6938 21.3076 36.4839 19.2467 36.4839 15.0916C36.4839 10.9697 34.6938 8.87551 31.5447 8.87551C28.3956 8.87551 26.6056 10.9697 26.6056 15.0916C26.6056 19.2467 28.3956 21.3076 31.5447 21.3076Z" fill="#9C9EAC"/>
<path fill-rule="evenodd" clip-rule="evenodd" d="M17.265 23.5457H8.97778V18.499C6.36188 20.099 3.2883 21.0209 0 21.0209V12.7106C4.95829 12.7106 8.97778 8.67995 8.97778 3.70785V1.38507H17.265V23.5457Z" fill="#9C9EAC"/>
<path fill-rule="evenodd" clip-rule="evenodd" d="M-8.7255e-05 2.76995L4.83397 2.76994L4.83398 8.31011L-7.72476e-05 8.31012L-8.7255e-05 2.76995Z" fill="#9C9EAC"/>
</svg>
