<svg width="62" height="23" viewBox="0 0 62 23" fill="none" xmlns="http://www.w3.org/2000/svg">
<path d="M59.2429 22.5997C57.9303 22.5997 57.1802 21.7824 57.1802 20.7452C57.1802 19.7079 57.9303 18.8907 59.2429 18.8907C60.5555 18.8907 61.2744 19.7079 61.2744 20.7452C61.2744 21.7824 60.5555 22.5997 59.2429 22.5997Z" fill="#9C9EAC"/>
<path d="M57.6013 22.3798H53.9134L49.788 16.5648L45.6313 22.3798H41.9746L47.8815 13.956L42.2871 6.16077H45.9438L49.788 11.5671L53.6009 6.16077H57.2888L51.6944 13.956L57.6013 22.3798Z" fill="#9C9EAC"/>
<path d="M34.1422 22.6943C30.3918 22.6943 28.3604 20.8083 28.3604 17.7909C28.3604 15.3706 29.8293 13.4532 33.8297 13.1075L36.955 12.856C38.8615 12.6674 39.424 12.2274 39.424 11.1901C39.424 9.33559 38.3614 8.23547 36.0174 8.23547C33.8297 8.23547 32.6421 9.17843 32.4858 11.1901H29.2354C29.2354 7.92114 31.2357 5.84662 35.9862 5.84662C40.7054 5.84662 42.7369 7.92114 42.7369 11.1901V18.2309C42.7369 20.4312 42.9244 21.8456 43.237 22.38H40.2679C39.7678 21.7513 39.5803 21.0912 39.5803 19.5825C38.7052 21.657 36.9238 22.6943 34.1422 22.6943ZM35.0486 20.3997C37.8926 20.3997 39.424 18.168 39.424 15.4963V14.1133C39.0803 14.5533 38.2052 14.8048 36.955 14.8991L34.8923 15.0877C32.5796 15.2763 31.6732 16.2507 31.6732 17.5708C31.6732 19.2367 32.6733 20.3997 35.0486 20.3997Z" fill="#9C9EAC"/>
<path d="M27.7338 22.3798H24.4209V6.10352e-05H27.7338V22.3798Z" fill="#9C9EAC"/>
<path d="M16.2128 22.6943C11.0872 22.6943 8.24316 19.4253 8.24316 14.2704C8.24316 9.27273 10.931 5.84662 16.0253 5.84662C21.1196 5.84662 23.8073 9.33559 23.8073 13.9876C23.8073 14.3019 23.7761 14.5848 23.7448 14.8991H11.556C11.6498 18.7338 13.4625 20.3997 16.2128 20.3997C18.4943 20.3997 19.9319 19.2053 20.432 17.3508H23.4636C22.7447 20.6512 20.4007 22.6943 16.2128 22.6943ZM16.0253 8.14117C13.525 8.14117 11.8998 9.64991 11.556 12.6988H20.4945C20.1507 9.64991 18.5255 8.14117 16.0253 8.14117Z" fill="#9C9EAC"/>
<path d="M3.31286 22.3797H0V11.2475L3.15659 6.1607V9.90113C4.00043 7.0408 5.43809 5.97211 7.78209 5.97211C8.21964 5.97211 8.8447 6.0664 9.251 6.1607V9.08389L7.65708 9.02103C5.03179 9.02103 3.31286 11.0641 3.31286 14.6788V22.3797Z" fill="#9C9EAC"/>
</svg>
